<?xml version="1.0" standalone="no"?>
<!DOCTYPE svg PUBLIC "-//W3C//DTD SVG 1.1//EN" "http://www.w3.org/Graphics/SVG/1.1/DTD/svg11.dtd" >
<svg>
<metadata>
Created by FontForge 20120702 at Wed Jul 24 13:42:12 2019

Copyright (c) 2014 by Jeremy Dooley. All rights reserved.
</metadata>
<defs>
<font id="Cabrito-ExtDem" horiz-adv-x="870" >
  <font-face 
    font-family="Cabrito Ext Demi"
    font-weight="700"
    font-stretch="expanded"
    units-per-em="1000"
    panose-1="0 0 0 0 0 0 0 0 0 0"
    ascent="765"
    descent="-235"
    x-height="525"
    cap-height="722"
    bbox="-112 -307 1484 1157.29"
    underline-thickness="50"
    underline-position="-50"
    unicode-range="U+000D-FB04"
  />
<missing-glyph horiz-adv-x="306" 
 />
    <glyph glyph-name="fi" unicode="fi" horiz-adv-x="676" 
d="M131 509v70q0 42 14.5 79t44 65t75 44t108.5 16q97 0 149.5 -33.5t52.5 -95.5q0 -29 -21 -47.5t-47 -18.5t-44.5 17t-18.5 46q0 20 11 37q-15 5 -35.5 7.5t-47.5 2.5q-67 0 -99.5 -29.5t-32.5 -99.5v-60h146q2 0 4 0.5t5 0.5l154 8q15 0 20.5 -6.5t5.5 -21.5v-371
q0 -44 34 -44q14 0 21.5 2t16.5 3q7 1 10 -0.5t3 -9.5v-45q0 -7 -3 -12.5t-12 -8.5q-14 -5 -29 -7t-45 -2q-18 0 -36.5 4t-34 15.5t-25 31t-9.5 51.5v305q-1 9 -4 15t-11 9.5t-21.5 4.5t-35.5 1q-6 0 -9 1h-145v-313q0 -28 10.5 -35.5t36.5 -7.5h29q13 0 16 -3.5t3 -11.5
v-44q0 -11 -4 -14.5t-15 -3.5h-261q-12 0 -16 3.5t-4 14.5v44q0 8 3.5 11.5t16.5 3.5h29q26 0 36.5 7.5t10.5 35.5v313h-73q-15 0 -19.5 3t-4.5 17v34q0 12 3.5 17t14.5 5h79z" />
    <glyph glyph-name="fl" unicode="fl" horiz-adv-x="688" 
d="M131 509v71q0 103 54.5 153t167.5 50q115 0 174 -51t59 -152v-461q0 -44 33 -44q15 0 22 2t16 3q7 1 10.5 -0.5t3.5 -9.5v-45q0 -7 -3 -12.5t-12 -8.5q-14 -5 -29 -7t-45 -2q-18 0 -37 4t-34 15.5t-25 31t-10 51.5v487q0 66 -32.5 93t-87.5 27q-57 0 -86.5 -27.5
t-29.5 -92.5v-75h130q14 0 18.5 -2t4.5 -13v-43q0 -18 -22 -18h-131v-313q0 -28 10.5 -35.5t36.5 -7.5h29q13 0 16 -3.5t3 -11.5v-44q0 -11 -4 -14.5t-15 -3.5h-261q-12 0 -16 3.5t-4 14.5v44q0 8 3.5 11.5t16.5 3.5h29q26 0 36.5 7.5t10.5 34.5v314h-73q-15 0 -19.5 3
t-4.5 17v34q0 12 3.5 17t14.5 5h79z" />
    <glyph glyph-name="ffi" unicode="ffi" horiz-adv-x="1007" 
d="M237 447v-327q0 -28 10 -35.5t37 -7.5h29q13 0 16 -3.5t3 -11.5v-44q0 -11 -4 -14.5t-15 -3.5h-262q-11 0 -15 3.5t-4 14.5v44q0 8 3 11.5t16 3.5h29q27 0 37.5 7.5t10.5 35.5v327h-74q-14 0 -18.5 3t-4.5 17v36q0 12 3.5 17t14.5 5h79v22q0 92 51 139t163 47
q104 0 153 -54q25 47 77.5 75.5t135.5 28.5q98 0 150.5 -33.5t52.5 -95.5q0 -29 -21 -47.5t-48 -18.5q-26 0 -44.5 17t-18.5 46q0 30 20 48q-15 5 -35 7.5t-47 2.5q-69 0 -102.5 -29.5t-33.5 -99.5v-55h145l154 9q15 0 20.5 -6.5t5.5 -21.5v-387q0 -44 33 -44q16 0 22.5 2
t16.5 3q7 1 10 -0.5t3 -9.5v-45q0 -7 -2.5 -12.5t-11.5 -8.5q-14 -5 -29.5 -7t-45.5 -2q-18 0 -36.5 4t-34 15.5t-25 31t-9.5 51.5v314q0 12 -2.5 19t-10 10.5t-22 5t-37.5 1.5h-144v-327q0 -28 10.5 -35.5t36.5 -7.5h29q14 0 17 -3.5t3 -11.5v-44q0 -11 -4.5 -14.5
t-15.5 -3.5h-262q-11 0 -15 3.5t-4 14.5v44q0 8 3 11.5t16 3.5h30q26 0 36 7.5t10 35.5v327h-234zM471 525v55q-17 79 -118 79q-58 0 -87 -24t-29 -81v-29h234z" />
    <glyph glyph-name="f_f_j" unicode="ffj" horiz-adv-x="981" 
d="M237 447v-327q0 -28 10 -35.5t37 -7.5h29q13 0 16 -3.5t3 -11.5v-44q0 -11 -4 -14.5t-15 -3.5h-262q-11 0 -15 3.5t-4 14.5v44q0 8 3 11.5t16 3.5h29q27 0 37.5 7.5t10.5 35.5v327h-74q-14 0 -18.5 3t-4.5 17v36q0 12 3.5 17t14.5 5h79v22q0 92 51 139t163 47
q57 0 94.5 -13t60.5 -37q26 45 78 72.5t133 27.5q98 0 150.5 -33.5t52.5 -95.5q0 -29 -21 -47.5t-48 -18.5q-26 0 -44.5 17t-18.5 46q0 21 11 37q-14 5 -33 7.5t-45 2.5q-67 0 -99 -27t-32 -91v-55h145l154 9q15 0 20.5 -6.5t5.5 -21.5v-564q0 -45 -11 -81t-34 -62
t-58.5 -40t-84.5 -14q-36 0 -63.5 9t-45.5 25t-27 36t-9 43q0 29 19 48t48 19q26 0 45 -17t19 -46q0 -27 -20 -47q5 -1 9 -1h9q51 0 73 28t22 78v497q-1 9 -4 15t-11 9.5t-22 4.5t-35 1h-144v-327q0 -28 10.5 -35.5t36.5 -7.5h29q14 0 17 -3.5t3 -11.5v-44q0 -11 -4.5 -14.5
t-15.5 -3.5h-262q-11 0 -15 3.5t-4 14.5v44q0 8 3 11.5t16 3.5h30q25 0 35.5 7.5t10.5 34.5v328h-234zM471 525v55q-17 79 -118 79q-58 0 -87 -24t-29 -81v-29h234z" />
    <glyph glyph-name="ffl" unicode="ffl" horiz-adv-x="1040" 
d="M818 571q0 37 -8 61.5t-23.5 39.5t-38 21t-50.5 6q-57 0 -87 -28.5t-30 -97.5v-48h122q14 0 18.5 -2.5t4.5 -12.5v-44q0 -19 -22 -19h-123v-328q0 -27 10.5 -34.5t36.5 -7.5h29q14 0 17 -3.5t3 -11.5v-44q0 -11 -4.5 -14.5t-15.5 -3.5h-262q-11 0 -15 3.5t-4 14.5v44
q0 8 3 11.5t16 3.5h30q25 0 35.5 7.5t10.5 34.5v328h-234v-327q0 -28 10 -35.5t37 -7.5h29q13 0 16 -3.5t3 -11.5v-44q0 -11 -4 -14.5t-15 -3.5h-262q-11 0 -15 3.5t-4 14.5v44q0 8 3 11.5t16 3.5h29q25 0 35.5 6t12.5 29v335h-74q-14 0 -18.5 3t-4.5 17v36q0 12 3.5 17
t14.5 5h79v22q0 92 51 139t163 47q55 0 91.5 -12t59.5 -34q48 91 201 91q118 0 176 -45.5t58 -150.5v-462q0 -28 10 -35.5t36 -7.5h30q13 0 16 -3.5t3 -11.5v-44q0 -11 -4 -14.5t-15 -3.5h-261q-12 0 -16.5 3.5t-4.5 14.5v44q0 8 4 11.5t17 3.5h28q27 0 37 7.5t10 35.5v451z
M471 580q-17 79 -118 79q-58 0 -87 -24t-29 -81v-29h234v55z" />
    <glyph glyph-name="f_j" unicode="fj" horiz-adv-x="652" 
d="M131 509v70q0 42 14 79t43 65t73.5 44t105.5 16q97 0 150 -33.5t53 -95.5q0 -29 -21 -47.5t-48 -18.5q-26 0 -44 17t-18 46q0 22 10 36q-15 5 -35.5 8t-47.5 3q-58 0 -92 -29.5t-34 -99.5v-60h146q2 0 4 0.5t5 0.5l154 8q15 0 20.5 -6.5t5.5 -21.5v-548q0 -45 -11 -81
t-33.5 -62t-58 -40t-84.5 -14q-36 0 -63 9t-45 25t-27 36t-9 43q0 29 19 48t48 19q26 0 45 -17t19 -46q0 -27 -20 -47q4 0 8 -0.5t9 -0.5q51 0 73 28t22 78v435h-1v41q0 11 -2.5 18t-10 11t-21.5 5.5t-38 1.5q-6 0 -9 1h-145v-313q0 -28 10.5 -35.5t36.5 -7.5h29
q13 0 16 -3.5t3 -11.5v-44q0 -11 -4 -14.5t-15 -3.5h-261q-12 0 -16 3.5t-4 14.5v44q0 8 3.5 11.5t16.5 3.5h29q26 0 36.5 7.5t10.5 34.5v314h-73q-15 0 -19.5 3t-4.5 17v34q0 12 3.5 17t14.5 5h79z" />
    <glyph glyph-name="ff" unicode="ff" horiz-adv-x="818" 
d="M699 651q0 17 7 30t18 22q-17 6 -43 6q-50 0 -75 -28.5t-25 -94.5v-61h165q14 0 18.5 -2.5t4.5 -12.5v-43q0 -18 -22 -18h-166v-329q0 -28 10.5 -35.5t36.5 -7.5h29q14 0 17 -3.5t3 -11.5v-44q0 -11 -4.5 -14.5t-15.5 -3.5h-262q-11 0 -15 3.5t-4 14.5v44q0 8 3 11.5
t16 3.5h30q26 0 36 7.5t10 35.5v329h-234v-329q0 -28 10 -35.5t37 -7.5h29q13 0 16 -3.5t3 -11.5v-44q0 -11 -4 -14.5t-15 -3.5h-262q-11 0 -15 3.5t-4 14.5v44q0 8 3 11.5t16 3.5h29q27 0 37.5 7.5t10.5 35.5v329h-74q-14 0 -18.5 3t-4.5 16v35q0 12 3.5 17t14.5 5h79v22
q0 92 51 139t163 47q101 0 150 -51q22 45 65.5 73t112.5 28q76 0 118 -33.5t42 -95.5q0 -29 -21 -47.5t-47 -18.5t-44.5 17t-18.5 46zM471 525v55q-17 79 -118 79q-58 0 -87 -24t-29 -81v-29h234z" />
    <glyph glyph-name=".notdef" horiz-adv-x="306" 
 />
    <glyph glyph-name="NULL" horiz-adv-x="0" 
 />
    <glyph glyph-name="NULL" horiz-adv-x="0" 
 />
    <glyph glyph-name="nonmarkingreturn" unicode="&#xd;" horiz-adv-x="250" 
 />
    <glyph glyph-name="space" unicode=" " horiz-adv-x="250" 
 />
    <glyph glyph-name="E" unicode="E" horiz-adv-x="689" 
d="M64 0q-11 0 -15.5 3.5t-4.5 14.5v39q0 20 18 20q23 0 37.5 1.5t23 7t11.5 14.5t3 24v478q0 22 -7.5 31t-25.5 11h-42q-18 0 -18 18v42q0 11 4 14.5t18 3.5h502q15 0 24.5 -1t14.5 -5.5t7.5 -14t3.5 -26.5l8 -115q1 -14 -2 -19t-17 -5h-43q-13 0 -17.5 4t-6.5 18l-5 41
q-2 17 -8 26.5t-19 14t-34 5.5t-54 1h-169v-252h113q13 0 22.5 5.5t11.5 22.5l3 33q2 12 5.5 15t16.5 3h38q12 0 15 -4t3 -15v-197q0 -10 -3 -14.5t-14 -4.5h-39q-13 0 -16.5 3.5t-5.5 14.5l-4 33q-2 17 -11 23t-22 6h-113v-242h216q25 0 40.5 1.5t24.5 7.5t14 17t10 30
l8 61q3 10 8 14t17 4h43q12 0 15.5 -4.5t2.5 -15.5l-17 -158q-2 -23 -10 -28t-27 -5h-532v0z" />
    <glyph glyph-name="H" unicode="H" horiz-adv-x="862" 
d="M726 124q0 -31 10 -39t36 -8h28q13 0 16 -3t3 -12v-44q0 -10 -4 -14t-15 -4h-261q-11 0 -15 3.5t-4 14.5v44q0 8 3.5 11.5t15.5 3.5h27q26 0 36 9t10 38v199h-362v-199q0 -31 10.5 -39t36.5 -8h26q14 0 17 -3t3 -12v-44q0 -10 -4 -14t-16 -4h-259q-12 0 -16 3.5t-4 14.5
v44q0 8 3.5 11.5t16.5 3.5h26q26 0 36 9t10 38v474q0 29 -9.5 38t-35.5 9h-28q-13 0 -16.5 3t-3.5 13v42q0 12 4.5 15.5t15.5 3.5h260q11 0 15.5 -3.5t4.5 -15.5v-42q0 -11 -3.5 -13.5t-16.5 -2.5h-29q-26 0 -35 -8t-9 -39v-198h362v198q0 29 -9.5 38t-35.5 9h-28
q-13 0 -16.5 3t-3.5 13v42q0 12 4.5 15.5t15.5 3.5h260q11 0 15 -3.5t4 -15.5v-42q0 -11 -3 -13.5t-16 -2.5h-29q-26 0 -35 -8t-9 -39v-474v0z" />
    <glyph glyph-name="J.001" horiz-adv-x="562" 
d="M28 143q0 34 23.5 54.5t54.5 20.5q29 0 51 -19.5t22 -53.5q0 -26 -14 -43t-34 -25q15 -12 34.5 -17.5t42.5 -5.5q61 0 88 38.5t27 102.5v403q0 29 -9.5 38t-34.5 9h-28q-13 0 -16.5 3t-3.5 13v42q0 12 4 15.5t16 3.5h259q11 0 15.5 -3.5t4.5 -15.5v-42q0 -11 -3.5 -13.5
t-16.5 -2.5h-29q-25 0 -34 -8t-9 -39v-380q0 -51 -13.5 -93t-40.5 -71.5t-69 -46t-99 -16.5q-51 0 -87 12.5t-58.5 33.5t-32.5 48.5t-10 57.5z" />
    <glyph glyph-name="M" unicode="M" horiz-adv-x="1047" 
d="M538 87l239 617q5 11 11 14.5t23 3.5h171q11 0 15.5 -3.5t4.5 -14.5v-37q0 -8 -4 -13.5t-16 -6.5l-38 -1q-11 0 -23.5 -6t-12.5 -34v-486q0 -27 6.5 -35t29.5 -8h40q14 0 18 -4t4 -14v-41q0 -11 -5 -14.5t-17 -3.5h-258q-11 0 -15.5 3.5t-4.5 14.5v41q0 10 3.5 14t16.5 4
h35q23 0 33 8.5t10 34.5v418l-203 -527q-5 -9 -10 -12t-22 -3h-90q-13 0 -18 3t-10 11l-224 541v-439q0 -24 10.5 -29.5t37.5 -5.5h30q12 0 16 -2.5t4 -12.5v-44q0 -11 -4.5 -14.5t-15.5 -3.5h-246q-11 0 -15.5 3t-4.5 14v45q0 10 3.5 12.5t16.5 2.5h28q27 0 38 6t11 29v493
q-2 29 -14 35t-35 7h-17q-12 1 -16 5t-4 12v40q0 11 4.5 14.5t15.5 3.5h190q14 0 19 -6.5t9 -16.5z" />
    <glyph glyph-name="N" unicode="N" horiz-adv-x="871" 
d="M743 8q0 -9 -4 -12.5t-18 -3.5h-29q-11 0 -18 2.5t-14 10.5l-432 532v-422q0 -24 10.5 -31t36.5 -7h26q13 0 16 -2.5t3 -12.5v-44q0 -11 -4 -14.5t-15 -3.5h-239q-11 0 -15 3.5t-4 14.5v43q0 10 3.5 13t15.5 3h25q26 0 37.5 7.5t11.5 30.5v495q-2 22 -12 28.5t-31 6.5
h-29q-12 0 -15.5 3t-3.5 11v46q0 11 4 14t15 3h140q23 0 35 -15l412 -519v419q0 24 -10.5 31t-36.5 7h-26q-13 0 -16.5 2.5t-3.5 12.5v43q0 12 4 15.5t16 3.5h238q11 0 15.5 -3.5t4.5 -14.5v-43q0 -10 -3.5 -13t-16.5 -3h-25q-26 0 -37 -7.5t-11 -30.5v-599v0z" />
    <glyph glyph-name="O" unicode="O" 
d="M43 358q0 64 18.5 131t63 121t120 88.5t189.5 34.5q109 0 184.5 -31.5t121.5 -83.5t66.5 -119t20.5 -137q0 -64 -18 -130.5t-63 -121t-120.5 -89t-189.5 -34.5q-110 0 -185 31.5t-121.5 83.5t-66.5 118.5t-20 137.5zM433 651q-79 0 -131.5 -27t-83.5 -69t-43.5 -93.5
t-12.5 -101.5q0 -47 12 -98t43 -94t84 -71t136 -28q81 0 133.5 27.5t82.5 70t42 93.5t12 99q0 46 -11.5 97t-42 94.5t-84 72t-136.5 28.5z" />
    <glyph glyph-name="P" unicode="P" horiz-adv-x="700" 
d="M251 272v-148q0 -31 10.5 -39t36.5 -8h26q14 0 17 -3t3 -12v-44q0 -10 -4 -14t-16 -4h-259q-12 0 -16 3.5t-4 14.5v44q0 8 3.5 11.5t16.5 3.5h26q26 0 36 9t10 38v478q0 22 -7.5 31t-25.5 11h-42q-18 0 -18 18v42q0 11 4 14.5t18 3.5h255q85 0 150 -11t108.5 -37
t65.5 -68.5t22 -105.5q0 -58 -20.5 -100.5t-58.5 -71t-91.5 -42.5t-118.5 -14h-127zM342 348q206 0 206 152q0 80 -53.5 113t-160.5 33h-83v-298h91z" />
    <glyph glyph-name="Q" unicode="Q" 
d="M43 358q0 64 18.5 131t63 121t120 88.5t189.5 34.5q109 0 184.5 -31.5t121.5 -83.5t66.5 -119t20.5 -137q0 -50 -10.5 -101.5t-36 -98t-67 -85t-102.5 -61.5q18 -8 35 -20t35 -31q21 -22 41 -37.5t43 -15.5q11 0 21.5 1.5t28.5 9.5q9 3 13.5 0.5t4.5 -13.5v-48
q0 -15 -20 -23q-34 -16 -73 -16q-27 0 -48.5 5.5t-41 16.5t-38.5 27.5t-41 39.5q-31 29 -62 46.5t-79 28.5q-108 1 -182 33t-119.5 83.5t-65.5 118t-20 136.5zM433 651q-79 0 -131.5 -27t-83.5 -69t-43.5 -93.5t-12.5 -101.5q0 -47 12 -98t43 -94t84 -71t136 -28
q81 0 133.5 27.5t82.5 70t42 93.5t12 99q0 46 -11.5 97t-42 94.5t-84 72t-136.5 28.5z" />
    <glyph glyph-name="R" unicode="R" horiz-adv-x="717" 
d="M250 292v-168q0 -31 10.5 -39t36.5 -8h26q14 0 17 -3t3 -12v-44q0 -10 -4 -14t-16 -4h-259q-12 0 -16 3.5t-4 14.5v44q0 8 3.5 11.5t16.5 3.5h26q26 0 36 9t10 38v478q0 22 -7.5 31t-25.5 11h-42q-18 0 -18 18v42q0 11 4 14.5t18 3.5h255q154 0 230.5 -47.5t76.5 -164.5
q0 -85 -43 -134.5t-115 -69.5q18 -11 34 -27t31 -40t30.5 -56.5t34.5 -74.5q10 -22 21 -28.5t28 -6.5q10 0 20.5 2t22.5 7q18 8 18 -8v-43q0 -11 -4 -16t-16 -10q-14 -7 -35 -11.5t-44 -4.5q-15 0 -31 2t-31 10t-29 24t-27 44q-14 29 -29.5 67.5t-36.5 73t-50 58.5t-70 24
h-56zM335 368q170 0 170 142q0 73 -44.5 104.5t-132.5 31.5h-78v-278h85z" />
    <glyph glyph-name="U" unicode="U" horiz-adv-x="854" 
d="M432 83q47 0 85 11t65 34.5t41.5 60.5t14.5 89v325q0 26 -9.5 34t-35.5 8h-28q-12 0 -16 3t-4 13v42q0 12 4.5 15.5t15.5 3.5h243q12 0 16 -3.5t4 -15.5v-42q0 -11 -3.5 -13.5t-16.5 -2.5h-29q-25 0 -34 -7.5t-9 -34.5v-330q0 -143 -79 -211.5t-228 -68.5
q-156 0 -233.5 69.5t-77.5 200.5v335q0 29 -9.5 38t-35.5 9h-28q-13 0 -16.5 3t-3.5 13v42q0 12 4.5 15.5t15.5 3.5h260q11 0 15.5 -3.5t4.5 -15.5v-42q0 -11 -3.5 -13.5t-16.5 -2.5h-29q-26 0 -35 -8t-9 -39v-322q0 -99 50.5 -146t149.5 -47z" />
    <glyph glyph-name="d.001" horiz-adv-x="655" 
d="M463 98q-15 -24 -33.5 -43.5t-42.5 -33.5t-54.5 -22t-69.5 -8q-106 0 -163.5 60t-57.5 180q0 60 16 116t49 100t84 70.5t121 26.5q48 0 86.5 -14t64.5 -44v249q0 15 5 22t20 6l149 -8q15 -1 20 -5.5t5 -15.5v-36q0 -7 -4.5 -13.5t-21.5 -7.5h-32q-18 -1 -25.5 -9
t-7.5 -28v-621q0 -10 -2 -14.5t-12 -4.5h-67q-14 0 -14 14zM288 74q39 0 71 15t55 43.5t36 70.5t13 96q0 48 -10 79.5t-27 50.5t-41 27t-51 8q-45 0 -78.5 -18.5t-55 -49.5t-32.5 -72t-11 -86q0 -74 31 -119t100 -45z" />
    <glyph glyph-name="e" unicode="e" horiz-adv-x="590" 
d="M306 544q112 0 170.5 -45t58.5 -128q0 -76 -54.5 -122.5t-174.5 -46.5q-38 0 -76 5t-72 14q8 -79 50.5 -113t126.5 -34q48 0 87 8t59 16q19 6 29.5 10.5t17.5 4.5q9 0 9 -12v-47q0 -9 -4 -14.5t-18 -12.5q-26 -13 -78 -23.5t-112 -10.5q-75 0 -129 19.5t-88.5 55
t-50.5 85.5t-16 110q0 63 17 115t50 88.5t82.5 57t115.5 20.5zM306 468q-71 0 -107.5 -45t-41.5 -129q35 -9 72 -13.5t68 -4.5q68 0 103 24t35 74q0 49 -33 71.5t-96 22.5z" />
    <glyph glyph-name="f" unicode="f" horiz-adv-x="410" 
d="M128 524v55q0 101 47 152.5t150 51.5q74 0 116 -31.5t45 -88.5q0 -1 0.5 -1.5t0.5 -1.5v-6q-1 -29 -22 -46.5t-47 -17.5t-44.5 16.5t-18.5 45.5q0 16 6 29.5t17 22.5q-18 5 -41 5q-50 0 -75 -28.5t-25 -94.5v-62h130q13 0 18 -2.5t5 -13.5v-42q0 -18 -22 -18h-131v-328
q0 -28 10 -35.5t37 -7.5h29q13 0 16 -3.5t3 -11.5v-44q0 -11 -4 -14.5t-15 -3.5h-262q-11 0 -15 3.5t-4 14.5v44q0 8 3 11.5t16 3.5h29q26 0 37 7.5t11 34.5v329h-74q-14 0 -18.5 3t-4.5 16v34q0 12 3.5 17.5t14.5 5.5h79z" />
    <glyph glyph-name="g.001" horiz-adv-x="674" 
d="M286 -167q40 0 72.5 11t56 35t36 63t12.5 96v60q-15 -24 -33.5 -43.5t-42.5 -33.5t-54.5 -22t-69.5 -8q-106 0 -163.5 60t-57.5 180q0 60 16 116t49 100t84 70.5t121 26.5q48 0 86.5 -14t64.5 -44v21q0 15 5 21.5t20 6.5l148 -9q12 -1 16 -4t4 -14v-42q0 -17 -19 -18h-33
q-19 -2 -25.5 -9.5t-7.5 -26.5v-362q0 -79 -20 -135.5t-57 -93t-89 -53.5t-116 -17q-45 0 -87 8t-73.5 26.5t-50.5 49t-19 75.5q0 29 20.5 48.5t46.5 19.5q25 0 44.5 -17.5t19.5 -46.5q0 -17 -7.5 -30.5t-19.5 -22.5q23 -14 55.5 -21t67.5 -7zM288 74q39 0 71 15t55 43.5
t36 70.5t13 96q0 48 -10 79.5t-27 50.5t-41 27t-51 8q-45 0 -78.5 -18.5t-55 -49.5t-32.5 -72t-11 -86q0 -74 31 -119t100 -45z" />
    <glyph glyph-name="h" unicode="h" horiz-adv-x="690" 
d="M111 641q0 20 -7 27.5t-25 8.5l-40 1q-13 1 -16 6.5t-3 14.5v37q0 12 3.5 15t15.5 4l155 9q15 0 20.5 -6.5t5.5 -21.5v-282q26 47 76 68.5t113 21.5q39 0 72 -9.5t57 -30.5t37.5 -54.5t13.5 -80.5v-250q0 -44 34 -44q15 0 22 2t16 3q7 1 10.5 -0.5t3.5 -9.5v-45
q0 -7 -3 -12.5t-12 -8.5q-14 -5 -29 -7t-45 -2q-18 0 -36.5 4t-34 15.5t-25 31t-9.5 51.5v256q0 45 -25 73.5t-83 28.5q-77 0 -115 -56t-38 -159v-128q1 -23 11.5 -29t35.5 -6h29q12 0 16 -3.5t4 -11.5v-44q0 -11 -4.5 -14.5t-15.5 -3.5h-262q-11 0 -15 3.5t-4 14.5v44
q0 8 3.5 11.5t15.5 3.5h30q26 0 36.5 7.5t10.5 35.5v521v0z" />
    <glyph glyph-name="i" unicode="i" horiz-adv-x="349" 
d="M128 418q-2 16 -8.5 22t-23.5 7l-40 1q-12 1 -15.5 6.5t-3.5 14.5v37q0 12 4 15t15 4l155 9q16 0 21 -6.5t5 -21.5v-394q1 -23 11.5 -29t35.5 -6h29q13 0 16.5 -3.5t3.5 -11.5v-44q0 -11 -4.5 -14.5t-15.5 -3.5h-262q-11 0 -15 3.5t-4 14.5v44q0 8 3.5 11.5t15.5 3.5h30
q26 0 36.5 7.5t10.5 35.5v298zM105 692q0 35 22.5 56t54.5 21q29 0 49 -20t20 -52q0 -35 -23.5 -54t-55.5 -19q-28 0 -47.5 18t-19.5 50z" />
    <glyph glyph-name="j" unicode="j" horiz-adv-x="305" 
d="M-111 -142q0 29 19 48t48 19q26 0 45 -17t19 -46q0 -14 -5.5 -26t-14.5 -21q5 -1 9 -1h9q51 0 72.5 28t21.5 78v498q-2 16 -8.5 22.5t-23.5 7.5l-40 1q-12 1 -15 6.5t-3 13.5v38q0 12 3.5 15t14.5 4l156 8q15 1 20 -6t5 -22v-564q0 -45 -11 -81t-34 -62t-58 -40t-84 -14
q-36 0 -63.5 9t-45.5 25t-27 36t-9 43zM88 692q0 35 22.5 56t54.5 21q29 0 49.5 -20t20.5 -52q0 -35 -24 -54t-55 -19q-29 0 -48.5 18t-19.5 50z" />
    <glyph glyph-name="k" unicode="k" horiz-adv-x="654" 
d="M339 282l166 -140q21 -17 34.5 -29.5t23.5 -20.5t18 -11.5t18 -3.5h30q10 0 12.5 -4t2.5 -13v-42q0 -11 -4.5 -14.5t-15.5 -3.5h-250q-11 0 -15 3.5t-4 14.5v39q0 9 4 14.5t15 5.5h22q18 0 20.5 5.5t-19.5 22.5l-180 145v-130q0 -28 8 -35.5t28 -7.5h27q12 0 15.5 -3.5
t3.5 -11.5v-44q0 -11 -4 -14.5t-15 -3.5h-246q-11 0 -15 3.5t-4 14.5v44q0 8 3.5 11.5t15.5 3.5h28q26 0 36 7.5t10 35.5v520q0 20 -7 28t-24 9h-38q-13 1 -16 6.5t-3 14.5v37q0 13 3.5 16t15.5 4l153 8q15 0 20 -6.5t5 -21.5v-458l182 142q21 17 16.5 23t-20.5 6h-34
q-10 0 -13 5t-3 13v42q0 11 4 14t15 3h244q11 0 15 -3t4 -15v-40q0 -8 -3.5 -13.5t-14.5 -5.5h-24q-14 0 -23 -1.5t-17.5 -5.5t-18 -11t-24.5 -19z" />
    <glyph glyph-name="l.ital" horiz-adv-x="303" 
d="M86 640q0 20 -7 28t-25 9h-40q-12 1 -15.5 6.5t-3.5 14.5v37q0 13 4 16t15 4l155 8q16 0 21 -6.5t5 -21.5v-616q0 -44 34 -44q14 0 21 2t16 3q7 1 10.5 -0.5t3.5 -9.5v-45q0 -7 -2.5 -12.5t-11.5 -8.5q-14 -5 -29 -7t-46 -2q-18 0 -36.5 4t-34 15.5t-25 31t-9.5 51.5v543
v0z" />
    <glyph glyph-name="m" unicode="m" horiz-adv-x="1033" 
d="M376 454q-73 0 -108.5 -51t-35.5 -145v-138q0 -28 7.5 -35.5t26.5 -7.5h26q12 0 15.5 -3t3.5 -12v-44q0 -11 -4 -14.5t-15 -3.5h-240q-11 0 -15 3.5t-4 14.5v44q0 9 3.5 12t15.5 3h25q26 0 36 8.5t10 34.5v292q0 11 -2.5 18t-10.5 11t-22 5.5t-38 1.5q-11 0 -14 4.5
t-3 13.5v41q0 11 4 14.5t15 4.5l154 8q15 0 20.5 -6.5t5.5 -21.5v-47q25 45 72 65t107 20q57 0 99 -23t61 -74q24 51 74.5 74t116.5 23q37 0 68.5 -9.5t54.5 -30.5t36 -54.5t13 -80.5v-250q0 -44 34 -44q15 0 22 2t16 3q7 1 10 -0.5t3 -9.5v-45q0 -7 -2.5 -12.5t-11.5 -8.5
q-14 -5 -29.5 -7t-44.5 -2q-18 0 -37 4t-34.5 15.5t-25 31t-9.5 51.5v256q0 45 -22.5 73t-75.5 28q-73 0 -108.5 -51t-35.5 -145v-138q0 -28 10 -35.5t35 -7.5h26q13 0 16.5 -3t3.5 -12v-44q0 -11 -4.5 -14.5t-15.5 -3.5h-240q-12 0 -15.5 3.5t-3.5 14.5v44q0 9 3 12t16 3
h25q20 0 27.5 8.5t7.5 34.5v233q0 45 -22.5 73t-75.5 28z" />
    <glyph glyph-name="n" unicode="n" horiz-adv-x="704" 
d="M126 418q-1 9 -4 15t-11.5 9.5t-22 4.5t-35.5 1q-11 0 -14.5 4.5t-3.5 13.5v41q0 11 4.5 14.5t15.5 4.5l149 8q15 0 20 -6.5t5 -21.5v-65q23 53 76 78t119 25q39 0 72 -9.5t57 -30.5t37.5 -54.5t13.5 -80.5v-250q0 -44 34 -44q14 0 21.5 2t16.5 3q7 1 10.5 -0.5t3.5 -9.5
v-45q0 -7 -3 -12.5t-12 -8.5q-14 -5 -29 -7t-46 -2q-18 0 -36.5 4t-34 15.5t-25 31t-9.5 51.5v256q0 45 -24.5 73.5t-82.5 28.5q-78 0 -115.5 -56t-37.5 -159v-120q0 -28 10 -35.5t37 -7.5h28q13 0 16.5 -3.5t3.5 -11.5v-44q0 -11 -4 -14.5t-16 -3.5h-261q-11 0 -15 3.5
t-4 14.5v44q0 8 3.5 11.5t15.5 3.5h30q26 0 36.5 7.5t10.5 35.5v298v0z" />
    <glyph glyph-name="o" unicode="o" horiz-adv-x="632" 
d="M41 266q0 57 15 108t48 88.5t85.5 59.5t126.5 22t126 -22t85 -59.5t48.5 -88.5t15.5 -108t-15.5 -107.5t-48.5 -89t-85 -60.5t-126 -22t-126.5 22t-85.5 60.5t-48 89t-15 107.5zM316 468q-43 0 -73.5 -14.5t-49.5 -41t-28 -64t-9 -83.5t9 -83t28 -63.5t49.5 -41
t73.5 -14.5t73.5 14.5t49.5 41t28 63.5t9 83t-9 83.5t-28 64t-49.5 41t-73.5 14.5z" />
    <glyph glyph-name="p.001" horiz-adv-x="681" 
d="M107 412q0 11 -2.5 18t-10 11t-22 5.5t-37.5 1.5q-11 0 -15 4.5t-4 13.5v41q0 11 4.5 14.5t15.5 4.5l154 8q15 0 20.5 -6.5t5.5 -21.5v-74q13 24 30.5 44.5t41.5 35.5t55.5 23.5t73.5 8.5q109 0 165 -60t56 -181q0 -62 -15 -117.5t-46 -98.5t-79 -68t-113 -25
q-38 0 -66 8t-48.5 18.5t-33.5 22t-21 19.5v-191q0 -28 10 -35.5t37 -7.5h29q13 0 16.5 -3.5t3.5 -11.5v-44q0 -11 -4.5 -14.5t-15.5 -3.5h-262q-11 0 -15 3.5t-4 14.5v44q0 8 3.5 11.5t15.5 3.5h30q26 0 36.5 7.5t10.5 35.5v541zM393 464q-46 0 -79 -20t-54.5 -52
t-31.5 -73t-10 -84q0 -30 8.5 -58t25.5 -50.5t42.5 -36t60.5 -13.5q46 0 78 18.5t52 49t29.5 70.5t9.5 82q0 80 -32 123.5t-99 43.5z" />
    <glyph glyph-name="q" unicode="q" horiz-adv-x="663" 
d="M560 -129q0 -28 10 -35.5t37 -7.5h24q12 0 16 -3.5t4 -12.5v-42q0 -12 -4 -15.5t-16 -3.5h-272q-11 0 -15.5 3.5t-4.5 15.5v42q0 16 20 16h24q38 0 53.5 8.5t15.5 34.5v199q-35 -45 -83.5 -64t-104.5 -19q-50 0 -90.5 14.5t-69.5 45t-45 78.5t-16 116q0 143 68.5 222
t194.5 79q49 0 83 -12t63 -30v7q0 15 5 21.5t20 6.5l148 -9q12 -1 16 -4t4 -14v-42q0 -17 -19 -18h-33q-21 -2 -27 -11t-6 -34v-532zM292 70q71 0 110.5 48t49.5 142v160q-20 16 -54 27t-74 11q-45 0 -77 -17t-52.5 -45.5t-29.5 -67t-9 -81.5q0 -38 7.5 -70t24 -56t42 -37.5
t62.5 -13.5z" />
    <glyph glyph-name="r" unicode="r" horiz-adv-x="541" 
d="M126 412q0 11 -2.5 18t-10.5 11t-22 5.5t-38 1.5q-11 0 -14.5 4.5t-3.5 13.5v41q0 11 4.5 14.5t15.5 4.5l154 8q15 0 20.5 -6.5t5.5 -21.5v-105q6 18 18.5 43t34 47t54 37.5t77.5 15.5q60 0 87 -27t27 -70q0 -30 -21 -48t-48 -18q-26 0 -44 16.5t-18 45.5q0 6 1 12t3 12
q-41 0 -73 -24t-53.5 -61t-33 -81.5t-11.5 -84.5v-96q0 -28 10 -35.5t37 -7.5h50q13 0 16.5 -3.5t3.5 -11.5v-45q0 -10 -4 -13.5t-15 -3.5h-284q-11 0 -15 3.5t-4 14.5v44q0 9 3.5 12t15.5 3h28q26 0 37.5 8.5t11.5 34.5v292v0z" />
    <glyph glyph-name="s" unicode="s" horiz-adv-x="541" 
d="M487 421q0 -25 -16.5 -44t-45.5 -19t-46.5 16t-17.5 45q0 21 11 38q-18 7 -41.5 11.5t-52.5 4.5q-60 0 -85.5 -19.5t-25.5 -49.5q0 -32 24.5 -48t61.5 -26.5t80 -20t80 -27t61.5 -48t24.5 -83.5q0 -83 -58.5 -123.5t-170.5 -40.5q-50 0 -91.5 8t-71.5 24t-47 40t-17 57
q0 29 17 47.5t48 18.5q29 0 45.5 -17t16.5 -44q0 -24 -15 -42q23 -11 51.5 -16t60.5 -5q60 0 94.5 18.5t34.5 61.5q0 33 -24.5 49.5t-61.5 27t-79.5 20t-79.5 27t-61.5 47.5t-24.5 83q0 73 52 112.5t158 39.5t159 -32t53 -91z" />
    <glyph glyph-name="t.001" horiz-adv-x="391" 
d="M100 523l51 138q4 11 14.5 14t29.5 3q16 0 18.5 -3.5t2.5 -12.5v-138h107q16 0 22 -3.5t6 -15.5v-43q0 -10 -5.5 -15t-21.5 -5h-108v-323q0 -23 8.5 -35t30.5 -12q15 0 27 11.5t12 37.5q0 5 2 7.5t10 2.5h43q9 0 10.5 -4.5t1.5 -10.5q-4 -54 -33.5 -90.5t-89.5 -36.5
q-27 0 -51.5 6t-43 20t-29.5 38t-11 59v330h-45q-21 0 -28.5 3t-7.5 19v36q0 13 5.5 18t19.5 5h53z" />
    <glyph glyph-name="v" unicode="v" horiz-adv-x="657" 
d="M335 94l123 319q9 20 -1 27t-39 8l-10 1q-11 1 -15 5t-4 12v41q0 11 4 14.5t15 3.5h223q11 0 14.5 -3t3.5 -13v-41q0 -10 -3 -15t-15 -5l-20 -1q-11 0 -19 -1t-14 -5t-11.5 -11.5t-11.5 -20.5l-163 -402q-4 -9 -8 -12t-18 -3h-81q-10 0 -14.5 3t-8.5 11l-164 398
q-7 15 -12 23.5t-11 12.5t-14.5 5.5t-21.5 2.5h-13q-11 2 -14.5 6.5t-3.5 12.5v42q0 10 3.5 13t14.5 3h237q11 0 14.5 -3.5t3.5 -13.5v-41q0 -8 -4 -12.5t-15 -4.5l-12 -1q-28 -1 -36 -10t2 -33z" />
    <glyph glyph-name="x" unicode="x" horiz-adv-x="625" 
d="M261 260l-135 154q-12 12 -20 19t-15 10.5t-14 4.5t-16 1l-21 1q-11 0 -14.5 4.5t-3.5 12.5v43q0 10 5 12.5t13 2.5h229q10 0 13 -3t3 -12v-44q0 -7 -2 -11.5t-12 -4.5h-20q-22 0 -23 -5t16 -25l78 -92l84 94q17 19 14.5 23.5t-19.5 4.5h-14q-17 0 -17 16v44q0 9 4.5 12
t12.5 3h199q10 0 12.5 -3t2.5 -12v-46q0 -7 -3 -11t-14 -5h-21q-11 -1 -19.5 -2.5t-18 -7.5t-22 -17.5t-31.5 -32.5l-101 -116l118 -138q16 -20 27 -31t20 -16.5t16.5 -7.5t16.5 -2h27q10 -1 12.5 -5t2.5 -12v-44q0 -10 -3.5 -13t-13.5 -3h-215q-10 0 -13.5 3t-3.5 14v42
q0 9 3 13t14 4q29 0 33.5 4.5t-12.5 22.5l-89 100l-83 -95q-20 -22 -18 -26.5t19 -4.5l23 -1q17 0 17 -15v-45q0 -10 -4.5 -13t-12.5 -3h-221q-11 0 -14.5 3t-3.5 13v42q0 9 3 13.5t13 4.5l29 1q21 1 39 10.5t46 39.5z" />
    <glyph glyph-name="z" unicode="z" horiz-adv-x="577" 
d="M504 530q11 0 14 -5t3 -12v-28q0 -10 -4.5 -20t-9.5 -16l-332 -373h195q19 0 31 2t20.5 12t16 30t18.5 56q2 8 5.5 11t13.5 3h50q9 0 12 -3.5t2 -11.5l-21 -159q-3 -16 -24 -16h-443q-8 1 -10.5 5t-2.5 12v43q0 14 4 19l334 375h-166q-18 0 -29.5 -2t-19 -10t-14 -24
t-13.5 -44q-3 -11 -6.5 -15t-13.5 -4h-51q-16 0 -13 18l16 141q1 16 25 16h413z" />
    <glyph glyph-name="C" unicode="C" horiz-adv-x="752" 
d="M163 353q0 -59 16 -109.5t51.5 -87.5t91 -58t133.5 -21q47 0 83.5 5.5t65 14t49 17.5t35.5 16q16 8 25.5 8.5t9.5 -17.5v-52q0 -6 -2.5 -11.5t-13.5 -11.5q-13 -8 -36.5 -18t-57 -18.5t-77.5 -14.5t-98 -6q-87 0 -159.5 22t-125 67.5t-81.5 114.5t-29 163
q0 81 25.5 149.5t76 119t124.5 78.5t170 28q79 0 132 -16t84.5 -41.5t44.5 -56.5t13 -61q0 -35 -23.5 -54t-55.5 -19q-29 0 -50.5 19t-21.5 52q0 20 9 36t24 26q-26 15 -62.5 24t-85.5 9q-76 0 -129.5 -24t-88 -64.5t-50.5 -94t-16 -113.5z" />
    <glyph glyph-name="exclam" unicode="!" horiz-adv-x="298" 
d="M220 670q0 -38 -7.5 -77.5t-16 -92t-16 -123t-7.5 -170.5q0 -7 -4 -11t-21 -4t-21 4t-4 11q0 100 -7.5 170.5t-16 123t-16 92t-7.5 77.5q0 42 17 60.5t55 18.5t55 -18.5t17 -60.5zM75 60q0 34 23.5 56t54.5 22q29 0 50.5 -19t21.5 -53q0 -35 -23.5 -55.5t-55.5 -20.5
q-29 0 -50 19t-21 51z" />
    <glyph glyph-name="quotedbl" unicode="&#x22;" horiz-adv-x="437" 
d="M261 711q-1 12 11 17t49 5q36 0 48.5 -5t10.5 -17l-13 -196q-1 -11 -10 -15t-36 -4q-28 0 -37.5 4t-10.5 15zM57 711q-2 12 10.5 17t48.5 5q37 0 49 -5t10 -17l-12 -196q-1 -11 -10 -15t-37 -4t-37 4t-10 15z" />
    <glyph glyph-name="quotesingle" unicode="'" horiz-adv-x="232" 
d="M57 711q-2 12 10.5 17t48.5 5q37 0 49 -5t10 -17l-12 -196q-1 -11 -10 -15t-37 -4t-37 4t-10 15z" />
    <glyph glyph-name="parenright" unicode=")" horiz-adv-x="387" 
d="M52 -105q-10 -5 -14.5 -4t-11.5 11q-6 9 -6.5 14.5t6.5 10.5q105 78 159 172t55 209h109q-1 -127 -74.5 -233.5t-222.5 -179.5zM52 721q149 -73 222.5 -179.5t74.5 -233.5h-109q-1 115 -55 209t-159 172q-7 5 -6.5 10.5t6.5 14.5q7 10 11.5 11t14.5 -4z" />
    <glyph glyph-name="asterisk" unicode="*" horiz-adv-x="480" 
d="M259 545q19 -10 36.5 -14.5t34.5 -8.5t33 -9t33 -15q17 -9 23 -25t-4 -32q-6 -9 -15 -13t-19 -4q-14 0 -28 8q-17 10 -28.5 21.5t-22.5 24t-23.5 25t-29.5 23.5q1 -18 6 -33.5t10 -30t9 -29.5t4 -32q0 -18 -10.5 -31.5t-30.5 -13.5q-19 0 -30 12.5t-11 31.5q0 18 4.5 33
t10 30t10.5 30.5t6 33.5q-17 -11 -29 -22.5t-23.5 -23.5t-24 -23t-28.5 -20t-33.5 -7t-28.5 17q-10 16 -4 31t23 25q17 9 34 13t34 7.5t34.5 7.5t35.5 13q-18 10 -35.5 14.5t-34.5 8.5t-34 8.5t-33 14.5q-17 10 -22.5 25.5t4.5 31.5q12 16 32 16q15 0 30 -9q16 -10 28 -21
t23 -23t23 -24t29 -23q-1 19 -6 34.5t-10.5 30.5t-10 30.5t-4.5 33.5q0 19 11 31.5t30 12.5q20 0 30 -13.5t10 -31.5t-4 -33t-9 -30t-9.5 -31t-5.5 -35q18 10 31 22.5t24.5 24.5t24 24t30.5 21q16 8 29 8q20 0 32 -18q10 -16 3 -31.5t-24 -24.5t-33.5 -14t-33.5 -8.5
t-34.5 -7.5t-36.5 -13z" />
    <glyph glyph-name="hyphen" unicode="-" horiz-adv-x="459" 
d="M378 353q13 0 15.5 -4.5t2.5 -13.5v-41q0 -11 -4 -14.5t-15 -3.5h-294q-11 0 -15.5 3.5t-4.5 14.5v41q0 11 3.5 14.5t16.5 3.5h295z" />
    <glyph glyph-name="slash" unicode="/" horiz-adv-x="513" 
d="M372 744q7 19 21 16l82 -16q10 -2 10.5 -6.5t-4.5 -15.5l-341 -740q-5 -10 -9 -13t-13 -1l-80 17q-10 2 -11.5 5t4.5 16z" />
    <glyph glyph-name="zero" unicode="0" horiz-adv-x="745" 
d="M372 -13q-81 0 -142 29t-102 80t-62 120t-21 149q0 79 20.5 147.5t62 118t103 78t143.5 28.5q81 0 142 -28.5t101.5 -78t61 -117.5t20.5 -147q0 -80 -20.5 -149.5t-62 -120.5t-102.5 -80t-142 -29zM580 373q0 66 -12.5 119.5t-38 91t-64.5 57.5t-91 20t-91 -20
t-65.5 -57.5t-39.5 -91t-13 -120.5q0 -150 54.5 -229.5t153.5 -79.5t153 79.5t54 230.5z" />
    <glyph glyph-name="less" unicode="&#x3c;" horiz-adv-x="645" 
d="M549 136q16 -5 24.5 -10t12 -12t4 -17.5t-0.5 -25.5q-1 -17 -6.5 -26.5t-20.5 -9.5q-6 0 -13.5 2t-16.5 5l-455 174q-26 9 -34 22t-8 41h131zM166 279h-131q0 28 8 40.5t34 22.5l455 174q9 3 16.5 5t13.5 2q15 0 20.5 -9.5t6.5 -26.5q1 -15 0.5 -25.5t-4 -17.5t-12 -12
t-24.5 -10z" />
    <glyph glyph-name="bracketleft" unicode="[" horiz-adv-x="327" 
d="M264 747q17 0 24 -5.5t7 -13.5v-34q0 -15 -6 -19t-23 -4h-67v-754h67q17 0 23 -4.5t6 -18.5v-33q0 -8 -6 -14t-25 -6h-142q-17 0 -24.5 7t-7.5 26v840q0 19 7 26t25 7h142z" />
    <glyph glyph-name="backslash" unicode="\" horiz-adv-x="482" 
d="M445 47q3 -7 5.5 -14t2.5 -12q0 -32 -53 -32q-16 0 -26 1t-16.5 5t-11.5 11t-10 18l-302 655q-6 13 -6 24q0 14 10 20.5t35 6.5q19 0 31 -1.5t19.5 -5t12.5 -10.5t10 -18z" />
    <glyph glyph-name="grave" unicode="`" horiz-adv-x="301" 
d="M262 638q-6 -14 -29 -7l-187 49q-14 4 -15.5 9.5t3.5 12.5l27 55q5 9 11 10t22 -7l170 -78q10 -5 10.5 -10t-3.5 -14z" />
    <glyph glyph-name="braceleft" unicode="{" horiz-adv-x="363" 
d="M29 309h116v-1q24 -5 39.5 -16.5t24 -27t11.5 -34t3 -39.5v-167q0 -27 9.5 -42.5t23 -23.5t29 -10t27.5 -2q19 0 19 -11v-39q0 -8 -4 -10t-16 -2h-14q-47 0 -81.5 6.5t-57 22.5t-33 43.5t-10.5 69.5v147q0 36 -13.5 59.5t-58.5 34.5q-5 2 -9.5 3.5t-4.5 9.5v29zM29 337
q0 8 4.5 9.5t9.5 3.5q45 11 58.5 35t13.5 60v147q0 42 10.5 69.5t33 43.5t57 22.5t81.5 6.5h14q12 0 16 -2t4 -10v-39q0 -11 -19 -11q-12 0 -27.5 -2t-29 -10t-23 -23.5t-9.5 -42.5v-167q0 -21 -3 -39.5t-11.5 -34t-24 -27t-39.5 -16.5v-1h-116v28z" />
    <glyph glyph-name="bar" unicode="|" horiz-adv-x="289" 
d="M199 -118q0 -22 -23 -23h-63q-13 0 -17.5 6.5t-4.5 15.5v837q0 11 5 17t19 7h62q13 0 17.5 -6.5t4.5 -16.5v-837v0z" />
    <glyph glyph-name="dagger" unicode="&#x2020;" horiz-adv-x="643" 
d="M261 299q27 39 32.5 84.5t5.5 99.5q-32 0 -57 -4.5t-48 -10t-46 -10t-51 -4.5q-29 0 -47.5 13.5t-18.5 39.5q0 43 61 43q33 0 56.5 -4t46 -9.5t47 -10t57.5 -5.5v6q0 24 -5.5 43t-11.5 38t-11.5 38.5t-5.5 43.5q0 29 15.5 49.5t41.5 20.5t42 -21.5t16 -49.5
q0 -24 -5.5 -43t-12 -38t-12 -38t-5.5 -43v-6q32 1 55.5 5.5t44.5 10t43.5 9.5t53.5 4q33 0 51.5 -10.5t18.5 -33.5q0 -26 -20 -39t-52 -13q-26 0 -48 4.5t-44 10t-46.5 10t-56.5 4.5q1 -54 6 -99.5t32 -84.5q-11 -62 -17.5 -112.5t-10 -92.5t-4.5 -76t-1 -62v-60
q0 -10 -10 -12.5t-17 -2.5q-8 0 -19 2.5t-11 12.5v69q0 27 -1 60.5t-4 74.5t-9.5 90.5t-17.5 108.5z" />
    <glyph glyph-name="bullet" unicode="&#x2022;" horiz-adv-x="391" 
d="M83 354q0 27 10 50t26.5 39.5t37.5 25.5t44 9q45 0 76 -31t31 -85q0 -27 -10 -50t-27 -39t-38.5 -25t-43.5 -9q-45 0 -75.5 30.5t-30.5 84.5z" />
    <glyph glyph-name="endash" unicode="&#x2013;" horiz-adv-x="573" 
d="M80 276q-17 0 -17 16v45q0 8 3 11.5t14 3.5h413q10 0 13 -3.5t3 -11.5v-45q0 -9 -3 -12.5t-13 -3.5h-413z" />
    <glyph glyph-name="emdash" unicode="&#x2014;" horiz-adv-x="915" 
d="M80 276q-17 0 -17 16v45q0 8 3 11.5t14 3.5h755q17 0 17 -15v-45q0 -16 -17 -16h-755z" />
    <glyph glyph-name="breve" unicode="&#x2d8;" horiz-adv-x="335" 
d="M151 749q30 0 46.5 10t16.5 29q0 12 16 12h47q14 0 14 -15q0 -51 -37.5 -78.5t-102.5 -27.5q-68 0 -103 28t-35 78q0 15 14 15h47q15 0 15 -12q0 -18 15 -28.5t47 -10.5z" />
    <glyph glyph-name="ring" unicode="&#x2da;" horiz-adv-x="339" 
d="M169 602q-58 0 -93 23t-35 60q0 38 34.5 60.5t93.5 22.5t94 -22.5t35 -60.5q0 -37 -35 -60t-94 -23zM169 647q22 0 37 10t15 28t-14.5 28.5t-37.5 10.5q-21 0 -36 -10.5t-15 -28.5t15.5 -28t35.5 -10z" />
    <glyph glyph-name="dotaccent" unicode="&#x2d9;" horiz-adv-x="267" 
d="M53 736q0 34 23.5 56t54.5 22q29 0 50.5 -19t21.5 -53t-23.5 -55t-54.5 -21q-30 0 -51 19t-21 51z" />
    <glyph glyph-name="dieresis" unicode="&#xa8;" horiz-adv-x="570" 
d="M34 669q0 29 20.5 48.5t47.5 19.5q26 0 44.5 -17t18.5 -47q0 -29 -20.5 -47t-47.5 -18q-26 0 -44.5 16.5t-18.5 44.5zM227 669q0 29 20.5 48.5t47.5 19.5q26 0 44.5 -17t18.5 -47q0 -29 -20.5 -47t-48.5 -18q-26 0 -44 16.5t-18 44.5z" />
    <glyph glyph-name="minus" unicode="&#x2212;" horiz-adv-x="575" 
d="M80 297q-17 0 -17 16v45q0 8 3 11.5t14 3.5h413q10 0 13 -3.5t3 -11.5v-45q0 -9 -3 -12.5t-13 -3.5h-413z" />
    <glyph glyph-name="cedilla" unicode="&#xb8;" horiz-adv-x="319" 
d="M111 9l59 -2l-18 -41q50 3 82 -14.5t32 -64.5q0 -48 -38 -70.5t-105 -22.5q-19 0 -42 2t-36 3q-8 1 -8 14v27q0 9 2.5 10.5t7.5 0.5q20 -2 36.5 -3.5t33.5 -1.5q33 0 51.5 10t18.5 30t-15.5 26t-36.5 6q-14 0 -30 -1.5t-25 -1.5q-14 0 -9 12z" />
    <glyph glyph-name="acute" unicode="&#xb4;" horiz-adv-x="303" 
d="M44 662q-4 9 -3.5 14t11.5 10l167 82q14 8 21.5 7.5t14.5 -11.5l25 -44q7 -11 3.5 -17.5t-18.5 -11.5l-182 -56q-13 -5 -19 -2.5t-10 8.5z" />
    <glyph glyph-name="degree" unicode="&#xb0;" horiz-adv-x="428" 
d="M214 431q-39 0 -71 12t-54.5 33.5t-34.5 50.5t-12 63t12.5 62.5t35 49.5t54.5 33t71 12t71 -12t54 -33t34 -49.5t12 -61.5q0 -35 -12.5 -64t-35 -50.5t-54 -33.5t-70.5 -12zM319 590q0 48 -27.5 76.5t-76.5 28.5q-50 0 -77.5 -28.5t-27.5 -76.5t27.5 -78t77.5 -30
q48 0 76 30t28 78z" />
    <glyph glyph-name="macron" unicode="&#xaf;" horiz-adv-x="347" 
d="M42 636q-15 0 -20.5 13.5t-5.5 44.5q0 18 8 21.5t19 3.5h260q17 0 21.5 -15t4.5 -39q0 -29 -16 -29h-271z" />
    <glyph glyph-name="A" unicode="A" horiz-adv-x="782" 
d="M527 233h-296l-42 -113q-10 -26 -1 -34t35 -10h15q15 -2 19.5 -6t4.5 -14v-38q0 -11 -4.5 -14.5t-18.5 -3.5h-219q-10 0 -14.5 3.5t-4.5 14.5v39q0 10 3.5 14.5t16.5 5.5l33 1q7 0 12.5 1.5t10.5 6.5t10 14.5t11 25.5l220 582q4 10 8 13t20 3h90q11 0 15.5 -3t9.5 -12
l222 -578q7 -18 12.5 -28.5t11.5 -15.5t14 -7t22 -2l21 -1q15 0 19.5 -4t4.5 -14v-41q0 -11 -4.5 -14.5t-18.5 -3.5h-245q-14 0 -18 3.5t-4 14.5v38q0 10 4 13.5t19 5.5h15q20 2 29.5 6t9.5 15q0 9 -8 31zM260 309h238l-120 316z" />
    <glyph glyph-name="logicalnot" unicode="&#xac;" horiz-adv-x="647" 
d="M547 439q15 0 24 -9t9 -21v-237q0 -11 -8.5 -19.5t-20.5 -8.5h-54q-12 0 -21 8.5t-9 19.5v162h-377q-14 0 -24 7.5t-10 23.5v44q0 16 10 23t24 7h457z" />
    <glyph glyph-name="at" unicode="@" horiz-adv-x="949" 
d="M898 401q0 -57 -17.5 -106t-47.5 -85t-69.5 -56.5t-83.5 -20.5q-45 0 -71 22.5t-30 64.5q-29 -41 -71 -64t-91 -23q-31 0 -60.5 10t-53 30.5t-37.5 51.5t-14 74q0 48 19 94t54.5 82.5t86.5 58.5t116 22q54 0 89.5 -13.5t56 -36t27 -51.5t3.5 -60q-3 -34 -12 -66t-20 -70
q-9 -35 1.5 -48.5t29.5 -13.5q23 0 44 17.5t36.5 45.5t25 64t9.5 74q0 64 -26 113t-69.5 82t-100.5 50t-118 17q-84 0 -149.5 -26.5t-111.5 -71t-70 -103.5t-24 -124q0 -70 26 -126t72 -95t109 -60t138 -21q28 0 60 3t63.5 8.5t61 13.5t53.5 19q16 8 24.5 9.5t8.5 -12.5v-27
q0 -8 -1.5 -13t-12.5 -11q-15 -9 -43 -18t-63.5 -16t-76.5 -11.5t-82 -4.5q-95 0 -175.5 26t-139 74t-91.5 116t-33 151q0 81 32 151t91.5 122t143 82t187.5 30q82 0 154.5 -22t126.5 -63.5t85 -102t31 -136.5zM432 194q33 0 65.5 16.5t58 45t41 66.5t15.5 81q0 90 -85 90
q-41 0 -74.5 -18.5t-57.5 -47.5t-37.5 -65t-13.5 -72q0 -48 23.5 -72t64.5 -24z" />
    <glyph glyph-name="copyright" unicode="&#xa9;" horiz-adv-x="923" 
d="M462 -13q-104 0 -182 29t-129.5 80t-77.5 120t-26 149q0 79 27 147.5t79.5 118t130.5 78t179 28.5q102 0 179 -28.5t129.5 -78t79 -117.5t26.5 -147q0 -80 -26 -149.5t-77.5 -120.5t-129.5 -80t-182 -29zM795 370q0 70 -23.5 127t-67 97t-104.5 61.5t-137 21.5
q-75 0 -137 -21.5t-105.5 -61.5t-67.5 -97t-24 -127q0 -72 23 -131t66 -102t105 -66.5t140 -23.5q77 0 138.5 23.5t104.5 66.5t66 102t23 131zM628 513q6 -7 10 -16t4 -20q0 -27 -18 -43t-43 -16q-23 0 -39.5 14.5t-16.5 40.5q0 14 6 26q-23 5 -48 5q-35 0 -60.5 -11
t-42 -30t-24.5 -44t-8 -53q0 -27 8 -50.5t25.5 -41t46 -27t69.5 -9.5q40 0 63 7t46 17q8 3 15 6t12 3q12 0 12 -10v-30q0 -5 -3.5 -11t-13.5 -11q-61 -29 -146 -29q-55 0 -97 14t-70.5 38t-43.5 57t-15 72q0 43 15.5 79.5t44.5 63.5t71 42.5t96 15.5q88 0 138 -42z" />
    <glyph glyph-name="registered" unicode="&#xae;" horiz-adv-x="923" 
d="M462 -13q-104 0 -182 29t-129.5 80t-77.5 120t-26 149q0 79 27 147.5t79.5 118t130.5 78t179 28.5q102 0 179 -28.5t129.5 -78t79 -117.5t26.5 -147q0 -80 -26 -149.5t-77.5 -120.5t-129.5 -80t-182 -29zM795 370q0 70 -23.5 127t-67 97t-104.5 61.5t-137 21.5
q-75 0 -137 -21.5t-105.5 -61.5t-67.5 -97t-24 -127q0 -72 23 -131t66 -102t105 -66.5t140 -23.5q77 0 138.5 23.5t104.5 66.5t66 102t23 131zM330 487q0 19 -7.5 25t-28.5 6q-9 0 -11 3t-2 9v24q0 8 3.5 10.5t11.5 2.5h148q99 0 146 -24t47 -92q0 -45 -25 -72.5t-68 -38.5
q20 -11 37 -34t34 -65q5 -11 12.5 -14t15.5 -3q5 0 9.5 1t13.5 4q9 4 9 -10v-27q0 -12 -11 -17q-8 -4 -19 -6.5t-21 -2.5q-9 0 -20 1.5t-21.5 6t-19.5 13.5t-15 24q-6 16 -16 37t-23.5 40t-32 31.5t-42.5 12.5h-31v-79q0 -20 7 -25.5t25 -5.5h2q10 0 12 -2.5t2 -7.5v-27
q0 -8 -3 -10.5t-11 -2.5h-141q-8 0 -11.5 2.5t-3.5 10.5v27q0 5 3 7.5t12 2.5h2q17 0 24.5 6t7.5 25v234zM450 380q57 0 81.5 18t24.5 53q0 37 -26.5 52t-81.5 15h-45v-138h47z" />
    <glyph glyph-name="periodcentered" unicode="&#xb7;" horiz-adv-x="266" 
d="M58 277q0 34 23.5 56t53.5 22q29 0 51 -19t22 -53q0 -35 -23.5 -55.5t-55.5 -20.5q-29 0 -50 19t-21 51z" />
    <glyph glyph-name="ordmasculine" unicode="&#xba;" horiz-adv-x="432" 
d="M45 534q0 36 9.5 69t30 58.5t53 40.5t78.5 15t78.5 -15t53 -40.5t30 -58.5t9.5 -69t-9.5 -69.5t-30 -58.5t-53 -40t-78.5 -15t-78.5 15t-53 40t-30 58.5t-9.5 69.5zM216 662q-50 0 -72.5 -35.5t-22.5 -93.5q0 -56 22.5 -91.5t72.5 -35.5t72 35.5t22 91.5q0 58 -22 93.5
t-72 35.5z" />
    <glyph glyph-name="multiply" unicode="&#xd7;" horiz-adv-x="604" 
d="M132 61q-23 -20 -37 -20q-13 0 -29 15q-5 5 -10 12t-5 16q0 15 17 31l172 156l-172 156q-17 16 -17 31q0 9 5 16t10 12q15 15 28 15q15 0 38 -20l170 -150l170 150q23 20 37 20q12 0 29 -15q5 -5 9.5 -12t4.5 -16q0 -15 -17 -31l-172 -156l172 -156q17 -16 17 -31
q0 -9 -4.5 -16t-9.5 -12q-17 -15 -29 -15q-14 0 -37 20l-170 149z" />
    <glyph glyph-name="divide" unicode="&#xf7;" horiz-adv-x="626" 
d="M73 297q-17 0 -17 16v45q0 8 3 11.5t14 3.5h480q10 0 13 -3.5t3 -11.5v-45q0 -9 -3 -12.5t-13 -3.5h-480zM242 534q0 34 23.5 56t54.5 22q29 0 50.5 -19t21.5 -53q0 -35 -23.5 -55.5t-54.5 -20.5q-30 0 -51 19t-21 51zM242 124q0 34 23.5 56t54.5 22q29 0 50.5 -19
t21.5 -53q0 -35 -23.5 -55.5t-54.5 -20.5q-30 0 -51 19t-21 51z" />
    <glyph glyph-name="germandbls" unicode="&#xdf;" horiz-adv-x="696" 
d="M386 73q31 0 59 7t48 22.5t32 39.5t12 57q0 34 -13 59t-36 42t-54.5 25.5t-68.5 8.5h-59q-11 0 -11 12v61q0 8 1.5 11t10.5 3h55q25 0 48.5 7t42 21t30 34.5t11.5 48.5q0 58 -41.5 87t-108.5 29q-70 0 -111 -32t-41 -97v-727q0 -19 -20 -19h-70q-18 0 -18 18v728
q0 46 14 85t45 67.5t80.5 44.5t120.5 16q133 0 198 -54.5t65 -144.5q0 -31 -8.5 -58t-23.5 -47.5t-34.5 -34t-41.5 -18.5q25 -6 52.5 -18.5t50 -34.5t37 -54t14.5 -76q0 -50 -19 -87t-53.5 -61.5t-82.5 -37t-107 -12.5q-60 0 -98 8t-52 15q-7 3 -9 5.5t-2 10.5v49q0 11 3 14
t9 3t18 -4t30 -9t42 -9t54 -4z" />
    <glyph glyph-name="comma" unicode="," horiz-adv-x="284" 
d="M68 60q0 34 21 56t57 22q31 0 51.5 -21t20.5 -62q0 -27 -10 -52.5t-26.5 -49.5t-38 -46t-43.5 -41q-8 -6 -13 -7.5t-13 6.5l-11 10q-6 6 -5 10.5t9 11.5q20 17 38 43.5t25 49.5q-26 2 -44 20.5t-18 49.5z" />
    <glyph glyph-name="D" unicode="D" horiz-adv-x="815" 
d="M771 360q0 -183 -112.5 -271.5t-326.5 -88.5h-268q-11 0 -15.5 3.5t-4.5 14.5v39q0 20 18 20q22 0 36 1.5t22.5 6t12 12.5t4.5 21v490q-2 18 -9 26t-24 10h-42q-18 0 -18 18v42q0 11 4 14.5t18 3.5h267q224 0 331 -90.5t107 -271.5zM251 83h80q166 0 243.5 65t77.5 212
q0 77 -20 130.5t-60.5 87.5t-102 49t-143.5 15h-75v-559z" />
    <glyph glyph-name="ogonek" unicode="&#x2db;" horiz-adv-x="342" 
d="M213 10q-37 -17 -61 -42.5t-24 -55.5q0 -25 14.5 -32t33.5 -7q14 0 25 2t23 8q10 5 16.5 5t10.5 -10l10 -23q5 -14 -9 -22q-17 -11 -38.5 -19t-56.5 -8q-50 0 -84 19.5t-34 62.5q0 23 10.5 42t27 34t37 26t40.5 20h59z" />
    <glyph glyph-name="b.001" horiz-adv-x="656" 
d="M98 0q-10 0 -12 3t-2 11v626q0 20 -7 28t-25 9h-40q-12 1 -15 6.5t-3 14.5v37q0 13 3.5 16t14.5 4l155 8q16 0 21 -6.5t5 -21.5v-303q25 51 71.5 81.5t125.5 30.5q110 0 166.5 -56t56.5 -176q0 -57 -15 -114.5t-47 -103t-81.5 -74.5t-117.5 -29q-41 0 -69.5 8t-48 19.5
t-30.5 23.5t-17 20l-10 -53q-4 -9 -16 -9h-63zM367 464q-38 0 -69.5 -15t-55 -44.5t-36.5 -73t-13 -99.5q0 -83 36 -121t95 -38q49 0 83 22t54 56.5t29 76.5t9 83q0 68 -31 110.5t-101 42.5z" />
    <glyph glyph-name="period" unicode="." horiz-adv-x="260" 
d="M55 60q0 34 23.5 56t53.5 22q29 0 51 -19t22 -53q0 -35 -23.5 -55.5t-55.5 -20.5q-30 0 -50.5 19t-20.5 51z" />
    <glyph glyph-name="V" unicode="V" horiz-adv-x="754" 
d="M390 94l181 508q9 26 0.5 34t-34.5 10h-14q-14 2 -18 6t-4 14v37q0 12 4.5 15.5t17.5 3.5h213q11 0 14.5 -3.5t3.5 -14.5v-39q0 -10 -3.5 -14.5t-16.5 -5.5l-30 -1q-7 0 -12 -1.5t-10 -6.5t-9.5 -14.5t-10.5 -25.5l-212 -589q-4 -9 -8 -12t-19 -3h-91q-11 0 -15.5 3
t-8.5 11l-215 585q-7 18 -11.5 28.5t-10.5 15.5t-14.5 7t-21.5 2l-19 1q-14 0 -18.5 3.5t-4.5 13.5v41q0 12 4 15.5t18 3.5h240q14 0 18 -3.5t4 -14.5v-38q0 -10 -4.5 -13.5t-18.5 -5.5h-14q-20 -2 -28.5 -6t-8.5 -15q0 -9 8 -31z" />
    <glyph glyph-name="t" unicode="t" horiz-adv-x="398" 
d="M101 525l42 132q4 11 13 13.5t25 2.5q22 0 26 -2.5t4 -13.5v-132h134q13 0 18 -2.5t5 -12.5v-48q0 -18 -22 -18h-135v-267q0 -33 5.5 -53t16.5 -30.5t27 -14t37 -3.5q23 0 40.5 2.5t30.5 7.5q17 7 17 -12v-44q0 -9 -3 -14t-14 -9q-21 -8 -48 -10.5t-50 -2.5
q-34 0 -64.5 6.5t-54 23.5t-37 48t-13.5 79v293h-63q-14 0 -19 3t-5 17v39q0 12 4 17t15 5h68z" />
    <glyph glyph-name="S" unicode="S" horiz-adv-x="650" 
d="M444 565q0 17 7.5 31.5t19.5 24.5q-28 17 -64.5 24t-76.5 7q-68 0 -110 -21t-42 -72q0 -34 18.5 -55t48 -36t68 -25.5t78 -22.5t78 -28t68 -41.5t48 -63.5t18.5 -93q0 -59 -22 -98.5t-61 -63.5t-92.5 -34.5t-116.5 -10.5q-136 0 -205.5 42t-70.5 123q0 35 21 56t56 21
q32 0 53 -19t21 -54q0 -20 -8 -34.5t-22 -23.5q29 -17 69.5 -24t86.5 -7q38 0 70 6t55.5 20t37 36t13.5 55q0 40 -18 66t-48 43.5t-68 28.5t-78 22t-78 25t-68 36t-48 55t-18 83q0 49 19 84.5t53.5 59t84 34.5t110.5 11q134 0 199.5 -44.5t65.5 -120.5q0 -35 -24 -54
t-55 -19q-30 0 -51.5 19t-21.5 52z" />
    <glyph glyph-name="daggerdbl" unicode="&#x2021;" horiz-adv-x="688" 
d="M283 299q27 39 32.5 84.5t5.5 99.5q-32 0 -57 -4.5t-48 -10t-46 -10t-51 -4.5t-46.5 13.5t-18.5 39.5q0 22 15.5 32.5t44.5 10.5q33 0 56.5 -4t46 -9.5t47 -10t57.5 -5.5v6q0 24 -5.5 43t-11.5 38t-11.5 38.5t-5.5 43.5q0 29 15.5 49.5t41.5 20.5t42 -21.5t16 -49.5
q0 -24 -5.5 -43t-12 -38t-12 -38t-5.5 -43v-6q32 1 55.5 5.5t44.5 10t44 9.5t54 4q32 0 51 -10.5t19 -33.5q0 -26 -20 -39t-52 -13q-27 0 -49 4.5t-44 10t-46.5 10t-56.5 4.5q1 -54 6 -99.5t33 -84.5h-123zM406 299q-28 -39 -33 -84.5t-6 -99.5q32 0 56.5 4.5t46.5 10t44 10
t49 4.5q32 0 52 -13t20 -39q0 -23 -19 -33.5t-51 -10.5q-31 0 -54 4t-44 9.5t-44.5 10t-55.5 5.5v-6q0 -24 5.5 -43t12 -38t12 -38t5.5 -43q0 -28 -16 -49.5t-42 -21.5t-41.5 20.5t-15.5 49.5q0 24 5.5 43.5t11.5 38.5t11.5 38t5.5 43v6q-33 -1 -57.5 -5.5t-47 -10t-46 -9.5
t-56.5 -4q-29 0 -44.5 10.5t-15.5 32.5q0 26 18.5 39.5t46.5 13.5t51 -4.5t46 -10t48 -10t57 -4.5q0 54 -5.5 99.5t-32.5 84.5h123z" />
    <glyph glyph-name="u" unicode="u" horiz-adv-x="691" 
d="M585 112q1 -37 33 -37q15 0 22 2t16 3q7 1 10.5 -0.5t3.5 -9.5v-45q0 -7 -3 -12.5t-12 -8.5q-14 -5 -28.5 -7t-45.5 -2q-15 0 -30.5 2.5t-29.5 10t-24.5 19.5t-16.5 32q-31 -37 -80.5 -54.5t-115.5 -17.5q-43 0 -77 9t-57.5 30t-36 55.5t-12.5 85.5v245q0 11 -2.5 18
t-10.5 11t-22 5.5t-38 1.5q-11 0 -14.5 4.5t-3.5 13.5v41q0 11 4.5 14.5t15.5 4.5l154 8q15 0 20.5 -6.5t5.5 -21.5v-333q0 -42 24 -70t83 -28q79 0 119 49t40 137v151q0 11 -2.5 18t-10.5 11t-22 5.5t-38 1.5q-11 0 -14.5 4.5t-3.5 13.5v41q0 11 4.5 14.5t15.5 4.5l154 8
q16 0 21 -6.5t5 -21.5v-394v0z" />
    <glyph glyph-name="y" unicode="y" horiz-adv-x="661" 
d="M24 -140q0 28 17 47.5t48 19.5q26 0 45 -17t19 -47q0 -17 -8 -31.5t-21 -22.5q10 -3 23 -3q37 0 66 21t52 75l24 63l-186 434q-8 16 -13 25.5t-10.5 14.5t-13.5 6.5t-21 1.5h-17q-12 0 -15.5 6t-3.5 14v41q0 11 4 14t15 3h243q11 0 14.5 -3.5t3.5 -14.5v-40
q0 -8 -4 -13.5t-14 -5.5h-23q-19 0 -27.5 -2.5t-8.5 -11.5t9 -30l120 -304l120 308q10 26 4 33t-35 7h-16q-12 0 -15.5 5t-3.5 13v41q0 11 4 14.5t16 3.5h221q12 0 15.5 -3.5t3.5 -14.5v-38q0 -8 -3.5 -14.5t-15.5 -6.5h-23q-21 0 -32 -7t-24 -39l-202 -509
q-17 -41 -36.5 -68.5t-43.5 -44t-53 -23t-64 -6.5q-27 0 -51.5 7.5t-43 21.5t-29 34t-10.5 46z" />
    <glyph glyph-name="braceright" unicode="}" horiz-adv-x="363" 
d="M334 280q0 -8 -4.5 -9.5t-9.5 -3.5q-45 -11 -58.5 -34.5t-13.5 -59.5v-147q0 -42 -10.5 -69.5t-33 -43.5t-56.5 -22.5t-82 -6.5h-15q-12 0 -16 2t-4 10v39q0 11 19 11q12 0 27.5 2t29 10t23 23.5t9.5 42.5v167q0 42 15 74t63 43v1h117v-29zM334 309h-117v1q-48 11 -63 43
t-15 74v167q0 27 -9.5 42.5t-23 23.5t-29 10t-27.5 2q-19 0 -19 11v39q0 8 4 10t16 2h15q48 0 82 -6.5t56.5 -22.5t33 -43.5t10.5 -69.5v-147q0 -36 13.5 -60t58.5 -35q5 -2 9.5 -3.5t4.5 -9.5v-28z" />
    <glyph glyph-name="F" unicode="F" horiz-adv-x="667" 
d="M251 312v-197q1 -25 11.5 -31.5t35.5 -6.5h26q14 0 17 -3t3 -12v-44q0 -10 -4 -14t-16 -4h-259q-12 0 -16 3.5t-4 14.5v44q0 8 3.5 11.5t16.5 3.5h26q26 0 36 9t10 38v478q0 22 -7.5 31t-25.5 11h-42q-18 0 -18 18v42q0 11 4 14.5t18 3.5h519q15 0 24 -1t14 -5.5t7.5 -14
t3.5 -26.5l8 -115q2 -14 -1.5 -19t-17.5 -5h-43q-12 0 -17 4t-7 18l-5 41q-2 17 -8 26.5t-18.5 14t-34 5.5t-53.5 1h-186v-258h130q12 0 21.5 5.5t11.5 22.5l3 33q2 12 5.5 15t16.5 3h38q13 0 15.5 -4t2.5 -15v-197q0 -10 -3 -14t-14 -4h-39q-12 0 -16 3t-6 14l-3 34
q-2 17 -11.5 22.5t-21.5 5.5h-130z" />
    <glyph glyph-name="I" unicode="I" horiz-adv-x="386" 
d="M250 124q0 -31 10.5 -39t36.5 -8h26q14 0 17 -3t3 -12v-44q0 -10 -4 -14t-16 -4h-259q-12 0 -16 3.5t-4 14.5v44q0 8 3.5 11.5t16.5 3.5h26q26 0 36 9t10 38v474q0 29 -9.5 38t-35.5 9h-28q-13 0 -16.5 3t-3.5 13v42q0 12 4.5 15.5t15.5 3.5h260q11 0 15.5 -3.5
t4.5 -15.5v-42q0 -11 -3.5 -13.5t-16.5 -2.5h-29q-26 0 -35 -8t-9 -39v-474v0z" />
    <glyph glyph-name="L" unicode="L" horiz-adv-x="662" 
d="M64 0q-11 0 -15.5 3.5t-4.5 14.5v39q0 20 18 20q22 0 36 1.5t22.5 6t12 12.5t4.5 21v480q0 29 -9.5 38t-35.5 9h-28q-13 0 -16.5 3t-3.5 13v42q0 12 4.5 15.5t15.5 3.5h260q11 0 15.5 -3.5t4.5 -15.5v-42q0 -11 -3.5 -13.5t-16.5 -2.5h-29q-24 0 -33.5 -7t-10.5 -32v-530
h203q25 0 40 1.5t24 7.5t14.5 17t10.5 30l8 61q2 10 7.5 14t17.5 4h43q11 0 14.5 -4.5t2.5 -15.5l-16 -158q-2 -23 -10 -28t-28 -5h-518v0z" />
    <glyph glyph-name="T" unicode="T" horiz-adv-x="685" 
d="M193 640q-21 0 -35 -0.5t-22 -4t-12 -10t-5 -18.5l-6 -55q-2 -11 -6.5 -14t-16.5 -3h-45q-14 0 -16.5 4t-1.5 15l8 134q2 24 8 29t26 5h547q20 0 26 -5t8 -29l9 -134q1 -11 -1.5 -15t-16.5 -4h-45q-13 0 -17 3t-6 14l-6 55q-2 12 -5.5 18.5t-12.5 10t-24 4t-39 0.5h-86
v-525q1 -25 11.5 -31.5t34.5 -6.5h28q12 0 15.5 -3t3.5 -12v-44q0 -10 -4 -14t-15 -4h-261q-11 0 -15 3.5t-4 14.5v44q0 8 3.5 11.5t15.5 3.5h27q25 0 35 9t10 38v516h-92v0z" />
    <glyph glyph-name="W" unicode="W" horiz-adv-x="1119" 
d="M361 105l150 593q4 16 7 20t14 4h88q11 0 14 -5t8 -20l163 -561l130 461q5 20 5 28q0 14 -12.5 17t-47.5 3q-19 0 -19 18v42q0 11 3 14t19 3h216q11 0 14.5 -3.5t3.5 -14.5v-40q0 -8 -2.5 -13.5t-15.5 -5.5q-21 0 -33.5 -1t-20 -6.5t-12.5 -16.5t-11 -31l-168 -573
q-5 -17 -10 -21t-21 -4h-76q-14 0 -19 7t-8 18l-157 543l-137 -543q-4 -17 -9 -21t-18 -4h-102q-11 0 -16.5 4.5t-10.5 19.5l-175 575q-6 19 -11 30t-12 16t-18.5 6.5t-29.5 1.5t-22 5t-4 20v35q0 11 3 14t14 3h258q11 0 14.5 -3.5t3.5 -13.5v-43q0 -8 -3 -12.5t-13 -4.5
q-37 0 -51 -2t-14 -16q0 -5 2 -13t5 -19z" />
    <glyph glyph-name="G" unicode="G" horiz-adv-x="786" 
d="M464 329q0 20 17 20h229q18 0 18 -16v-311q0 -22 -19 -22h-41q-22 0 -27 17l-6 17q-37 -19 -87 -32.5t-116 -13.5q-83 0 -154 22t-123.5 68t-82 115.5t-29.5 164.5q0 82 26 150.5t76 118t123 77t168 27.5q79 0 134 -16t89 -41.5t49.5 -58t15.5 -65.5q0 -35 -23.5 -53.5
t-55.5 -18.5q-30 0 -51 19t-21 52q0 21 10 37t26 25q-28 17 -69 27.5t-96 10.5q-72 0 -125.5 -23.5t-88 -63.5t-51.5 -93.5t-17 -113.5q0 -64 18.5 -115.5t53.5 -88t87 -56t118 -19.5q60 0 103.5 13.5t76.5 31.5v123q0 13 -7 18t-18 5h-112q-18 0 -18 19v43z" />
    <glyph glyph-name="K.001" horiz-adv-x="780" 
d="M406 412l240 -270q32 -36 50.5 -50t38.5 -14h26q12 0 15.5 -6t3.5 -14v-40q0 -11 -4 -14.5t-15 -3.5h-248q-11 0 -14.5 3.5t-3.5 14.5v36q0 8 3 14.5t16 7.5h23q19 1 15 8t-27 34l-197 221l-77 -72v-143q0 -31 10.5 -39t36.5 -8h26q14 0 17 -3t3 -12v-44q0 -10 -4 -14
t-16 -4h-259q-12 0 -16 3.5t-4 14.5v44q0 8 3.5 11.5t16.5 3.5h26q26 0 36 9t10 38v474q0 29 -9.5 38t-35.5 9h-28q-13 0 -16.5 3t-3.5 13v42q0 12 4.5 15.5t15.5 3.5h259q12 0 16.5 -3.5t4.5 -15.5v-42q0 -11 -4 -13.5t-17 -2.5h-28q-26 0 -35 -8t-9 -39v-239l271 257
q19 17 17 23t-18 6h-28q-12 0 -15.5 8t-3.5 16v34q0 12 4 15.5t15 3.5h246q12 0 15.5 -3.5t3.5 -15.5v-38q0 -8 -3 -14t-16 -6h-47q-17 0 -35 -8.5t-42 -31.5z" />
    <glyph glyph-name="X" unicode="X" horiz-adv-x="738" 
d="M376 455l126 162q14 19 9 23.5t-20 4.5h-23q-11 0 -14.5 6t-3.5 14v39q0 11 3.5 14.5t14.5 3.5h220q11 0 14 -3.5t3 -14.5v-40q0 -8 -3 -13.5t-14 -5.5h-21q-19 0 -32 -6t-33 -29l-172 -225l195 -254q26 -34 42 -43.5t33 -9.5h20q14 0 17.5 -5.5t3.5 -13.5v-40
q0 -11 -3 -15t-17 -4h-230q-14 0 -18 4t-4 15v37q0 8 3.5 14t18.5 6h20q11 0 11 5t-17 26l-144 189l-145 -190q-15 -20 -10 -24t20 -4h30q11 0 15 -6.5t4 -14.5v-39q0 -11 -4 -14.5t-15 -3.5h-232q-11 0 -15 3.5t-4 14.5v40q0 8 4 14t15 6h28q8 0 15 1t14.5 5t16 12.5
t19.5 22.5l191 247l-173 229q-12 15 -22 25t-19 15t-18 7t-20 2h-20q-11 0 -14.5 5.5t-3.5 13.5v42q0 11 3.5 14t14.5 3h235q11 0 15 -2.5t4 -13.5v-41q0 -8 -4 -13.5t-16 -5.5h-23q-11 0 -10 -5t12 -20z" />
    <glyph glyph-name="Y" unicode="Y" horiz-adv-x="707" 
d="M105 595q-20 30 -32 39.5t-30 9.5h-23q-13 0 -17 5.5t-4 15.5v39q0 11 4 14.5t15 3.5h240q11 0 15.5 -3.5t4.5 -14.5v-37q0 -10 -4 -15.5t-16 -5.5h-21q-15 0 -22.5 -5.5t6.5 -25.5l142 -242l152 243q11 18 5.5 23.5t-19.5 5.5h-22q-13 0 -16.5 6t-3.5 16v37
q0 11 4.5 14.5t15.5 3.5h209q12 0 15.5 -3.5t3.5 -14.5v-39q0 -10 -3.5 -15t-16.5 -5h-26q-7 0 -12 -1t-10 -5t-10.5 -11t-14.5 -20l-203 -304v-180q0 -31 10 -39t36 -8h27q13 0 16.5 -3t3.5 -12v-44q0 -18 -20 -18h-260q-12 0 -16 3.5t-4 14.5v44q0 8 3.5 11.5t16.5 3.5h26
q26 0 36 9t10 38v163z" />
    <glyph glyph-name="Z" unicode="Z" horiz-adv-x="663" 
d="M591 722q13 0 15.5 -6.5t2.5 -15.5v-28q0 -9 -4.5 -18.5t-9.5 -17.5l-416 -560h285q17 0 27.5 3t18.5 14t15.5 31.5t19.5 56.5q3 10 7.5 14.5t15.5 4.5h46q17 0 14 -20l-20 -164q-1 -16 -23 -16h-532q-8 1 -10 6.5t-2 15.5v40q0 12 4 19l421 565h-255q-21 0 -33.5 -4.5
t-21 -16t-14 -31.5t-11.5 -52q-2 -9 -6 -14t-14 -5h-51q-16 0 -13 21l9 162q3 16 23 16h512z" />
    <glyph glyph-name="bracketright" unicode="]" horiz-adv-x="328" 
d="M205 747q18 0 25 -7t7 -26v-840q0 -19 -7 -26t-25 -7h-142q-19 0 -25 6t-6 14v33q0 14 6 18.5t23 4.5h67v754h-67q-17 0 -23 4t-6 19v34q0 8 7 13.5t24 5.5h142z" />
    <glyph glyph-name="two" unicode="2" horiz-adv-x="640" 
d="M43 560q0 37 18 68.5t51.5 54t81.5 35.5t109 13q69 0 119.5 -15t83 -41.5t48.5 -62t16 -77.5q0 -63 -36 -118t-96 -110l-245 -220h218q25 0 41 1.5t25.5 6t14 13.5t8.5 24l9 61q2 10 7 14t17 4h43q12 0 15.5 -4.5t1.5 -15.5l-15 -158q-3 -23 -11 -28t-27 -5h-475
q-13 0 -18 4t-5 16v31q0 16 9 29.5t24 27.5l291 261q38 34 61.5 73.5t23.5 87.5q0 25 -8.5 46.5t-26.5 37.5t-47 25.5t-69 9.5q-38 0 -72.5 -8t-60.5 -22q12 -9 19.5 -23.5t7.5 -33.5q0 -35 -23.5 -54t-54.5 -19q-30 0 -51.5 19t-21.5 52z" />
    <glyph glyph-name="one" unicode="1" horiz-adv-x="421" 
d="M165 596q0 15 -4 18.5t-23 -1.5l-73 -21q-20 -5 -20 12v50q0 10 4 14t17 8l147 44q24 7 43 7q14 0 18.5 -5.5t4.5 -18.5v-583q0 -14 2 -22.5t9.5 -13t22 -6t38.5 -1.5h34q13 0 16.5 -3t3.5 -13v-40q0 -14 -4 -17.5t-16 -3.5h-326q-11 0 -15 3.5t-4 17.5v40q0 10 3.5 13
t15.5 3h34q24 0 38.5 2t22 6.5t9.5 13t2 21.5v476v0z" />
    <glyph glyph-name="three" unicode="3" horiz-adv-x="636" 
d="M54 570q0 37 18.5 67t51.5 51t80 32.5t104 11.5q127 0 192.5 -50.5t65.5 -137.5q0 -45 -15.5 -74.5t-38.5 -48.5t-50 -27.5t-49 -11.5q37 -3 69.5 -15.5t57 -35t38.5 -55.5t14 -77q0 -54 -21.5 -94t-61 -66t-96.5 -39t-127 -13q-38 0 -75 3t-68 7t-53.5 9t-32.5 10
q-8 4 -9.5 8.5t-1.5 11.5v56q0 14 12 14q5 0 13.5 -2.5t18.5 -4.5q27 -7 74 -15t104 -8q200 0 200 129q0 37 -14 62t-38 40t-56.5 21.5t-69.5 6.5h-32q-14 0 -17.5 3t-3.5 16v53q0 11 5 13t16 2h31q76 0 122.5 27.5t46.5 89.5q0 49 -35 80t-114 31q-75 0 -123 -28
q8 -9 13.5 -21.5t5.5 -28.5q0 -35 -23.5 -54t-54.5 -19q-30 0 -51.5 19t-21.5 52z" />
    <glyph glyph-name="eight" unicode="8" horiz-adv-x="690" 
d="M345 732q114 0 180.5 -47t66.5 -138q0 -58 -26 -93t-64 -54q26 -9 51.5 -24.5t46 -39t33.5 -56t13 -75.5q0 -59 -23.5 -100.5t-64.5 -67.5t-96 -38t-117 -12t-117 12t-96 38t-64.5 67.5t-23.5 100.5q0 43 13 75.5t33 56t45.5 39t51.5 24.5q-38 19 -63.5 54t-25.5 93
q0 91 66.5 138t180.5 47zM164 206q0 -36 14 -62t39 -42.5t57.5 -24.5t70.5 -8q37 0 70 8t58 24.5t39 42.5t14 62q0 27 -9.5 52.5t-30.5 45.5t-53.5 32t-78.5 14h-9q-49 0 -83.5 -12t-56 -32t-31.5 -46t-10 -54zM345 655q-58 0 -96 -26.5t-38 -82.5t38 -82.5t96 -26.5
q27 0 51 6.5t42.5 19.5t29.5 33.5t11 49.5q0 55 -38 82t-96 27z" />
    <glyph glyph-name="nine" unicode="9" horiz-adv-x="663" 
d="M322 733q155 0 222.5 -84.5t67.5 -252.5q0 -212 -89 -309.5t-269 -97.5q-53 0 -95.5 6t-70.5 13q-11 3 -11 14v65q0 9 5 11t16 0q25 -4 59 -10t82 -6q68 0 116 16.5t79 51t46.5 88.5t18.5 129q-14 -34 -36.5 -56t-50 -35.5t-58.5 -19t-61 -5.5q-55 0 -101 15t-79 45
t-51.5 74.5t-18.5 103.5q0 118 72.5 181t206.5 63zM322 645q-77 0 -119 -40.5t-42 -110.5q0 -72 44.5 -113.5t116.5 -41.5q73 0 117.5 41t44.5 111q0 74 -42.5 114t-119.5 40z" />
    <glyph glyph-name="four" unicode="4" horiz-adv-x="620" 
d="M284 0q-12 0 -16 3.5t-4 14.5v44q0 8 3.5 11.5t16.5 3.5h36q23 0 33 8t12 31v36h-326q-14 0 -19 3t-5 16v34q0 16 7 20l378 480q8 10 14.5 13.5t17.5 3.5h80q14 0 17.5 -8t-10.5 -25l-365 -461h211v130q0 7 2.5 11t14.5 4h83q11 0 13 -3.5t2 -10.5v-131h102
q13 0 17.5 -2.5t4.5 -13.5v-42q0 -9 -4.5 -13.5t-16.5 -4.5h-103v-28q0 -31 10 -39t36 -8h27q13 0 16 -3t3 -12v-44q0 -10 -4 -14t-15 -4h-269v0z" />
    <glyph glyph-name="five" unicode="5" horiz-adv-x="612" 
d="M207 635l-31 -194q20 2 55 3.5t77 1.5q52 0 99.5 -9t83.5 -33t57.5 -65.5t21.5 -106.5t-22 -111t-63 -76t-100 -44t-132 -14q-30 0 -61 2t-58 5t-48 7t-32 7q-13 5 -15 9.5t-2 12.5v58q0 9 4 13t9 3q6 -1 19 -4.5t34.5 -7.5t52 -7.5t70.5 -3.5q107 0 165.5 32.5
t58.5 113.5q0 79 -49.5 110t-137.5 31q-14 0 -32 -0.5t-37.5 -1.5l-39 -2t-34.5 -2q-4 0 -12 -0.5t-16 -0.5q-13 0 -18 6t-2 25l49 313q3 17 24 17h346q22 0 29 -4.5t8 -29.5l6 -123q0 -21 -16 -21h-41q-8 0 -13 3.5t-7 15.5l-6 35q-3 13 -6.5 20.5t-10.5 11.5t-19 4.5
t-30 0.5h-178z" />
    <glyph glyph-name="six" unicode="6" horiz-adv-x="653" 
d="M336 -11q-84 0 -139.5 23.5t-88.5 68t-46.5 107.5t-13.5 141q0 208 90 306t264 98q25 0 48 -2t42 -4t32 -4.5t18 -3.5q15 -3 16.5 -6t1.5 -13v-59q0 -11 -6 -12.5t-21 0.5q-35 6 -63.5 8t-49.5 2q-69 0 -116.5 -17.5t-78 -53.5t-45.5 -91.5t-18 -131.5q12 37 34 61.5
t50 38.5t59 20t62 6q55 0 101 -14.5t79.5 -43.5t52.5 -74t19 -105q0 -65 -20.5 -111.5t-57.5 -76t-89.5 -43.5t-115.5 -14zM339 71q33 0 62.5 9.5t51.5 29t35 49t13 70.5q0 71 -42 112.5t-117 41.5t-119 -43t-44 -115q0 -69 41 -111.5t119 -42.5z" />
    <glyph glyph-name="seven" unicode="7" horiz-adv-x="568" 
d="M548 722q9 0 12 -3.5t3 -11.5v-25q0 -19 -7 -40t-21 -49l-303 -575q-5 -10 -10.5 -14t-16.5 -4h-88q-10 0 -14.5 4.5t0.5 13.5l332 617h-232q-24 0 -39.5 -1t-25 -5t-14 -12t-6.5 -21l-5 -45q-3 -17 -20 -17h-50q-11 0 -13 4t-1 15l5 131q1 27 9.5 32.5t34.5 5.5h470z
" />
    <glyph glyph-name="plus" unicode="+" horiz-adv-x="541" 
d="M308 375h157q13 0 20 -4.5t10.5 -10.5t4 -13.5t0.5 -13.5q0 -17 -8 -25.5t-31 -8.5h-153v-142q0 -23 -15 -28.5t-29 -5.5q-24 0 -30.5 14.5t-6.5 40.5v121h-150q-12 0 -19.5 4t-11.5 10t-5 13.5t-1 14.5q0 24 15 29t42 5h130v133q0 22 15.5 27.5t29.5 5.5q18 0 27 -7
t9 -30v-129z" />
    <glyph glyph-name="equal" unicode="=" horiz-adv-x="589" 
d="M95 360q-20 0 -25.5 15t-5.5 27q0 24 13.5 29t37.5 5h380q21 0 25 -15t4 -27q0 -15 -7 -24.5t-27 -9.5h-395zM95 194q-20 0 -25.5 15t-5.5 27q0 24 13.5 29t37.5 5h380q21 0 25 -15t4 -27q0 -15 -7 -24.5t-27 -9.5h-395z" />
    <glyph glyph-name="greater" unicode="&#x3e;" horiz-adv-x="646" 
d="M479 279h132q0 -28 -8 -41t-34 -22l-456 -174q-9 -3 -16 -5t-13 -2q-15 0 -21 9.5t-8 26.5v25.5t4 17.5t12 12t24 10zM95 422q-16 5 -24 10t-12 12t-4 17.5v25.5q2 17 8 26.5t21 9.5q6 0 13 -2t16 -5l456 -174q26 -10 34 -22.5t8 -40.5h-132z" />
    <glyph glyph-name="colon" unicode=":" horiz-adv-x="271" 
d="M61 60q0 34 23.5 56t53.5 22q29 0 51 -19t22 -53q0 -35 -23.5 -55.5t-55.5 -20.5q-30 0 -50.5 19t-20.5 51zM61 447q0 34 23.5 56t53.5 22q29 0 51 -19t22 -53t-23.5 -55t-55.5 -21q-30 0 -50.5 19t-20.5 51z" />
    <glyph glyph-name="semicolon" unicode=";" horiz-adv-x="288" 
d="M71 60q0 34 24 56t54 22q29 0 51 -19t22 -53v-4q-1 -30 -12.5 -59.5t-30.5 -57.5t-44.5 -54t-53.5 -48q-8 -6 -12 -2l-25 21q-6 5 5 13q29 23 54 54.5t34 60.5q-28 2 -47 21t-19 49zM71 447q0 34 24 56t54 22q29 0 51 -19t22 -53t-23.5 -55t-55.5 -21q-30 0 -51 19
t-21 51z" />
    <glyph glyph-name="parenleft" unicode="(" horiz-adv-x="388" 
d="M334 -105q-149 73 -222.5 179.5t-74.5 233.5h109q2 -115 55.5 -209t158.5 -172q12 -9 0 -25q-6 -10 -10.5 -11t-15.5 4zM334 721q11 5 15.5 4t10.5 -11q12 -16 0 -25q-105 -78 -158.5 -172t-55.5 -209h-109q1 127 74.5 233.5t222.5 179.5z" />
    <glyph glyph-name="question" unicode="?" horiz-adv-x="573" 
d="M419 537q0 21 -8 41.5t-24.5 36t-42 25t-61.5 9.5q-42 0 -72.5 -10.5t-48.5 -27.5q23 -21 23 -53q0 -35 -23.5 -54t-54.5 -19q-30 0 -51.5 19t-21.5 52q0 28 14 59t44.5 57t78.5 42.5t117 16.5q60 0 107 -15t79 -40.5t48.5 -60.5t16.5 -75q0 -46 -17 -80.5t-42 -62.5
t-54.5 -51t-54.5 -44.5t-42 -44t-17 -49.5v-10q0 -12 -7 -16t-20 -4h-53q-17 0 -23 7.5t-6 23.5q0 33 16 60t40 50.5t52 46t52 48t40 55.5t16 68zM180 58q0 33 23.5 53.5t54.5 20.5q29 0 51.5 -19t22.5 -53q0 -35 -23.5 -54t-55.5 -19q-30 0 -51.5 19t-21.5 52z" />
    <glyph glyph-name="fraction" unicode="&#x2044;" horiz-adv-x="489" 
d="M465 731q8 11 14 14.5t17 2.5t27.5 -10t18.5 -26q2 -8 -1.5 -16t-10.5 -16l-507 -661q-16 -21 -35 -17q-14 1 -27 10.5t-14 28.5q-2 6 1.5 13.5t8.5 13.5z" />
    <glyph glyph-name="percent.osf" horiz-adv-x="940" 
d="M673 619q8 10 14 13.5t16 2.5q6 0 13.5 -2.5t14 -7t11.5 -11t6 -15.5q2 -7 -1 -14t-9 -14l-453 -553q-8 -11 -15 -14.5t-17 -2.5q-13 1 -27.5 10.5t-14.5 29.5q-2 6 1.5 12.5t8.5 11.5zM29 450q0 36 10.5 68t33.5 56t59 38t88 14t88.5 -14t59.5 -38t33.5 -56t10.5 -68
t-10.5 -68.5t-33.5 -56.5t-59.5 -38.5t-88.5 -14.5t-88 14.5t-59 38.5t-33.5 56.5t-10.5 68.5zM220 564q-45 0 -66.5 -31.5t-21.5 -83.5q0 -53 21 -83.5t67 -30.5q48 0 69 30.5t21 83.5q0 52 -22 83.5t-68 31.5zM532 170q0 36 10.5 68t33.5 56t59.5 38.5t88.5 14.5
q51 0 87.5 -14.5t60 -38.5t34 -56t10.5 -68t-10.5 -68t-34 -56.5t-60 -39t-87.5 -14.5q-52 0 -88.5 14.5t-59.5 39t-33.5 56.5t-10.5 68zM724 284q-44 0 -66 -31t-22 -84q0 -52 21 -83t67 -31q48 0 68 31t20 83q0 53 -21 84t-67 31z" />
    <glyph glyph-name="numbersign" unicode="#" horiz-adv-x="944" 
d="M503 200h-211l-85 -184q-8 -18 -18.5 -22.5t-39.5 -4.5q-53 0 -53 30q0 12 7 27l70 154h-103q-23 0 -30 13.5t-7 29.5q0 23 15 28t42 5h118l84 182h-123q-23 0 -30 13.5t-7 29.5q0 23 15 28t42 5h138l74 161q5 10 9.5 17t12.5 11t20.5 5.5t32.5 1.5q27 0 36 -8.5t5 -27.5
q-2 -7 -5 -15t-6 -15l-60 -130h211l74 161q5 10 9.5 17t12.5 11t20.5 5.5t32.5 1.5q27 0 36 -8.5t5 -27.5q-2 -7 -5 -15t-6 -15l-60 -130h105q10 0 16 -4.5t9 -11t3.5 -14t0.5 -14.5q0 -15 -6.5 -23.5t-27.5 -8.5h-135l-84 -182h125q10 0 16 -4.5t9 -11t3.5 -14t0.5 -14.5
q0 -15 -6.5 -23.5t-27.5 -8.5h-155l-85 -184q-8 -18 -18.5 -22.5t-39.5 -4.5q-53 0 -53 30q0 12 7 27zM327 276h211l84 182h-211z" />
    <glyph glyph-name="ampersand.001" horiz-adv-x="752" 
d="M484 559q0 27 18 48q-18 23 -55.5 32.5t-87.5 10.5q-35 0 -64 -6t-51 -20t-34 -36.5t-12 -55.5q0 -18 6.5 -38t21 -36.5t39 -27.5t60.5 -11h22q13 0 15 -4t2 -12v-45q0 -17 -15 -17h-29q-41 0 -70.5 -11t-49 -29.5t-29 -42t-9.5 -48.5q0 -38 14 -64.5t38 -43t55.5 -24.5
t65.5 -8q40 0 75 9.5t61.5 29.5t42 52t15.5 77v54q0 29 -9.5 38t-35.5 9h-28q-12 0 -15.5 3.5t-3.5 13.5v42q0 12 4 15.5t15 3.5h260q11 0 15.5 -3.5t4.5 -15.5v-42q0 -11 -3.5 -14t-16.5 -3h-28q-26 0 -35 -8t-9 -39v-54q0 -66 -24 -113.5t-65.5 -78t-98 -45t-121.5 -14.5
q-61 0 -114.5 13t-93 39.5t-62.5 67t-23 95.5q0 40 12.5 70.5t34 53t50 37.5t59.5 23q-24 7 -45.5 19.5t-37.5 30.5t-25.5 43.5t-9.5 59.5q0 46 19.5 82t55.5 61t87 37.5t115 12.5q127 -1 202 -42.5t76 -125.5v-3q0 -35 -23.5 -54t-55.5 -19q-29 0 -50.5 19t-21.5 52z" />
    <glyph glyph-name="dotlessi" unicode="&#x131;" horiz-adv-x="349" 
d="M238 112q1 -23 11 -29t36 -6h28q13 0 16.5 -3.5t3.5 -11.5v-44q0 -11 -4.5 -14.5t-15.5 -3.5h-261q-11 0 -15.5 3.5t-4.5 14.5v44q0 8 3.5 11.5t16.5 3.5h29q24 0 34.5 6t12.5 29v306q-1 9 -4 15t-11 9.5t-21.5 4.5t-35.5 1q-11 0 -14.5 4.5t-3.5 13.5v41q0 11 4.5 14.5
t15.5 4.5l154 8q15 0 20.5 -6.5t5.5 -21.5v-394v0z" />
    <glyph glyph-name="caron" unicode="&#x2c7;" horiz-adv-x="916" 
d="M162 750l69 57q11 6 16 9t19 3h41q16 0 18.5 -5.5t-6.5 -13.5l-115 -100q-11 -10 -18.5 -12t-23.5 -2q-17 0 -24 2t-18 12l-116 100q-9 8 -5 13.5t18 5.5h41q14 0 19 -3l15 -9z" />
    <glyph glyph-name="circumflex" unicode="&#x2c6;" horiz-adv-x="407" 
d="M162 750l-70 -56q-10 -8 -17 -10.5t-21 -2.5h-38q-16 0 -18 6t10 17l111 96q11 10 18.5 12t23.5 2q17 0 24.5 -2t18.5 -12l111 -96q12 -11 8.5 -17t-17.5 -6h-40q-11 0 -17.5 2.5t-17.5 10.5z" />
    <glyph glyph-name="lslash" unicode="&#x142;" horiz-adv-x="378" 
d="M63 251q-20 -12 -34 -4t-23 21q-14 21 -5.5 33t33.5 28l91 56v262q-3 29 -31 30h-41q-12 1 -15 6.5t-3 14.5v37q0 13 3.5 16t14.5 4l156 8q15 0 20.5 -6.5t5.5 -21.5v-283l77 48q19 11 31.5 2t22.5 -21q10 -14 8.5 -26t-21.5 -24l-118 -74v-238q0 -44 33 -44q15 0 22 2
t16 3q7 1 10.5 -0.5t3.5 -9.5v-45q0 -7 -3 -12.5t-12 -8.5q-14 -5 -29 -7t-45 -2q-18 0 -37 4t-34.5 15.5t-25 31t-9.5 51.5v192z" />
    <glyph glyph-name="hungarumlaut" unicode="&#x2dd;" horiz-adv-x="607" 
d="M83 631q-7 6 -8 10t8 12l125 115q19 14 30 6l50 -34q8 -6 8 -10.5t-14 -14.5l-150 -96q-12 -7 -18.5 -7.5t-12.5 4.5zM254 630q-7 5 -8.5 9t7.5 12l125 117q10 8 16.5 9.5t12.5 -3.5l51 -33q7 -6 7.5 -11t-13.5 -14l-150 -97q-11 -8 -17.5 -8t-12.5 5z" />
    <glyph glyph-name="asciicircum" unicode="^" horiz-adv-x="607" 
d="M152 443q-7 -11 -12.5 -17t-12.5 -9.5t-17.5 -4.5t-27.5 -1q-26 0 -37 7t5 30l192 277q11 18 23.5 22t37.5 4v-100zM303 651v100q25 0 37.5 -4t23.5 -22l192 -277q15 -23 4 -30t-37 -7q-17 0 -27.5 1t-17.5 4.5t-12.5 9.5t-12.5 17z" />
    <glyph glyph-name="underscore" unicode="_" horiz-adv-x="914" 
d="M81 -93q-13 0 -16 15t-3 29q0 24 11.5 29t34.5 5h725q13 0 16 -15.5t3 -27.5q0 -17 -4.5 -26t-18.5 -9h-748z" />
    <glyph glyph-name="asciitilde" unicode="~" horiz-adv-x="526" 
d="M358 319q61 0 67 48q2 6 4.5 9t12.5 3h56q8 0 11.5 -4.5t3.5 -18.5q0 -63 -40 -99.5t-119 -36.5q-26 0 -44 4t-30.5 10.5t-20 14t-13.5 15.5q-5 7 -10 13t-12.5 10.5t-17.5 7.5t-26 3q-33 0 -48.5 -13t-18.5 -34q-2 -8 -4.5 -11t-13.5 -3h-53q-10 0 -13.5 4t-3.5 19
q0 63 38.5 99.5t113.5 36.5q27 0 46.5 -4.5t33 -11.5t21.5 -15.5t14 -15.5q10 -14 22.5 -22t43.5 -8z" />
    <glyph glyph-name="tilde" unicode="&#x2dc;" horiz-adv-x="405" 
d="M219 756q33 0 36 25q2 5 4 7.5t9 2.5h39q12 0 12 -12q0 -45 -25 -69t-70 -24q-32 0 -45.5 7.5t-20.5 15.5q-5 6 -11 11t-23 5q-31 0 -34 -26q-2 -6 -4 -8t-10 -2h-38q-5 0 -8.5 2.5t-3.5 10.5q0 44 25 68t70 24q32 0 45 -8.5t19 -16.5q6 -5 13.5 -9t20.5 -4z" />
    <glyph glyph-name="ellipsis" unicode="&#x2026;" horiz-adv-x="898" 
d="M55 60q0 34 23.5 56t54.5 22q29 0 50.5 -19t21.5 -53q0 -35 -23.5 -55.5t-55.5 -20.5q-29 0 -50 19t-21 51zM374 60q0 34 23.5 56t54.5 22q29 0 50.5 -19t21.5 -53q0 -35 -23.5 -55.5t-55.5 -20.5q-29 0 -50 19t-21 51zM693 60q0 34 23.5 56t54.5 22q29 0 50.5 -19
t21.5 -53q0 -35 -23.5 -55.5t-55.5 -20.5q-29 0 -50 19t-21 51z" />
    <glyph glyph-name="AE" unicode="&#xc6;" horiz-adv-x="1041" 
d="M235 234l-48 -110q-13 -29 -5 -37t35 -10h18q13 -1 16.5 -7t3.5 -14v-37q0 -11 -4.5 -15t-15.5 -4h-222q-12 0 -16 3.5t-4 14.5v41q0 8 3 13t17 6h33q7 0 13 1.5t11.5 7t11.5 16t15 29.5l242 559q5 11 9 17t9 9t13 4t22 1h528q15 0 24.5 -1t14.5 -5.5t7.5 -14t3.5 -26.5
l8 -115q1 -14 -1 -19t-16 -5h-45q-13 0 -17.5 4t-6.5 18l-5 41q-2 17 -8 26.5t-19 14t-34 5.5t-53 1h-175v-252h127q12 0 21.5 5.5t11.5 22.5l3 35q2 12 5.5 14.5t16.5 2.5h31q11 0 14 -4t3 -15v-199q0 -10 -3 -14.5t-14 -4.5h-31q-12 0 -16 3.5t-6 13.5l-3 35
q-2 17 -11.5 23t-21.5 6h-127v-242h205q33 0 52.5 2t31 8.5t17.5 20t11 37.5l7 49q3 10 8 14t17 4h37q12 0 15.5 -4.5t2.5 -15.5l-15 -144q-2 -17 -5.5 -26.5t-9 -14t-14.5 -5.5t-21 -1h-526q-11 0 -15.5 3.5t-4.5 14.5v39q0 20 17 20q23 0 38 1.5t23.5 7t11.5 14.5t3 24
v110h-249zM268 311h216v333h-51q-8 0 -15.5 -5t-11.5 -14z" />
    <glyph glyph-name="ae" unicode="&#xe6;" horiz-adv-x="981" 
d="M697 544q119 0 183 -49.5t64 -137.5q0 -77 -61 -122t-193 -45q-44 0 -84.5 5t-76.5 14q10 -65 53.5 -102t133.5 -37q33 0 60.5 3.5t48.5 8.5q18 5 40 12.5t33 9.5q8 2 10.5 -2t2.5 -9v-45q0 -12 -3.5 -17t-17.5 -11q-75 -33 -182 -33t-171 32t-95 92q-20 -48 -75 -82.5
t-147 -34.5q-182 0 -182 146q0 51 22 85t63 53.5t101 27.5t135 8h50v43q0 62 -30.5 86.5t-98.5 24.5q-26 0 -51 -3t-45 -10q14 -17 14 -40q0 -30 -20.5 -48.5t-48.5 -18.5q-26 0 -44 17t-18 46v6q1 37 15.5 61.5t41.5 39t65.5 20.5t88.5 6q75 0 127.5 -15.5t81.5 -57.5
q36 35 88.5 54t121.5 19zM697 468q-43 0 -74.5 -14t-52.5 -38.5t-32 -58.5t-13 -74q38 -10 78 -15t76 -5q78 0 118.5 23.5t40.5 75.5q0 50 -38 78t-103 28zM147 141q0 -32 21 -51t74 -19q36 0 66.5 10t53 29t35 46.5t12.5 62.5v23h-50q-103 0 -157.5 -22t-54.5 -79z" />
    <glyph glyph-name="Euro" unicode="&#x20ac;" horiz-adv-x="889" 
d="M678 550q0 21 10 37.5t27 25.5q-26 17 -63.5 26.5t-88.5 9.5q-65 0 -113.5 -17.5t-83 -48.5t-54.5 -72.5t-28 -89.5h315q21 0 25.5 -15.5t4.5 -27.5q0 -14 -7 -23.5t-28 -9.5h-315q0 -14 1 -26.5t3 -25.5h239q21 0 25.5 -15t4.5 -27q0 -15 -7 -24.5t-27 -9.5h-213
q29 -64 93 -102t172 -38q47 0 84 5.5t65.5 14t49 17.5t35.5 16q16 8 25.5 8.5t9.5 -17.5v-52q0 -6 -2.5 -11.5t-13.5 -11.5q-13 -8 -36.5 -18t-57 -18.5t-77.5 -14.5t-98 -6q-69 0 -129.5 14t-109 42t-83.5 71t-54 101h-110q-20 0 -25 15t-5 27q0 24 13.5 29t37.5 5h73
q-2 12 -2.5 25t-1.5 27h-91q-10 0 -16 4.5t-9 10.5t-4 13.5t-1 13.5q0 24 13.5 29t37.5 5h74q10 68 40 125t79.5 98t117.5 64t155 23q74 0 126 -16t85 -41.5t48.5 -56.5t15.5 -61v-4q0 -35 -23.5 -54t-55.5 -19q-30 0 -51 19t-21 52z" />
    <glyph glyph-name="perthousand" unicode="&#x2030;" horiz-adv-x="1518" 
d="M32 529q0 42 11.5 79.5t36 66t64 45.5t95.5 17t95.5 -17t64 -45.5t36 -66t11.5 -79.5t-11.5 -80t-36 -66.5t-64 -45.5t-95.5 -17t-95.5 17t-64 45.5t-36 66.5t-11.5 80zM239 672q-52 0 -78 -40.5t-26 -103.5t25 -103t79 -40q56 0 79.5 40t23.5 103t-24.5 103.5
t-78.5 40.5zM592 200q0 42 11 79.5t36 66t64.5 45.5t95.5 17t95.5 -17t64 -45.5t36 -66t11.5 -79.5t-11.5 -80t-36 -66.5t-64 -45.5t-95.5 -17t-95.5 17t-64.5 45.5t-36 66.5t-11 80zM799 343q-52 0 -77.5 -40.5t-25.5 -103.5t24.5 -103t78.5 -40q57 0 80.5 40t23.5 103
t-25 103.5t-79 40.5zM1071 200q0 42 11 79.5t35.5 66t64 45.5t95.5 17t95.5 -17t64 -45.5t36 -66t11.5 -79.5t-11.5 -80t-36 -66.5t-64 -45.5t-95.5 -17t-95.5 17t-64 45.5t-35.5 66.5t-11 80zM1277 343q-51 0 -77 -40.5t-26 -103.5t24.5 -103t78.5 -40q57 0 80.5 40
t23.5 103t-25 103.5t-79 40.5zM744 731q8 11 14 14.5t17 2.5t27.5 -10t18.5 -26q2 -8 -1.5 -16t-10.5 -16l-507 -661q-16 -21 -35 -17q-14 1 -27 10.5t-14 28.5q-2 6 1.5 13.5t8.5 13.5z" />
    <glyph glyph-name="quotedblbase" unicode="&#x201e;" horiz-adv-x="487" 
d="M68 60q0 34 21 56t57 22q31 0 51.5 -21t20.5 -62q0 -27 -10 -52.5t-26.5 -49.5t-38 -46t-43.5 -41q-8 -6 -13 -7.5t-13 6.5l-11 10q-6 6 -5 10.5t9 11.5q20 17 38 43.5t25 49.5q-26 2 -44 20.5t-18 49.5zM272 60q0 34 21 56t57 22q31 0 51.5 -21t20.5 -62
q0 -27 -10 -52.5t-26.5 -49.5t-38 -46t-43.5 -41q-8 -6 -13 -7.5t-13 6.5l-11 10q-6 6 -5 10.5t9 11.5q20 17 38 43.5t25 49.5q-26 2 -44 20.5t-18 49.5z" />
    <glyph glyph-name="quotesinglbase" unicode="&#x201a;" horiz-adv-x="284" 
d="M68 60q0 34 21 56t57 22q31 0 51.5 -21t20.5 -62q0 -27 -10 -52.5t-26.5 -49.5t-38 -46t-43.5 -41q-8 -6 -13 -7.5t-13 6.5l-11 10q-6 6 -5 10.5t9 11.5q20 17 38 43.5t25 49.5q-26 2 -44 20.5t-18 49.5z" />
    <glyph glyph-name="quotedblleft" unicode="&#x201c;" horiz-adv-x="447" 
d="M196 523q0 -34 -21 -56t-57 -22q-31 0 -51.5 21t-20.5 62q0 27 10 52.5t26.5 49.5t37.5 46t44 41q8 6 13 7.5t13 -6.5l11 -10q6 -6 5 -10.5t-9 -11.5q-20 -17 -38 -43.5t-25 -49.5q26 -2 44 -20.5t18 -49.5zM389 523q0 -34 -21 -56t-57 -22q-31 0 -51.5 21t-20.5 62
q0 27 10 52.5t26.5 49.5t37.5 46t44 41q8 6 13 7.5t13 -6.5l11 -10q6 -6 5 -10.5t-9 -11.5q-20 -17 -38 -43.5t-25 -49.5q26 -2 44 -20.5t18 -49.5z" />
    <glyph glyph-name="quoteleft" unicode="&#x2018;" horiz-adv-x="255" 
d="M196 523q0 -34 -21 -56t-57 -22q-31 0 -51.5 21t-20.5 62q0 27 10 52.5t26.5 49.5t37.5 46t44 41q8 6 13 7.5t13 -6.5l11 -10q6 -6 5 -10.5t-9 -11.5q-20 -17 -38 -43.5t-25 -49.5q26 -2 44 -20.5t18 -49.5z" />
    <glyph glyph-name="quoteright" unicode="&#x2019;" horiz-adv-x="254" 
d="M66 650q0 34 21 56t57 22q31 0 51.5 -21t20.5 -62q0 -27 -10 -52.5t-26.5 -49.5t-38 -46t-43.5 -41q-8 -6 -13 -7.5t-13 6.5l-11 10q-6 6 -5 10.5t9 11.5q20 17 38 43.5t25 49.5q-26 2 -44 20.5t-18 49.5z" />
    <glyph glyph-name="quotedblright" unicode="&#x201d;" horiz-adv-x="448" 
d="M66 650q0 34 21 56t57 22q31 0 51.5 -21t20.5 -62q0 -27 -10 -52.5t-26.5 -49.5t-38 -46t-43.5 -41q-8 -6 -13 -7.5t-13 6.5l-11 10q-6 6 -5 10.5t9 11.5q20 17 38 43.5t25 49.5q-26 2 -44 20.5t-18 49.5zM259 650q0 34 21 56t57 22q31 0 51.5 -21t20.5 -62
q0 -27 -10 -52.5t-26.5 -49.5t-38 -46t-43.5 -41q-8 -6 -13 -7.5t-13 6.5l-11 10q-6 6 -5 10.5t9 11.5q20 17 38 43.5t25 49.5q-26 2 -44 20.5t-18 49.5z" />
    <glyph glyph-name="guilsinglleft" unicode="&#x2039;" horiz-adv-x="515" 
d="M450 75q8 -5 14.5 -12t6.5 -15q0 -21 -25 -21h-61q-17 0 -36 11l-283 175q-11 7 -18 13t-10.5 13t-5 16t-1.5 22q0 25 6.5 37.5t28.5 26.5l283 175q19 11 36 11h61q11 0 18 -5.5t7 -15.5q0 -8 -6.5 -15t-14.5 -12l-325 -202l325 -202v0z" />
    <glyph glyph-name="guilsinglright" unicode="&#x203a;" horiz-adv-x="514" 
d="M389 277l-325 202q-8 5 -14.5 12t-6.5 15q0 10 6.5 15.5t17.5 5.5h61q18 0 37 -11l282 -175q22 -14 29 -26.5t7 -37.5q0 -13 -1.5 -22t-5.5 -16t-11 -13t-18 -13l-282 -175q-19 -11 -37 -11h-61q-11 0 -17.5 5.5t-6.5 15.5q0 8 6.5 15t14.5 12z" />
    <glyph glyph-name="guillemotleft" unicode="&#xab;" horiz-adv-x="844" 
d="M450 75q8 -5 14.5 -12t6.5 -15q0 -21 -25 -21h-61q-17 0 -36 11l-283 175q-11 7 -18 13t-10.5 13t-5 16t-1.5 22q0 25 6.5 37.5t28.5 26.5l283 175q19 11 36 11h61q11 0 18 -5.5t7 -15.5q0 -8 -6.5 -15t-14.5 -12l-325 -202zM780 75q8 -5 14.5 -12t6.5 -15q0 -21 -25 -21
h-61q-17 0 -36 11l-283 175q-11 7 -18 13t-10.5 13t-5 16t-1.5 22q0 25 6.5 37.5t28.5 26.5l283 175q19 11 36 11h61q11 0 18 -5.5t7 -15.5q0 -8 -6.5 -15t-14.5 -12l-325 -202z" />
    <glyph glyph-name="guillemotright" unicode="&#xbb;" horiz-adv-x="844" 
d="M389 277l-325 202q-8 5 -14.5 12t-6.5 15q0 10 6.5 15.5t17.5 5.5h61q18 0 37 -11l282 -175q22 -14 29 -26.5t7 -37.5q0 -13 -1.5 -22t-5.5 -16t-11 -13t-18 -13l-282 -175q-19 -11 -37 -11h-61q-11 0 -17.5 5.5t-6.5 15.5q0 8 6.5 15t14.5 12zM719 277l-325 202
q-8 5 -14.5 12t-6.5 15q0 10 6.5 15.5t17.5 5.5h61q18 0 37 -11l282 -175q22 -14 29 -26.5t7 -37.5q0 -13 -1.5 -22t-5.5 -16t-11 -13t-18 -13l-282 -175q-19 -11 -37 -11h-61q-11 0 -17.5 5.5t-6.5 15.5q0 8 6.5 15t14.5 12z" />
    <glyph glyph-name="oe" unicode="&#x153;" horiz-adv-x="1055" 
d="M41 266q0 57 15 108t48 88.5t85.5 59.5t126.5 22q81 0 136 -26t87 -71q35 46 93 71.5t138 25.5q119 0 183.5 -49.5t64.5 -137.5q0 -77 -61.5 -122t-194.5 -45q-43 0 -83.5 5t-76.5 14q10 -65 53.5 -102t133.5 -37q33 0 60.5 3.5t49.5 8.5q18 5 39.5 12.5t33.5 9.5
q8 2 10 -2t2 -9v-45q0 -12 -3.5 -17t-17.5 -11q-37 -17 -83.5 -25t-98.5 -8q-92 0 -151.5 23.5t-94.5 68.5q-32 -42 -86.5 -67t-132.5 -25q-74 0 -126.5 22t-85.5 60.5t-48 89t-15 107.5zM316 468q-43 0 -73.5 -14.5t-49.5 -41t-28 -64t-9 -83.5t9 -83t28 -63.5t49.5 -41
t73.5 -14.5t73.5 14.5t49.5 41t28 63.5t9 83t-9 83.5t-28 64t-49.5 41t-73.5 14.5zM770 468q-43 0 -74.5 -14t-52.5 -38.5t-32 -58.5t-13 -74q38 -10 77.5 -15t75.5 -5q78 0 119 23.5t41 75.5q0 50 -38 78t-103 28z" />
    <glyph glyph-name="OE" unicode="&#x152;" horiz-adv-x="1257" 
d="M43 358q0 64 18.5 131t63 121t120 88.5t189.5 34.5q95 0 163.5 -24t115.5 -65v59q0 14 4 16.5t17 2.5h405q15 0 24 -1t14.5 -5.5t7.5 -14t3 -26.5l8 -115q1 -14 -0.5 -19t-15.5 -5h-46q-12 0 -16 4t-6 18l-6 41q-2 17 -7.5 26.5t-18 14t-34 5.5t-55.5 1h-164v-242h108
q12 0 21.5 5.5t11.5 22.5l3 33q2 12 6 15t16 3h38q13 0 16 -4t3 -15v-197q0 -10 -3 -14.5t-15 -4.5h-39q-12 0 -16.5 3.5t-5.5 14.5l-3 33q-2 17 -11.5 23t-21.5 6h-108v-252h211q25 0 40.5 1.5t24.5 7.5t14 17t9 30l9 61q3 10 7.5 14t17.5 4h37q12 0 15.5 -4.5t1.5 -15.5
l-16 -158q-2 -23 -10 -28t-27 -5h-425q-15 0 -19 2.5t-4 19.5v54q-46 -41 -113.5 -65t-163.5 -24q-110 0 -185 31.5t-121.5 83.5t-66.5 118.5t-20 137.5zM433 651q-79 0 -131.5 -27t-83.5 -69t-43.5 -93.5t-12.5 -101.5q0 -47 12 -98t43 -94t84 -71t136 -28q81 0 133.5 27.5
t82.5 70t42 93.5t12 99q0 46 -11.5 97t-42 94.5t-84 72t-136.5 28.5z" />
    <glyph glyph-name="exclamdown" unicode="&#xa1;" horiz-adv-x="297" 
d="M76 69q0 38 7.5 77.5t16 92t16 122.5t7.5 170q0 8 4 12t21 4t21 -4t4 -12q0 -100 7.5 -170t16 -122.5t16 -92t7.5 -77.5q0 -42 -17 -60.5t-55 -18.5t-55 18.5t-17 60.5zM75 664q0 34 23.5 56t54.5 22q29 0 50.5 -19t21.5 -53q0 -35 -23.5 -55.5t-55.5 -20.5q-29 0 -50 19
t-21 51z" />
    <glyph glyph-name="cent" unicode="&#xa2;" horiz-adv-x="599" 
d="M394 419q0 20 10 38q-32 10 -70 11q-46 0 -78.5 -15.5t-53.5 -43t-30.5 -65t-9.5 -81.5t9.5 -79.5t32 -61t59 -39t90.5 -13.5q33 0 60.5 3.5t48.5 8.5q18 5 40 12.5t33 9.5q8 2 10.5 -2t2.5 -9v-45q0 -12 -3.5 -17t-17.5 -11q-28 -13 -61 -20.5t-70 -10.5v-45
q0 -22 -24 -23h-62q-14 0 -18.5 6.5t-4.5 15.5v47q-66 6 -111.5 28t-74 57.5t-41.5 83.5t-13 106q0 56 15 104t45 84t75 59t105 29v57q0 11 5 17t19 7h63q12 0 17 -6.5t5 -16.5v-60q73 -13 122 -56q21 -19 18 -31q6 -14 6 -29q0 -34 -23.5 -54t-53.5 -20q-29 0 -50 18.5
t-21 51.5z" />
    <glyph glyph-name="section" unicode="&#xa7;" horiz-adv-x="553" 
d="M48 116q0 30 20 49t46 19t45.5 -17t19.5 -47q0 -27 -20 -47q23 -11 49.5 -15.5t49.5 -4.5q24 0 46 4t38 13t25.5 23.5t9.5 34.5q0 27 -23.5 42.5t-58.5 27t-75.5 21.5t-75.5 26.5t-58.5 42t-23.5 68.5q0 51 25.5 83t70.5 48q-33 17 -55 42t-22 66q0 73 55 107.5t148 34.5
q63 0 103 -10t62 -25.5t30 -34.5t8 -38l-5 -1q-2 -28 -22.5 -44.5t-45.5 -16.5q-26 0 -44.5 16.5t-18.5 45.5q0 16 6 28q-19 6 -39 9.5t-38 3.5q-45 0 -71.5 -14t-26.5 -46q0 -25 24 -40t59.5 -26.5t77 -22t77 -27.5t59.5 -43.5t24 -68.5q0 -51 -24 -84.5t-60 -52.5
q29 -17 47.5 -41t18.5 -60q0 -42 -18.5 -72t-50 -49t-74 -28t-90.5 -9q-42 0 -79.5 8.5t-65 24t-43.5 38.5t-16 53v6zM395 367q0 20 -15 34t-39 24q-20 5 -40.5 8.5t-39.5 3.5q-45 0 -71 -15.5t-26 -50.5q0 -18 11.5 -30.5t30.5 -22t44.5 -17t52.5 -14.5h1q14 0 30 3.5
t29.5 12.5t22.5 24.5t9 39.5z" />
    <glyph glyph-name="yen" unicode="&#xa5;" horiz-adv-x="804" 
d="M293 77q26 0 36 9t10 38v154l-196 317q-20 32 -35.5 40.5t-27.5 8.5h-24q-16 0 -20.5 5.5t-4.5 15.5v39q0 11 5.5 14.5t19.5 3.5h245q15 0 20 -3.5t5 -16.5v-33q0 -10 -4.5 -16.5t-20.5 -6.5h-20q-5 0 -11 -0.5t-9.5 -3.5t-3.5 -9t7 -18l144 -250l166 250q10 15 1.5 22
t-16.5 7h-23q-16 0 -21 7.5t-5 17.5v35q0 11 5.5 14.5t20.5 3.5h212q15 0 20.5 -3.5t5.5 -14.5v-39q0 -10 -5 -15.5t-21 -5.5h-28q-11 0 -20.5 -6t-26.5 -31l-220 -318v-165q0 -31 10 -39t36 -8h28q13 0 16 -3t3 -12v-44q0 -10 -4 -14t-15 -4h-261q-11 0 -15 3.5t-4 14.5v44
q0 8 3.5 11.5t15.5 3.5h27v0z" />
    <glyph glyph-name="florin" unicode="&#x192;" horiz-adv-x="630" 
d="M253 509v70q0 101 47.5 152.5t150.5 51.5q76 0 118 -33.5t42 -95.5h-20q-2 -28 -22 -45t-46 -17t-44.5 17t-18.5 46q0 17 7 30t18 22q-5 1 -11 1.5t-12 0.5q-50 0 -75 -28.5t-25 -94.5v-77h130q14 0 18.5 -2t4.5 -13v-43q0 -18 -22 -18h-131v-410q0 -101 -47.5 -152.5
t-150.5 -51.5q-75 0 -117 32t-44 90v4q0 29 20.5 48t46.5 19t45 -17t19 -46q0 -16 -6.5 -29t-17.5 -22q16 -6 43 -6q50 0 75 29t25 95v417h-73q-14 0 -19 3t-5 17v34q0 12 4 17t15 5h78z" />
    <glyph glyph-name="paragraph" unicode="&#xb6;" horiz-adv-x="622" 
d="M223 358q-40 0 -75 12.5t-60.5 35t-40.5 54.5t-15 73q0 42 14.5 76.5t40 59.5t61 39t78.5 14h334q10 0 15 -3.5t5 -14.5v-39q0 -20 -18 -20q-22 0 -36 -1.5t-22.5 -5.5t-12 -12t-4.5 -20v-697q0 -6 -1 -9t-9 -3h-67q-7 0 -8.5 2.5t-1.5 7.5v739h-90v-739q0 -5 -1 -7.5
t-7 -2.5h-70q-7 0 -8 2.5t-1 7.5v451z" />
    <glyph glyph-name="plusminus" unicode="&#xb1;" horiz-adv-x="566" 
d="M322 375h157q13 0 20 -4.5t10.5 -10.5t4 -13.5t0.5 -13.5q0 -17 -8 -25.5t-31 -8.5h-153v-142q0 -23 -15 -28.5t-29 -5.5q-24 0 -30.5 14.5t-6.5 40.5v121h-150q-12 0 -19.5 4t-11.5 10t-5 13.5t-1 14.5q0 24 15 29t42 5h130v133q0 22 15.5 27.5t29.5 5.5q18 0 27 -7
t9 -30v-129zM71 -19q-17 0 -17 16v45q0 8 3 11.5t14 3.5h413q10 0 13 -3.5t3 -11.5v-45q0 -9 -3 -12.5t-13 -3.5h-413z" />
    <glyph glyph-name="Eth" unicode="&#xd0;" horiz-adv-x="816" 
d="M772 360q0 -183 -112.5 -271.5t-327.5 -88.5h-268q-10 0 -14.5 3.5t-4.5 14.5v39q0 20 17 20q22 0 36.5 1.5t23 6t12 12.5t4.5 21v179h-74q-17 0 -17 16v45q0 8 3 11.5t14 3.5h74v229q0 22 -7.5 31t-26.5 11h-41q-18 0 -18 18v42q0 11 4 14.5t17 3.5h268
q223 0 330.5 -90.5t107.5 -271.5zM251 297v-214h80q166 0 243.5 65t77.5 212q0 77 -20 130.5t-60.5 87.5t-101.5 49t-143 15h-76v-269h226q10 0 13 -3.5t3 -11.5v-45q0 -9 -3 -12.5t-13 -3.5h-226z" />
    <glyph glyph-name="sterling" unicode="&#xa3;" horiz-adv-x="676" 
d="M431 562q0 27 17 47q-16 20 -45 30t-67 11q-31 0 -57.5 -8t-45.5 -25t-29.5 -43.5t-10.5 -63.5q0 -21 5.5 -41t14 -39.5t19 -38.5t20.5 -39h171q11 0 14 -3t3 -12v-45q0 -16 -17 -16h-144q4 -16 4 -37q0 -24 -5 -47.5t-15 -45.5t-25 -40t-36 -30h236q33 0 52.5 2t30.5 9
t17 20.5t12 36.5l8 49q3 10 7.5 14t17.5 4h37q12 0 15.5 -4.5t2.5 -15.5l-16 -144q-2 -17 -5 -26.5t-9 -14t-14.5 -5.5t-20.5 -1h-492q-13 0 -17 3.5t-4 14.5v41q0 10 3.5 13.5t14.5 3.5h3q26 6 44 19.5t29.5 32.5t16.5 42t5 47q0 16 -3.5 30.5t-8.5 28.5h-98q-11 0 -14 3.5
t-3 12.5v45q0 9 3 12t13 3h57q-19 31 -34 65.5t-15 82.5q0 57 18 100t52 72t81.5 44t107.5 16q114 0 182 -42.5t68 -127.5q-1 -35 -24.5 -53t-53.5 -18t-51.5 19t-21.5 52z" />
    <glyph glyph-name="currency" unicode="&#xa4;" horiz-adv-x="708" 
d="M357 160q-51 0 -92 11.5t-72 31.5l-51 -47q-17 -16 -36 -1l-43 44q-10 8 -8.5 16t9.5 15l58 54q-13 25 -18.5 52.5t-5.5 58.5q0 38 9 71.5t28 61.5l-57 53q-17 17 -1 33l44 44q8 9 16.5 7t15.5 -8l64 -59q56 29 140 29q36 0 66.5 -5.5t56.5 -15.5l65 60q8 8 16 8.5
t18 -8.5l45 -44q8 -8 7 -16t-8 -14l-54 -50q23 -29 34.5 -66.5t11.5 -79.5q0 -75 -34 -130l51 -46q8 -8 8.5 -16t-8.5 -17l-45 -44q-8 -8 -16 -7t-16 8l-53 48q-58 -32 -145 -32zM529 403q0 33 -12 61t-34.5 48.5t-54.5 32t-71 11.5t-71 -11.5t-54.5 -32t-35 -48.5
t-12.5 -61q0 -78 46 -124.5t127 -46.5q82 0 127 46.5t45 124.5z" />
    <glyph glyph-name="brokenbar" unicode="&#xa6;" horiz-adv-x="291" 
d="M91 718q0 11 5 17t19 7h62q13 0 17.5 -6.5t4.5 -16.5v-325q0 -22 -23 -23h-63q-13 0 -17.5 6.5t-4.5 15.5v325zM199 -136q0 -22 -23 -23h-63q-13 0 -17.5 6.5t-4.5 15.5v315q0 11 5 17t19 7h62q13 0 17.5 -6.5t4.5 -16.5v-315z" />
    <glyph glyph-name="questiondown" unicode="&#xbf;" horiz-adv-x="578" 
d="M153 189q0 -21 8 -41.5t24.5 -36t42.5 -25t62 -9.5q43 0 73.5 11.5t48.5 28.5q-24 21 -24 55t23.5 54.5t53.5 20.5q29 0 51.5 -19.5t22.5 -53.5q0 -7 -2 -17q-3 -28 -18.5 -56.5t-46 -52t-77.5 -38.5t-111 -15q-60 0 -107 15t-79 40.5t-48.5 60.5t-16.5 75q0 45 17 80
t42 63t54.5 50.5t54.5 44.5t42 44.5t17 49.5v10q0 12 7.5 15.5t19.5 3.5h53q17 0 22.5 -7t5.5 -23q0 -33 -16 -60t-40 -50.5t-51.5 -46t-51.5 -48t-40 -55.5t-16 -68zM246 627q0 34 23.5 54.5t53.5 20.5t52 -19.5t22 -53.5q0 -35 -23.5 -54t-55.5 -19q-29 0 -50.5 19
t-21.5 52z" />
    <glyph glyph-name="thorn" unicode="&#xfe;" horiz-adv-x="651" 
d="M193 441q34 57 85.5 79t108.5 22q52 0 93 -15t69.5 -47t43 -82.5t14.5 -121.5q0 -140 -67.5 -214.5t-190.5 -74.5q-49 0 -86.5 8t-69.5 21v-152q0 -22 -24 -23h-62q-14 0 -18.5 6.5t-4.5 15.5v855q0 11 5 17t19 7h63q12 0 17 -6.5t5 -16.5v-278zM359 458
q-147 0 -165 -189v-166q21 -13 59 -23t79 -10q46 0 77 16.5t50 44t27 65t8 79.5q0 37 -5.5 70.5t-20.5 58.5t-41.5 39.5t-67.5 14.5z" />
    <glyph glyph-name="Thorn" unicode="&#xde;" horiz-adv-x="674" 
d="M642 300q0 -63 -29 -108.5t-75.5 -75.5t-105 -44t-117.5 -14q-55 0 -107 11v-205q0 -22 -23 -23h-63q-13 0 -17.5 6.5t-4.5 15.5v855q0 11 5 17t19 7h62q13 0 17.5 -6.5t4.5 -16.5v-183q48 6 92 6q80 0 143.5 -15t107.5 -45.5t67.5 -76t23.5 -105.5zM208 156
q23 -8 52.5 -12t55.5 -4q43 0 81 10t65.5 30.5t43.5 50.5t16 69t-17 68t-45.5 48t-66 28.5t-78.5 9.5q-26 0 -53.5 -1.5t-53.5 -6.5v-290z" />
    <glyph glyph-name="eth" unicode="&#xf0;" horiz-adv-x="649" 
d="M498 574q45 -57 74 -126t29 -154q0 -50 -13 -103.5t-46 -98.5t-90.5 -74t-146.5 -29q-70 0 -121 20t-84.5 52.5t-49.5 74t-16 85.5q0 45 17 86.5t50 73.5t80 51t107 19q31 0 61.5 -7.5t58.5 -21t50.5 -33t36.5 -42.5q-9 64 -34 109.5t-62 83.5l-129 -44q-22 -8 -34 3
t-17 25q-8 23 2.5 33t39.5 20l69 24q-23 19 -49 38t-53 41q-3 2 -6.5 5.5t-3.5 8.5q0 4 6 12l39 36q6 6 10.5 7.5t7.5 1.5q8 0 17 -6q35 -21 71 -48t70 -59l137 47q20 8 31.5 -4t16.5 -26q7 -16 2.5 -27t-26.5 -19zM305 74q40 0 70 11.5t49.5 31.5t29.5 46.5t10 56.5
q0 32 -14 58.5t-37 45t-52.5 29t-60.5 10.5q-33 0 -60.5 -12t-47 -32t-30.5 -46.5t-11 -55.5q0 -27 9.5 -52.5t28.5 -45.5t48 -32.5t68 -12.5z" />
    <glyph glyph-name="ordfeminine" unicode="&#xaa;" horiz-adv-x="475" 
d="M65 676q0 8 1 12q7 35 44.5 49.5t110.5 14.5q34 0 62 -5.5t47 -20t29.5 -39t10.5 -62.5v-140q1 -12 8 -19.5t19 -7.5q6 0 11.5 2.5t13.5 5.5q12 5 12 -12v-27q0 -8 -3.5 -11.5t-11.5 -7.5q-9 -5 -17.5 -7t-26.5 -2q-23 0 -43 9.5t-31 33.5q-17 -19 -47 -31t-73 -12
q-66 0 -100.5 28.5t-34.5 81.5q0 31 17.5 53t49.5 36t77.5 21t101.5 7v15q0 27 -19 41.5t-51 14.5q-14 0 -28 -1t-27 -3q1 -4 1.5 -7t0.5 -7q0 -23 -16.5 -37t-38.5 -14q-21 0 -35 13t-14 35zM124 507q0 -26 17.5 -37t46.5 -11q50 0 77 24.5t27 69.5v21q-83 0 -125.5 -16.5
t-42.5 -50.5z" />
    <glyph glyph-name="twosuperior" unicode="&#xb2;" horiz-adv-x="359" 
d="M22 723v6.5t1 6.5q5 37 43 61.5t106 24.5q39 0 67.5 -8.5t47.5 -23.5t28 -34.5t9 -41.5q0 -35 -21.5 -67t-58.5 -65l-124 -111h95q18 0 27 2.5t14.5 7.5t10 12t12.5 16l3 22q4 11 15 11h28q8 0 9.5 -3t0.5 -10l-9 -87q-2 -16 -7 -19t-17 -3h-267q-13 0 -13 14v20
q0 17 22 36l149 133q20 18 33 39t13 47q0 25 -16.5 41t-57.5 16q-15 0 -29.5 -2.5t-26.5 -7.5q12 -14 12 -32q0 -22 -15.5 -35t-36.5 -13q-19 0 -33 13t-14 34z" />
    <glyph glyph-name="threesuperior" unicode="&#xb3;" horiz-adv-x="352" 
d="M24 738q5 39 42.5 62t98.5 23q68 0 104 -27.5t36 -77.5q0 -24 -7 -40t-18 -26.5t-23.5 -15.5t-23.5 -6q41 -4 69.5 -27t28.5 -71q0 -62 -47.5 -90.5t-122.5 -28.5q-45 0 -79.5 5t-48.5 11q-8 4 -8 13v39q0 10 7 10q4 0 8 -1.5t10 -3.5q14 -3 39 -8t59 -5q94 0 94 62
q0 18 -7 30t-19 19.5t-27 10.5t-31 3h-20q-8 0 -10 2t-2 9v41q0 8 12 8h20q30 0 48.5 13.5t18.5 42.5q0 23 -14.5 37.5t-49.5 14.5q-24 0 -45 -8q8 -11 8 -27q0 -23 -16 -35t-36 -12t-34 12t-14 34v8z" />
    <glyph glyph-name="onesuperior" unicode="&#xb9;" horiz-adv-x="252" 
d="M93 733q0 8 -2.5 10.5t-12.5 -0.5l-43 -11q-12 -3 -12 9v36q0 8 14 12l95 27q8 2 15.5 3t12.5 1q13 0 13 -16v-305q0 -9 1 -14.5t6.5 -8t15.5 -3.5t28 -1h8q8 0 10.5 -2.5t2.5 -7.5v-30q0 -8 -2.5 -10t-10.5 -2h-198q-7 0 -10 2t-3 10v30q0 5 2.5 7.5t10.5 2.5h7
q18 0 28.5 1t15.5 4t6.5 8.5t1.5 13.5v234z" />
    <glyph glyph-name="onequarter" unicode="&#xbc;" horiz-adv-x="699" 
d="M563 731q8 11 14 14.5t17 2.5t27.5 -10t18.5 -26q2 -8 -1.5 -16t-10.5 -16l-507 -661q-16 -21 -35 -17q-14 1 -27 10.5t-14 28.5q-2 6 1.5 13.5t8.5 13.5zM546 388q8 11 19 11h61q8 0 11 -4.5t-6 -15.5l-199 -242h97v62q0 4 1.5 6t8.5 2h63q6 0 7 -2t1 -6v-62h40
q9 0 12 -1t3 -9v-30q0 -11 -14 -11h-41v-11q1 -14 7.5 -17.5t21.5 -3.5h9q8 0 10 -2t2 -7v-31q0 -8 -2 -10t-10 -2h-157q-12 0 -12 11v32q0 5 2 7t10 2h10q15 0 21.5 5.5t6.5 22.5v4h-178q-10 0 -13 2t-3 11v23q0 7 3 12zM113 733q0 8 -2.5 10.5t-12.5 -0.5l-43 -11
q-12 -3 -12 9v36q0 8 14 12l95 27q8 2 15.5 3t12.5 1q13 0 13 -16v-305q0 -9 1 -14.5t6.5 -8t15.5 -3.5t28 -1h8q8 0 10.5 -2.5t2.5 -7.5v-30q0 -8 -2.5 -10t-10.5 -2h-198q-7 0 -10 2t-3 10v30q0 5 2.5 7.5t10.5 2.5h7q18 0 28.5 1t15.5 4t6.5 8.5t1.5 13.5v234z" />
    <glyph glyph-name="foursuperior" unicode="&#x2074;" horiz-adv-x="355" 
d="M218 806q8 11 19 11h61q8 0 11 -4.5t-6 -15.5l-199 -242h97v62q0 4 1.5 6t8.5 2h63q6 0 7 -2t1 -6v-62h40q9 0 12 -1t3 -9v-30q0 -11 -14 -11h-41v-11q1 -14 7.5 -17.5t21.5 -3.5h9q8 0 10 -2t2 -7v-31q0 -8 -2 -10t-10 -2h-157q-12 0 -12 11v32q0 5 2 7t10 2h10
q15 0 21.5 5.5t6.5 22.5v4h-178q-10 0 -13 2t-3 11v23q0 7 3 12z" />
    <glyph glyph-name="onehalf" unicode="&#xbd;" horiz-adv-x="810" 
d="M115 733q0 8 -2.5 10.5t-12.5 -0.5l-43 -11q-12 -3 -12 9v36q0 8 14 12l95 27q8 2 15.5 3t12.5 1q13 0 13 -16v-305q0 -9 1 -14.5t6.5 -8t15.5 -3.5t28 -1h8q8 0 10.5 -2.5t2.5 -7.5v-30q0 -8 -2.5 -10t-10.5 -2h-198q-7 0 -10 2t-3 10v30q0 5 2.5 7.5t10.5 2.5h7
q18 0 28.5 1t15.5 4t6.5 8.5t1.5 13.5v234zM432 303v6.5t1 6.5q5 37 43 61.5t106 24.5q39 0 67.5 -8.5t47.5 -23.5t28 -34.5t9 -41.5q0 -35 -21.5 -67t-58.5 -65l-124 -111h95q18 0 27 2.5t14.5 7.5t10 12t12.5 16l3 22q4 11 15 11h28q8 0 9.5 -3t0.5 -10l-9 -87
q-2 -16 -7 -19t-17 -3h-267q-13 0 -13 14v20q0 17 22 36l149 133q20 18 33 39t13 47q0 25 -16.5 41t-57.5 16q-15 0 -29.5 -2.5t-26.5 -7.5q12 -14 12 -32q0 -22 -15.5 -35t-36.5 -13q-19 0 -33 13t-14 34zM564 731q8 11 14 14.5t17 2.5t27.5 -10t18.5 -26q2 -8 -1.5 -16
t-10.5 -16l-507 -661q-16 -21 -35 -17q-14 1 -27 10.5t-14 28.5q-2 6 1.5 13.5t8.5 13.5z" />
    <glyph glyph-name="threequarters" unicode="&#xbe;" horiz-adv-x="768" 
d="M621 731q8 11 14 14.5t17 2.5t27.5 -10t18.5 -26q2 -8 -1.5 -16t-10.5 -16l-507 -661q-16 -21 -35 -17q-14 1 -27 10.5t-14 28.5q-2 6 1.5 13.5t8.5 13.5zM627 386q8 11 19 11h61q8 0 11 -4.5t-6 -15.5l-199 -242h97v62q0 4 1.5 6t8.5 2h63q6 0 7 -2t1 -6v-62h40
q9 0 12 -1t3 -9v-30q0 -11 -14 -11h-41v-11q1 -14 7.5 -17.5t21.5 -3.5h9q8 0 10 -2t2 -7v-31q0 -8 -2 -10t-10 -2h-157q-12 0 -12 11v32q0 5 2 7t10 2h10q15 0 21.5 5.5t6.5 22.5v4h-178q-10 0 -13 2t-3 11v23q0 7 3 12zM13 738q5 39 42.5 62t98.5 23q68 0 104 -27.5
t36 -77.5q0 -24 -7 -40t-18 -26.5t-23.5 -15.5t-23.5 -6q41 -4 69.5 -27t28.5 -71q0 -62 -47.5 -90.5t-122.5 -28.5q-45 0 -79.5 5t-48.5 11q-8 4 -8 13v39q0 10 7 10q4 0 8 -1.5t10 -3.5q14 -3 39 -8t59 -5q94 0 94 62q0 18 -7 30t-19 19.5t-27 10.5t-31 3h-20q-8 0 -10 2
t-2 9v41q0 8 12 8h20q30 0 48.5 13.5t18.5 42.5q0 23 -14.5 37.5t-49.5 14.5q-24 0 -45 -8q8 -11 8 -27q0 -23 -16 -35t-36 -12t-34 12t-14 34v8z" />
    <glyph glyph-name="K" unicode="K" horiz-adv-x="790" 
d="M355 365l-105 -98v-143q0 -31 10.5 -39t36.5 -8h26q14 0 17 -3t3 -12v-44q0 -10 -4 -14t-16 -4h-259q-12 0 -16 3.5t-4 14.5v44q0 8 3.5 11.5t16.5 3.5h26q26 0 36 9t10 38v474q0 29 -9.5 38t-35.5 9h-28q-13 0 -16.5 3t-3.5 13v42q0 12 4.5 15.5t15.5 3.5h260
q11 0 15.5 -3.5t4.5 -15.5v-42q0 -11 -3.5 -13.5t-16.5 -2.5h-29q-26 0 -35 -8t-9 -39v-239l271 257q19 17 17 23t-18 6h-28q-12 0 -15.5 8t-3.5 16v34q0 12 4 15.5t15 3.5h246q12 0 15.5 -3.5t3.5 -15.5v-38q0 -8 -3 -14t-16 -6h-47q-17 0 -35 -8.5t-42 -31.5l-193 -179
q56 -3 94.5 -26t67 -63t50 -96.5t43.5 -126.5q10 -22 21.5 -29.5t30.5 -7.5q8 0 17.5 2.5t23.5 9.5q17 8 17 -14v-44q0 -11 -4 -16t-15 -11q-14 -7 -34 -11t-37 -4t-34 2t-33.5 10t-31.5 24t-27 45q-11 25 -21 56.5t-22.5 64t-27.5 64t-34.5 56t-45 39.5t-58.5 15h-6z" />
    <glyph glyph-name="b" unicode="b" horiz-adv-x="638" 
d="M78 647q-3 29 -32 30h-39q-13 1 -16 6.5t-3 14.5v37q0 13 3.5 16t15.5 4l155 8q15 0 20 -6.5t5 -21.5v-291q24 48 69 73t114 25q106 0 165.5 -65.5t59.5 -203.5q0 -57 -12.5 -109t-44.5 -91t-86.5 -62.5t-137.5 -23.5q-43 0 -80 4.5t-66 11t-49 13.5t-30 12
q-8 3 -9.5 7.5t-1.5 12.5v599zM343 458q-67 0 -109 -48.5t-49 -145.5v-175q58 -18 123 -18q46 0 78.5 14t52.5 40t29 63t9 82q0 37 -6 71t-21 60t-41 41.5t-66 15.5z" />
    <glyph glyph-name="d.002" horiz-adv-x="644" 
d="M560 19q0 -10 -2.5 -14.5t-11.5 -4.5h-68q-8 0 -10.5 3t-4.5 11l-9 60q-34 -48 -83.5 -67.5t-107.5 -19.5q-49 0 -89.5 14.5t-69.5 45t-45 78.5t-16 116q0 143 68 222t194 79q49 0 83 -12t63 -30v140q0 20 -7 28t-25 9h-40q-12 1 -15 6.5t-3 14.5v37q0 13 3.5 16t14.5 4
l155 8q15 0 20.5 -6.5t5.5 -21.5v-716zM291 70q72 0 111.5 48t48.5 142v160q-20 16 -53.5 27t-74.5 11q-45 0 -76.5 -17t-52 -45.5t-29.5 -67t-9 -81.5q0 -38 7.5 -70t23.5 -56t41.5 -37.5t62.5 -13.5z" />
    <glyph glyph-name="g" unicode="g" horiz-adv-x="664" 
d="M268 -167q41 0 75 9t58.5 29t38 51t13.5 76v72q-35 -45 -83.5 -64t-104.5 -19q-50 0 -90.5 14.5t-69.5 45t-45 78.5t-16 116q0 143 68.5 222t194.5 79q49 0 83 -12t63 -30v7q0 15 5 21.5t20 6.5l149 -9q11 -1 15 -4t4 -14v-42q0 -8 -4 -12.5t-15 -5.5h-33q-21 -2 -27 -11
t-6 -34v-393q0 -68 -21 -117t-59 -80.5t-91.5 -46.5t-118.5 -15q-41 0 -81 6.5t-71.5 23t-50.5 44.5t-19 71q0 25 19.5 41t45.5 16t45 -15.5t19 -42.5q0 -26 -18 -42q20 -10 48 -15t60 -5zM293 70q71 0 110.5 48t49.5 142v160q-20 16 -54 27t-74 11q-45 0 -77 -17
t-52.5 -45.5t-29.5 -67t-9 -81.5q0 -38 7.5 -70t24 -56t42 -37.5t62.5 -13.5z" />
    <glyph glyph-name="p" unicode="p" horiz-adv-x="673" 
d="M107 412q0 11 -2.5 18t-10 11t-22 5.5t-37.5 1.5q-11 0 -15 4.5t-4 13.5v41q0 11 4.5 14.5t15.5 4.5l154 8q15 0 20.5 -6.5t5.5 -21.5v-65q34 57 85 79t108 22q106 0 163.5 -62t57.5 -204q0 -140 -67.5 -214.5t-190.5 -74.5q-49 0 -86.5 8t-69.5 21v-145q0 -28 10 -35.5
t37 -7.5h29q13 0 16.5 -3.5t3.5 -11.5v-44q0 -11 -4.5 -14.5t-15.5 -3.5h-262q-11 0 -15 3.5t-4 14.5v44q0 8 3.5 11.5t15.5 3.5h30q26 0 36.5 7.5t10.5 35.5v541zM382 458q-147 0 -165 -189v-166q21 -13 59 -23t79 -10q46 0 76.5 16.5t49.5 44t27 65t8 79.5q0 37 -5.5 70.5
t-20.5 58.5t-41 39.5t-67 14.5z" />
    <glyph glyph-name="w" unicode="w" horiz-adv-x="989" 
d="M319 89l124 411q5 17 8.5 21t16.5 4h74q13 0 16.5 -5.5t8.5 -20.5l129 -408l92 310q7 22 7 33q0 8 -6 10t-20 4l-31 1q-12 2 -15 5.5t-3 11.5v42q0 11 3.5 14t14.5 3h229q10 0 13.5 -3t3.5 -12v-37q0 -10 -3.5 -17t-14.5 -8l-31 -1q-11 -1 -18 -1.5t-12.5 -5.5
t-10.5 -15.5t-12 -31.5l-131 -379q-3 -11 -7 -13t-19 -2h-90q-10 0 -15.5 2.5t-8.5 11.5l-123 364l-118 -363q-3 -10 -7 -12.5t-18 -2.5h-83q-11 0 -15.5 3t-7.5 11l-139 391q-5 15 -10 23.5t-11.5 12.5t-16.5 5.5t-26 1.5q-17 2 -21.5 6t-4.5 15v41q0 10 4 13t15 3h240
q11 0 14.5 -3.5t3.5 -12.5v-42q0 -17 -14 -17q-24 -1 -37.5 -2.5t-18.5 -6t-4.5 -12.5t4.5 -21z" />
    <glyph glyph-name="l" unicode="l" horiz-adv-x="335" 
d="M113 640q0 20 -7 28t-25 9h-40q-12 1 -15 6.5t-3 14.5v37q0 13 3.5 16t14.5 4l155 8q16 0 21 -6.5t5 -21.5v-615q0 -28 10.5 -35.5t36.5 -7.5h29q13 0 16.5 -3.5t3.5 -11.5v-44q0 -11 -4.5 -14.5t-15.5 -3.5h-261q-11 0 -15.5 3.5t-4.5 14.5v44q0 8 3.5 11.5t16.5 3.5h29
q26 0 36.5 7.5t10.5 35.5v520v0z" />
    <glyph glyph-name="x.bl" horiz-adv-x="642" 
d="M262 259l-129 151q-26 26 -38.5 34t-31.5 9l-20 1q-20 1 -20 18v38q0 11 4.5 14t15.5 3h248q10 0 13.5 -3t3.5 -14v-38q0 -8 -2 -13t-13 -5h-24q-23 0 -24.5 -4.5t20.5 -29.5l68 -84l79 85q22 20 23 26.5t-25 6.5h-13q-11 0 -14.5 5t-3.5 13v38q0 11 5 14t14 3h207
q11 0 14.5 -3t3.5 -14v-41q0 -7 -3.5 -12t-13.5 -5l-21 -1q-9 0 -17 -2t-19 -8.5t-25 -19t-35 -34.5l-104 -115l113 -138q16 -18 27.5 -29.5t20.5 -18t17 -9t17 -2.5h26q11 -1 13.5 -5.5t2.5 -12.5v-40q0 -11 -3.5 -14t-13.5 -3h-228q-10 0 -14 3.5t-4 14.5v38
q0 10 3.5 13.5t14.5 3.5q35 0 35 7q0 5 -17 24l-79 92l-79 -87q-23 -23 -23.5 -28t23.5 -6l22 -1q16 -1 16 -16v-41q0 -11 -4 -14t-12 -3h-228q-11 0 -14.5 3t-3.5 14v38q0 9 3 13.5t14 5.5l22 1q21 1 40 11.5t48 41.5z" />
    <glyph glyph-name="w.bl" horiz-adv-x="991" 
d="M326 85l117 415q5 17 8.5 21.5t16.5 4.5h78q13 0 16.5 -6t7.5 -22l122 -410l95 311q8 26 8 34t-6.5 10.5t-20.5 4.5l-30 1q-12 2 -15 5.5t-3 11.5v42q0 11 3.5 14.5t14.5 3.5h230q11 0 14.5 -3t3.5 -13v-36q0 -11 -3.5 -17.5t-14.5 -8.5l-31 -1q-11 -1 -18 -2t-12.5 -6
t-11.5 -16t-13 -32l-134 -384q-4 -11 -10.5 -13t-32.5 -2h-76q-11 0 -16 2.5t-8 11.5l-116 368l-112 -367q-3 -10 -7 -12.5t-18 -2.5h-87q-10 0 -14 3t-8 11l-143 396q-5 15 -10 24.5t-11.5 14t-16.5 6t-25 1.5q-17 0 -22 4.5t-5 15.5v41q0 11 4 14t15 3h243q11 0 14 -3.5
t3 -13.5v-41q0 -17 -13 -17q-24 -1 -37.5 -3t-18.5 -7t-4 -13.5t5 -21.5z" />
    <glyph glyph-name="M.bl" horiz-adv-x="1013" 
d="M521 87l226 617q4 11 10 14.5t23 3.5h167q11 0 15 -3.5t4 -14.5v-37q0 -8 -3.5 -13.5t-15.5 -6.5l-47 -1q-5 -1 -11.5 -1.5t-11.5 -2.5v-522q0 -27 6 -35t29 -8h39q13 0 17.5 -4t4.5 -14v-41q0 -11 -5.5 -14.5t-16.5 -3.5h-252q-11 0 -15 3.5t-4 14.5v41q0 10 3.5 14
t15.5 4h32q23 0 32 8.5t9 34.5v409l-190 -518q-5 -9 -9 -12t-21 -3h-90q-12 0 -17 3t-10 11l-211 545v-443q0 -24 10 -29.5t37 -5.5h26q12 0 15.5 -2.5t3.5 -12.5v-44q0 -11 -4 -14.5t-15 -3.5h-237q-11 0 -15 3t-4 14v45q0 10 3.5 12.5t15.5 2.5h26q26 0 37 6t11 29v533
l-20 2h-42q-12 1 -16 5t-4 12v40q0 11 4.5 14.5t15.5 3.5h188q12 0 18 -7t8 -16z" />
    <glyph glyph-name="c" unicode="c" horiz-adv-x="590" 
d="M157 267q0 -89 47 -138t155 -49q63 0 104 12t63 20q18 6 23.5 4.5t5.5 -16.5v-47q0 -11 -2.5 -15t-12.5 -9q-9 -5 -26.5 -11t-43 -12t-57.5 -10t-70 -4q-79 0 -136 18.5t-94 53t-54.5 84t-17.5 111.5q0 68 20.5 121t58.5 89.5t92.5 55.5t122.5 19q59 0 99.5 -13t66 -33.5
t36.5 -45.5t11 -48q0 -31 -19.5 -51t-51.5 -20t-52 18.5t-20 49.5q0 29 18 50q-36 11 -86 11t-84 -15.5t-55.5 -42t-31 -62t-9.5 -75.5z" />
    <glyph glyph-name="AEacute" unicode="&#x1fc;" horiz-adv-x="1041" 
d="M235 234l-48 -110q-13 -29 -5 -37t35 -10h18q13 -1 16.5 -7t3.5 -14v-37q0 -11 -4.5 -15t-15.5 -4h-222q-12 0 -16 3.5t-4 14.5v41q0 8 3 13t17 6h33q7 0 13 1.5t11.5 7t11.5 16t15 29.5l242 559q5 11 9 17t9 9t13 4t22 1h528q15 0 24.5 -1t14.5 -5.5t7.5 -14t3.5 -26.5
l8 -115q1 -14 -1 -19t-16 -5h-45q-13 0 -17.5 4t-6.5 18l-5 41q-2 17 -8 26.5t-19 14t-34 5.5t-53 1h-175v-252h127q12 0 21.5 5.5t11.5 22.5l3 35q2 12 5.5 14.5t16.5 2.5h31q11 0 14 -4t3 -15v-199q0 -10 -3 -14.5t-14 -4.5h-31q-12 0 -16 3.5t-6 13.5l-3 35
q-2 17 -11.5 23t-21.5 6h-127v-242h205q33 0 52.5 2t31 8.5t17.5 20t11 37.5l7 49q3 10 8 14t17 4h37q12 0 15.5 -4.5t2.5 -15.5l-15 -144q-2 -17 -5.5 -26.5t-9 -14t-14.5 -5.5t-21 -1h-526q-11 0 -15.5 3.5t-4.5 14.5v39q0 20 17 20q23 0 38 1.5t23.5 7t11.5 14.5t3 24
v110h-249zM268 311h216v333h-51q-8 0 -15.5 -5t-11.5 -14zM486 824q-4 9 -3.5 14t11.5 10l167 82q14 8 21.5 7.5t14.5 -11.5l25 -44q7 -11 3.5 -17.5t-18.5 -11.5l-182 -56q-13 -5 -19 -2.5t-10 8.5z" />
    <glyph glyph-name="Aacute" unicode="&#xc1;" horiz-adv-x="782" 
d="M527 233h-296l-42 -113q-10 -26 -1 -34t35 -10h15q15 -2 19.5 -6t4.5 -14v-38q0 -11 -4.5 -14.5t-18.5 -3.5h-219q-10 0 -14.5 3.5t-4.5 14.5v39q0 10 3.5 14.5t16.5 5.5l33 1q7 0 12.5 1.5t10.5 6.5t10 14.5t11 25.5l220 582q4 10 8 13t20 3h90q11 0 15.5 -3t9.5 -12
l222 -578q7 -18 12.5 -28.5t11.5 -15.5t14 -7t22 -2l21 -1q15 0 19.5 -4t4.5 -14v-41q0 -11 -4.5 -14.5t-18.5 -3.5h-245q-14 0 -18 3.5t-4 14.5v38q0 10 4 13.5t19 5.5h15q20 2 29.5 6t9.5 15q0 9 -8 31zM260 309h238l-120 316zM328 824q-4 9 -3.5 14t11.5 10l167 82
q14 8 21.5 7.5t14.5 -11.5l25 -44q7 -11 3.5 -17.5t-18.5 -11.5l-182 -56q-13 -5 -19 -2.5t-10 8.5z" />
    <glyph glyph-name="Abreve" unicode="&#x102;" horiz-adv-x="782" 
d="M527 233h-296l-42 -113q-10 -26 -1 -34t35 -10h15q15 -2 19.5 -6t4.5 -14v-38q0 -11 -4.5 -14.5t-18.5 -3.5h-219q-10 0 -14.5 3.5t-4.5 14.5v39q0 10 3.5 14.5t16.5 5.5l33 1q7 0 12.5 1.5t10.5 6.5t10 14.5t11 25.5l220 582q4 10 8 13t20 3h90q11 0 15.5 -3t9.5 -12
l222 -578q7 -18 12.5 -28.5t11.5 -15.5t14 -7t22 -2l21 -1q15 0 19.5 -4t4.5 -14v-41q0 -11 -4.5 -14.5t-18.5 -3.5h-245q-14 0 -18 3.5t-4 14.5v38q0 10 4 13.5t19 5.5h15q20 2 29.5 6t9.5 15q0 9 -8 31zM260 309h238l-120 316zM388 856q30 0 46.5 10t16.5 29q0 12 16 12
h47q14 0 14 -15q0 -51 -37.5 -78.5t-102.5 -27.5q-68 0 -103 28t-35 78q0 15 14 15h47q15 0 15 -12q0 -18 15 -28.5t47 -10.5z" />
    <glyph glyph-name="Acircumflex" unicode="&#xc2;" horiz-adv-x="782" 
d="M527 233h-296l-42 -113q-10 -26 -1 -34t35 -10h15q15 -2 19.5 -6t4.5 -14v-38q0 -11 -4.5 -14.5t-18.5 -3.5h-219q-10 0 -14.5 3.5t-4.5 14.5v39q0 10 3.5 14.5t16.5 5.5l33 1q7 0 12.5 1.5t10.5 6.5t10 14.5t11 25.5l220 582q4 10 8 13t20 3h90q11 0 15.5 -3t9.5 -12
l222 -578q7 -18 12.5 -28.5t11.5 -15.5t14 -7t22 -2l21 -1q15 0 19.5 -4t4.5 -14v-41q0 -11 -4.5 -14.5t-18.5 -3.5h-245q-14 0 -18 3.5t-4 14.5v38q0 10 4 13.5t19 5.5h15q20 2 29.5 6t9.5 15q0 9 -8 31zM260 309h238l-120 316zM388 858l-70 -56q-10 -8 -17 -10.5t-21 -2.5
h-38q-16 0 -18 6t10 17l111 96q11 10 18.5 12t23.5 2q17 0 24.5 -2t18.5 -12l111 -96q12 -11 8.5 -17t-17.5 -6h-40q-11 0 -17.5 2.5t-17.5 10.5z" />
    <glyph glyph-name="Agrave" unicode="&#xc0;" horiz-adv-x="782" 
d="M527 233h-296l-42 -113q-10 -26 -1 -34t35 -10h15q15 -2 19.5 -6t4.5 -14v-38q0 -11 -4.5 -14.5t-18.5 -3.5h-219q-10 0 -14.5 3.5t-4.5 14.5v39q0 10 3.5 14.5t16.5 5.5l33 1q7 0 12.5 1.5t10.5 6.5t10 14.5t11 25.5l220 582q4 10 8 13t20 3h90q11 0 15.5 -3t9.5 -12
l222 -578q7 -18 12.5 -28.5t11.5 -15.5t14 -7t22 -2l21 -1q15 0 19.5 -4t4.5 -14v-41q0 -11 -4.5 -14.5t-18.5 -3.5h-245q-14 0 -18 3.5t-4 14.5v38q0 10 4 13.5t19 5.5h15q20 2 29.5 6t9.5 15q0 9 -8 31zM260 309h238l-120 316zM425 802q-6 -14 -29 -7l-187 49
q-14 4 -15.5 9.5t3.5 12.5l27 55q5 9 11 10t22 -7l170 -78q10 -5 10.5 -10t-3.5 -14z" />
    <glyph glyph-name="Adieresis" unicode="&#xc4;" horiz-adv-x="782" 
d="M527 233h-296l-42 -113q-10 -26 -1 -34t35 -10h15q15 -2 19.5 -6t4.5 -14v-38q0 -11 -4.5 -14.5t-18.5 -3.5h-219q-10 0 -14.5 3.5t-4.5 14.5v39q0 10 3.5 14.5t16.5 5.5l33 1q7 0 12.5 1.5t10.5 6.5t10 14.5t11 25.5l220 582q4 10 8 13t20 3h90q11 0 15.5 -3t9.5 -12
l222 -578q7 -18 12.5 -28.5t11.5 -15.5t14 -7t22 -2l21 -1q15 0 19.5 -4t4.5 -14v-41q0 -11 -4.5 -14.5t-18.5 -3.5h-245q-14 0 -18 3.5t-4 14.5v38q0 10 4 13.5t19 5.5h15q20 2 29.5 6t9.5 15q0 9 -8 31zM260 309h238l-120 316zM227 854q0 29 20.5 48.5t47.5 19.5
q26 0 44.5 -17t18.5 -47q0 -29 -20.5 -47t-47.5 -18q-26 0 -44.5 16.5t-18.5 44.5zM420 854q0 29 20.5 48.5t47.5 19.5q26 0 44.5 -17t18.5 -47q0 -29 -20.5 -47t-48.5 -18q-26 0 -44 16.5t-18 44.5z" />
    <glyph glyph-name="Amacron" unicode="&#x100;" horiz-adv-x="782" 
d="M527 233h-296l-42 -113q-10 -26 -1 -34t35 -10h15q15 -2 19.5 -6t4.5 -14v-38q0 -11 -4.5 -14.5t-18.5 -3.5h-219q-10 0 -14.5 3.5t-4.5 14.5v39q0 10 3.5 14.5t16.5 5.5l33 1q7 0 12.5 1.5t10.5 6.5t10 14.5t11 25.5l220 582q4 10 8 13t20 3h90q11 0 15.5 -3t9.5 -12
l222 -578q7 -18 12.5 -28.5t11.5 -15.5t14 -7t22 -2l21 -1q15 0 19.5 -4t4.5 -14v-41q0 -11 -4.5 -14.5t-18.5 -3.5h-245q-14 0 -18 3.5t-4 14.5v38q0 10 4 13.5t19 5.5h15q20 2 29.5 6t9.5 15q0 9 -8 31zM260 309h238l-120 316zM260 798q-15 0 -20.5 13.5t-5.5 44.5
q0 18 8 21.5t19 3.5h260q17 0 21.5 -15t4.5 -39q0 -29 -16 -29h-271z" />
    <glyph glyph-name="Aogonek" unicode="&#x104;" horiz-adv-x="782" 
d="M527 233h-296l-42 -113q-10 -26 -1 -34t35 -10h15q15 -2 19.5 -6t4.5 -14v-38q0 -11 -4.5 -14.5t-18.5 -3.5h-219q-10 0 -14.5 3.5t-4.5 14.5v39q0 10 3.5 14.5t16.5 5.5l33 1q7 0 12.5 1.5t10.5 6.5t10 14.5t11 25.5l220 582q4 10 8 13t20 3h90q11 0 15.5 -3t9.5 -12
l222 -578q7 -18 12.5 -28.5t11.5 -15.5t14 -7t22 -2l21 -1q15 0 19.5 -4t4.5 -14v-41q0 -11 -4.5 -14.5t-18.5 -3.5h-103q-26 -17 -41.5 -38t-15.5 -45q0 -25 14.5 -32t33.5 -7q14 0 25 2t23 8q10 5 16.5 5t10.5 -10l10 -23q5 -14 -9 -22q-17 -11 -38.5 -19t-56.5 -8
q-50 0 -84 19.5t-34 62.5q0 38 25.5 64t57.5 43h-79q-14 0 -18 3.5t-4 14.5v38q0 10 4 13.5t19 5.5h15q20 2 29.5 6t9.5 15q0 9 -8 31zM260 309h238l-120 316z" />
    <glyph glyph-name="Aring" unicode="&#xc5;" horiz-adv-x="782" 
d="M527 233h-296l-42 -113q-10 -26 -1 -34t35 -10h15q15 -2 19.5 -6t4.5 -14v-38q0 -11 -4.5 -14.5t-18.5 -3.5h-219q-10 0 -14.5 3.5t-4.5 14.5v39q0 10 3.5 14.5t16.5 5.5l33 1q7 0 12.5 1.5t10.5 6.5t10 14.5t11 25.5l220 582q4 10 8 13t20 3h90q11 0 15.5 -3t9.5 -12
l222 -578q7 -18 12.5 -28.5t11.5 -15.5t14 -7t22 -2l21 -1q15 0 19.5 -4t4.5 -14v-41q0 -11 -4.5 -14.5t-18.5 -3.5h-245q-14 0 -18 3.5t-4 14.5v38q0 10 4 13.5t19 5.5h15q20 2 29.5 6t9.5 15q0 9 -8 31zM260 309h238l-120 316zM388 784q-58 0 -93 23t-35 60
q0 38 34.5 60.5t93.5 22.5t94 -22.5t35 -60.5q0 -37 -35 -60t-94 -23zM388 829q22 0 37 10t15 28t-14.5 28.5t-37.5 10.5q-21 0 -36 -10.5t-15 -28.5t15.5 -28t35.5 -10z" />
    <glyph glyph-name="Atilde" unicode="&#xc3;" horiz-adv-x="782" 
d="M527 233h-296l-42 -113q-10 -26 -1 -34t35 -10h15q15 -2 19.5 -6t4.5 -14v-38q0 -11 -4.5 -14.5t-18.5 -3.5h-219q-10 0 -14.5 3.5t-4.5 14.5v39q0 10 3.5 14.5t16.5 5.5l33 1q7 0 12.5 1.5t10.5 6.5t10 14.5t11 25.5l220 582q4 10 8 13t20 3h90q11 0 15.5 -3t9.5 -12
l222 -578q7 -18 12.5 -28.5t11.5 -15.5t14 -7t22 -2l21 -1q15 0 19.5 -4t4.5 -14v-41q0 -11 -4.5 -14.5t-18.5 -3.5h-245q-14 0 -18 3.5t-4 14.5v38q0 10 4 13.5t19 5.5h15q20 2 29.5 6t9.5 15q0 9 -8 31zM260 309h238l-120 316zM439 865q33 0 36 25q2 5 4 7.5t9 2.5h39
q12 0 12 -12q0 -45 -25 -69t-70 -24q-32 0 -45.5 7.5t-20.5 15.5q-5 6 -11 11t-23 5q-31 0 -34 -26q-2 -6 -4 -8t-10 -2h-38q-5 0 -8.5 2.5t-3.5 10.5q0 44 25 68t70 24q32 0 45 -8.5t19 -16.5q6 -5 13.5 -9t20.5 -4z" />
    <glyph glyph-name="Cacute" unicode="&#x106;" horiz-adv-x="752" 
d="M163 353q0 -59 16 -109.5t51.5 -87.5t91 -58t133.5 -21q47 0 83.5 5.5t65 14t49 17.5t35.5 16q16 8 25.5 8.5t9.5 -17.5v-52q0 -6 -2.5 -11.5t-13.5 -11.5q-13 -8 -36.5 -18t-57 -18.5t-77.5 -14.5t-98 -6q-87 0 -159.5 22t-125 67.5t-81.5 114.5t-29 163
q0 81 25.5 149.5t76 119t124.5 78.5t170 28q74 0 126 -16t85 -41.5t48 -56.5t15 -61v-4q0 -35 -23.5 -54t-55.5 -19q-29 0 -50.5 19t-21.5 52q0 22 10 38t26 26q-26 16 -63 25.5t-88 9.5q-76 0 -129.5 -24t-88 -64.5t-50.5 -94t-16 -113.5zM381 795q-4 9 -3.5 14t11.5 10
l167 82q14 8 21.5 7.5t14.5 -11.5l25 -44q7 -11 3.5 -17.5t-18.5 -11.5l-182 -56q-13 -5 -19 -2.5t-10 8.5z" />
    <glyph glyph-name="Ccaron" unicode="&#x10c;" horiz-adv-x="753" 
d="M163 353q0 -59 16 -109.5t51.5 -87.5t91 -58t133.5 -21q47 0 83.5 5.5t65 14t49 17.5t35.5 16q16 8 25.5 8.5t9.5 -17.5v-52q0 -6 -2.5 -11.5t-13.5 -11.5q-13 -8 -36.5 -18t-57 -18.5t-77.5 -14.5t-98 -6q-87 0 -159.5 22t-125 67.5t-81.5 114.5t-29 163
q0 81 25.5 149.5t76 119t124.5 78.5t170 28q74 0 126 -16t85 -41.5t48 -56.5t15 -61v-4q0 -35 -23.5 -54t-55.5 -19q-29 0 -50.5 19t-21.5 52q0 22 10 38t26 26q-26 16 -63 25.5t-88 9.5q-76 0 -129.5 -24t-88 -64.5t-50.5 -94t-16 -113.5zM440 824l69 57q11 6 16 9t19 3h41
q16 0 18.5 -5.5t-6.5 -13.5l-115 -100q-11 -10 -18.5 -12t-23.5 -2q-17 0 -24 2t-18 12l-116 100q-9 8 -5 13.5t18 5.5h41q14 0 19 -3l15 -9z" />
    <glyph glyph-name="Ccedilla" unicode="&#xc7;" horiz-adv-x="749" 
d="M396 -10q-80 4 -145.5 28.5t-112 70t-72.5 112t-26 155.5q0 81 25.5 149.5t76 119t124 78.5t169.5 28q74 0 126 -16t85 -41.5t48.5 -56.5t15.5 -61v-4q0 -35 -23.5 -54t-55.5 -19q-29 0 -50.5 19t-21.5 52q0 21 10 37.5t26 25.5q-26 17 -63.5 26.5t-88.5 9.5
q-76 0 -129.5 -24t-88 -64.5t-50.5 -94t-16 -113.5q0 -59 16 -109.5t51.5 -87.5t91 -58t133.5 -21q47 0 83.5 5.5t65 14t49.5 17.5t36 16q16 8 25.5 8.5t9.5 -17.5v-52q0 -6 -2.5 -11.5t-14.5 -11.5q-12 -8 -34 -17t-53 -17.5t-71 -14.5t-89 -7l-10 -24q50 3 82 -14.5
t32 -64.5q0 -48 -38 -70.5t-105 -22.5q-19 0 -42 2t-36 3q-8 1 -8 14v27q0 9 2.5 10.5t7.5 0.5q20 -2 36.5 -3.5t33.5 -1.5q33 0 51.5 10t18.5 30t-15.5 26t-36.5 6q-14 0 -30 -1.5t-25 -1.5q-14 0 -9 12z" />
    <glyph glyph-name="Ccircumflex" unicode="&#x108;" horiz-adv-x="752" 
d="M163 353q0 -59 16 -109.5t51.5 -87.5t91 -58t133.5 -21q47 0 83.5 5.5t65 14t49 17.5t35.5 16q16 8 25.5 8.5t9.5 -17.5v-52q0 -6 -2.5 -11.5t-13.5 -11.5q-13 -8 -36.5 -18t-57 -18.5t-77.5 -14.5t-98 -6q-87 0 -159.5 22t-125 67.5t-81.5 114.5t-29 163
q0 81 25.5 149.5t76 119t124.5 78.5t170 28q74 0 126 -16t85 -41.5t48 -56.5t15 -61v-4q0 -35 -23.5 -54t-55.5 -19q-29 0 -50.5 19t-21.5 52q0 22 10 38t26 26q-26 16 -63 25.5t-88 9.5q-76 0 -129.5 -24t-88 -64.5t-50.5 -94t-16 -113.5zM441 828l-70 -56
q-10 -8 -17 -10.5t-21 -2.5h-38q-16 0 -18 6t10 17l111 96q11 10 18.5 12t23.5 2q17 0 24.5 -2t18.5 -12l111 -96q12 -11 8.5 -17t-17.5 -6h-40q-11 0 -17.5 2.5t-17.5 10.5z" />
    <glyph glyph-name="Cdotaccent" unicode="&#x10a;" horiz-adv-x="753" 
d="M365 780q0 34 23.5 56t53.5 22q29 0 51 -19t22 -53q0 -35 -26 -58q60 -6 102.5 -23.5t69.5 -41.5t39.5 -52t12.5 -55v-4q0 -35 -23.5 -54t-55.5 -19q-29 0 -50.5 19t-21.5 52q0 22 10 38t26 26q-26 16 -63 25.5t-88 9.5q-76 0 -129.5 -24t-88 -64.5t-50.5 -94t-16 -113.5
q0 -59 16 -109.5t51.5 -87.5t91 -58t133.5 -21q47 0 83.5 5.5t65 14t49 17.5t35.5 16q16 8 25.5 8.5t9.5 -17.5v-52q0 -6 -2.5 -11.5t-13.5 -11.5q-13 -8 -36.5 -18t-57 -18.5t-77.5 -14.5t-98 -6q-87 0 -159.5 22t-125 67.5t-81.5 114.5t-29 163q0 75 22 139.5t65.5 114
t107.5 80t148 38.5q-21 21 -21 52z" />
    <glyph glyph-name="Dcaron" unicode="&#x10e;" horiz-adv-x="815" 
d="M771 360q0 -183 -112.5 -271.5t-326.5 -88.5h-268q-11 0 -15.5 3.5t-4.5 14.5v39q0 20 18 20q22 0 36 1.5t22.5 6t12 12.5t4.5 21v490q-2 18 -9 26t-24 10h-42q-18 0 -18 18v42q0 11 4 14.5t18 3.5h267q224 0 331 -90.5t107 -271.5zM251 83h80q166 0 243.5 65t77.5 212
q0 77 -20 130.5t-60.5 87.5t-102 49t-143.5 15h-75v-559zM411 820l69 57q11 6 16 9t19 3h41q16 0 18.5 -5.5t-6.5 -13.5l-115 -100q-11 -10 -18.5 -12t-23.5 -2q-17 0 -24 2t-18 12l-116 100q-9 8 -5 13.5t18 5.5h41q14 0 19 -3l15 -9z" />
    <glyph glyph-name="Dcroat" unicode="&#x110;" horiz-adv-x="817" 
d="M67 344q-15 0 -20.5 13.5t-5.5 44.5q0 18 8 22t19 4h70v174q0 22 -7.5 31t-25.5 11h-41q-19 0 -19 18v42q0 11 4 14.5t18 3.5h267q224 0 331.5 -90.5t107.5 -271.5q0 -183 -113 -271.5t-327 -88.5h-268q-11 0 -15.5 3.5t-4.5 14.5v39q0 20 18 20q23 0 37.5 1.5t23 7
t11.5 14.5t3 24v220h-71zM252 428h131q17 0 21.5 -15.5t4.5 -38.5q0 -30 -16 -30h-141v-261h80q166 0 243.5 65t77.5 212q0 77 -20 130.5t-60.5 87.5t-102 49t-143.5 15h-75v-214z" />
    <glyph glyph-name="Eacute" unicode="&#xc9;" horiz-adv-x="689" 
d="M64 0q-11 0 -15.5 3.5t-4.5 14.5v39q0 20 18 20q23 0 37.5 1.5t23 7t11.5 14.5t3 24v478q0 22 -7.5 31t-25.5 11h-42q-18 0 -18 18v42q0 11 4 14.5t18 3.5h502q15 0 24.5 -1t14.5 -5.5t7.5 -14t3.5 -26.5l8 -115q1 -14 -2 -19t-17 -5h-43q-13 0 -17.5 4t-6.5 18l-5 41
q-2 17 -8 26.5t-19 14t-34 5.5t-54 1h-169v-252h113q13 0 22.5 5.5t11.5 22.5l3 33q2 12 5.5 15t16.5 3h38q12 0 15 -4t3 -15v-197q0 -10 -3 -14.5t-14 -4.5h-39q-13 0 -16.5 3.5t-5.5 14.5l-4 33q-2 17 -11 23t-22 6h-113v-242h216q25 0 40.5 1.5t24.5 7.5t14 17t10 30
l8 61q3 10 8 14t17 4h43q12 0 15.5 -4.5t2.5 -15.5l-17 -158q-2 -23 -10 -28t-27 -5h-532zM295 824q-4 9 -3.5 14t11.5 10l167 82q14 8 21.5 7.5t14.5 -11.5l25 -44q7 -11 3.5 -17.5t-18.5 -11.5l-182 -56q-13 -5 -19 -2.5t-10 8.5z" />
    <glyph glyph-name="Ebreve" unicode="&#x114;" horiz-adv-x="689" 
d="M64 0q-11 0 -15.5 3.5t-4.5 14.5v39q0 20 18 20q23 0 37.5 1.5t23 7t11.5 14.5t3 24v478q0 22 -7.5 31t-25.5 11h-42q-18 0 -18 18v42q0 11 4 14.5t18 3.5h502q15 0 24.5 -1t14.5 -5.5t7.5 -14t3.5 -26.5l8 -115q1 -14 -2 -19t-17 -5h-43q-13 0 -17.5 4t-6.5 18l-5 41
q-2 17 -8 26.5t-19 14t-34 5.5t-54 1h-169v-252h113q13 0 22.5 5.5t11.5 22.5l3 33q2 12 5.5 15t16.5 3h38q12 0 15 -4t3 -15v-197q0 -10 -3 -14.5t-14 -4.5h-39q-13 0 -16.5 3.5t-5.5 14.5l-4 33q-2 17 -11 23t-22 6h-113v-242h216q25 0 40.5 1.5t24.5 7.5t14 17t10 30
l8 61q3 10 8 14t17 4h43q12 0 15.5 -4.5t2.5 -15.5l-17 -158q-2 -23 -10 -28t-27 -5h-532zM354 856q30 0 46.5 10t16.5 29q0 12 16 12h47q14 0 14 -15q0 -51 -37.5 -78.5t-102.5 -27.5q-68 0 -103 28t-35 78q0 15 14 15h47q15 0 15 -12q0 -18 15 -28.5t47 -10.5z" />
    <glyph glyph-name="Ecaron" unicode="&#x11a;" horiz-adv-x="689" 
d="M64 0q-11 0 -15.5 3.5t-4.5 14.5v39q0 20 18 20q23 0 37.5 1.5t23 7t11.5 14.5t3 24v478q0 22 -7.5 31t-25.5 11h-42q-18 0 -18 18v42q0 11 4 14.5t18 3.5h502q15 0 24.5 -1t14.5 -5.5t7.5 -14t3.5 -26.5l8 -115q1 -14 -2 -19t-17 -5h-43q-13 0 -17.5 4t-6.5 18l-5 41
q-2 17 -8 26.5t-19 14t-34 5.5t-54 1h-169v-252h113q13 0 22.5 5.5t11.5 22.5l3 33q2 12 5.5 15t16.5 3h38q12 0 15 -4t3 -15v-197q0 -10 -3 -14.5t-14 -4.5h-39q-13 0 -16.5 3.5t-5.5 14.5l-4 33q-2 17 -11 23t-22 6h-113v-242h216q25 0 40.5 1.5t24.5 7.5t14 17t10 30
l8 61q3 10 8 14t17 4h43q12 0 15.5 -4.5t2.5 -15.5l-17 -158q-2 -23 -10 -28t-27 -5h-532zM354 854l69 57q11 6 16 9t19 3h41q16 0 18.5 -5.5t-6.5 -13.5l-115 -100q-11 -10 -18.5 -12t-23.5 -2q-17 0 -24 2t-18 12l-116 100q-9 8 -5 13.5t18 5.5h41q14 0 19 -3l15 -9z" />
    <glyph glyph-name="Ecircumflex" unicode="&#xca;" horiz-adv-x="689" 
d="M64 0q-11 0 -15.5 3.5t-4.5 14.5v39q0 20 18 20q23 0 37.5 1.5t23 7t11.5 14.5t3 24v478q0 22 -7.5 31t-25.5 11h-42q-18 0 -18 18v42q0 11 4 14.5t18 3.5h502q15 0 24.5 -1t14.5 -5.5t7.5 -14t3.5 -26.5l8 -115q1 -14 -2 -19t-17 -5h-43q-13 0 -17.5 4t-6.5 18l-5 41
q-2 17 -8 26.5t-19 14t-34 5.5t-54 1h-169v-252h113q13 0 22.5 5.5t11.5 22.5l3 33q2 12 5.5 15t16.5 3h38q12 0 15 -4t3 -15v-197q0 -10 -3 -14.5t-14 -4.5h-39q-13 0 -16.5 3.5t-5.5 14.5l-4 33q-2 17 -11 23t-22 6h-113v-242h216q25 0 40.5 1.5t24.5 7.5t14 17t10 30
l8 61q3 10 8 14t17 4h43q12 0 15.5 -4.5t2.5 -15.5l-17 -158q-2 -23 -10 -28t-27 -5h-532zM354 858l-70 -56q-10 -8 -17 -10.5t-21 -2.5h-38q-16 0 -18 6t10 17l111 96q11 10 18.5 12t23.5 2q17 0 24.5 -2t18.5 -12l111 -96q12 -11 8.5 -17t-17.5 -6h-40q-11 0 -17.5 2.5
t-17.5 10.5z" />
    <glyph glyph-name="Edieresis" unicode="&#xcb;" horiz-adv-x="689" 
d="M64 0q-11 0 -15.5 3.5t-4.5 14.5v39q0 20 18 20q23 0 37.5 1.5t23 7t11.5 14.5t3 24v478q0 22 -7.5 31t-25.5 11h-42q-18 0 -18 18v42q0 11 4 14.5t18 3.5h502q15 0 24.5 -1t14.5 -5.5t7.5 -14t3.5 -26.5l8 -115q1 -14 -2 -19t-17 -5h-43q-13 0 -17.5 4t-6.5 18l-5 41
q-2 17 -8 26.5t-19 14t-34 5.5t-54 1h-169v-252h113q13 0 22.5 5.5t11.5 22.5l3 33q2 12 5.5 15t16.5 3h38q12 0 15 -4t3 -15v-197q0 -10 -3 -14.5t-14 -4.5h-39q-13 0 -16.5 3.5t-5.5 14.5l-4 33q-2 17 -11 23t-22 6h-113v-242h216q25 0 40.5 1.5t24.5 7.5t14 17t10 30
l8 61q3 10 8 14t17 4h43q12 0 15.5 -4.5t2.5 -15.5l-17 -158q-2 -23 -10 -28t-27 -5h-532zM193 854q0 29 20.5 48.5t47.5 19.5q26 0 44.5 -17t18.5 -47q0 -29 -20.5 -47t-47.5 -18q-26 0 -44.5 16.5t-18.5 44.5zM386 854q0 29 20.5 48.5t47.5 19.5q26 0 44.5 -17t18.5 -47
q0 -29 -20.5 -47t-48.5 -18q-26 0 -44 16.5t-18 44.5z" />
    <glyph glyph-name="Edotaccent" unicode="&#x116;" horiz-adv-x="688" 
d="M64 0q-11 0 -15.5 3.5t-4.5 14.5v39q0 20 17 20q22 0 36.5 1.5t23 6t12 12.5t4.5 21v484q0 22 -7.5 31t-25.5 11h-42q-18 0 -18 18v42q0 11 4 14.5t18 3.5h502q15 0 24.5 -1t14.5 -5.5t7.5 -14t3.5 -26.5l8 -115q1 -14 -2 -19t-17 -5h-43q-13 0 -17.5 4t-6.5 18l-5 41
q-2 17 -8 26.5t-19 14t-34 5.5t-54 1h-169v-252h113q13 0 22.5 5.5t11.5 22.5l2 33q2 12 6 15t17 3h38q12 0 15 -4t3 -15v-197q0 -10 -3 -14.5t-14 -4.5h-39q-13 0 -17 3.5t-6 14.5l-3 33q-2 17 -11 23t-22 6h-113v-242h216q25 0 40 1.5t24 7.5t14.5 17t10.5 30l8 61
q3 10 8 14t17 4h43q12 0 15.5 -4.5t1.5 -15.5l-16 -158q-2 -23 -10 -28t-27 -5h-532zM278 809q0 35 23.5 56.5t53.5 21.5q29 0 51 -19t22 -53t-23.5 -54.5t-54.5 -20.5q-30 0 -51 18.5t-21 50.5z" />
    <glyph glyph-name="Egrave" unicode="&#xc8;" horiz-adv-x="689" 
d="M64 0q-11 0 -15.5 3.5t-4.5 14.5v39q0 20 18 20q23 0 37.5 1.5t23 7t11.5 14.5t3 24v478q0 22 -7.5 31t-25.5 11h-42q-18 0 -18 18v42q0 11 4 14.5t18 3.5h502q15 0 24.5 -1t14.5 -5.5t7.5 -14t3.5 -26.5l8 -115q1 -14 -2 -19t-17 -5h-43q-13 0 -17.5 4t-6.5 18l-5 41
q-2 17 -8 26.5t-19 14t-34 5.5t-54 1h-169v-252h113q13 0 22.5 5.5t11.5 22.5l3 33q2 12 5.5 15t16.5 3h38q12 0 15 -4t3 -15v-197q0 -10 -3 -14.5t-14 -4.5h-39q-13 0 -16.5 3.5t-5.5 14.5l-4 33q-2 17 -11 23t-22 6h-113v-242h216q25 0 40.5 1.5t24.5 7.5t14 17t10 30
l8 61q3 10 8 14t17 4h43q12 0 15.5 -4.5t2.5 -15.5l-17 -158q-2 -23 -10 -28t-27 -5h-532zM391 802q-6 -14 -29 -7l-187 49q-14 4 -15.5 9.5t3.5 12.5l27 55q5 9 11 10t22 -7l170 -78q10 -5 10.5 -10t-3.5 -14z" />
    <glyph glyph-name="Emacron" unicode="&#x112;" horiz-adv-x="689" 
d="M64 0q-11 0 -15.5 3.5t-4.5 14.5v39q0 20 18 20q23 0 37.5 1.5t23 7t11.5 14.5t3 24v478q0 22 -7.5 31t-25.5 11h-42q-18 0 -18 18v42q0 11 4 14.5t18 3.5h502q15 0 24.5 -1t14.5 -5.5t7.5 -14t3.5 -26.5l8 -115q1 -14 -2 -19t-17 -5h-43q-13 0 -17.5 4t-6.5 18l-5 41
q-2 17 -8 26.5t-19 14t-34 5.5t-54 1h-169v-252h113q13 0 22.5 5.5t11.5 22.5l3 33q2 12 5.5 15t16.5 3h38q12 0 15 -4t3 -15v-197q0 -10 -3 -14.5t-14 -4.5h-39q-13 0 -16.5 3.5t-5.5 14.5l-4 33q-2 17 -11 23t-22 6h-113v-242h216q25 0 40.5 1.5t24.5 7.5t14 17t10 30
l8 61q3 10 8 14t17 4h43q12 0 15.5 -4.5t2.5 -15.5l-17 -158q-2 -23 -10 -28t-27 -5h-532zM226 798q-15 0 -20.5 13.5t-5.5 44.5q0 18 8 21.5t19 3.5h260q17 0 21.5 -15t4.5 -39q0 -29 -16 -29h-271z" />
    <glyph glyph-name="Eogonek" unicode="&#x118;" horiz-adv-x="689" 
d="M64 0q-11 0 -15.5 3.5t-4.5 14.5v39q0 20 17 20q23 0 38 1.5t23.5 7t11.5 14.5t3 24v478q0 22 -7.5 31t-25.5 11h-42q-18 0 -18 18v42q0 11 4 14.5t18 3.5h502q15 0 24.5 -1t14.5 -5.5t7.5 -14t3.5 -26.5l8 -115q1 -14 -2 -19t-17 -5h-43q-13 0 -17.5 4t-6.5 18l-5 41
q-2 17 -8 26.5t-19 14t-34 5.5t-54 1h-169v-252h113q13 0 22.5 5.5t11.5 22.5l2 33q2 12 6 15t17 3h38q12 0 15 -4t3 -15v-197q0 -10 -3 -14.5t-14 -4.5h-39q-13 0 -17 3.5t-6 14.5l-3 33q-2 17 -11 23t-22 6h-113v-242h216q25 0 40 1.5t24 7.5t14.5 17t10.5 30l8 61
q3 10 8 14t17 4h43q12 0 15.5 -4.5t1.5 -15.5l-16 -158q-2 -22 -9 -27.5t-23 -5.5q-28 -17 -45 -38.5t-17 -47.5q0 -25 14.5 -32t33.5 -7q14 0 25 2t23 8q10 5 16.5 5t10.5 -10l10 -23q5 -14 -9 -22q-17 -11 -38.5 -19t-56.5 -8q-50 0 -84 19.5t-34 62.5q0 20 7.5 36.5
t20 30t28.5 24t33 19.5h-475v0z" />
    <glyph glyph-name="Gdotaccent" unicode="&#x120;" horiz-adv-x="787" 
d="M465 329q0 10 3 15t13 5h229q18 0 18 -16v-311q0 -22 -19 -22h-41q-22 0 -27 17l-6 17q-36 -19 -86 -32.5t-116 -13.5q-83 0 -154 22t-123.5 68t-82.5 115.5t-30 164.5q0 82 26 150.5t76 118t123.5 77t168.5 27.5q78 0 132.5 -15.5t89 -41t50 -57.5t15.5 -65
q0 -35 -23.5 -54t-54.5 -19q-30 0 -51.5 19t-21.5 52q0 20 9.5 36t24.5 26q-27 17 -67.5 27t-94.5 10q-73 0 -126 -23.5t-87.5 -63.5t-51.5 -93.5t-17 -113.5q0 -64 18.5 -115.5t53.5 -88t87 -56t118 -19.5q60 0 103.5 13.5t76.5 31.5v123q0 13 -7 18t-18 5h-112
q-18 0 -18 19v43zM363 861q0 34 24 56t54 22q29 0 51 -19t22 -54q0 -34 -24 -54.5t-55 -20.5q-30 0 -51 19t-21 51z" />
    <glyph glyph-name="Hbar" unicode="&#x126;" horiz-adv-x="862" 
d="M72 486q-15 0 -20.5 13.5t-5.5 44.5q0 18 7.5 22t18.5 4h64v28q0 29 -9.5 38t-35.5 9h-28q-13 0 -16.5 3t-3.5 13v42q0 12 4.5 15.5t15.5 3.5h260q11 0 15.5 -3.5t4.5 -15.5v-42q0 -11 -3.5 -13.5t-16.5 -2.5h-29q-26 0 -35 -8t-9 -39v-29l362 -1v30q0 29 -9.5 38
t-35.5 9h-28q-13 0 -16.5 3t-3.5 13v42q0 12 4.5 15.5t15.5 3.5h260q11 0 15 -3.5t4 -15.5v-42q0 -11 -3 -13.5t-16 -2.5h-29q-26 0 -35 -8t-9 -39v-30h66q17 0 21.5 -15t4.5 -39q0 -29 -17 -29h-75v-361q0 -31 10 -39t36 -8h28q13 0 16 -3t3 -12v-44q0 -10 -4 -14t-15 -4
h-261q-11 0 -15 3.5t-4 14.5v44q0 8 3.5 11.5t15.5 3.5h27q26 0 36 9t10 38v199h-362v-199q0 -31 10.5 -39t36.5 -8h27q13 0 16 -3t3 -12v-44q0 -10 -4 -14t-15 -4h-260q-12 0 -16 3.5t-4 14.5v44q0 8 3.5 11.5t16.5 3.5h26q26 0 36 9t10 38v362h-64zM250 400h362v85l-362 1
v-86z" />
    <glyph glyph-name="Hcircumflex" unicode="&#x124;" horiz-adv-x="862" 
d="M726 124q0 -31 10 -39t36 -8h28q13 0 16 -3t3 -12v-44q0 -10 -4 -14t-15 -4h-261q-11 0 -15 3.5t-4 14.5v44q0 8 3.5 11.5t15.5 3.5h27q26 0 36 9t10 38v199h-362v-199q0 -31 10.5 -39t36.5 -8h26q14 0 17 -3t3 -12v-44q0 -10 -4 -14t-16 -4h-259q-12 0 -16 3.5t-4 14.5
v44q0 8 3.5 11.5t16.5 3.5h26q26 0 36 9t10 38v474q0 29 -9.5 38t-35.5 9h-28q-13 0 -16.5 3t-3.5 13v42q0 12 4.5 15.5t15.5 3.5h260q11 0 15.5 -3.5t4.5 -15.5v-42q0 -11 -3.5 -13.5t-16.5 -2.5h-29q-26 0 -35 -8t-9 -39v-198h362v198q0 29 -9.5 38t-35.5 9h-28
q-13 0 -16.5 3t-3.5 13v42q0 12 4.5 15.5t15.5 3.5h260q11 0 15 -3.5t4 -15.5v-42q0 -11 -3 -13.5t-16 -2.5h-29q-26 0 -35 -8t-9 -39v-474zM427 858l-70 -56q-10 -8 -17 -10.5t-21 -2.5h-38q-16 0 -18 6t10 17l111 96q11 10 18.5 12t23.5 2q17 0 24.5 -2t18.5 -12l111 -96
q12 -11 8.5 -17t-17.5 -6h-40q-11 0 -17.5 2.5t-17.5 10.5z" />
    <glyph glyph-name="Iacute" unicode="&#xcd;" horiz-adv-x="386" 
d="M250 124q0 -31 10.5 -39t36.5 -8h26q14 0 17 -3t3 -12v-44q0 -10 -4 -14t-16 -4h-259q-12 0 -16 3.5t-4 14.5v44q0 8 3.5 11.5t16.5 3.5h26q26 0 36 9t10 38v474q0 29 -9.5 38t-35.5 9h-28q-13 0 -16.5 3t-3.5 13v42q0 12 4.5 15.5t15.5 3.5h260q11 0 15.5 -3.5
t4.5 -15.5v-42q0 -11 -3.5 -13.5t-16.5 -2.5h-29q-26 0 -35 -8t-9 -39v-474zM133 824q-4 9 -3.5 14t11.5 10l167 82q14 8 21.5 7.5t14.5 -11.5l25 -44q7 -11 3.5 -17.5t-18.5 -11.5l-182 -56q-13 -5 -19 -2.5t-10 8.5z" />
    <glyph glyph-name="Ibreve" unicode="&#x12c;" horiz-adv-x="386" 
d="M250 124q0 -31 10.5 -39t36.5 -8h26q14 0 17 -3t3 -12v-44q0 -10 -4 -14t-16 -4h-259q-12 0 -16 3.5t-4 14.5v44q0 8 3.5 11.5t16.5 3.5h26q26 0 36 9t10 38v474q0 29 -9.5 38t-35.5 9h-28q-13 0 -16.5 3t-3.5 13v42q0 12 4.5 15.5t15.5 3.5h260q11 0 15.5 -3.5
t4.5 -15.5v-42q0 -11 -3.5 -13.5t-16.5 -2.5h-29q-26 0 -35 -8t-9 -39v-474zM192 856q30 0 46.5 10t16.5 29q0 12 16 12h47q14 0 14 -15q0 -51 -37.5 -78.5t-102.5 -27.5q-68 0 -103 28t-35 78q0 15 14 15h47q15 0 15 -12q0 -18 15 -28.5t47 -10.5z" />
    <glyph glyph-name="Icircumflex" unicode="&#xce;" horiz-adv-x="386" 
d="M250 124q0 -31 10.5 -39t36.5 -8h26q14 0 17 -3t3 -12v-44q0 -10 -4 -14t-16 -4h-259q-12 0 -16 3.5t-4 14.5v44q0 8 3.5 11.5t16.5 3.5h26q26 0 36 9t10 38v474q0 29 -9.5 38t-35.5 9h-28q-13 0 -16.5 3t-3.5 13v42q0 12 4.5 15.5t15.5 3.5h260q11 0 15.5 -3.5
t4.5 -15.5v-42q0 -11 -3.5 -13.5t-16.5 -2.5h-29q-26 0 -35 -8t-9 -39v-474zM192 858l-70 -56q-10 -8 -17 -10.5t-21 -2.5h-38q-16 0 -18 6t10 17l111 96q11 10 18.5 12t23.5 2q17 0 24.5 -2t18.5 -12l111 -96q12 -11 8.5 -17t-17.5 -6h-40q-11 0 -17.5 2.5t-17.5 10.5z" />
    <glyph glyph-name="Idieresis" unicode="&#xcf;" horiz-adv-x="386" 
d="M250 124q0 -31 10.5 -39t36.5 -8h26q14 0 17 -3t3 -12v-44q0 -10 -4 -14t-16 -4h-259q-12 0 -16 3.5t-4 14.5v44q0 8 3.5 11.5t16.5 3.5h26q26 0 36 9t10 38v474q0 29 -9.5 38t-35.5 9h-28q-13 0 -16.5 3t-3.5 13v42q0 12 4.5 15.5t15.5 3.5h260q11 0 15.5 -3.5
t4.5 -15.5v-42q0 -11 -3.5 -13.5t-16.5 -2.5h-29q-26 0 -35 -8t-9 -39v-474zM31 854q0 29 20.5 48.5t47.5 19.5q26 0 44.5 -17t18.5 -47q0 -29 -20.5 -47t-47.5 -18q-26 0 -44.5 16.5t-18.5 44.5zM224 854q0 29 20.5 48.5t47.5 19.5q26 0 44.5 -17t18.5 -47q0 -29 -20.5 -47
t-48.5 -18q-26 0 -44 16.5t-18 44.5z" />
    <glyph glyph-name="Idotaccent" unicode="&#x130;" horiz-adv-x="386" 
d="M136 598q0 29 -9.5 38t-35.5 9h-28q-13 0 -16.5 3t-3.5 13v42q0 12 4.5 15.5t15.5 3.5h260q11 0 15.5 -3.5t4.5 -15.5v-42q0 -11 -3.5 -13.5t-16.5 -2.5h-29q-26 0 -35 -8t-9 -39v-474q0 -31 10.5 -39t36.5 -8h26q14 0 17 -3t3 -12v-44q0 -10 -4 -14t-16 -4h-259
q-12 0 -16 3.5t-4 14.5v44q0 8 3.5 11.5t16.5 3.5h26q26 0 36 9t10 38v474zM116 809q0 35 24 56.5t54 21.5q29 0 50.5 -19t21.5 -53t-23 -54.5t-55 -20.5q-30 0 -51 18.5t-21 50.5z" />
    <glyph glyph-name="Igrave" unicode="&#xcc;" horiz-adv-x="386" 
d="M136 598q0 29 -10 38t-36 9h-28q-12 0 -15.5 3t-3.5 13v42q0 12 4 15.5t15 3.5h260q12 0 16 -3.5t4 -15.5v-42q0 -11 -3.5 -13.5t-16.5 -2.5h-29q-26 0 -35 -8t-9 -39v-474q0 -31 10.5 -39t36.5 -8h27q14 0 17 -3t3 -12v-44q0 -10 -4 -14t-16 -4h-260q-12 0 -16 3.5
t-4 14.5v44q0 8 3.5 11.5t16.5 3.5h26q26 0 36.5 9t10.5 38v474zM229 802q-6 -14 -29 -7l-187 49q-14 4 -15.5 9.5t3.5 12.5l27 55q5 9 11 10t22 -7l170 -78q10 -5 10.5 -10t-3.5 -14z" />
    <glyph glyph-name="Imacron" unicode="&#x12a;" horiz-adv-x="386" 
d="M250 124q0 -31 10.5 -39t36.5 -8h26q14 0 17 -3t3 -12v-44q0 -10 -4 -14t-16 -4h-259q-12 0 -16 3.5t-4 14.5v44q0 8 3.5 11.5t16.5 3.5h26q26 0 36 9t10 38v474q0 29 -9.5 38t-35.5 9h-28q-13 0 -16.5 3t-3.5 13v42q0 12 4.5 15.5t15.5 3.5h260q11 0 15.5 -3.5
t4.5 -15.5v-42q0 -11 -3.5 -13.5t-16.5 -2.5h-29q-26 0 -35 -8t-9 -39v-474zM64 798q-15 0 -20.5 13.5t-5.5 44.5q0 18 8 21.5t19 3.5h260q17 0 21.5 -15t4.5 -39q0 -29 -16 -29h-271z" />
    <glyph glyph-name="Iogonek" unicode="&#x12e;" horiz-adv-x="386" 
d="M250 124q0 -31 10.5 -39t36.5 -8h26q14 0 17 -3t3 -12v-44q0 -10 -4 -14t-16 -4h-63q-29 -17 -47 -39.5t-18 -48.5q0 -25 14.5 -32t33.5 -7q14 0 25 2t23 8q10 5 16.5 5t10.5 -10l10 -23q5 -14 -9 -22q-17 -11 -38.5 -19t-56.5 -8q-50 0 -84 19.5t-34 62.5q0 20 8 37
t21 30.5t29.5 24.5t34.5 20h-135q-12 0 -16 3.5t-4 14.5v44q0 8 3.5 11.5t16.5 3.5h26q26 0 36 9t10 38v474q0 29 -9.5 38t-35.5 9h-28q-13 0 -16.5 3t-3.5 13v42q0 12 4.5 15.5t15.5 3.5h260q11 0 15.5 -3.5t4.5 -15.5v-42q0 -11 -3.5 -13.5t-16.5 -2.5h-29q-26 0 -35 -8
t-9 -39v-474v0z" />
    <glyph glyph-name="Itilde" unicode="&#x128;" horiz-adv-x="386" 
d="M250 124q0 -31 10.5 -39t36.5 -8h26q14 0 17 -3t3 -12v-44q0 -10 -4 -14t-16 -4h-259q-12 0 -16 3.5t-4 14.5v44q0 8 3.5 11.5t16.5 3.5h26q26 0 36 9t10 38v474q0 29 -9.5 38t-35.5 9h-28q-13 0 -16.5 3t-3.5 13v42q0 12 4.5 15.5t15.5 3.5h260q11 0 15.5 -3.5
t4.5 -15.5v-42q0 -11 -3.5 -13.5t-16.5 -2.5h-29q-26 0 -35 -8t-9 -39v-474zM243 865q33 0 36 25q2 5 4 7.5t9 2.5h39q12 0 12 -12q0 -45 -25 -69t-70 -24q-32 0 -45.5 7.5t-20.5 15.5q-5 6 -11 11t-23 5q-31 0 -34 -26q-2 -6 -4 -8t-10 -2h-38q-5 0 -8.5 2.5t-3.5 10.5
q0 44 25 68t70 24q32 0 45 -8.5t19 -16.5q6 -5 13.5 -9t20.5 -4z" />
    <glyph glyph-name="IJ" unicode="&#x132;" horiz-adv-x="949" 
d="M414 143q0 33 24 53.5t54 20.5t52 -19.5t22 -53.5q0 -26 -14 -42.5t-34 -24.5q15 -12 35 -17.5t43 -5.5q60 0 87 38.5t27 102.5v403q0 29 -9.5 38t-35.5 9h-28q-12 0 -15.5 3t-3.5 13v42q0 12 4 15.5t15 3.5h260q12 0 16 -3.5t4 -15.5v-42q0 -11 -3.5 -13.5t-16.5 -2.5
h-29q-26 0 -34.5 -8t-8.5 -39v-380q0 -51 -13.5 -93t-40.5 -71.5t-69 -46t-99 -16.5q-51 0 -87 12.5t-58.5 33.5t-32.5 48.5t-10 57.5h75q0 -23 7.5 -39t20.5 -27q-17 -5 -31 -5q-30 0 -51.5 19t-21.5 52zM136 598q0 29 -9.5 38t-35.5 9h-28q-13 0 -16.5 3t-3.5 13v42
q0 12 4.5 15.5t15.5 3.5h260q11 0 15.5 -3.5t4.5 -15.5v-42q0 -11 -3.5 -13.5t-16.5 -2.5h-29q-26 0 -35 -8t-9 -39v-474q0 -31 10.5 -39t36.5 -8h26q14 0 17 -3t3 -12v-44q0 -10 -4 -14t-16 -4h-259q-12 0 -16 3.5t-4 14.5v44q0 8 3.5 11.5t16.5 3.5h26q26 0 36 9t10 38
v474z" />
    <glyph glyph-name="Jcircumflex" unicode="&#x134;" horiz-adv-x="563" 
d="M28 143q0 33 23.5 53.5t53.5 20.5q29 0 51.5 -19.5t22.5 -53.5q0 -26 -13.5 -42.5t-34.5 -24.5q15 -12 34.5 -17.5t42.5 -5.5q61 0 88 38.5t27 102.5v403q0 29 -9.5 38t-34.5 9h-28q-13 0 -16.5 3t-3.5 13v42q0 12 4.5 15.5t15.5 3.5h259q12 0 16 -3.5t4 -15.5v-42
q0 -11 -3.5 -13.5t-16.5 -2.5h-28q-26 0 -35 -8t-9 -39v-380q0 -51 -13.5 -93t-40.5 -71.5t-69 -46t-99 -16.5q-50 0 -85.5 12t-58 32t-33 46.5t-11.5 55.5v6zM382 858l-70 -56q-10 -8 -17 -10.5t-21 -2.5h-38q-16 0 -18 6t10 17l111 96q11 10 18.5 12t23.5 2q17 0 24.5 -2
t18.5 -12l111 -96q12 -11 8.5 -17t-17.5 -6h-40q-11 0 -17.5 2.5t-17.5 10.5z" />
    <glyph glyph-name="Kcommaaccent" unicode="&#x136;" horiz-adv-x="790" 
d="M355 365l-105 -98v-143q0 -31 10.5 -39t36.5 -8h26q14 0 17 -3t3 -12v-44q0 -10 -4 -14t-16 -4h-259q-12 0 -16 3.5t-4 14.5v44q0 8 3.5 11.5t16.5 3.5h26q26 0 36 9t10 38v474q0 29 -9.5 38t-35.5 9h-28q-13 0 -16.5 3t-3.5 13v42q0 12 4.5 15.5t15.5 3.5h260
q11 0 15.5 -3.5t4.5 -15.5v-42q0 -11 -3.5 -13.5t-16.5 -2.5h-29q-26 0 -35 -8t-9 -39v-239l271 257q19 17 17 23t-18 6h-28q-12 0 -15.5 8t-3.5 16v34q0 12 4 15.5t15 3.5h246q12 0 15.5 -3.5t3.5 -15.5v-38q0 -8 -3 -14t-16 -6h-47q-17 0 -35 -8.5t-42 -31.5l-193 -179
q56 -3 94.5 -26t67 -63t50 -96.5t43.5 -126.5q10 -22 21.5 -29.5t30.5 -7.5q8 0 17.5 2.5t23.5 9.5q17 8 17 -14v-44q0 -11 -4 -16t-15 -11q-14 -7 -34 -11t-37 -4t-34 2t-33.5 10t-31.5 24t-27 45q-11 25 -21 56.5t-22.5 64t-27.5 64t-34.5 56t-45 39.5t-58.5 15h-6z" />
    <glyph glyph-name="undercommaaccent" horiz-adv-x="273" 
d="M66 -129q0 29 20 47t46 18q25 0 43 -17.5t18 -51.5q0 -23 -8.5 -45t-23 -42.5t-33 -39t-38.5 -34.5q-7 -5 -10.5 -6.5t-8.5 3.5l-12 12q-5 5 -4.5 9t8.5 10q17 14 34 36t22 42q-23 2 -38 17.5t-15 41.5z" />
    <glyph glyph-name="Lacute" unicode="&#x139;" horiz-adv-x="662" 
d="M64 0q-11 0 -15.5 3.5t-4.5 14.5v39q0 20 18 20q22 0 36 1.5t22.5 6t12 12.5t4.5 21v480q0 29 -9.5 38t-35.5 9h-28q-13 0 -16.5 3t-3.5 13v42q0 12 4.5 15.5t15.5 3.5h260q11 0 15.5 -3.5t4.5 -15.5v-42q0 -11 -3.5 -13.5t-16.5 -2.5h-29q-24 0 -33.5 -7t-10.5 -32v-530
h203q25 0 40 1.5t24 7.5t14.5 17t10.5 30l8 61q2 10 7.5 14t17.5 4h43q11 0 14.5 -4.5t2.5 -15.5l-16 -158q-2 -23 -10 -28t-28 -5h-518zM129 824q-4 9 -3.5 14t11.5 10l167 82q14 8 21.5 7.5t14.5 -11.5l25 -44q7 -11 3.5 -17.5t-18.5 -11.5l-182 -56q-13 -5 -19 -2.5
t-10 8.5z" />
    <glyph glyph-name="Lcaron" unicode="&#x13d;" horiz-adv-x="663" 
d="M64 0q-11 0 -15.5 3.5t-4.5 14.5v39q0 20 18 20q23 0 37.5 1.5t23 7t11.5 14.5t3 24v482q-2 23 -12 31t-33 8h-28q-13 0 -16.5 3t-3.5 13v42q0 12 4.5 15.5t15.5 3.5h260q11 0 15.5 -3.5t4.5 -15.5v-42q0 -11 -3.5 -13.5t-16.5 -2.5h-29q-24 0 -33.5 -7t-10.5 -32v-530
h203q25 0 40 1.5t24 7.5t14.5 17t10.5 30l8 61q2 10 7.5 14t17.5 4h43q11 0 14.5 -4.5t2.5 -15.5l-16 -158q-2 -23 -10 -28t-28 -5h-518zM464 700q-2 12 10.5 17t48.5 5q37 0 49 -5t10 -17l-12 -196q-1 -11 -10 -15t-37 -4t-37 4t-10 15z" />
    <glyph glyph-name="Ldot" unicode="&#x13f;" horiz-adv-x="662" 
d="M64 0q-11 0 -15.5 3.5t-4.5 14.5v39q0 20 18 20q23 0 37.5 1.5t23 7t11.5 14.5t3 24v474q0 29 -9.5 38t-35.5 9h-28q-13 0 -16.5 3t-3.5 13v42q0 12 4.5 15.5t15.5 3.5h260q11 0 15.5 -3.5t4.5 -15.5v-42q0 -11 -3.5 -13.5t-16.5 -2.5h-29q-24 0 -33.5 -7t-10.5 -32v-530
h203q25 0 40 1.5t24 7.5t14.5 17t10.5 30l8 61q2 10 7.5 14t17.5 4h43q11 0 14.5 -4.5t2.5 -15.5l-16 -158q-2 -23 -10 -28t-28 -5h-518zM382 385q0 34 23.5 56t53.5 22q29 0 51 -19t22 -53q0 -35 -23.5 -55.5t-55.5 -20.5q-30 0 -50.5 19t-20.5 51z" />
    <glyph glyph-name="Lslash" unicode="&#x141;" horiz-adv-x="663" 
d="M81 203q-13 -9 -22 4l-27 38q-5 7 -3.5 11.5t9.5 9.5l100 68v264q0 29 -9.5 38t-35.5 9h-28q-12 0 -15.5 3t-3.5 13v42q0 12 4 15.5t15 3.5h260q11 0 16 -3.5t5 -15.5v-42q0 -11 -4 -13.5t-17 -2.5h-28q-26 0 -35 -8t-9 -39v-185l173 118q15 10 22 -3l26 -39q5 -7 4 -12
t-9 -10l-216 -147v-244h203q25 0 40 1.5t24 7.5t14.5 17t10.5 30l8 61q2 10 7 14t17 4h43q12 0 15.5 -4.5t2.5 -15.5l-16 -158q-2 -23 -10 -28t-28 -5h-519q-10 0 -14.5 3.5t-4.5 14.5v39q0 20 17 20q43 0 58 7t17 31v127z" />
    <glyph glyph-name="commaaccent" unicode="&#xf6c3;" horiz-adv-x="273" 
d="M66 -134q0 29 20 47.5t46 18.5q25 0 43 -18t18 -51q0 -23 -8.5 -45t-23 -42.5t-33 -39.5t-38.5 -34q-7 -5 -10.5 -6.5t-8.5 3.5l-12 12q-5 5 -4.5 8.5t8.5 9.5q17 14 34 36.5t22 42.5q-23 2 -38 17t-15 41z" />
    <glyph glyph-name="Lcommaaccent" unicode="&#x13b;" horiz-adv-x="662" 
d="M64 0q-11 0 -15.5 3.5t-4.5 14.5v39q0 20 18 20q22 0 36 1.5t22.5 6t12 12.5t4.5 21v480q0 29 -9.5 38t-35.5 9h-28q-13 0 -16.5 3t-3.5 13v42q0 12 4.5 15.5t15.5 3.5h260q11 0 15.5 -3.5t4.5 -15.5v-42q0 -11 -3.5 -13.5t-16.5 -2.5h-29q-24 0 -33.5 -7t-10.5 -32v-530
h203q25 0 40 1.5t24 7.5t14.5 17t10.5 30l8 61q2 10 7.5 14t17.5 4h43q11 0 14.5 -4.5t2.5 -15.5l-16 -158q-2 -23 -10 -28t-28 -5h-518zM312 -134q0 29 20 47.5t46 18.5q25 0 43 -18t18 -51q0 -23 -8.5 -45t-23 -42.5t-33 -39.5t-38.5 -34q-7 -5 -10.5 -6.5t-8.5 3.5
l-12 12q-5 5 -4.5 8.5t8.5 9.5q17 14 34 36.5t22 42.5q-23 2 -38 17t-15 41z" />
    <glyph glyph-name="Nacute" unicode="&#x143;" horiz-adv-x="871" 
d="M87 77q27 0 38 7.5t11 30.5v495q-2 22 -12 28.5t-31 6.5h-28q-13 0 -16.5 3t-3.5 11v46q0 11 4.5 14t15.5 3h140q23 0 35 -15l411 -519v419q0 24 -10.5 31t-36.5 7h-26q-13 0 -16 2.5t-3 12.5v43q0 12 4 15.5t15 3.5h239q11 0 15 -3.5t4 -14.5v-43q0 -10 -3.5 -13
t-15.5 -3h-25q-26 0 -37 -7.5t-11 -30.5v-599q0 -9 -4.5 -12.5t-17.5 -3.5h-29q-11 0 -18 2.5t-14 10.5l-432 532v-422q0 -24 10 -31t36 -7h26q13 0 16.5 -2.5t3.5 -12.5v-44q0 -11 -4.5 -14.5t-15.5 -3.5h-238q-11 0 -15.5 3.5t-4.5 14.5v43q0 10 3.5 13t16.5 3h24z
M362 824q-4 9 -3.5 14t11.5 10l167 82q14 8 21.5 7.5t14.5 -11.5l25 -44q7 -11 3.5 -17.5t-18.5 -11.5l-182 -56q-13 -5 -19 -2.5t-10 8.5z" />
    <glyph glyph-name="Ncaron" unicode="&#x147;" horiz-adv-x="871" 
d="M87 77q27 0 38 7.5t11 30.5v495q-2 22 -12 28.5t-31 6.5h-28q-13 0 -16.5 3t-3.5 11v46q0 11 4.5 14t15.5 3h140q23 0 35 -15l411 -519v419q0 24 -10.5 31t-36.5 7h-26q-13 0 -16 2.5t-3 12.5v43q0 12 4 15.5t15 3.5h239q11 0 15 -3.5t4 -14.5v-43q0 -10 -3.5 -13
t-15.5 -3h-25q-26 0 -37 -7.5t-11 -30.5v-599q0 -9 -4.5 -12.5t-17.5 -3.5h-29q-11 0 -18 2.5t-14 10.5l-432 532v-422q0 -24 10 -31t36 -7h26q13 0 16.5 -2.5t3.5 -12.5v-44q0 -11 -4.5 -14.5t-15.5 -3.5h-238q-11 0 -15.5 3.5t-4.5 14.5v43q0 10 3.5 13t16.5 3h24z
M420 854l69 57q11 6 16 9t19 3h41q16 0 18.5 -5.5t-6.5 -13.5l-115 -100q-11 -10 -18.5 -12t-23.5 -2q-17 0 -24 2t-18 12l-116 100q-9 8 -5 13.5t18 5.5h41q14 0 19 -3l15 -9z" />
    <glyph glyph-name="Ncommaaccent" unicode="&#x145;" horiz-adv-x="871" 
d="M87 77q27 0 38 7.5t11 30.5v495q-2 22 -12 28.5t-31 6.5h-28q-13 0 -16.5 3t-3.5 11v46q0 11 4.5 14t15.5 3h140q23 0 35 -15l411 -519v419q0 24 -10.5 31t-36.5 7h-26q-13 0 -16 2.5t-3 12.5v43q0 12 4 15.5t15 3.5h239q11 0 15 -3.5t4 -14.5v-43q0 -10 -3.5 -13
t-15.5 -3h-25q-26 0 -37 -7.5t-11 -30.5v-599q0 -9 -4.5 -12.5t-17.5 -3.5h-29q-11 0 -18 2.5t-14 10.5l-432 532v-422q0 -24 10 -31t36 -7h26q13 0 16.5 -2.5t3.5 -12.5v-44q0 -11 -4.5 -14.5t-15.5 -3.5h-238q-11 0 -15.5 3.5t-4.5 14.5v43q0 10 3.5 13t16.5 3h24z
M362 -134q0 29 20 47.5t46 18.5q25 0 43 -18t18 -51q0 -23 -8.5 -45t-23 -42.5t-33 -39.5t-38.5 -34q-7 -5 -10.5 -6.5t-8.5 3.5l-12 12q-5 5 -4.5 8.5t8.5 9.5q17 14 34 36.5t22 42.5q-23 2 -38 17t-15 41z" />
    <glyph glyph-name="Ntilde" unicode="&#xd1;" horiz-adv-x="871" 
d="M87 77q27 0 38 7.5t11 30.5v495q-2 22 -12 28.5t-31 6.5h-28q-13 0 -16.5 3t-3.5 11v46q0 11 4.5 14t15.5 3h140q23 0 35 -15l411 -519v419q0 24 -10.5 31t-36.5 7h-26q-13 0 -16 2.5t-3 12.5v43q0 12 4 15.5t15 3.5h239q11 0 15 -3.5t4 -14.5v-43q0 -10 -3.5 -13
t-15.5 -3h-25q-26 0 -37 -7.5t-11 -30.5v-599q0 -9 -4.5 -12.5t-17.5 -3.5h-29q-11 0 -18 2.5t-14 10.5l-432 532v-422q0 -24 10 -31t36 -7h26q13 0 16.5 -2.5t3.5 -12.5v-44q0 -11 -4.5 -14.5t-15.5 -3.5h-238q-11 0 -15.5 3.5t-4.5 14.5v43q0 10 3.5 13t16.5 3h24z
M471 865q33 0 36 25q2 5 4 7.5t9 2.5h39q12 0 12 -12q0 -45 -25 -69t-70 -24q-32 0 -45.5 7.5t-20.5 15.5q-5 6 -11 11t-23 5q-31 0 -34 -26q-2 -6 -4 -8t-10 -2h-38q-5 0 -8.5 2.5t-3.5 10.5q0 44 25 68t70 24q32 0 45 -8.5t19 -16.5q6 -5 13.5 -9t20.5 -4z" />
    <glyph glyph-name="Oacute" unicode="&#xd3;" 
d="M43 358q0 64 18.5 131t63 121t120 88.5t189.5 34.5q109 0 184.5 -31.5t121.5 -83.5t66.5 -119t20.5 -137q0 -64 -18 -130.5t-63 -121t-120.5 -89t-189.5 -34.5q-110 0 -185 31.5t-121.5 83.5t-66.5 118.5t-20 137.5zM433 651q-79 0 -131.5 -27t-83.5 -69t-43.5 -93.5
t-12.5 -101.5q0 -47 12 -98t43 -94t84 -71t136 -28q81 0 133.5 27.5t82.5 70t42 93.5t12 99q0 46 -11.5 97t-42 94.5t-84 72t-136.5 28.5zM374 824q-4 9 -3.5 14t11.5 10l167 82q14 8 21.5 7.5t14.5 -11.5l25 -44q7 -11 3.5 -17.5t-18.5 -11.5l-182 -56q-13 -5 -19 -2.5
t-10 8.5z" />
    <glyph glyph-name="Obreve" unicode="&#x14e;" 
d="M43 358q0 64 18.5 131t63 121t120 88.5t189.5 34.5q109 0 184.5 -31.5t121.5 -83.5t66.5 -119t20.5 -137q0 -64 -18 -130.5t-63 -121t-120.5 -89t-189.5 -34.5q-110 0 -185 31.5t-121.5 83.5t-66.5 118.5t-20 137.5zM433 651q-79 0 -131.5 -27t-83.5 -69t-43.5 -93.5
t-12.5 -101.5q0 -47 12 -98t43 -94t84 -71t136 -28q81 0 133.5 27.5t82.5 70t42 93.5t12 99q0 46 -11.5 97t-42 94.5t-84 72t-136.5 28.5zM433 856q30 0 46.5 10t16.5 29q0 12 16 12h47q14 0 14 -15q0 -51 -37.5 -78.5t-102.5 -27.5q-68 0 -103 28t-35 78q0 15 14 15h47
q15 0 15 -12q0 -18 15 -28.5t47 -10.5z" />
    <glyph glyph-name="Ocircumflex" unicode="&#xd4;" 
d="M43 358q0 64 18.5 131t63 121t120 88.5t189.5 34.5q109 0 184.5 -31.5t121.5 -83.5t66.5 -119t20.5 -137q0 -64 -18 -130.5t-63 -121t-120.5 -89t-189.5 -34.5q-110 0 -185 31.5t-121.5 83.5t-66.5 118.5t-20 137.5zM433 651q-79 0 -131.5 -27t-83.5 -69t-43.5 -93.5
t-12.5 -101.5q0 -47 12 -98t43 -94t84 -71t136 -28q81 0 133.5 27.5t82.5 70t42 93.5t12 99q0 46 -11.5 97t-42 94.5t-84 72t-136.5 28.5zM434 858l-70 -56q-10 -8 -17 -10.5t-21 -2.5h-38q-16 0 -18 6t10 17l111 96q11 10 18.5 12t23.5 2q17 0 24.5 -2t18.5 -12l111 -96
q12 -11 8.5 -17t-17.5 -6h-40q-11 0 -17.5 2.5t-17.5 10.5z" />
    <glyph glyph-name="Odieresis" unicode="&#xd6;" 
d="M43 358q0 64 18.5 131t63 121t120 88.5t189.5 34.5q109 0 184.5 -31.5t121.5 -83.5t66.5 -119t20.5 -137q0 -64 -18 -130.5t-63 -121t-120.5 -89t-189.5 -34.5q-110 0 -185 31.5t-121.5 83.5t-66.5 118.5t-20 137.5zM433 651q-79 0 -131.5 -27t-83.5 -69t-43.5 -93.5
t-12.5 -101.5q0 -47 12 -98t43 -94t84 -71t136 -28q81 0 133.5 27.5t82.5 70t42 93.5t12 99q0 46 -11.5 97t-42 94.5t-84 72t-136.5 28.5zM272 854q0 29 20.5 48.5t47.5 19.5q26 0 44.5 -17t18.5 -47q0 -29 -20.5 -47t-47.5 -18q-26 0 -44.5 16.5t-18.5 44.5zM465 854
q0 29 20.5 48.5t47.5 19.5q26 0 44.5 -17t18.5 -47q0 -29 -20.5 -47t-48.5 -18q-26 0 -44 16.5t-18 44.5z" />
    <glyph glyph-name="Ograve" unicode="&#xd2;" 
d="M43 358q0 64 18.5 131t63 121t120 88.5t189.5 34.5q109 0 184.5 -31.5t121.5 -83.5t66.5 -119t20.5 -137q0 -64 -18 -130.5t-63 -121t-120.5 -89t-189.5 -34.5q-110 0 -185 31.5t-121.5 83.5t-66.5 118.5t-20 137.5zM433 651q-79 0 -131.5 -27t-83.5 -69t-43.5 -93.5
t-12.5 -101.5q0 -47 12 -98t43 -94t84 -71t136 -28q81 0 133.5 27.5t82.5 70t42 93.5t12 99q0 46 -11.5 97t-42 94.5t-84 72t-136.5 28.5zM471 802q-6 -14 -29 -7l-187 49q-14 4 -15.5 9.5t3.5 12.5l27 55q5 9 11 10t22 -7l170 -78q10 -5 10.5 -10t-3.5 -14z" />
    <glyph glyph-name="Ohungarumlaut" unicode="&#x150;" 
d="M43 358q0 64 18.5 131t63 121t120 88.5t189.5 34.5q109 0 184.5 -31.5t121.5 -83.5t66.5 -119t20.5 -137q0 -64 -18 -130.5t-63 -121t-120.5 -89t-189.5 -34.5q-110 0 -185 31.5t-121.5 83.5t-66.5 118.5t-20 137.5zM433 651q-79 0 -131.5 -27t-83.5 -69t-43.5 -93.5
t-12.5 -101.5q0 -47 12 -98t43 -94t84 -71t136 -28q81 0 133.5 27.5t82.5 70t42 93.5t12 99q0 46 -11.5 97t-42 94.5t-84 72t-136.5 28.5zM313 814q-7 6 -8 10t8 12l125 115q19 14 30 6l50 -34q8 -6 8 -10.5t-14 -14.5l-150 -96q-12 -7 -18.5 -7.5t-12.5 4.5zM484 813
q-7 5 -8.5 9t7.5 12l125 117q10 8 16.5 9.5t12.5 -3.5l51 -33q7 -6 7.5 -11t-13.5 -14l-150 -97q-11 -8 -17.5 -8t-12.5 5z" />
    <glyph glyph-name="Omacron" unicode="&#x14c;" 
d="M43 358q0 64 18.5 131t63 121t120 88.5t189.5 34.5q109 0 184.5 -31.5t121.5 -83.5t66.5 -119t20.5 -137q0 -64 -18 -130.5t-63 -121t-120.5 -89t-189.5 -34.5q-110 0 -185 31.5t-121.5 83.5t-66.5 118.5t-20 137.5zM433 651q-79 0 -131.5 -27t-83.5 -69t-43.5 -93.5
t-12.5 -101.5q0 -47 12 -98t43 -94t84 -71t136 -28q81 0 133.5 27.5t82.5 70t42 93.5t12 99q0 46 -11.5 97t-42 94.5t-84 72t-136.5 28.5zM305 798q-15 0 -20.5 13.5t-5.5 44.5q0 18 8 21.5t19 3.5h260q17 0 21.5 -15t4.5 -39q0 -29 -16 -29h-271z" />
    <glyph glyph-name="Oslash" unicode="&#xd8;" 
d="M225 30q-50 24 -84.5 60t-56 78.5t-31.5 91t-10 98.5q0 64 18.5 131t63 121t120 88.5t189.5 34.5q58 0 111 -11l7 16q7 19 21 16l82 -16q10 -2 10.5 -6.5t-4.5 -15.5l-13 -28q48 -25 82 -60.5t55.5 -78t31.5 -90.5t10 -97q0 -64 -18 -130.5t-63 -121t-120.5 -89
t-189.5 -34.5q-29 0 -55.5 2.5t-51.5 7.5l-9 -21q-5 -10 -9 -13t-13 -1l-80 17q-10 2 -11.5 5t4.5 16zM433 651q-79 0 -131.5 -27t-83.5 -69t-43.5 -93.5t-12.5 -101.5q0 -31 5 -64t17 -65.5t32 -61.5t50 -51l242 525q-35 8 -75 8zM707 359q0 30 -5 63t-16.5 64.5
t-30.5 60.5t-48 52l-241 -523q16 -4 33.5 -5.5t37.5 -1.5q81 0 133.5 27.5t82.5 70t42 93.5t12 99z" />
    <glyph glyph-name="Oslashacute" unicode="&#x1fe;" 
d="M222 31q-49 24 -83 60t-55.5 78.5t-31 90.5t-9.5 98q0 64 18.5 131t63 121t120 88.5t189.5 34.5q61 0 108 -10l10 21q7 19 21 16l82 -16q10 -2 10.5 -6.5t-4.5 -15.5l-15 -33q49 -25 83.5 -60.5t56 -78.5t31.5 -91t10 -97q0 -64 -18 -130.5t-63 -121t-120.5 -89
t-189.5 -34.5q-30 0 -57 2.5t-52 7.5l-7 -15q-5 -10 -9 -13t-13 -1l-80 17q-10 2 -11.5 5t4.5 16zM707 359q0 30 -5 63t-16.5 65.5t-31 61.5t-49.5 51l-242 -524q31 -7 74 -7q81 0 133.5 27.5t82.5 70t42 93.5t12 99zM433 651q-79 0 -131.5 -27t-83.5 -69t-43.5 -93.5
t-12.5 -101.5q0 -30 5 -63t16.5 -65t31 -61t48.5 -51l243 524q-17 3 -35 5t-38 2zM374 824q-4 9 -3.5 14t11.5 10l167 82q14 8 21.5 7.5t14.5 -11.5l25 -44q7 -11 3.5 -17.5t-18.5 -11.5l-182 -56q-13 -5 -19 -2.5t-10 8.5z" />
    <glyph glyph-name="Otilde" unicode="&#xd5;" 
d="M43 358q0 64 18.5 131t63 121t120 88.5t189.5 34.5q109 0 184.5 -31.5t121.5 -83.5t66.5 -119t20.5 -137q0 -64 -18 -130.5t-63 -121t-120.5 -89t-189.5 -34.5q-110 0 -185 31.5t-121.5 83.5t-66.5 118.5t-20 137.5zM433 651q-79 0 -131.5 -27t-83.5 -69t-43.5 -93.5
t-12.5 -101.5q0 -47 12 -98t43 -94t84 -71t136 -28q81 0 133.5 27.5t82.5 70t42 93.5t12 99q0 46 -11.5 97t-42 94.5t-84 72t-136.5 28.5zM484 865q33 0 36 25q2 5 4 7.5t9 2.5h39q12 0 12 -12q0 -45 -25 -69t-70 -24q-32 0 -45.5 7.5t-20.5 15.5q-5 6 -11 11t-23 5
q-31 0 -34 -26q-2 -6 -4 -8t-10 -2h-38q-5 0 -8.5 2.5t-3.5 10.5q0 44 25 68t70 24q32 0 45 -8.5t19 -16.5q6 -5 13.5 -9t20.5 -4z" />
    <glyph glyph-name="Racute" unicode="&#x154;" horiz-adv-x="717" 
d="M250 292v-168q0 -31 10.5 -39t36.5 -8h26q14 0 17 -3t3 -12v-44q0 -10 -4 -14t-16 -4h-259q-12 0 -16 3.5t-4 14.5v44q0 8 3.5 11.5t16.5 3.5h26q26 0 36 9t10 38v478q0 22 -7.5 31t-25.5 11h-42q-18 0 -18 18v42q0 11 4 14.5t18 3.5h255q154 0 230.5 -47.5t76.5 -164.5
q0 -85 -43 -134.5t-115 -69.5q18 -11 34 -27t31 -40t30.5 -56.5t34.5 -74.5q10 -22 21 -28.5t28 -6.5q10 0 20.5 2t22.5 7q18 8 18 -8v-43q0 -11 -4 -16t-16 -10q-14 -7 -35 -11.5t-44 -4.5q-15 0 -31 2t-31 10t-29 24t-27 44q-14 29 -29.5 67.5t-36.5 73t-50 58.5t-70 24
h-56zM335 368q170 0 170 142q0 73 -44.5 104.5t-132.5 31.5h-78v-278h85zM289 824q-4 9 -3.5 14t11.5 10l167 82q14 8 21.5 7.5t14.5 -11.5l25 -44q7 -11 3.5 -17.5t-18.5 -11.5l-182 -56q-13 -5 -19 -2.5t-10 8.5z" />
    <glyph glyph-name="Rcaron" unicode="&#x158;" horiz-adv-x="718" 
d="M251 292v-168q0 -31 10.5 -39t36.5 -8h26q14 0 17 -3t3 -12v-44q0 -10 -4 -14t-16 -4h-259q-12 0 -16 3.5t-4 14.5v44q0 8 3.5 11.5t16.5 3.5h26q26 0 36 9t10 38v478q0 22 -7.5 31t-25.5 11h-42q-18 0 -18 18v42q0 11 4 14.5t18 3.5h255q154 0 230 -47.5t76 -164.5
q0 -84 -43 -134t-114 -70q18 -11 34 -27t31 -40t30.5 -56.5t34.5 -74.5q10 -22 21 -28.5t28 -6.5q10 0 20.5 2t22.5 7q18 8 18 -8v-43q0 -11 -4 -16t-16 -10q-14 -7 -35 -11.5t-44 -4.5q-15 0 -31 2t-31 10t-29 24t-27 44q-14 29 -29.5 67.5t-36.5 73t-50 58.5t-70 24h-56z
M336 368q170 0 170 142q0 73 -44.5 104.5t-132.5 31.5h-78v-278h85zM349 854l69 57q11 6 16 9t19 3h41q16 0 18.5 -5.5t-6.5 -13.5l-115 -100q-11 -10 -18.5 -12t-23.5 -2q-17 0 -24 2t-18 12l-116 100q-9 8 -5 13.5t18 5.5h41q14 0 19 -3l15 -9z" />
    <glyph glyph-name="Rcommaaccent" unicode="&#x156;" horiz-adv-x="717" 
d="M250 292v-168q0 -31 10.5 -39t36.5 -8h26q14 0 17 -3t3 -12v-44q0 -10 -4 -14t-16 -4h-259q-12 0 -16 3.5t-4 14.5v44q0 8 3.5 11.5t16.5 3.5h26q26 0 36 9t10 38v478q0 22 -7.5 31t-25.5 11h-42q-18 0 -18 18v42q0 11 4 14.5t18 3.5h255q154 0 230.5 -47.5t76.5 -164.5
q0 -85 -43 -134.5t-115 -69.5q18 -11 34 -27t31 -40t30.5 -56.5t34.5 -74.5q10 -22 21 -28.5t28 -6.5q10 0 20.5 2t22.5 7q18 8 18 -8v-43q0 -11 -4 -16t-16 -10q-14 -7 -35 -11.5t-44 -4.5q-15 0 -31 2t-31 10t-29 24t-27 44q-14 29 -29.5 67.5t-36.5 73t-50 58.5t-70 24
h-56zM335 368q170 0 170 142q0 73 -44.5 104.5t-132.5 31.5h-78v-278h85zM397 -134q0 29 20 47.5t46 18.5q25 0 43 -18t18 -51q0 -23 -8.5 -45t-23 -42.5t-33 -39.5t-38.5 -34q-7 -5 -10.5 -6.5t-8.5 3.5l-12 12q-5 5 -4.5 8.5t8.5 9.5q17 14 34 36.5t22 42.5q-23 2 -38 17
t-15 41z" />
    <glyph glyph-name="Uacute" unicode="&#xda;" horiz-adv-x="854" 
d="M432 83q47 0 85 11t65 34.5t41.5 60.5t14.5 89v325q0 26 -9.5 34t-35.5 8h-28q-12 0 -16 3t-4 13v42q0 12 4.5 15.5t15.5 3.5h243q12 0 16 -3.5t4 -15.5v-42q0 -11 -3.5 -13.5t-16.5 -2.5h-29q-25 0 -34 -7.5t-9 -34.5v-330q0 -143 -79 -211.5t-228 -68.5
q-156 0 -233.5 69.5t-77.5 200.5v335q0 29 -9.5 38t-35.5 9h-28q-13 0 -16.5 3t-3.5 13v42q0 12 4.5 15.5t15.5 3.5h260q11 0 15.5 -3.5t4.5 -15.5v-42q0 -11 -3.5 -13.5t-16.5 -2.5h-29q-26 0 -35 -8t-9 -39v-322q0 -99 50.5 -146t149.5 -47zM370 824q-4 9 -3.5 14t11.5 10
l167 82q14 8 21.5 7.5t14.5 -11.5l25 -44q7 -11 3.5 -17.5t-18.5 -11.5l-182 -56q-13 -5 -19 -2.5t-10 8.5z" />
    <glyph glyph-name="Ubreve" unicode="&#x16c;" horiz-adv-x="854" 
d="M432 83q47 0 85 11t65 34.5t41.5 60.5t14.5 89v325q0 26 -9.5 34t-35.5 8h-28q-12 0 -16 3t-4 13v42q0 12 4.5 15.5t15.5 3.5h243q12 0 16 -3.5t4 -15.5v-42q0 -11 -3.5 -13.5t-16.5 -2.5h-29q-25 0 -34 -7.5t-9 -34.5v-330q0 -143 -79 -211.5t-228 -68.5
q-156 0 -233.5 69.5t-77.5 200.5v335q0 29 -9.5 38t-35.5 9h-28q-13 0 -16.5 3t-3.5 13v42q0 12 4.5 15.5t15.5 3.5h260q11 0 15.5 -3.5t4.5 -15.5v-42q0 -11 -3.5 -13.5t-16.5 -2.5h-29q-26 0 -35 -8t-9 -39v-322q0 -99 50.5 -146t149.5 -47zM434 856q30 0 46.5 10t16.5 29
q0 12 16 12h47q14 0 14 -15q0 -51 -37.5 -78.5t-102.5 -27.5q-68 0 -103 28t-35 78q0 15 14 15h47q15 0 15 -12q0 -18 15 -28.5t47 -10.5z" />
    <glyph glyph-name="Ucircumflex" unicode="&#xdb;" horiz-adv-x="854" 
d="M432 83q47 0 85 11t65 34.5t41.5 60.5t14.5 89v325q0 26 -9.5 34t-35.5 8h-28q-12 0 -16 3t-4 13v42q0 12 4.5 15.5t15.5 3.5h243q12 0 16 -3.5t4 -15.5v-42q0 -11 -3.5 -13.5t-16.5 -2.5h-29q-25 0 -34 -7.5t-9 -34.5v-330q0 -143 -79 -211.5t-228 -68.5
q-156 0 -233.5 69.5t-77.5 200.5v335q0 29 -9.5 38t-35.5 9h-28q-13 0 -16.5 3t-3.5 13v42q0 12 4.5 15.5t15.5 3.5h260q11 0 15.5 -3.5t4.5 -15.5v-42q0 -11 -3.5 -13.5t-16.5 -2.5h-29q-26 0 -35 -8t-9 -39v-322q0 -99 50.5 -146t149.5 -47zM430 858l-70 -56
q-10 -8 -17 -10.5t-21 -2.5h-38q-16 0 -18 6t10 17l111 96q11 10 18.5 12t23.5 2q17 0 24.5 -2t18.5 -12l111 -96q12 -11 8.5 -17t-17.5 -6h-40q-11 0 -17.5 2.5t-17.5 10.5z" />
    <glyph glyph-name="Udieresis" unicode="&#xdc;" horiz-adv-x="854" 
d="M432 83q47 0 85 11t65 34.5t41.5 60.5t14.5 89v325q0 26 -9.5 34t-35.5 8h-28q-12 0 -16 3t-4 13v42q0 12 4.5 15.5t15.5 3.5h243q12 0 16 -3.5t4 -15.5v-42q0 -11 -3.5 -13.5t-16.5 -2.5h-29q-25 0 -34 -7.5t-9 -34.5v-330q0 -143 -79 -211.5t-228 -68.5
q-156 0 -233.5 69.5t-77.5 200.5v335q0 29 -9.5 38t-35.5 9h-28q-13 0 -16.5 3t-3.5 13v42q0 12 4.5 15.5t15.5 3.5h260q11 0 15.5 -3.5t4.5 -15.5v-42q0 -11 -3.5 -13.5t-16.5 -2.5h-29q-26 0 -35 -8t-9 -39v-322q0 -99 50.5 -146t149.5 -47zM268 854q0 29 20.5 48.5
t47.5 19.5q26 0 44.5 -17t18.5 -47q0 -29 -20.5 -47t-47.5 -18q-26 0 -44.5 16.5t-18.5 44.5zM461 854q0 29 20.5 48.5t47.5 19.5q26 0 44.5 -17t18.5 -47q0 -29 -20.5 -47t-48.5 -18q-26 0 -44 16.5t-18 44.5z" />
    <glyph glyph-name="Ugrave" unicode="&#xd9;" horiz-adv-x="854" 
d="M432 83q47 0 85 11t65 34.5t41.5 60.5t14.5 89v325q0 26 -9.5 34t-35.5 8h-28q-12 0 -16 3t-4 13v42q0 12 4.5 15.5t15.5 3.5h243q12 0 16 -3.5t4 -15.5v-42q0 -11 -3.5 -13.5t-16.5 -2.5h-29q-25 0 -34 -7.5t-9 -34.5v-330q0 -143 -79 -211.5t-228 -68.5
q-156 0 -233.5 69.5t-77.5 200.5v335q0 29 -9.5 38t-35.5 9h-28q-13 0 -16.5 3t-3.5 13v42q0 12 4.5 15.5t15.5 3.5h260q11 0 15.5 -3.5t4.5 -15.5v-42q0 -11 -3.5 -13.5t-16.5 -2.5h-29q-26 0 -35 -8t-9 -39v-322q0 -99 50.5 -146t149.5 -47zM467 802q-6 -14 -29 -7
l-187 49q-14 4 -15.5 9.5t3.5 12.5l27 55q5 9 11 10t22 -7l170 -78q10 -5 10.5 -10t-3.5 -14z" />
    <glyph glyph-name="Uhungarumlaut" unicode="&#x170;" horiz-adv-x="854" 
d="M432 83q47 0 85 11t65 34.5t41.5 60.5t14.5 89v325q0 26 -9.5 34t-35.5 8h-28q-12 0 -16 3t-4 13v42q0 12 4.5 15.5t15.5 3.5h243q12 0 16 -3.5t4 -15.5v-42q0 -11 -3.5 -13.5t-16.5 -2.5h-29q-25 0 -34 -7.5t-9 -34.5v-330q0 -143 -79 -211.5t-228 -68.5
q-156 0 -233.5 69.5t-77.5 200.5v335q0 29 -9.5 38t-35.5 9h-28q-13 0 -16.5 3t-3.5 13v42q0 12 4.5 15.5t15.5 3.5h260q11 0 15.5 -3.5t4.5 -15.5v-42q0 -11 -3.5 -13.5t-16.5 -2.5h-29q-26 0 -35 -8t-9 -39v-322q0 -99 50.5 -146t149.5 -47zM310 814q-7 6 -8 10t8 12
l125 115q19 14 30 6l50 -34q8 -6 8 -10.5t-14 -14.5l-150 -96q-12 -7 -18.5 -7.5t-12.5 4.5zM481 813q-7 5 -8.5 9t7.5 12l125 117q10 8 16.5 9.5t12.5 -3.5l51 -33q7 -6 7.5 -11t-13.5 -14l-150 -97q-11 -8 -17.5 -8t-12.5 5z" />
    <glyph glyph-name="Umacron" unicode="&#x16a;" horiz-adv-x="854" 
d="M432 83q47 0 85 11t65 34.5t41.5 60.5t14.5 89v325q0 26 -9.5 34t-35.5 8h-28q-12 0 -16 3t-4 13v42q0 12 4.5 15.5t15.5 3.5h243q12 0 16 -3.5t4 -15.5v-42q0 -11 -3.5 -13.5t-16.5 -2.5h-29q-25 0 -34 -7.5t-9 -34.5v-330q0 -143 -79 -211.5t-228 -68.5
q-156 0 -233.5 69.5t-77.5 200.5v335q0 29 -9.5 38t-35.5 9h-28q-13 0 -16.5 3t-3.5 13v42q0 12 4.5 15.5t15.5 3.5h260q11 0 15.5 -3.5t4.5 -15.5v-42q0 -11 -3.5 -13.5t-16.5 -2.5h-29q-26 0 -35 -8t-9 -39v-322q0 -99 50.5 -146t149.5 -47zM301 798q-15 0 -20.5 13.5
t-5.5 44.5q0 18 8 21.5t19 3.5h260q17 0 21.5 -15t4.5 -39q0 -29 -16 -29h-271z" />
    <glyph glyph-name="Uogonek" unicode="&#x172;" horiz-adv-x="856" 
d="M432 83q47 0 85 11t65 34.5t42 60.5t15 89v325q0 26 -9.5 34t-35.5 8h-28q-13 0 -16.5 3t-3.5 13v42q0 12 4.5 15.5t15.5 3.5h243q11 0 15.5 -3.5t4.5 -15.5v-42q0 -11 -3.5 -13.5t-16.5 -2.5h-29q-25 0 -34 -7.5t-9 -34.5v-330q0 -141 -76.5 -209.5t-220.5 -70.5
q-27 -17 -43.5 -38.5t-16.5 -46.5t14.5 -32t33.5 -7q14 0 25 2t23 8q10 5 16.5 5t10.5 -10l10 -23q5 -14 -9 -22q-17 -11 -38.5 -19t-56.5 -8q-50 0 -84 19.5t-34 62.5q0 20 7.5 36.5t20.5 30t29.5 24.5t33.5 20q-133 11 -198 79t-65 189v335q0 29 -9.5 38t-35.5 9h-28
q-13 0 -16.5 3t-3.5 13v42q0 12 4.5 15.5t15.5 3.5h260q11 0 15.5 -3.5t4.5 -15.5v-42q0 -11 -4 -13.5t-16 -2.5h-29q-26 0 -35 -8t-9 -39v-322q0 -99 50.5 -146t148.5 -47z" />
    <glyph glyph-name="Uring" unicode="&#x16e;" horiz-adv-x="854" 
d="M432 83q47 0 85 11t65 34.5t41.5 60.5t14.5 89v325q0 26 -9.5 34t-35.5 8h-28q-12 0 -16 3t-4 13v42q0 12 4.5 15.5t15.5 3.5h243q12 0 16 -3.5t4 -15.5v-42q0 -11 -3.5 -13.5t-16.5 -2.5h-29q-25 0 -34 -7.5t-9 -34.5v-330q0 -143 -79 -211.5t-228 -68.5
q-156 0 -233.5 69.5t-77.5 200.5v335q0 29 -9.5 38t-35.5 9h-28q-13 0 -16.5 3t-3.5 13v42q0 12 4.5 15.5t15.5 3.5h260q11 0 15.5 -3.5t4.5 -15.5v-42q0 -11 -3.5 -13.5t-16.5 -2.5h-29q-26 0 -35 -8t-9 -39v-322q0 -99 50.5 -146t149.5 -47zM429 784q-58 0 -93 23t-35 60
q0 38 34.5 60.5t93.5 22.5t94 -22.5t35 -60.5q0 -37 -35 -60t-94 -23zM429 829q22 0 37 10t15 28t-14.5 28.5t-37.5 10.5q-21 0 -36 -10.5t-15 -28.5t15.5 -28t35.5 -10z" />
    <glyph glyph-name="Utilde" unicode="&#x168;" horiz-adv-x="854" 
d="M432 83q47 0 85 11t65 34.5t41.5 60.5t14.5 89v325q0 26 -9.5 34t-35.5 8h-28q-12 0 -16 3t-4 13v42q0 12 4.5 15.5t15.5 3.5h243q12 0 16 -3.5t4 -15.5v-42q0 -11 -3.5 -13.5t-16.5 -2.5h-29q-25 0 -34 -7.5t-9 -34.5v-330q0 -143 -79 -211.5t-228 -68.5
q-156 0 -233.5 69.5t-77.5 200.5v335q0 29 -9.5 38t-35.5 9h-28q-13 0 -16.5 3t-3.5 13v42q0 12 4.5 15.5t15.5 3.5h260q11 0 15.5 -3.5t4.5 -15.5v-42q0 -11 -3.5 -13.5t-16.5 -2.5h-29q-26 0 -35 -8t-9 -39v-322q0 -99 50.5 -146t149.5 -47zM480 865q33 0 36 25q2 5 4 7.5
t9 2.5h39q12 0 12 -12q0 -45 -25 -69t-70 -24q-32 0 -45.5 7.5t-20.5 15.5q-5 6 -11 11t-23 5q-31 0 -34 -26q-2 -6 -4 -8t-10 -2h-38q-5 0 -8.5 2.5t-3.5 10.5q0 44 25 68t70 24q32 0 45 -8.5t19 -16.5q6 -5 13.5 -9t20.5 -4z" />
    <glyph glyph-name="Wacute" unicode="&#x1e82;" horiz-adv-x="1119" 
d="M361 105l150 593q4 16 7 20t14 4h88q11 0 14 -5t8 -20l163 -561l130 461q5 20 5 28q0 14 -12.5 17t-47.5 3q-19 0 -19 18v42q0 11 3 14t19 3h216q11 0 14.5 -3.5t3.5 -14.5v-40q0 -8 -2.5 -13.5t-15.5 -5.5q-21 0 -33.5 -1t-20 -6.5t-12.5 -16.5t-11 -31l-168 -573
q-5 -17 -10 -21t-21 -4h-76q-14 0 -19 7t-8 18l-157 543l-137 -543q-4 -17 -9 -21t-18 -4h-102q-11 0 -16.5 4.5t-10.5 19.5l-175 575q-6 19 -11 30t-12 16t-18.5 6.5t-29.5 1.5t-22 5t-4 20v35q0 11 3 14t14 3h258q11 0 14.5 -3.5t3.5 -13.5v-43q0 -8 -3 -12.5t-13 -4.5
q-37 0 -51 -2t-14 -16q0 -5 2 -13t5 -19zM505 824q-4 9 -3.5 14t11.5 10l167 82q14 8 21.5 7.5t14.5 -11.5l25 -44q7 -11 3.5 -17.5t-18.5 -11.5l-182 -56q-13 -5 -19 -2.5t-10 8.5z" />
    <glyph glyph-name="Wcircumflex" unicode="&#x174;" horiz-adv-x="1119" 
d="M361 105l150 593q4 16 7 20t14 4h88q11 0 14 -5t8 -20l163 -561l130 461q5 20 5 28q0 14 -12.5 17t-47.5 3q-19 0 -19 18v42q0 11 3 14t19 3h216q11 0 14.5 -3.5t3.5 -14.5v-40q0 -8 -2.5 -13.5t-15.5 -5.5q-21 0 -33.5 -1t-20 -6.5t-12.5 -16.5t-11 -31l-168 -573
q-5 -17 -10 -21t-21 -4h-76q-14 0 -19 7t-8 18l-157 543l-137 -543q-4 -17 -9 -21t-18 -4h-102q-11 0 -16.5 4.5t-10.5 19.5l-175 575q-6 19 -11 30t-12 16t-18.5 6.5t-29.5 1.5t-22 5t-4 20v35q0 11 3 14t14 3h258q11 0 14.5 -3.5t3.5 -13.5v-43q0 -8 -3 -12.5t-13 -4.5
q-37 0 -51 -2t-14 -16q0 -5 2 -13t5 -19zM565 858l-70 -56q-10 -8 -17 -10.5t-21 -2.5h-38q-16 0 -18 6t10 17l111 96q11 10 18.5 12t23.5 2q17 0 24.5 -2t18.5 -12l111 -96q12 -11 8.5 -17t-17.5 -6h-40q-11 0 -17.5 2.5t-17.5 10.5z" />
    <glyph glyph-name="Wdieresis" unicode="&#x1e84;" horiz-adv-x="1119" 
d="M361 105l150 593q4 16 7 20t14 4h88q11 0 14 -5t8 -20l163 -561l130 461q5 20 5 28q0 14 -12.5 17t-47.5 3q-19 0 -19 18v42q0 11 3 14t19 3h216q11 0 14.5 -3.5t3.5 -14.5v-40q0 -8 -2.5 -13.5t-15.5 -5.5q-21 0 -33.5 -1t-20 -6.5t-12.5 -16.5t-11 -31l-168 -573
q-5 -17 -10 -21t-21 -4h-76q-14 0 -19 7t-8 18l-157 543l-137 -543q-4 -17 -9 -21t-18 -4h-102q-11 0 -16.5 4.5t-10.5 19.5l-175 575q-6 19 -11 30t-12 16t-18.5 6.5t-29.5 1.5t-22 5t-4 20v35q0 11 3 14t14 3h258q11 0 14.5 -3.5t3.5 -13.5v-43q0 -8 -3 -12.5t-13 -4.5
q-37 0 -51 -2t-14 -16q0 -5 2 -13t5 -19zM403 854q0 29 20.5 48.5t47.5 19.5q26 0 44.5 -17t18.5 -47q0 -29 -20.5 -47t-47.5 -18q-26 0 -44.5 16.5t-18.5 44.5zM596 854q0 29 20.5 48.5t47.5 19.5q26 0 44.5 -17t18.5 -47q0 -29 -20.5 -47t-48.5 -18q-26 0 -44 16.5
t-18 44.5z" />
    <glyph glyph-name="Wgrave" unicode="&#x1e80;" horiz-adv-x="1119" 
d="M361 105l150 593q4 16 7 20t14 4h88q11 0 14 -5t8 -20l163 -561l130 461q5 20 5 28q0 14 -12.5 17t-47.5 3q-19 0 -19 18v42q0 11 3 14t19 3h216q11 0 14.5 -3.5t3.5 -14.5v-40q0 -8 -2.5 -13.5t-15.5 -5.5q-21 0 -33.5 -1t-20 -6.5t-12.5 -16.5t-11 -31l-168 -573
q-5 -17 -10 -21t-21 -4h-76q-14 0 -19 7t-8 18l-157 543l-137 -543q-4 -17 -9 -21t-18 -4h-102q-11 0 -16.5 4.5t-10.5 19.5l-175 575q-6 19 -11 30t-12 16t-18.5 6.5t-29.5 1.5t-22 5t-4 20v35q0 11 3 14t14 3h258q11 0 14.5 -3.5t3.5 -13.5v-43q0 -8 -3 -12.5t-13 -4.5
q-37 0 -51 -2t-14 -16q0 -5 2 -13t5 -19zM602 802q-6 -14 -29 -7l-187 49q-14 4 -15.5 9.5t3.5 12.5l27 55q5 9 11 10t22 -7l170 -78q10 -5 10.5 -10t-3.5 -14z" />
    <glyph glyph-name="Yacute" unicode="&#xdd;" horiz-adv-x="707" 
d="M105 595q-20 30 -32 39.5t-30 9.5h-23q-13 0 -17 5.5t-4 15.5v39q0 11 4 14.5t15 3.5h240q11 0 15.5 -3.5t4.5 -14.5v-37q0 -10 -4 -15.5t-16 -5.5h-21q-15 0 -22.5 -5.5t6.5 -25.5l142 -242l152 243q11 18 5.5 23.5t-19.5 5.5h-22q-13 0 -16.5 6t-3.5 16v37
q0 11 4.5 14.5t15.5 3.5h209q12 0 15.5 -3.5t3.5 -14.5v-39q0 -10 -3.5 -15t-16.5 -5h-26q-7 0 -12 -1t-10 -5t-10.5 -11t-14.5 -20l-203 -304v-180q0 -31 10 -39t36 -8h27q13 0 16.5 -3t3.5 -12v-44q0 -18 -20 -18h-260q-12 0 -16 3.5t-4 14.5v44q0 8 3.5 11.5t16.5 3.5h26
q26 0 36 9t10 38v163zM309 824q-4 9 -3.5 14t11.5 10l167 82q14 8 21.5 7.5t14.5 -11.5l25 -44q7 -11 3.5 -17.5t-18.5 -11.5l-182 -56q-13 -5 -19 -2.5t-10 8.5z" />
    <glyph glyph-name="Ycircumflex" unicode="&#x176;" horiz-adv-x="707" 
d="M105 595q-20 30 -32 39.5t-30 9.5h-23q-13 0 -17 5.5t-4 15.5v39q0 11 4 14.5t15 3.5h240q11 0 15.5 -3.5t4.5 -14.5v-37q0 -10 -4 -15.5t-16 -5.5h-21q-15 0 -22.5 -5.5t6.5 -25.5l142 -242l152 243q11 18 5.5 23.5t-19.5 5.5h-22q-13 0 -16.5 6t-3.5 16v37
q0 11 4.5 14.5t15.5 3.5h209q12 0 15.5 -3.5t3.5 -14.5v-39q0 -10 -3.5 -15t-16.5 -5h-26q-7 0 -12 -1t-10 -5t-10.5 -11t-14.5 -20l-203 -304v-180q0 -31 10 -39t36 -8h27q13 0 16.5 -3t3.5 -12v-44q0 -18 -20 -18h-260q-12 0 -16 3.5t-4 14.5v44q0 8 3.5 11.5t16.5 3.5h26
q26 0 36 9t10 38v163zM368 858l-70 -56q-10 -8 -17 -10.5t-21 -2.5h-38q-16 0 -18 6t10 17l111 96q11 10 18.5 12t23.5 2q17 0 24.5 -2t18.5 -12l111 -96q12 -11 8.5 -17t-17.5 -6h-40q-11 0 -17.5 2.5t-17.5 10.5z" />
    <glyph glyph-name="Ydieresis" unicode="&#x178;" horiz-adv-x="707" 
d="M105 595q-20 30 -32 39.5t-30 9.5h-23q-13 0 -17 5.5t-4 15.5v39q0 11 4 14.5t15 3.5h240q11 0 15.5 -3.5t4.5 -14.5v-37q0 -10 -4 -15.5t-16 -5.5h-21q-15 0 -22.5 -5.5t6.5 -25.5l142 -242l152 243q11 18 5.5 23.5t-19.5 5.5h-22q-13 0 -16.5 6t-3.5 16v37
q0 11 4.5 14.5t15.5 3.5h209q12 0 15.5 -3.5t3.5 -14.5v-39q0 -10 -3.5 -15t-16.5 -5h-26q-7 0 -12 -1t-10 -5t-10.5 -11t-14.5 -20l-203 -304v-180q0 -31 10 -39t36 -8h27q13 0 16.5 -3t3.5 -12v-44q0 -18 -20 -18h-260q-12 0 -16 3.5t-4 14.5v44q0 8 3.5 11.5t16.5 3.5h26
q26 0 36 9t10 38v163zM207 854q0 29 20.5 48.5t47.5 19.5q26 0 44.5 -17t18.5 -47q0 -29 -20.5 -47t-47.5 -18q-26 0 -44.5 16.5t-18.5 44.5zM400 854q0 29 20.5 48.5t47.5 19.5q26 0 44.5 -17t18.5 -47q0 -29 -20.5 -47t-48.5 -18q-26 0 -44 16.5t-18 44.5z" />
    <glyph glyph-name="Ygrave" unicode="&#x1ef2;" horiz-adv-x="707" 
d="M105 595q-20 30 -32 39.5t-30 9.5h-23q-13 0 -17 5.5t-4 15.5v39q0 11 4 14.5t15 3.5h240q11 0 15.5 -3.5t4.5 -14.5v-37q0 -10 -4 -15.5t-16 -5.5h-21q-15 0 -22.5 -5.5t6.5 -25.5l142 -242l152 243q11 18 5.5 23.5t-19.5 5.5h-22q-13 0 -16.5 6t-3.5 16v37
q0 11 4.5 14.5t15.5 3.5h209q12 0 15.5 -3.5t3.5 -14.5v-39q0 -10 -3.5 -15t-16.5 -5h-26q-7 0 -12 -1t-10 -5t-10.5 -11t-14.5 -20l-203 -304v-180q0 -31 10 -39t36 -8h27q13 0 16.5 -3t3.5 -12v-44q0 -18 -20 -18h-260q-12 0 -16 3.5t-4 14.5v44q0 8 3.5 11.5t16.5 3.5h26
q26 0 36 9t10 38v163zM405 802q-6 -14 -29 -7l-187 49q-14 4 -15.5 9.5t3.5 12.5l27 55q5 9 11 10t22 -7l170 -78q10 -5 10.5 -10t-3.5 -14z" />
    <glyph glyph-name="Zacute" unicode="&#x179;" horiz-adv-x="663" 
d="M591 722q13 0 15.5 -6.5t2.5 -15.5v-28q0 -9 -4.5 -18.5t-9.5 -17.5l-416 -560h285q17 0 27.5 3t18.5 14t15.5 31.5t19.5 56.5q3 10 7.5 14.5t15.5 4.5h46q17 0 14 -20l-20 -164q-1 -16 -23 -16h-532q-8 1 -10 6.5t-2 15.5v40q0 12 4 19l421 565h-255q-21 0 -33.5 -4.5
t-21 -16t-14 -31.5t-11.5 -52q-2 -9 -6 -14t-14 -5h-51q-16 0 -13 21l9 162q3 16 23 16h512zM280 824q-4 9 -3.5 14t11.5 10l167 82q14 8 21.5 7.5t14.5 -11.5l25 -44q7 -11 3.5 -17.5t-18.5 -11.5l-182 -56q-13 -5 -19 -2.5t-10 8.5z" />
    <glyph glyph-name="Zcaron" unicode="&#x17d;" horiz-adv-x="663" 
d="M591 722q13 0 15.5 -6.5t2.5 -15.5v-28q0 -9 -4.5 -18.5t-9.5 -17.5l-416 -560h285q17 0 27.5 3t18.5 14t15.5 31.5t19.5 56.5q3 10 7.5 14.5t15.5 4.5h46q17 0 14 -20l-20 -164q-1 -16 -23 -16h-532q-8 1 -10 6.5t-2 15.5v40q0 12 4 19l421 565h-255q-21 0 -33.5 -4.5
t-21 -16t-14 -31.5t-11.5 -52q-2 -9 -6 -14t-14 -5h-51q-16 0 -13 21l9 162q3 16 23 16h512zM339 854l69 57q11 6 16 9t19 3h41q16 0 18.5 -5.5t-6.5 -13.5l-115 -100q-11 -10 -18.5 -12t-23.5 -2q-17 0 -24 2t-18 12l-116 100q-9 8 -5 13.5t18 5.5h41q14 0 19 -3l15 -9z
" />
    <glyph glyph-name="Zdotaccent" unicode="&#x17b;" horiz-adv-x="663" 
d="M263 809q0 35 23.5 56.5t54.5 21.5q29 0 50.5 -19t21.5 -53t-23.5 -54.5t-54.5 -20.5q-30 0 -51 18.5t-21 50.5zM591 722q13 0 15.5 -6.5t2.5 -15.5v-28q0 -9 -4.5 -18.5t-9.5 -17.5l-416 -560h285q17 0 27.5 3t18.5 14t15.5 31.5t19.5 56.5q3 10 7.5 14.5t15.5 4.5h46
q17 0 14 -20l-20 -164q-1 -16 -23 -16h-532q-8 1 -10 6.5t-2 15.5v40q0 12 4 19l421 565h-255q-21 0 -33.5 -4.5t-21 -16t-14 -31.5t-11.5 -52q-2 -9 -6 -14t-14 -5h-51q-16 0 -13 21l9 162q3 16 23 16h512z" />
    <glyph glyph-name="Tbar" unicode="&#x166;" horiz-adv-x="685" 
d="M400 355v-240q1 -25 11.5 -31.5t34.5 -6.5h28q12 0 15.5 -3t3.5 -12v-44q0 -10 -4 -14t-15 -4h-261q-11 0 -15 3.5t-4 14.5v44q0 8 3.5 11.5t15.5 3.5h27q25 0 35 9t10 38v231h-103q-18 0 -25 14t-7 45q0 19 10 22.5t23 3.5h102v200h-92q-21 0 -35 -0.5t-22 -4t-12 -10
t-5 -18.5l-6 -55q-2 -11 -6.5 -14t-16.5 -3h-45q-14 0 -16.5 4t-1.5 15l8 134q2 24 8 29t26 5h547q20 0 26 -5t8 -29l9 -134q1 -11 -1.5 -15t-16.5 -4h-45q-13 0 -17 3t-6 14l-6 55q-2 12 -5.5 18.5t-12.5 10t-24 4t-39 0.5h-86v-200h98q21 0 26.5 -15.5t5.5 -39.5
q0 -30 -20 -30h-110z" />
    <glyph glyph-name="Tcaron" unicode="&#x164;" horiz-adv-x="685" 
d="M193 640q-21 0 -35 -0.5t-22 -4t-12 -10t-5 -18.5l-6 -55q-2 -11 -6.5 -14t-16.5 -3h-45q-14 0 -16.5 4t-1.5 15l8 134q2 24 8 29t26 5h547q20 0 26 -5t8 -29l9 -134q1 -11 -1.5 -15t-16.5 -4h-45q-13 0 -17 3t-6 14l-6 55q-2 12 -5.5 18.5t-12.5 10t-24 4t-39 0.5h-86
v-525q1 -25 11.5 -31.5t34.5 -6.5h28q12 0 15.5 -3t3.5 -12v-44q0 -10 -4 -14t-15 -4h-261q-11 0 -15 3.5t-4 14.5v44q0 8 3.5 11.5t15.5 3.5h27q25 0 35 9t10 38v516h-92zM338 840l69 57q11 6 16 9t19 3h41q16 0 18.5 -5.5t-6.5 -13.5l-115 -100q-11 -10 -18.5 -12
t-23.5 -2q-17 0 -24 2t-18 12l-116 100q-9 8 -5 13.5t18 5.5h41q14 0 19 -3l15 -9z" />
    <glyph glyph-name="Tcommaaccent" unicode="&#x162;" horiz-adv-x="685" 
d="M193 640q-21 0 -35 -0.5t-22 -4t-12 -10t-5 -18.5l-6 -55q-2 -11 -6.5 -14t-16.5 -3h-45q-14 0 -16.5 4t-1.5 15l8 134q2 24 8 29t26 5h547q20 0 26 -5t8 -29l9 -134q1 -11 -1.5 -15t-16.5 -4h-45q-13 0 -17 3t-6 14l-6 55q-2 12 -5.5 18.5t-12.5 10t-24 4t-39 0.5h-86
v-525q1 -25 11.5 -31.5t34.5 -6.5h28q12 0 15.5 -3t3.5 -12v-44q0 -10 -4 -14t-15 -4h-261q-11 0 -15 3.5t-4 14.5v44q0 8 3.5 11.5t15.5 3.5h27q25 0 35 9t10 38v516h-92zM291 -134q0 29 20 47.5t46 18.5q25 0 43 -18t18 -51q0 -23 -8.5 -45t-23 -42.5t-33 -39.5t-38.5 -34
q-7 -5 -10.5 -6.5t-8.5 3.5l-12 12q-5 5 -4.5 8.5t8.5 9.5q17 14 34 36.5t22 42.5q-23 2 -38 17t-15 41z" />
    <glyph glyph-name="aeacute" unicode="&#x1fd;" horiz-adv-x="981" 
d="M697 544q119 0 183 -49.5t64 -137.5q0 -77 -61 -122t-193 -45q-44 0 -84.5 5t-76.5 14q10 -65 53.5 -102t133.5 -37q33 0 60.5 3.5t48.5 8.5q18 5 40 12.5t33 9.5q8 2 10.5 -2t2.5 -9v-45q0 -12 -3.5 -17t-17.5 -11q-75 -33 -182 -33t-171 32t-95 92q-20 -48 -75 -82.5
t-147 -34.5q-182 0 -182 146q0 51 22 85t63 53.5t101 27.5t135 8h50v43q0 62 -30.5 86.5t-98.5 24.5q-26 0 -51 -3t-45 -10q14 -17 14 -40q0 -30 -20.5 -48.5t-48.5 -18.5q-26 0 -44 17t-18 46v6q1 37 15.5 61.5t41.5 39t65.5 20.5t88.5 6q75 0 127.5 -15.5t81.5 -57.5
q36 35 88.5 54t121.5 19zM697 468q-43 0 -74.5 -14t-52.5 -38.5t-32 -58.5t-13 -74q38 -10 78 -15t76 -5q78 0 118.5 23.5t40.5 75.5q0 50 -38 78t-103 28zM147 141q0 -32 21 -51t74 -19q36 0 66.5 10t53 29t35 46.5t12.5 62.5v23h-50q-103 0 -157.5 -22t-54.5 -79zM483 661
q-4 9 -3.5 14t11.5 10l167 82q14 8 21.5 7.5t14.5 -11.5l25 -44q7 -11 3.5 -17.5t-18.5 -11.5l-182 -56q-13 -5 -19 -2.5t-10 8.5z" />
    <glyph glyph-name="cacute" unicode="&#x107;" horiz-adv-x="590" 
d="M157 267q0 -89 47 -138t155 -49q63 0 104 12t63 20q18 6 23.5 4.5t5.5 -16.5v-47q0 -11 -2.5 -15t-12.5 -9q-9 -5 -26.5 -11t-43 -12t-57.5 -10t-70 -4q-79 0 -136 18.5t-94 53t-54.5 84t-17.5 111.5q0 68 20.5 121t58.5 89.5t92.5 55.5t122.5 19q59 0 99.5 -13t66 -33.5
t36.5 -45.5t11 -48q0 -31 -19.5 -51t-51.5 -20t-52 18.5t-20 49.5q0 29 18 50q-36 11 -86 11t-84 -15.5t-55.5 -42t-31 -62t-9.5 -75.5zM278 662q-4 9 -3.5 14t11.5 10l167 82q14 8 21.5 7.5t14.5 -11.5l25 -44q7 -11 3.5 -17.5t-18.5 -11.5l-182 -56q-13 -5 -19 -2.5
t-10 8.5z" />
    <glyph glyph-name="ccaron" unicode="&#x10d;" horiz-adv-x="590" 
d="M157 267q0 -89 47 -138t155 -49q63 0 104 12t63 20q18 6 23.5 4.5t5.5 -16.5v-47q0 -11 -2.5 -15t-12.5 -9q-9 -5 -26.5 -11t-43 -12t-57.5 -10t-70 -4q-79 0 -136 18.5t-94 53t-54.5 84t-17.5 111.5q0 68 20.5 121t58.5 89.5t92.5 55.5t122.5 19q59 0 99.5 -13t66 -33.5
t36.5 -45.5t11 -48q0 -31 -19.5 -51t-51.5 -20t-52 18.5t-20 49.5q0 29 18 50q-36 11 -86 11t-84 -15.5t-55.5 -42t-31 -62t-9.5 -75.5zM337 692l69 57q11 6 16 9t19 3h41q16 0 18.5 -5.5t-6.5 -13.5l-115 -100q-11 -10 -18.5 -12t-23.5 -2q-17 0 -24 2t-18 12l-116 100
q-9 8 -5 13.5t18 5.5h41q14 0 19 -3l15 -9z" />
    <glyph glyph-name="ccedilla" unicode="&#xe7;" horiz-adv-x="590" 
d="M254 -1q-111 20 -162 87t-51 173q0 68 20.5 121t58.5 89.5t92.5 55.5t122.5 19q59 0 99.5 -13t66 -33.5t36.5 -45.5t11 -48q0 -31 -19.5 -51t-51.5 -20t-52 18.5t-20 49.5q0 29 18 50q-36 11 -86 11t-84 -15.5t-55.5 -42t-31 -62t-9.5 -75.5q0 -89 47 -138t155 -49
q63 0 104 12t63 20q18 6 23.5 4.5t5.5 -16.5v-47q0 -11 -2.5 -15t-12.5 -9q-9 -5 -26.5 -11t-43 -12t-57.5 -10t-70 -4q-8 0 -15.5 0.5t-15.5 0.5l-7 -16q50 3 82 -14.5t32 -64.5q0 -48 -38 -70.5t-105 -22.5q-19 0 -42 2t-36 3q-8 1 -8 14v27q0 9 2.5 10.5t7.5 0.5
q20 -2 36.5 -3.5t33.5 -1.5q33 0 51.5 10t18.5 30t-15.5 26t-36.5 6q-14 0 -30 -1.5t-25 -1.5q-14 0 -9 12z" />
    <glyph glyph-name="ccircumflex" unicode="&#x109;" horiz-adv-x="590" 
d="M157 267q0 -89 47 -138t155 -49q63 0 104 12t63 20q18 6 23.5 4.5t5.5 -16.5v-47q0 -11 -2.5 -15t-12.5 -9q-9 -5 -26.5 -11t-43 -12t-57.5 -10t-70 -4q-79 0 -136 18.5t-94 53t-54.5 84t-17.5 111.5q0 68 20.5 121t58.5 89.5t92.5 55.5t122.5 19q59 0 99.5 -13t66 -33.5
t36.5 -45.5t11 -48q0 -31 -19.5 -51t-51.5 -20t-52 18.5t-20 49.5q0 29 18 50q-36 11 -86 11t-84 -15.5t-55.5 -42t-31 -62t-9.5 -75.5zM337 696l-70 -56q-10 -8 -17 -10.5t-21 -2.5h-38q-16 0 -18 6t10 17l111 96q11 10 18.5 12t23.5 2q17 0 24.5 -2t18.5 -12l111 -96
q12 -11 8.5 -17t-17.5 -6h-40q-11 0 -17.5 2.5t-17.5 10.5z" />
    <glyph glyph-name="cdotaccent" unicode="&#x10b;" horiz-adv-x="590" 
d="M262 705q0 34 23.5 56t54.5 22q29 0 50.5 -19t21.5 -54q0 -34 -23.5 -54.5t-55.5 -20.5q-29 0 -50 19t-21 51zM157 267q0 -89 47 -138t155 -49q63 0 104 12t63 20q18 6 23.5 4.5t5.5 -16.5v-47q0 -11 -2.5 -15t-12.5 -9q-9 -5 -26.5 -11t-43 -12t-57.5 -10t-70 -4
q-79 0 -136 18.5t-94 53t-54.5 84t-17.5 111.5q0 68 20.5 121t58.5 89.5t92.5 55.5t122.5 19q59 0 99.5 -13t66 -33.5t36.5 -45.5t11 -48q0 -31 -19.5 -51t-51.5 -20t-52 18.5t-20 49.5q0 29 18 50q-36 11 -86 11t-84 -15.5t-55.5 -42t-31 -62t-9.5 -75.5z" />
    <glyph glyph-name="dcaron" unicode="&#x10f;" horiz-adv-x="708" 
d="M305 542q49 0 83 -12t63 -30v140q0 20 -7 28t-25 9h-40q-12 1 -15 6.5t-3 14.5v37q0 13 3.5 16t14.5 4l155 8q15 0 20.5 -6.5t5.5 -21.5v-716q0 -10 -2.5 -14.5t-11.5 -4.5h-68q-8 0 -10.5 3t-4.5 11l-9 60q-34 -48 -83.5 -67.5t-107.5 -19.5q-49 0 -89.5 14.5t-69.5 45
t-45 78.5t-16 116q0 143 68 222t194 79zM291 70q72 0 111.5 48t48.5 142v160q-20 16 -53.5 27t-74.5 11q-45 0 -76.5 -17t-52 -45.5t-29.5 -67t-9 -81.5q0 -38 7.5 -70t23.5 -56t41.5 -37.5t62.5 -13.5zM639 744q-2 12 10 17t49 5q36 0 48.5 -5t10.5 -17l-12 -196
q-1 -11 -10.5 -15t-36.5 -4q-28 0 -37 4t-10 15z" />
    <glyph glyph-name="dcroat" unicode="&#x111;" horiz-adv-x="644" 
d="M451 690v45q0 14 4 21t16 7h69q12 0 16 -6.5t4 -21.5v-45h71q13 0 15.5 -4.5t2.5 -13.5v-41q0 -11 -4 -14.5t-15 -3.5h-70v-594q0 -10 -2.5 -14.5t-11.5 -4.5h-68q-8 0 -10.5 3t-4.5 11l-9 60q-34 -48 -83.5 -67.5t-107.5 -19.5q-49 0 -89.5 14.5t-69.5 45t-45 78.5
t-16 116q0 143 68 222t194 79q49 0 83 -12t63 -30v113h-115q-11 0 -15.5 3.5t-4.5 14.5v41q0 11 3.5 14.5t16.5 3.5h115zM291 70q72 0 111.5 48t48.5 142v160q-20 16 -53.5 27t-74.5 11q-45 0 -76.5 -17t-52 -45.5t-29.5 -67t-9 -81.5q0 -38 7.5 -70t23.5 -56t41.5 -37.5
t62.5 -13.5z" />
    <glyph glyph-name="eacute" unicode="&#xe9;" horiz-adv-x="591" 
d="M306 544q112 0 170.5 -45t58.5 -128q0 -76 -54.5 -122.5t-174.5 -46.5q-38 0 -76 5t-72 14q8 -79 50.5 -113t126.5 -34q48 0 87 8t59 16q19 6 29.5 10.5t17.5 4.5q9 0 9 -12v-47q0 -9 -4 -14.5t-18 -12.5q-26 -13 -78 -23.5t-112 -10.5q-75 0 -129 19.5t-88.5 55
t-50.5 85.5t-16 110q0 63 17 115t50 88.5t82.5 57t115.5 20.5zM306 468q-71 0 -107.5 -45t-41.5 -129q35 -9 72 -13.5t68 -4.5q68 0 103 24t35 74q0 49 -33 71.5t-96 22.5zM230 662q-4 9 -3.5 14t11.5 10l167 82q14 8 21.5 7.5t14.5 -11.5l25 -44q7 -11 3.5 -17.5
t-18.5 -11.5l-182 -56q-13 -5 -19 -2.5t-10 8.5z" />
    <glyph glyph-name="ebreve" unicode="&#x115;" horiz-adv-x="591" 
d="M306 544q112 0 170.5 -45t58.5 -128q0 -76 -54.5 -122.5t-174.5 -46.5q-38 0 -76 5t-72 14q8 -79 50.5 -113t126.5 -34q48 0 87 8t59 16q19 6 29.5 10.5t17.5 4.5q9 0 9 -12v-47q0 -9 -4 -14.5t-18 -12.5q-26 -13 -78 -23.5t-112 -10.5q-75 0 -129 19.5t-88.5 55
t-50.5 85.5t-16 110q0 63 17 115t50 88.5t82.5 57t115.5 20.5zM306 468q-71 0 -107.5 -45t-41.5 -129q35 -9 72 -13.5t68 -4.5q68 0 103 24t35 74q0 49 -33 71.5t-96 22.5zM321 694q30 0 46.5 10t16.5 29q0 12 16 12h47q14 0 14 -15q0 -51 -37.5 -78.5t-102.5 -27.5
q-68 0 -103 28t-35 78q0 15 14 15h47q15 0 15 -12q0 -18 15 -28.5t47 -10.5z" />
    <glyph glyph-name="ecaron" unicode="&#x11b;" horiz-adv-x="591" 
d="M306 544q112 0 170.5 -45t58.5 -128q0 -76 -54.5 -122.5t-174.5 -46.5q-38 0 -76 5t-72 14q8 -79 50.5 -113t126.5 -34q48 0 87 8t59 16q19 6 29.5 10.5t17.5 4.5q9 0 9 -12v-47q0 -9 -4 -14.5t-18 -12.5q-26 -13 -78 -23.5t-112 -10.5q-75 0 -129 19.5t-88.5 55
t-50.5 85.5t-16 110q0 63 17 115t50 88.5t82.5 57t115.5 20.5zM306 468q-71 0 -107.5 -45t-41.5 -129q35 -9 72 -13.5t68 -4.5q68 0 103 24t35 74q0 49 -33 71.5t-96 22.5zM321 692l69 57q11 6 16 9t19 3h41q16 0 18.5 -5.5t-6.5 -13.5l-115 -100q-11 -10 -18.5 -12
t-23.5 -2q-17 0 -24 2t-18 12l-116 100q-9 8 -5 13.5t18 5.5h41q14 0 19 -3l15 -9z" />
    <glyph glyph-name="ecircumflex" unicode="&#xea;" horiz-adv-x="591" 
d="M306 544q112 0 170.5 -45t58.5 -128q0 -76 -54.5 -122.5t-174.5 -46.5q-38 0 -76 5t-72 14q8 -79 50.5 -113t126.5 -34q48 0 87 8t59 16q19 6 29.5 10.5t17.5 4.5q9 0 9 -12v-47q0 -9 -4 -14.5t-18 -12.5q-26 -13 -78 -23.5t-112 -10.5q-75 0 -129 19.5t-88.5 55
t-50.5 85.5t-16 110q0 63 17 115t50 88.5t82.5 57t115.5 20.5zM306 468q-71 0 -107.5 -45t-41.5 -129q35 -9 72 -13.5t68 -4.5q68 0 103 24t35 74q0 49 -33 71.5t-96 22.5zM322 696l-70 -56q-10 -8 -17 -10.5t-21 -2.5h-38q-16 0 -18 6t10 17l111 96q11 10 18.5 12t23.5 2
q17 0 24.5 -2t18.5 -12l111 -96q12 -11 8.5 -17t-17.5 -6h-40q-11 0 -17.5 2.5t-17.5 10.5z" />
    <glyph glyph-name="edieresis" unicode="&#xeb;" horiz-adv-x="591" 
d="M306 544q112 0 170.5 -45t58.5 -128q0 -76 -54.5 -122.5t-174.5 -46.5q-38 0 -76 5t-72 14q8 -79 50.5 -113t126.5 -34q48 0 87 8t59 16q19 6 29.5 10.5t17.5 4.5q9 0 9 -12v-47q0 -9 -4 -14.5t-18 -12.5q-26 -13 -78 -23.5t-112 -10.5q-75 0 -129 19.5t-88.5 55
t-50.5 85.5t-16 110q0 63 17 115t50 88.5t82.5 57t115.5 20.5zM306 468q-71 0 -107.5 -45t-41.5 -129q35 -9 72 -13.5t68 -4.5q68 0 103 24t35 74q0 49 -33 71.5t-96 22.5zM160 693q0 29 20.5 48.5t47.5 19.5q26 0 44.5 -17t18.5 -47q0 -29 -20.5 -47t-47.5 -18
q-26 0 -44.5 16.5t-18.5 44.5zM353 693q0 29 20.5 48.5t47.5 19.5q26 0 44.5 -17t18.5 -47q0 -29 -20.5 -47t-48.5 -18q-26 0 -44 16.5t-18 44.5z" />
    <glyph glyph-name="edotaccent" unicode="&#x117;" horiz-adv-x="591" 
d="M246 704q0 34 23.5 56t54.5 22q29 0 50.5 -19t21.5 -53q0 -35 -23.5 -55.5t-55.5 -20.5q-29 0 -50 19t-21 51zM306 544q112 0 170.5 -45t58.5 -128q0 -76 -54.5 -122.5t-174.5 -46.5q-38 0 -76 5t-72 14q8 -79 50.5 -113t126.5 -34q48 0 87 8t59 16q19 6 29.5 10.5
t17.5 4.5q9 0 9 -12v-47q0 -9 -4 -14.5t-18 -12.5q-26 -13 -78 -23.5t-112 -10.5q-75 0 -129 19.5t-88.5 55t-50.5 85.5t-16 110q0 63 17 115t50 88.5t82.5 57t115.5 20.5zM306 468q-71 0 -107.5 -45t-41.5 -129q35 -9 72 -13.5t68 -4.5q68 0 103 24t35 74q0 49 -33 71.5
t-96 22.5z" />
    <glyph glyph-name="egrave" unicode="&#xe8;" horiz-adv-x="591" 
d="M306 544q112 0 170.5 -45t58.5 -128q0 -76 -54.5 -122.5t-174.5 -46.5q-38 0 -76 5t-72 14q8 -79 50.5 -113t126.5 -34q48 0 87 8t59 16q19 6 29.5 10.5t17.5 4.5q9 0 9 -12v-47q0 -9 -4 -14.5t-18 -12.5q-26 -13 -78 -23.5t-112 -10.5q-75 0 -129 19.5t-88.5 55
t-50.5 85.5t-16 110q0 63 17 115t50 88.5t82.5 57t115.5 20.5zM306 468q-71 0 -107.5 -45t-41.5 -129q35 -9 72 -13.5t68 -4.5q68 0 103 24t35 74q0 49 -33 71.5t-96 22.5zM359 640q-6 -14 -29 -7l-187 49q-14 4 -15.5 9.5t3.5 12.5l27 55q5 9 11 10t22 -7l170 -78
q10 -5 10.5 -10t-3.5 -14z" />
    <glyph glyph-name="emacron" unicode="&#x113;" horiz-adv-x="591" 
d="M306 544q112 0 170.5 -45t58.5 -128q0 -76 -54.5 -122.5t-174.5 -46.5q-38 0 -76 5t-72 14q8 -79 50.5 -113t126.5 -34q48 0 87 8t59 16q19 6 29.5 10.5t17.5 4.5q9 0 9 -12v-47q0 -9 -4 -14.5t-18 -12.5q-26 -13 -78 -23.5t-112 -10.5q-75 0 -129 19.5t-88.5 55
t-50.5 85.5t-16 110q0 63 17 115t50 88.5t82.5 57t115.5 20.5zM306 468q-71 0 -107.5 -45t-41.5 -129q35 -9 72 -13.5t68 -4.5q68 0 103 24t35 74q0 49 -33 71.5t-96 22.5zM193 636q-15 0 -20.5 13.5t-5.5 44.5q0 18 8 21.5t19 3.5h260q17 0 21.5 -15t4.5 -39q0 -29 -16 -29
h-271z" />
    <glyph glyph-name="eogonek" unicode="&#x119;" horiz-adv-x="591" 
d="M306 544q112 0 170.5 -45t58.5 -128q0 -76 -54.5 -122.5t-174.5 -46.5q-38 0 -76 5t-72 14q8 -79 50.5 -113t126.5 -34q48 0 87 8t59 16q19 6 29.5 10.5t17.5 4.5q9 0 9 -12v-47q0 -9 -4 -14.5t-18 -12.5q-23 -11 -65 -20.5t-93 -12.5q-24 -16 -38.5 -36.5t-14.5 -43.5
q0 -25 14.5 -32t33.5 -7q14 0 25 2t23 8q10 5 16.5 5t10.5 -10l10 -23q5 -14 -9 -22q-17 -11 -38.5 -19t-56.5 -8q-50 0 -84 19.5t-34 62.5q0 36 23.5 61.5t54.5 42.5q-66 4 -114 25t-78.5 56.5t-45 83t-14.5 104.5q0 63 17 115t50 88.5t82.5 57t115.5 20.5zM306 468
q-71 0 -107.5 -45t-41.5 -129q35 -9 72 -13.5t68 -4.5q68 0 103 24t35 74q0 49 -33 71.5t-96 22.5z" />
    <glyph glyph-name="nacute" unicode="&#x144;" horiz-adv-x="704" 
d="M388 455q-78 0 -115.5 -56t-37.5 -159v-120q0 -28 10 -35.5t37 -7.5h28q13 0 16.5 -3.5t3.5 -11.5v-44q0 -11 -4 -14.5t-16 -3.5h-261q-11 0 -15 3.5t-4 14.5v44q0 8 3.5 11.5t15.5 3.5h30q26 0 36.5 7.5t10.5 35.5v292q0 11 -2.5 18t-10.5 11t-22 5.5t-38 1.5
q-11 0 -14.5 4.5t-3.5 13.5v41q0 11 4.5 14.5t15.5 4.5l154 8q15 0 20.5 -6.5t5.5 -21.5v-52q26 47 76 68.5t113 21.5q39 0 72 -9.5t57 -30.5t37.5 -54.5t13.5 -80.5v-250q0 -44 34 -44q14 0 21.5 2t16.5 3q7 1 10.5 -0.5t3.5 -9.5v-45q0 -7 -3 -12.5t-12 -8.5
q-14 -5 -29 -7t-46 -2q-18 0 -36.5 4t-34 15.5t-25 31t-9.5 51.5v256q0 45 -24.5 73.5t-82.5 28.5zM313 662q-4 9 -3.5 14t11.5 10l167 82q14 8 21.5 7.5t14.5 -11.5l25 -44q7 -11 3.5 -17.5t-18.5 -11.5l-182 -56q-13 -5 -19 -2.5t-10 8.5z" />
    <glyph glyph-name="napostrophe" unicode="&#x149;" horiz-adv-x="704" 
d="M388 455q-78 0 -115.5 -56t-37.5 -159v-120q0 -28 10 -35.5t37 -7.5h28q13 0 16.5 -3.5t3.5 -11.5v-44q0 -11 -4 -14.5t-16 -3.5h-261q-11 0 -15 3.5t-4 14.5v44q0 8 3.5 11.5t15.5 3.5h30q26 0 36.5 7.5t10.5 35.5v292q0 11 -2.5 18t-10.5 11t-22 5.5t-38 1.5
q-11 0 -14.5 4.5t-3.5 13.5v41q0 11 4.5 14.5t15.5 4.5l154 8q15 0 20.5 -6.5t5.5 -21.5v-52q26 47 76 68.5t113 21.5q39 0 72 -9.5t57 -30.5t37.5 -54.5t13.5 -80.5v-250q0 -44 34 -44q14 0 21.5 2t16.5 3q7 1 10.5 -0.5t3.5 -9.5v-45q0 -7 -3 -12.5t-12 -8.5
q-14 -5 -29 -7t-46 -2q-18 0 -36.5 4t-34 15.5t-25 31t-9.5 51.5v256q0 45 -24.5 73.5t-82.5 28.5zM65 728q0 29 20 47.5t46 18.5q25 0 43 -18t18 -51q0 -23 -8.5 -45t-23 -42.5t-33 -39.5t-38.5 -34q-12 -10 -19 -3l-12 12q-5 5 -4.5 8.5t8.5 9.5q17 14 34 36.5t22 42.5
q-23 2 -38 17t-15 41z" />
    <glyph glyph-name="ncaron" unicode="&#x148;" horiz-adv-x="704" 
d="M388 455q-78 0 -115.5 -56t-37.5 -159v-120q0 -28 10 -35.5t37 -7.5h28q13 0 16.5 -3.5t3.5 -11.5v-44q0 -11 -4 -14.5t-16 -3.5h-261q-11 0 -15 3.5t-4 14.5v44q0 8 3.5 11.5t15.5 3.5h30q26 0 36.5 7.5t10.5 35.5v292q0 11 -2.5 18t-10.5 11t-22 5.5t-38 1.5
q-11 0 -14.5 4.5t-3.5 13.5v41q0 11 4.5 14.5t15.5 4.5l154 8q15 0 20.5 -6.5t5.5 -21.5v-52q26 47 76 68.5t113 21.5q39 0 72 -9.5t57 -30.5t37.5 -54.5t13.5 -80.5v-250q0 -44 34 -44q14 0 21.5 2t16.5 3q7 1 10.5 -0.5t3.5 -9.5v-45q0 -7 -3 -12.5t-12 -8.5
q-14 -5 -29 -7t-46 -2q-18 0 -36.5 4t-34 15.5t-25 31t-9.5 51.5v256q0 45 -24.5 73.5t-82.5 28.5zM372 692l69 57q11 6 16 9t19 3h41q16 0 18.5 -5.5t-6.5 -13.5l-115 -100q-11 -10 -18.5 -12t-23.5 -2q-17 0 -24 2t-18 12l-116 100q-9 8 -5 13.5t18 5.5h41q14 0 19 -3
l15 -9z" />
    <glyph glyph-name="ncommaaccent" unicode="&#x146;" horiz-adv-x="704" 
d="M388 455q-78 0 -115.5 -56t-37.5 -159v-120q0 -28 10 -35.5t37 -7.5h28q13 0 16.5 -3.5t3.5 -11.5v-44q0 -11 -4 -14.5t-16 -3.5h-261q-11 0 -15 3.5t-4 14.5v44q0 8 3.5 11.5t15.5 3.5h30q26 0 36.5 7.5t10.5 35.5v292q0 11 -2.5 18t-10.5 11t-22 5.5t-38 1.5
q-11 0 -14.5 4.5t-3.5 13.5v41q0 11 4.5 14.5t15.5 4.5l154 8q15 0 20.5 -6.5t5.5 -21.5v-52q26 47 76 68.5t113 21.5q39 0 72 -9.5t57 -30.5t37.5 -54.5t13.5 -80.5v-250q0 -44 34 -44q14 0 21.5 2t16.5 3q7 1 10.5 -0.5t3.5 -9.5v-45q0 -7 -3 -12.5t-12 -8.5
q-14 -5 -29 -7t-46 -2q-18 0 -36.5 4t-34 15.5t-25 31t-9.5 51.5v256q0 45 -24.5 73.5t-82.5 28.5zM324 -134q0 29 20 47.5t46 18.5q25 0 43 -18t18 -51q0 -23 -8.5 -45t-23 -42.5t-33 -39.5t-38.5 -34q-7 -5 -10.5 -6.5t-8.5 3.5l-12 12q-5 5 -4.5 8.5t8.5 9.5
q17 14 34 36.5t22 42.5q-23 2 -38 17t-15 41z" />
    <glyph glyph-name="ntilde" unicode="&#xf1;" horiz-adv-x="704" 
d="M388 455q-78 0 -115.5 -56t-37.5 -159v-120q0 -28 10 -35.5t37 -7.5h28q13 0 16.5 -3.5t3.5 -11.5v-44q0 -11 -4 -14.5t-16 -3.5h-261q-11 0 -15 3.5t-4 14.5v44q0 8 3.5 11.5t15.5 3.5h30q26 0 36.5 7.5t10.5 35.5v292q0 11 -2.5 18t-10.5 11t-22 5.5t-38 1.5
q-11 0 -14.5 4.5t-3.5 13.5v41q0 11 4.5 14.5t15.5 4.5l154 8q15 0 20.5 -6.5t5.5 -21.5v-52q26 47 76 68.5t113 21.5q39 0 72 -9.5t57 -30.5t37.5 -54.5t13.5 -80.5v-250q0 -44 34 -44q14 0 21.5 2t16.5 3q7 1 10.5 -0.5t3.5 -9.5v-45q0 -7 -3 -12.5t-12 -8.5
q-14 -5 -29 -7t-46 -2q-18 0 -36.5 4t-34 15.5t-25 31t-9.5 51.5v256q0 45 -24.5 73.5t-82.5 28.5zM424 703q33 0 36 25q2 5 4 7.5t9 2.5h39q12 0 12 -12q0 -45 -25 -69t-70 -24q-32 0 -45.5 7.5t-20.5 15.5q-5 6 -11 11t-23 5q-31 0 -34 -26q-2 -6 -4 -8t-10 -2h-38
q-5 0 -8.5 2.5t-3.5 10.5q0 44 25 68t70 24q32 0 45 -8.5t19 -16.5q6 -5 13.5 -9t20.5 -4z" />
    <glyph glyph-name="ampersand" unicode="&#x26;" horiz-adv-x="807" 
d="M426 569q0 33 23 54q-23 13 -51.5 20t-62.5 7q-74 0 -107 -31t-33 -80q0 -63 40.5 -90t106.5 -27h399q18 0 25 -4.5t8 -28.5l7 -124q1 -10 -1 -14t-14 -4h-48q-11 0 -15.5 3.5t-6.5 12.5l-4 40q-2 12 -5 18.5t-9.5 10t-19 4t-31.5 0.5h-62v-226q1 -23 10.5 -28.5
t32.5 -5.5h21q12 0 15 -3t3 -11v-45q0 -10 -3.5 -13.5t-14.5 -3.5h-298q-63 0 -116 11.5t-91 35.5t-59 62t-21 92q0 43 13.5 76t37.5 55t55.5 34.5t67.5 15.5q-21 3 -45 12t-44 27.5t-33.5 48.5t-13.5 74q0 88 62.5 138t183.5 50q56 0 102 -11.5t78.5 -32.5t50.5 -51t18 -67
q-1 -35 -24.5 -53.5t-53.5 -18.5q-31 0 -52 19t-21 52zM449 90v246h-108q-33 0 -64 -7t-55 -22.5t-38.5 -40.5t-14.5 -61q0 -63 46 -89.5t132 -25.5h102z" />
    <glyph glyph-name="gbreve" unicode="&#x11f;" horiz-adv-x="663" 
d="M267 -167q41 0 75 9t58 29t37.5 51t13.5 76v72q-34 -45 -82.5 -64t-105.5 -19q-49 0 -89.5 14.5t-69.5 45t-45 78.5t-16 116q0 143 68 222t194 79q50 0 83.5 -12t62.5 -30v7q0 15 5.5 21.5t20.5 6.5l148 -9q12 -1 16 -4t4 -14v-42q0 -17 -20 -18h-33q-19 -2 -25 -9
t-7 -25v-404q0 -68 -21 -117t-59.5 -80.5t-92 -46.5t-118.5 -15q-41 0 -80.5 6.5t-71 23t-51 44t-19.5 70.5q0 29 20.5 48t46.5 19t45.5 -17t19.5 -46q0 -27 -20 -47q44 -19 108 -19zM291 70q72 0 111.5 48t48.5 142v160q-20 16 -53.5 27t-74.5 11q-45 0 -76.5 -17
t-52 -45.5t-29.5 -67t-9 -81.5q0 -38 7.5 -70t23.5 -56t42 -37.5t62 -13.5zM321 694q30 0 46.5 10t16.5 29q0 12 16 12h47q14 0 14 -15q0 -51 -37.5 -78.5t-102.5 -27.5q-68 0 -103 28t-35 78q0 15 14 15h47q15 0 15 -12q0 -18 15 -28.5t47 -10.5z" />
    <glyph glyph-name="gcommaaccent" unicode="&#x123;" horiz-adv-x="663" 
d="M267 -167q41 0 75 9t58 29t37.5 51t13.5 76v72q-34 -45 -82.5 -64t-105.5 -19q-49 0 -89.5 14.5t-69.5 45t-45 78.5t-16 116q0 143 68 222t194 79q50 0 83.5 -12t62.5 -30v7q0 15 5.5 21.5t20.5 6.5l148 -9q12 -1 16 -4t4 -14v-42q0 -17 -20 -18h-33q-19 -2 -25 -9
t-7 -25v-404q0 -68 -21 -117t-59.5 -80.5t-92 -46.5t-118.5 -15q-41 0 -80.5 6.5t-71 23t-51 44t-19.5 70.5q0 29 20.5 48t46.5 19t45.5 -17t19.5 -46q0 -27 -20 -47q44 -19 108 -19zM291 70q72 0 111.5 48t48.5 142v160q-20 16 -53.5 27t-74.5 11q-45 0 -76.5 -17
t-52 -45.5t-29.5 -67t-9 -81.5q0 -38 7.5 -70t23.5 -56t42 -37.5t62 -13.5zM386 678q0 -34 -21 -56t-57 -22q-31 0 -51.5 21t-20.5 62q0 27 10 52.5t26.5 49.5t37.5 46t44 41q8 6 13 7.5t13 -6.5l11 -10q6 -6 5 -10.5t-9 -11.5q-20 -17 -38 -43.5t-25 -49.5q26 -2 44 -20.5
t18 -49.5z" />
    <glyph glyph-name="gdotaccent" unicode="&#x121;" horiz-adv-x="663" 
d="M267 -167q41 0 75 9t58 29t37.5 51t13.5 76v72q-34 -45 -82.5 -64t-105.5 -19q-49 0 -89.5 14.5t-69.5 45t-45 78.5t-16 116q0 143 68 222t194 79q50 0 83.5 -12t62.5 -30v7q0 15 5.5 21.5t20.5 6.5l148 -9q12 -1 16 -4t4 -14v-42q0 -17 -20 -18h-33q-19 -2 -25 -9
t-7 -25v-404q0 -68 -21 -117t-59.5 -80.5t-92 -46.5t-118.5 -15q-41 0 -80.5 6.5t-71 23t-51 44t-19.5 70.5q0 29 20.5 48t46.5 19t45.5 -17t19.5 -46q0 -27 -20 -47q44 -19 108 -19zM291 70q72 0 111.5 48t48.5 142v160q-20 16 -53.5 27t-74.5 11q-45 0 -76.5 -17
t-52 -45.5t-29.5 -67t-9 -81.5q0 -38 7.5 -70t23.5 -56t42 -37.5t62 -13.5zM249 689q0 34 23.5 56t54.5 22q29 0 50.5 -19t21.5 -53t-23.5 -55t-54.5 -21q-30 0 -51 19t-21 51z" />
    <glyph glyph-name="hbar" unicode="&#x127;" horiz-adv-x="690" 
d="M220 583v-129q26 47 76 68.5t113 21.5q39 0 72 -9.5t57 -30.5t37.5 -54.5t13.5 -80.5v-250q0 -44 34 -44q15 0 22 2t16 3q7 1 10.5 -0.5t3.5 -9.5v-45q0 -7 -3 -12.5t-12 -8.5q-14 -5 -29 -7t-45 -2q-18 0 -36.5 4t-34 15.5t-25 31t-9.5 51.5v256q0 45 -24.5 73.5
t-82.5 28.5q-76 0 -114 -53.5t-40 -151.5v-130q0 -28 10.5 -35.5t36.5 -7.5h29q13 0 16.5 -3.5t3.5 -11.5v-44q0 -11 -4.5 -14.5t-15.5 -3.5h-261q-12 0 -16 3.5t-4 14.5v44q0 8 3.5 11.5t16.5 3.5h29q24 0 34.5 6t12.5 29v471h-60q-15 0 -20.5 13.5t-5.5 44.5q0 18 8 21.5
t19 3.5h59v69q0 14 4 21t16 7h69q20 0 20 -28v-69h92q17 0 21.5 -15t4.5 -39q0 -29 -16 -29h-102z" />
    <glyph glyph-name="iacute" unicode="&#xed;" horiz-adv-x="349" 
d="M238 112q1 -23 11 -29t36 -6h28q13 0 16.5 -3.5t3.5 -11.5v-44q0 -11 -4.5 -14.5t-15.5 -3.5h-261q-11 0 -15.5 3.5t-4.5 14.5v44q0 8 3.5 11.5t16.5 3.5h29q24 0 34.5 6t12.5 29v306q-1 9 -4 15t-11 9.5t-21.5 4.5t-35.5 1q-11 0 -14.5 4.5t-3.5 13.5v41q0 11 4.5 14.5
t15.5 4.5l154 8q15 0 20.5 -6.5t5.5 -21.5v-394zM122 662q-4 9 -3.5 14t11.5 10l167 82q14 8 21.5 7.5t14.5 -11.5l25 -44q7 -11 3.5 -17.5t-18.5 -11.5l-182 -56q-13 -5 -19 -2.5t-10 8.5z" />
    <glyph glyph-name="ibreve" unicode="&#x12d;" horiz-adv-x="349" 
d="M238 112q1 -23 11 -29t36 -6h28q13 0 16.5 -3.5t3.5 -11.5v-44q0 -11 -4.5 -14.5t-15.5 -3.5h-261q-11 0 -15.5 3.5t-4.5 14.5v44q0 8 3.5 11.5t16.5 3.5h29q24 0 34.5 6t12.5 29v306q-1 9 -4 15t-11 9.5t-21.5 4.5t-35.5 1q-11 0 -14.5 4.5t-3.5 13.5v41q0 11 4.5 14.5
t15.5 4.5l154 8q15 0 20.5 -6.5t5.5 -21.5v-394zM181 694q30 0 46.5 10t16.5 29q0 12 16 12h47q14 0 14 -15q0 -51 -37.5 -78.5t-102.5 -27.5q-68 0 -103 28t-35 78q0 15 14 15h47q15 0 15 -12q0 -18 15 -28.5t47 -10.5z" />
    <glyph glyph-name="icircumflex" unicode="&#xee;" horiz-adv-x="349" 
d="M238 112q1 -23 11 -29t36 -6h28q13 0 16.5 -3.5t3.5 -11.5v-44q0 -11 -4.5 -14.5t-15.5 -3.5h-261q-11 0 -15.5 3.5t-4.5 14.5v44q0 8 3.5 11.5t16.5 3.5h29q24 0 34.5 6t12.5 29v306q-1 9 -4 15t-11 9.5t-21.5 4.5t-35.5 1q-11 0 -14.5 4.5t-3.5 13.5v41q0 11 4.5 14.5
t15.5 4.5l154 8q15 0 20.5 -6.5t5.5 -21.5v-394zM182 696l-70 -56q-10 -8 -17 -10.5t-21 -2.5h-38q-16 0 -18 6t10 17l111 96q11 10 18.5 12t23.5 2q17 0 24.5 -2t18.5 -12l111 -96q12 -11 8.5 -17t-17.5 -6h-40q-11 0 -17.5 2.5t-17.5 10.5z" />
    <glyph glyph-name="idieresis" unicode="&#xef;" horiz-adv-x="349" 
d="M238 112q1 -23 11 -29t36 -6h28q13 0 16.5 -3.5t3.5 -11.5v-44q0 -11 -4.5 -14.5t-15.5 -3.5h-261q-11 0 -15.5 3.5t-4.5 14.5v44q0 8 3.5 11.5t16.5 3.5h29q24 0 34.5 6t12.5 29v306q-1 9 -4 15t-11 9.5t-21.5 4.5t-35.5 1q-11 0 -14.5 4.5t-3.5 13.5v41q0 11 4.5 14.5
t15.5 4.5l154 8q15 0 20.5 -6.5t5.5 -21.5v-394zM20 693q0 29 20.5 48.5t47.5 19.5q26 0 44.5 -17t18.5 -47q0 -29 -20.5 -47t-47.5 -18q-26 0 -44.5 16.5t-18.5 44.5zM213 693q0 29 20.5 48.5t47.5 19.5q26 0 44.5 -17t18.5 -47q0 -29 -20.5 -47t-48.5 -18q-26 0 -44 16.5
t-18 44.5z" />
    <glyph glyph-name="igrave" unicode="&#xec;" horiz-adv-x="349" 
d="M237 112q1 -23 11 -29t36 -6h28q13 0 16.5 -3.5t3.5 -11.5v-44q0 -11 -4 -14.5t-16 -3.5h-261q-11 0 -15.5 3.5t-4.5 14.5v44q0 8 3.5 11.5t16.5 3.5h29q24 0 34.5 6t12.5 29v306q-1 9 -4 15t-11 9.5t-21.5 4.5t-35.5 1q-11 0 -14.5 4.5t-3.5 13.5v41q0 11 4.5 14.5
t15.5 4.5l154 8q15 0 20.5 -6.5t5.5 -21.5v-394zM219 640q-6 -14 -29 -7l-187 49q-14 4 -15.5 9.5t3.5 12.5l27 55q5 9 11 10t22 -7l170 -78q10 -5 10.5 -10t-3.5 -14z" />
    <glyph glyph-name="imacron" unicode="&#x12b;" horiz-adv-x="349" 
d="M238 112q1 -23 11 -29t36 -6h28q13 0 16.5 -3.5t3.5 -11.5v-44q0 -11 -4.5 -14.5t-15.5 -3.5h-261q-11 0 -15.5 3.5t-4.5 14.5v44q0 8 3.5 11.5t16.5 3.5h29q24 0 34.5 6t12.5 29v306q-1 9 -4 15t-11 9.5t-21.5 4.5t-35.5 1q-11 0 -14.5 4.5t-3.5 13.5v41q0 11 4.5 14.5
t15.5 4.5l154 8q15 0 20.5 -6.5t5.5 -21.5v-394zM54 636q-15 0 -20.5 13.5t-5.5 44.5q0 18 8 21.5t19 3.5h260q17 0 21.5 -15t4.5 -39q0 -29 -16 -29h-271z" />
    <glyph glyph-name="iogonek" unicode="&#x12f;" horiz-adv-x="349" 
d="M128 418q-2 16 -8.5 22t-23.5 7l-40 1q-12 1 -15.5 6.5t-3.5 14.5v37q0 12 4 15t15 4l155 9q16 0 21 -6.5t5 -21.5v-394q1 -23 11.5 -29t35.5 -6h29q13 0 16.5 -3.5t3.5 -11.5v-44q0 -11 -4.5 -14.5t-15.5 -3.5h-97q-29 -17 -47 -39.5t-18 -48.5q0 -25 14.5 -32t33.5 -7
q14 0 25 2t23 8q10 5 16.5 5t10.5 -10l10 -23q5 -14 -9 -22q-17 -11 -38.5 -19t-56.5 -8q-50 0 -84 19.5t-34 62.5q0 20 8 37t21 30.5t29.5 24.5t34.5 20h-104q-11 0 -15 3.5t-4 14.5v44q0 8 3.5 11.5t15.5 3.5h30q26 0 36.5 7.5t10.5 35.5v298zM105 692q0 35 22.5 56
t54.5 21q29 0 49 -20t20 -52q0 -35 -23.5 -54t-55.5 -19q-28 0 -47.5 18t-19.5 50z" />
    <glyph glyph-name="itilde" unicode="&#x129;" horiz-adv-x="349" 
d="M238 112q1 -23 11 -29t36 -6h28q13 0 16.5 -3.5t3.5 -11.5v-44q0 -11 -4.5 -14.5t-15.5 -3.5h-261q-11 0 -15.5 3.5t-4.5 14.5v44q0 8 3.5 11.5t16.5 3.5h29q24 0 34.5 6t12.5 29v306q-1 9 -4 15t-11 9.5t-21.5 4.5t-35.5 1q-11 0 -14.5 4.5t-3.5 13.5v41q0 11 4.5 14.5
t15.5 4.5l154 8q15 0 20.5 -6.5t5.5 -21.5v-394zM222 703q33 0 36 25q2 5 4 7.5t9 2.5h39q12 0 12 -12q0 -45 -25 -69t-70 -24q-32 0 -45.5 7.5t-20.5 15.5q-5 6 -11 11t-23 5q-31 0 -34 -26q-2 -6 -4 -8t-10 -2h-38q-5 0 -8.5 2.5t-3.5 10.5q0 44 25 68t70 24q32 0 45 -8.5
t19 -16.5q6 -5 13.5 -9t20.5 -4z" />
    <glyph glyph-name="dotlessj" unicode="&#x237;" horiz-adv-x="305" 
d="M221 -58q0 -45 -11 -81t-34 -62t-58.5 -40t-84.5 -14q-72 0 -107.5 33.5t-36.5 78.5q0 2 -0.5 5t-0.5 6q0 29 20.5 48t46.5 19t45 -17t19 -47q0 -17 -8 -31.5t-21 -22.5q13 -3 27 -3q51 0 73 28t22 78v491q0 20 -7 28t-25 9l-40 1q-12 1 -15 6.5t-3 13.5v38q0 12 3.5 15
t14.5 4l156 8q15 1 20 -6t5 -22v-564v0z" />
    <glyph glyph-name="jcircumflex" unicode="&#x135;" horiz-adv-x="305" 
d="M221 -58q0 -45 -11 -81t-34 -62t-58.5 -40t-84.5 -14q-72 0 -107.5 33.5t-36.5 78.5q0 2 -0.5 5t-0.5 6q0 29 20.5 48t46.5 19t45 -17t19 -47q0 -17 -8 -31.5t-21 -22.5q13 -3 27 -3q51 0 73 28t22 78v491q0 20 -7 28t-25 9l-40 1q-12 1 -15 6.5t-3 13.5v38q0 12 3.5 15
t14.5 4l156 8q15 1 20 -6t5 -22v-564zM144 697l-70 -56q-10 -8 -17 -10.5t-21 -2.5h-38q-16 0 -18 6t10 17l111 96q11 10 18.5 12t23.5 2q17 0 24.5 -2t18.5 -12l111 -96q12 -11 8.5 -17t-17.5 -6h-40q-11 0 -17.5 2.5t-17.5 10.5z" />
    <glyph glyph-name="kcommaaccent" unicode="&#x137;" horiz-adv-x="666" 
d="M330 287l176 -145q20 -18 34.5 -30t26.5 -19.5t22 -11t21 -3.5h28q11 -1 14.5 -7t3.5 -15v-38q0 -11 -4 -14.5t-16 -3.5h-256q-11 0 -14.5 3.5t-3.5 14.5v36q0 9 3.5 15t14.5 7h25q18 0 15 7t-26 26l-174 137v-126q0 -28 10.5 -35.5t36.5 -7.5h29q12 0 16 -3.5t4 -11.5
v-44q0 -11 -4.5 -14.5t-15.5 -3.5h-262q-11 0 -15 3.5t-4 14.5v44q0 8 3.5 11.5t15.5 3.5h30q26 0 36.5 7.5t10.5 35.5v520q0 20 -7 28t-25 9h-40q-13 1 -16 6.5t-3 14.5v37q0 13 3.5 16t15.5 4l155 8q15 0 20.5 -6.5t5.5 -21.5v-455l189 138q22 16 17 22.5t-22 6.5h-37
q-14 0 -17.5 7t-3.5 15v36q0 11 4.5 15t19.5 4h244q15 0 20.5 -3.5t5.5 -15.5v-38q0 -8 -4.5 -14t-18.5 -6h-34q-17 0 -36 -8.5t-45 -28.5zM280 -134q0 29 20 47.5t46 18.5q25 0 43 -18t18 -51q0 -23 -8.5 -45t-23 -42.5t-33 -39.5t-38.5 -34q-7 -5 -10.5 -6.5t-8.5 3.5
l-12 12q-5 5 -4.5 8.5t8.5 9.5q17 14 34 36.5t22 42.5q-23 2 -38 17t-15 41z" />
    <glyph glyph-name="lacute" unicode="&#x13a;" horiz-adv-x="335" 
d="M113 640q0 20 -7 28t-25 9h-40q-12 1 -15 6.5t-3 14.5v37q0 13 3.5 16t14.5 4l155 8q16 0 21 -6.5t5 -21.5v-615q0 -28 10.5 -35.5t36.5 -7.5h29q13 0 16.5 -3.5t3.5 -11.5v-44q0 -11 -4.5 -14.5t-15.5 -3.5h-261q-11 0 -15.5 3.5t-4.5 14.5v44q0 8 3.5 11.5t16.5 3.5h29
q26 0 36.5 7.5t10.5 35.5v520zM69 812q-4 9 -3.5 14t11.5 10l167 82q14 8 21.5 7.5t14.5 -11.5l25 -44q7 -11 3.5 -17.5t-18.5 -11.5l-182 -56q-13 -5 -19 -2.5t-10 8.5z" />
    <glyph glyph-name="lcaron" unicode="&#x13e;" horiz-adv-x="370" 
d="M113 640q0 20 -7 28t-25 9h-40q-12 1 -15 6.5t-3 14.5v37q0 13 3.5 16t14.5 4l155 8q16 0 21 -6.5t5 -21.5v-615q0 -28 10.5 -35.5t36.5 -7.5h29q13 0 16.5 -3.5t3.5 -11.5v-44q0 -11 -4.5 -14.5t-15.5 -3.5h-261q-11 0 -15.5 3.5t-4.5 14.5v44q0 8 3.5 11.5t16.5 3.5h29
q26 0 36.5 7.5t10.5 35.5v520zM270 688q0 34 21 56t57 22q31 0 51.5 -21t20.5 -62q0 -27 -10 -52.5t-26.5 -49.5t-38 -46t-43.5 -41q-8 -6 -13 -7.5t-13 6.5l-11 10q-6 6 -5 10.5t9 11.5q20 17 38 43.5t25 49.5q-26 2 -44 20.5t-18 49.5z" />
    <glyph glyph-name="lcommaaccent" unicode="&#x13c;" horiz-adv-x="335" 
d="M113 640q0 20 -7 28t-25 9h-40q-12 1 -15 6.5t-3 14.5v37q0 13 3.5 16t14.5 4l155 8q16 0 21 -6.5t5 -21.5v-615q0 -28 10.5 -35.5t36.5 -7.5h29q13 0 16.5 -3.5t3.5 -11.5v-44q0 -11 -4.5 -14.5t-15.5 -3.5h-261q-11 0 -15.5 3.5t-4.5 14.5v44q0 8 3.5 11.5t16.5 3.5h29
q26 0 36.5 7.5t10.5 35.5v520zM121 -125q0 29 20 47.5t46 18.5q25 0 43 -18t18 -51q0 -23 -8.5 -45t-23 -42.5t-33 -39.5t-38.5 -34q-7 -5 -10.5 -6.5t-8.5 3.5l-12 12q-5 5 -4.5 8.5t8.5 9.5q17 14 34 36.5t22 42.5q-23 2 -38 17t-15 41z" />
    <glyph glyph-name="ldot" unicode="&#x140;" horiz-adv-x="403" 
d="M222 120q0 -28 10.5 -35.5t36.5 -7.5h29q13 0 16.5 -3.5t3.5 -11.5v-44q0 -11 -4.5 -14.5t-15.5 -3.5h-261q-11 0 -15.5 3.5t-4.5 14.5v44q0 8 3.5 11.5t16.5 3.5h29q26 0 36.5 7.5t10.5 35.5v527q-3 29 -32 30h-40q-12 1 -15 6.5t-3 14.5v37q0 13 3.5 16t14.5 4l155 8
q16 0 21 -6.5t5 -21.5v-615zM292 295q0 34 24 56t54 22q29 0 51 -19t22 -53q0 -35 -24 -55.5t-55 -20.5q-30 0 -51 19t-21 51z" />
    <glyph glyph-name="oslash" unicode="&#xf8;" horiz-adv-x="639" 
d="M150 29q-58 38 -83.5 100t-25.5 137q0 57 15 108t48 88.5t85.5 59.5t126.5 22q37 0 69 -6l28 61q4 8 7.5 11.5t11.5 2.5l70 -14q8 -2 9 -6t-4 -13l-34 -74q62 -36 90 -100t28 -140q0 -57 -15.5 -107.5t-48.5 -89t-85 -60.5t-126 -22q-41 0 -78 8l-24 -53q-5 -8 -8 -11
t-11 -1l-69 15q-8 2 -9.5 4.5t3.5 13.5zM476 265q0 50 -10 89t-33 66l-162 -353q19 -4 45 -4q43 0 73.5 14.5t49.5 41t28 63.5t9 83zM316 468q-43 0 -73.5 -14.5t-49.5 -41t-28 -64t-9 -83.5t8.5 -83t27.5 -63l159 346q-17 3 -35 3z" />
    <glyph glyph-name="oslashacute" unicode="&#x1ff;" horiz-adv-x="639" 
d="M150 29q-58 38 -83.5 100t-25.5 137q0 57 15 108t48 88.5t85.5 59.5t126.5 22q37 0 69 -6l28 61q4 8 7.5 11.5t11.5 2.5l70 -14q8 -2 9 -6t-4 -13l-34 -74q62 -36 90 -100t28 -140q0 -57 -15.5 -107.5t-48.5 -89t-85 -60.5t-126 -22q-41 0 -78 8l-24 -53q-5 -8 -8 -11
t-11 -1l-69 15q-8 2 -9.5 4.5t3.5 13.5zM476 265q0 50 -10 89t-33 66l-162 -353q19 -4 45 -4q43 0 73.5 14.5t49.5 41t28 63.5t9 83zM316 468q-43 0 -73.5 -14.5t-49.5 -41t-28 -64t-9 -83.5t8.5 -83t27.5 -63l159 346q-17 3 -35 3zM259 662q-4 9 -3.5 14t11.5 10l167 82
q14 8 21.5 7.5t14.5 -11.5l25 -44q7 -11 3.5 -17.5t-18.5 -11.5l-182 -56q-13 -5 -19 -2.5t-10 8.5z" />
    <glyph glyph-name="tbar" unicode="&#x167;" horiz-adv-x="403" 
d="M103 525l42 132q4 11 13 13.5t25 2.5q22 0 26 -2.5t4 -13.5v-132h134q13 0 18 -2.5t5 -12.5v-48q0 -18 -22 -18h-135v-44h134q14 0 18.5 -2.5t4.5 -13.5v-46q0 -19 -21 -19h-136v-142q0 -33 5.5 -53t16.5 -30.5t27 -14t37 -3.5q23 0 40.5 2.5t30.5 7.5q17 7 17 -12v-44
q0 -9 -3 -14t-14 -9q-21 -8 -48 -10.5t-50 -2.5q-34 0 -64.5 6.5t-54 23.5t-37 48t-13.5 79v168h-62q-15 0 -19.5 3t-4.5 17v38q0 12 4 17.5t15 5.5h67v44h-63q-14 0 -19 3t-5 17v39q0 12 4 17t15 5h68z" />
    <glyph glyph-name="tcaron" unicode="&#x165;" horiz-adv-x="399" 
d="M101 525l42 132q4 11 13 13.5t25 2.5q22 0 26 -2.5t4 -13.5v-132h134q13 0 18 -2.5t5 -12.5v-48q0 -18 -22 -18h-135v-267q0 -33 5.5 -53t16.5 -30.5t27 -14t37 -3.5q23 0 40.5 2.5t30.5 7.5q17 7 17 -12v-44q0 -9 -3 -14t-14 -9q-21 -8 -48 -10.5t-50 -2.5
q-34 0 -64.5 6.5t-54 23.5t-37 48t-13.5 79v293h-63q-14 0 -19 3t-5 17v39q0 12 4 17t15 5h68zM265 714q0 28 17.5 46t46.5 18q26 0 42.5 -17t16.5 -51q0 -22 -8 -43t-21.5 -41t-31 -38t-36.5 -33q-7 -5 -11 -6t-10 5l-9 8q-9 9 3 18q16 14 31 35.5t21 41.5
q-22 1 -36.5 16.5t-14.5 40.5z" />
    <glyph glyph-name="tcommaaccent" unicode="&#x163;" horiz-adv-x="398" 
d="M101 525l42 132q4 11 13 13.5t25 2.5q22 0 26 -2.5t4 -13.5v-132h134q13 0 18 -2.5t5 -12.5v-48q0 -18 -22 -18h-135v-267q0 -33 5.5 -53t16.5 -30.5t27 -14t37 -3.5q23 0 40.5 2.5t30.5 7.5q17 7 17 -12v-44q0 -9 -3 -14t-14 -9q-21 -8 -48 -10.5t-50 -2.5
q-34 0 -64.5 6.5t-54 23.5t-37 48t-13.5 79v293h-63q-14 0 -19 3t-5 17v39q0 12 4 17t15 5h68zM142 -134q0 29 20 47.5t46 18.5q25 0 43 -18t18 -51q0 -23 -8.5 -45t-23 -42.5t-33 -39.5t-38.5 -34q-7 -5 -10.5 -6.5t-8.5 3.5l-12 12q-5 5 -4.5 8.5t8.5 9.5q17 14 34 36.5
t22 42.5q-23 2 -38 17t-15 41z" />
    <glyph glyph-name="wacute" unicode="&#x1e83;" horiz-adv-x="991" 
d="M319 89l124 411q5 17 8.5 21t16.5 4h74q13 0 16.5 -5.5t8.5 -20.5l129 -408l92 310q7 22 7 33q0 8 -6 10t-20 4l-31 1q-12 2 -15 5.5t-3 11.5v42q0 11 3.5 14t14.5 3h229q10 0 13.5 -3t3.5 -12v-37q0 -10 -3.5 -17t-14.5 -8l-31 -1q-11 -1 -18 -1.5t-12.5 -5.5
t-10.5 -15.5t-12 -31.5l-131 -379q-3 -11 -7 -13t-19 -2h-90q-10 0 -15.5 2.5t-8.5 11.5l-123 364l-118 -363q-3 -10 -7 -12.5t-18 -2.5h-83q-11 0 -15.5 3t-7.5 11l-139 391q-5 15 -10 23.5t-11.5 12.5t-16.5 5.5t-26 1.5q-17 2 -21.5 6t-4.5 15v41q0 10 4 13t15 3h240
q11 0 14.5 -3.5t3.5 -12.5v-42q0 -17 -14 -17q-24 -1 -37.5 -2.5t-18.5 -6t-4.5 -12.5t4.5 -21zM446 716q-4 9 -3.5 14t11.5 10l167 82q14 8 21.5 7.5t14.5 -11.5l25 -44q7 -11 3.5 -17.5t-18.5 -11.5l-182 -56q-13 -5 -19 -2.5t-10 8.5z" />
    <glyph glyph-name="wcircumflex" unicode="&#x175;" horiz-adv-x="991" 
d="M319 89l124 411q5 17 8.5 21t16.5 4h74q13 0 16.5 -5.5t8.5 -20.5l129 -408l92 310q7 22 7 33q0 8 -6 10t-20 4l-31 1q-12 2 -15 5.5t-3 11.5v42q0 11 3.5 14t14.5 3h229q10 0 13.5 -3t3.5 -12v-37q0 -10 -3.5 -17t-14.5 -8l-31 -1q-11 -1 -18 -1.5t-12.5 -5.5
t-10.5 -15.5t-12 -31.5l-131 -379q-3 -11 -7 -13t-19 -2h-90q-10 0 -15.5 2.5t-8.5 11.5l-123 364l-118 -363q-3 -10 -7 -12.5t-18 -2.5h-83q-11 0 -15.5 3t-7.5 11l-139 391q-5 15 -10 23.5t-11.5 12.5t-16.5 5.5t-26 1.5q-17 2 -21.5 6t-4.5 15v41q0 10 4 13t15 3h240
q11 0 14.5 -3.5t3.5 -12.5v-42q0 -17 -14 -17q-24 -1 -37.5 -2.5t-18.5 -6t-4.5 -12.5t4.5 -21zM505 750l-70 -56q-10 -8 -17 -10.5t-21 -2.5h-38q-16 0 -18 6t10 17l111 96q11 10 18.5 12t23.5 2q17 0 24.5 -2t18.5 -12l111 -96q12 -11 8.5 -17t-17.5 -6h-40
q-11 0 -17.5 2.5t-17.5 10.5z" />
    <glyph glyph-name="wdieresis" unicode="&#x1e85;" horiz-adv-x="991" 
d="M319 89l124 411q5 17 8.5 21t16.5 4h74q13 0 16.5 -5.5t8.5 -20.5l129 -408l92 310q7 22 7 33q0 8 -6 10t-20 4l-31 1q-12 2 -15 5.5t-3 11.5v42q0 11 3.5 14t14.5 3h229q10 0 13.5 -3t3.5 -12v-37q0 -10 -3.5 -17t-14.5 -8l-31 -1q-11 -1 -18 -1.5t-12.5 -5.5
t-10.5 -15.5t-12 -31.5l-131 -379q-3 -11 -7 -13t-19 -2h-90q-10 0 -15.5 2.5t-8.5 11.5l-123 364l-118 -363q-3 -10 -7 -12.5t-18 -2.5h-83q-11 0 -15.5 3t-7.5 11l-139 391q-5 15 -10 23.5t-11.5 12.5t-16.5 5.5t-26 1.5q-17 2 -21.5 6t-4.5 15v41q0 10 4 13t15 3h240
q11 0 14.5 -3.5t3.5 -12.5v-42q0 -17 -14 -17q-24 -1 -37.5 -2.5t-18.5 -6t-4.5 -12.5t4.5 -21zM344 746q0 29 20.5 48.5t47.5 19.5q26 0 44.5 -17t18.5 -47q0 -29 -20.5 -47t-47.5 -18q-26 0 -44.5 16.5t-18.5 44.5zM537 746q0 29 20.5 48.5t47.5 19.5q26 0 44.5 -17
t18.5 -47q0 -29 -20.5 -47t-48.5 -18q-26 0 -44 16.5t-18 44.5z" />
    <glyph glyph-name="wgrave" unicode="&#x1e81;" horiz-adv-x="991" 
d="M319 89l124 411q5 17 8.5 21t16.5 4h74q13 0 16.5 -5.5t8.5 -20.5l129 -408l92 310q7 22 7 33q0 8 -6 10t-20 4l-31 1q-12 2 -15 5.5t-3 11.5v42q0 11 3.5 14t14.5 3h229q10 0 13.5 -3t3.5 -12v-37q0 -10 -3.5 -17t-14.5 -8l-31 -1q-11 -1 -18 -1.5t-12.5 -5.5
t-10.5 -15.5t-12 -31.5l-131 -379q-3 -11 -7 -13t-19 -2h-90q-10 0 -15.5 2.5t-8.5 11.5l-123 364l-118 -363q-3 -10 -7 -12.5t-18 -2.5h-83q-11 0 -15.5 3t-7.5 11l-139 391q-5 15 -10 23.5t-11.5 12.5t-16.5 5.5t-26 1.5q-17 2 -21.5 6t-4.5 15v41q0 10 4 13t15 3h240
q11 0 14.5 -3.5t3.5 -12.5v-42q0 -17 -14 -17q-24 -1 -37.5 -2.5t-18.5 -6t-4.5 -12.5t4.5 -21zM543 694q-6 -14 -29 -7l-187 49q-14 4 -15.5 9.5t3.5 12.5l27 55q5 9 11 10t22 -7l170 -78q10 -5 10.5 -10t-3.5 -14z" />
    <glyph glyph-name="zacute" unicode="&#x17a;" horiz-adv-x="577" 
d="M504 530q11 0 14 -5t3 -12v-28q0 -10 -4.5 -20t-9.5 -16l-332 -373h195q19 0 31 2t20.5 12t16 30t18.5 56q2 8 5.5 11t13.5 3h50q9 0 12 -3.5t2 -11.5l-21 -159q-3 -16 -24 -16h-443q-8 1 -10.5 5t-2.5 12v43q0 14 4 19l334 375h-166q-18 0 -29.5 -2t-19 -10t-14 -24
t-13.5 -44q-3 -11 -6.5 -15t-13.5 -4h-51q-16 0 -13 18l16 141q1 16 25 16h413zM236 662q-4 9 -3.5 14t11.5 10l167 82q14 8 21.5 7.5t14.5 -11.5l25 -44q7 -11 3.5 -17.5t-18.5 -11.5l-182 -56q-13 -5 -19 -2.5t-10 8.5z" />
    <glyph glyph-name="zcaron" unicode="&#x17e;" horiz-adv-x="577" 
d="M504 530q11 0 14 -5t3 -12v-28q0 -10 -4.5 -20t-9.5 -16l-332 -373h195q19 0 31 2t20.5 12t16 30t18.5 56q2 8 5.5 11t13.5 3h50q9 0 12 -3.5t2 -11.5l-21 -159q-3 -16 -24 -16h-443q-8 1 -10.5 5t-2.5 12v43q0 14 4 19l334 375h-166q-18 0 -29.5 -2t-19 -10t-14 -24
t-13.5 -44q-3 -11 -6.5 -15t-13.5 -4h-51q-16 0 -13 18l16 141q1 16 25 16h413zM295 692l69 57q11 6 16 9t19 3h41q16 0 18.5 -5.5t-6.5 -13.5l-115 -100q-11 -10 -18.5 -12t-23.5 -2q-17 0 -24 2t-18 12l-116 100q-9 8 -5 13.5t18 5.5h41q14 0 19 -3l15 -9z" />
    <glyph glyph-name="zdotaccent" unicode="&#x17c;" horiz-adv-x="577" 
d="M504 530q11 0 14 -5t3 -12v-28q0 -10 -4.5 -20t-9.5 -16l-332 -373h195q19 0 31 2t20.5 12t16 30t18.5 56q2 8 5.5 11t13.5 3h50q9 0 12 -3.5t2 -11.5l-21 -159q-3 -16 -24 -16h-443q-8 1 -10.5 5t-2.5 12v43q0 14 4 19l334 375h-166q-18 0 -29.5 -2t-19 -10t-14 -24
t-13.5 -44q-3 -11 -6.5 -15t-13.5 -4h-51q-16 0 -13 18l16 141q1 16 25 16h413zM223 698q0 34 23.5 56t54.5 22q29 0 50.5 -19t21.5 -53t-23.5 -55t-54.5 -21q-30 0 -51 19t-21 51z" />
    <glyph glyph-name="dollar" unicode="$" horiz-adv-x="660" 
d="M600 567q0 -35 -23.5 -56t-54.5 -21q-30 0 -51.5 19.5t-21.5 52.5q0 18 7 32.5t19 25.5q-27 17 -64 24.5t-79 7.5q-34 0 -62.5 -5t-49 -16t-32 -29t-11.5 -43q0 -34 18.5 -55t49.5 -36t70 -25.5t80 -22.5t80 -28t70 -41.5t49.5 -63.5t18.5 -93q0 -50 -18 -86.5t-50 -61.5
t-75 -38.5t-94 -17.5v-85q0 -22 -24 -23h-63q-13 0 -17.5 6.5t-4.5 15.5v85q-112 8 -169 49t-58 114l20 -2l-8 11q-8 11 -4.5 23t14 22.5t25.5 17t30 6.5q29 0 51.5 -20t22.5 -53q0 -20 -7.5 -34.5t-20.5 -25.5q29 -16 68.5 -23t85.5 -7q39 0 72 6t57.5 20t38 36t13.5 55
q0 40 -18.5 66t-49.5 43.5t-70 28.5t-79.5 22t-79.5 25t-70 36t-49.5 55t-18.5 83q0 86 56 130.5t155 55.5v72q0 23 24 24h63q13 0 17.5 -7t4.5 -16v-72q109 -8 163 -51t54 -112z" />
    <glyph glyph-name="Eng" unicode="&#x14a;" horiz-adv-x="871" 
d="M334 -88q0 33 23.5 53t53.5 20t52 -19.5t22 -52.5q0 -26 -13.5 -42.5t-33.5 -24.5q14 -13 33.5 -18.5t42.5 -5.5q61 0 88.5 38.5t27.5 102.5v80l-401 494v-422q0 -24 10 -31t36 -7h26q13 0 16.5 -2.5t3.5 -12.5v-44q0 -11 -4.5 -14.5t-15.5 -3.5h-238q-11 0 -15.5 3.5
t-4.5 14.5v43q0 10 3.5 13t16.5 3h24q27 0 38 7.5t11 30.5v495q-2 22 -12 28.5t-31 6.5h-28q-13 0 -16.5 3t-3.5 11v46q0 11 4.5 14t15.5 3h140q23 0 35 -15l411 -519v419q0 24 -10.5 31t-36.5 7h-26q-13 0 -16 2.5t-3 12.5v43q0 12 4 15.5t15 3.5h239q11 0 15 -3.5t4 -14.5
v-43q0 -10 -3.5 -13t-15.5 -3h-25q-26 0 -37 -7.5t-11 -30.5v-620q0 -51 -13.5 -93t-40.5 -72t-69 -46.5t-99 -16.5q-49 0 -84 12t-57.5 31.5t-34 45.5t-12.5 55v9v0z" />
    <glyph glyph-name="eng" unicode="&#x14b;" horiz-adv-x="680" 
d="M272 -136q1 29 21 47.5t46 18.5q25 0 44.5 -17t19.5 -47q0 -20 -10 -34.5t-25 -22.5q15 -6 33 -6q51 0 72.5 32.5t21.5 89.5v428q0 45 -24.5 73.5t-82.5 28.5q-78 0 -115.5 -56t-37.5 -159v-120q0 -28 10 -35.5t37 -7.5h28q13 0 16.5 -3.5t3.5 -11.5v-44q0 -11 -4 -14.5
t-16 -3.5h-261q-11 0 -15 3.5t-4 14.5v44q0 8 3.5 11.5t15.5 3.5h30q26 0 36.5 7.5t10.5 35.5v298q-1 9 -4 15t-11.5 9.5t-22 4.5t-35.5 1q-11 0 -14.5 4.5t-3.5 13.5v41q0 11 4.5 14.5t15.5 4.5l154 8q15 0 20.5 -6.5t5.5 -21.5v-52q26 47 76 68.5t113 21.5q39 0 72 -9.5
t57 -30.5t37.5 -54.5t13.5 -80.5v-416q0 -92 -45 -147t-142 -55q-68 0 -104 30t-40 71q-1 3 -1 10v2z" />
    <glyph glyph-name="d" unicode="d" horiz-adv-x="665" 
d="M560 112q1 -37 33 -37q15 0 22.5 2t15.5 3t11 -0.5t3 -9.5v-45q0 -7 -3 -12.5t-12 -8.5q-14 -5 -29 -7t-45 -2q-16 0 -33 3t-31 11.5t-24.5 23.5t-14.5 39q-34 -46 -83.5 -65.5t-106.5 -19.5q-49 0 -89.5 14.5t-69.5 45t-45 78.5t-16 116q0 143 68 222t194 79
q49 0 83 -12t63 -30v140q0 20 -7 28t-25 9h-40q-12 1 -15 6.5t-3 14.5v37q0 13 3.5 16t14.5 4l155 8q15 0 20.5 -6.5t5.5 -21.5v-623zM291 70q72 0 111.5 48t48.5 142v160q-20 16 -53.5 27t-74.5 11q-45 0 -76.5 -17t-52 -45.5t-29.5 -67t-9 -81.5q0 -38 7.5 -70t23.5 -56
t41.5 -37.5t62.5 -13.5z" />
    <glyph glyph-name="A.SC" horiz-adv-x="727" 
d="M484 195h-267l-32 -81q-9 -22 -0.5 -29.5t30.5 -9.5l13 -1q13 -1 17 -5.5t4 -12.5v-39q0 -11 -4 -14t-17 -3h-204q-11 0 -14.5 3t-3.5 14v40q0 8 3.5 13t15.5 6l28 1q6 1 11 2t9.5 5.5t9.5 12.5t11 22l196 489q5 8 8 10.5t18 2.5h93q11 0 15.5 -2.5t7.5 -10.5l200 -484
q7 -16 11.5 -25.5t10 -14t13.5 -6t20 -1.5l18 -1q14 0 18 -4.5t4 -12.5v-42q0 -11 -3.5 -14t-17.5 -3h-232q-12 0 -16 3t-4 14v39q0 8 4 11.5t18 5.5h12q27 3 32.5 11.5t-5.5 35.5zM247 270h206l-104 253z" />
    <glyph glyph-name="B.SC" horiz-adv-x="677" 
d="M132 497q0 21 -7 29.5t-25 10.5h-34q-17 0 -17 17v43q0 11 4 14t16 3h266q63 0 111.5 -7.5t81.5 -25t50 -46.5t17 -72q0 -33 -10.5 -57t-28 -40.5t-40 -25.5t-46.5 -12v-1q75 -8 120.5 -46.5t45.5 -105.5q0 -57 -23 -91.5t-63 -53t-94 -24.5t-115 -6h-274q-9 0 -13.5 3
t-4.5 14v40q0 19 16 19q40 0 53.5 8t13.5 34v379zM247 77h109q28 0 55.5 3t50 13.5t36.5 29.5t14 51q0 33 -11.5 54t-32.5 33.5t-51.5 17.5t-69.5 5h-100v-207zM247 367h103q66 0 95.5 21t29.5 70q0 25 -9.5 40.5t-26.5 24t-40 11.5t-50 3h-102v-170z" />
    <glyph glyph-name="C.SC" horiz-adv-x="694" 
d="M164 301q0 -48 13.5 -89t43.5 -71t78 -46.5t117 -16.5q83 0 134 15.5t79 28.5q14 6 23.5 7.5t9.5 -15.5v-55q0 -5 -2.5 -10t-12.5 -10q-12 -7 -34 -15t-53 -15.5t-71.5 -12.5t-89.5 -5q-79 0 -144.5 19t-112.5 57.5t-73 97.5t-26 139q0 69 23.5 127t69 100.5t113 66
t155.5 23.5q67 0 114.5 -14t77.5 -35.5t44 -47.5t14 -51q0 -33 -23.5 -53t-53.5 -20q-29 0 -49.5 18.5t-20.5 50.5q0 30 21 51q-22 9 -51 14.5t-66 5.5q-66 0 -113 -19t-77 -52t-43.5 -76.5t-13.5 -91.5z" />
    <glyph glyph-name="D.SC" horiz-adv-x="759" 
d="M714 306q0 -79 -27.5 -136.5t-79 -95t-125.5 -56t-167 -18.5h-248q-9 0 -13.5 3t-4.5 14v40q0 19 16 19q38 0 51.5 6.5t15.5 27.5v387q0 21 -7 29.5t-25 10.5h-34q-17 0 -17 17v43q0 11 4 14t16 3h251q202 0 298 -76.5t96 -231.5zM247 82h67q141 0 211 52.5t70 171.5
q0 64 -18.5 107.5t-55 70.5t-90.5 39t-125 12h-59v-453z" />
    <glyph glyph-name="E.SC" horiz-adv-x="645" 
d="M67 0q-9 0 -13.5 3t-4.5 14v40q0 19 16 19q40 0 53.5 8t13.5 34v379q0 21 -7 29.5t-25 10.5h-34q-17 0 -17 17v43q0 11 4 14t16 3h458q14 0 22.5 -1t13.5 -5t7 -12t3 -23l6 -104q2 -12 0 -16.5t-15 -4.5h-46q-11 0 -16 3.5t-7 16.5l-4 31q-2 15 -7.5 23t-18 11.5t-33 4.5
t-51.5 1h-134v-199h98q12 0 20.5 4.5t11.5 18.5l2 26q2 11 5.5 14t15.5 3h33q10 0 12.5 -4.5t2.5 -13.5v-171q0 -10 -2.5 -14t-12.5 -4h-33q-11 0 -15 3.5t-6 12.5l-2 26q-3 15 -11.5 19.5t-20.5 4.5h-98v-190h234q18 0 23.5 4t7.5 19l11 71q2 10 7 13t16 3h44q11 0 14.5 -4
t1.5 -14l-15 -135q-2 -23 -10 -27.5t-25 -4.5h-489v0z" />
    <glyph glyph-name="F.SC" horiz-adv-x="613" 
d="M247 259v-149q1 -23 10.5 -28.5t32.5 -5.5h22q12 0 15 -3t3 -11v-45q0 -10 -3.5 -13.5t-14.5 -3.5h-244q-11 0 -15 3.5t-4 13.5v45q0 8 3.5 11t15.5 3h20q25 0 34.5 8t9.5 34v379q0 21 -7 29.5t-25 10.5h-34q-17 0 -17 17v43q0 11 4 14t16 3h463q13 0 21.5 -1t13.5 -5
t7 -12t3 -23l7 -104q2 -12 0 -16.5t-15 -4.5h-48q-11 0 -15.5 3.5t-6.5 15.5l-4 32q-2 15 -8 23t-18 11.5t-32.5 4.5t-51.5 1h-138v-206h102q12 0 21 5t11 19l3 26q2 11 5.5 13.5t14.5 2.5h33q10 0 12.5 -3.5t2.5 -13.5v-172q0 -9 -2.5 -13t-12.5 -4h-33q-11 0 -14.5 3.5
t-5.5 13.5l-3 26q-2 15 -11 19t-21 4h-102z" />
    <glyph glyph-name="G.SC" horiz-adv-x="728" 
d="M428 280q0 9 3 14t12 5h209q18 0 18 -13v-265q0 -21 -19 -21h-40q-12 0 -17.5 3.5t-9.5 12.5l-7 18q-33 -17 -77.5 -30t-101.5 -13q-76 0 -141 19t-112.5 57.5t-74.5 98t-27 140.5q0 69 23.5 127t69.5 99.5t113 65t154 23.5q74 0 124 -14t81 -36t44 -49.5t13 -55.5
q0 -33 -23 -52.5t-54 -19.5q-28 0 -49 18t-21 50q0 34 24 55q-24 11 -56.5 17t-74.5 6q-64 0 -110.5 -19t-77 -51t-45 -75t-14.5 -92q0 -52 15.5 -94.5t46.5 -72.5t76 -46.5t104 -16.5q51 0 88.5 13t66.5 31v79q0 22 -25 22h-92q-16 0 -16 19v43z" />
    <glyph glyph-name="H.SC" horiz-adv-x="810" 
d="M679 118q0 -28 9.5 -35t33.5 -7h22q12 0 15 -3t3 -11v-45q0 -10 -3.5 -13.5t-14.5 -3.5h-244q-19 0 -19 17v45q0 8 3.5 11t15.5 3h20q24 0 33.5 8t9.5 34v153h-316v-153q0 -28 9.5 -35t33.5 -7h22q12 0 15 -3t3 -11v-45q0 -10 -3.5 -13.5t-14.5 -3.5h-244q-11 0 -15 3.5
t-4 13.5v45q0 8 3.5 11t15.5 3h20q25 0 34.5 8t9.5 34v377q0 26 -9.5 34.5t-33.5 8.5h-22q-11 0 -14.5 3t-3.5 11v44q0 11 3.5 14.5t14.5 3.5h244q11 0 14.5 -3.5t3.5 -14.5v-44q0 -9 -3 -11.5t-15 -2.5h-23q-23 0 -32 -7t-9 -36v-149h316v149q0 26 -9 34.5t-33 8.5h-22
q-11 0 -14.5 3t-3.5 11v44q0 11 4 14.5t14 3.5h244q11 0 14.5 -3.5t3.5 -14.5v-44q0 -9 -3 -11.5t-15 -2.5h-23q-23 0 -32 -7t-9 -36v-377v0z" />
    <glyph glyph-name="I.SC" horiz-adv-x="378" 
d="M247 118q0 -28 9.5 -35t33.5 -7h22q12 0 15 -3t3 -11v-45q0 -10 -3.5 -13.5t-14.5 -3.5h-244q-11 0 -15 3.5t-4 13.5v45q0 8 3.5 11t15.5 3h20q25 0 34.5 8t9.5 34v377q0 26 -9.5 34.5t-33.5 8.5h-22q-11 0 -14.5 3t-3.5 11v44q0 11 3.5 14.5t14.5 3.5h244
q11 0 14.5 -3.5t3.5 -14.5v-44q0 -9 -3 -11.5t-15 -2.5h-23q-23 0 -32 -7t-9 -36v-377v0z" />
    <glyph glyph-name="J.SC" horiz-adv-x="524" 
d="M30 123q0 32 23 53t52 21t50.5 -19t21.5 -51q0 -22 -10 -38t-27 -25q11 -6 25 -8.5t29 -2.5q51 0 74 29.5t23 83.5v329q0 26 -9.5 34.5t-32.5 8.5h-22q-11 0 -14.5 3t-3.5 11v44q0 11 3.5 14.5t14.5 3.5h244q11 0 14.5 -3.5t3.5 -14.5v-44q0 -9 -3.5 -11.5t-14.5 -2.5
h-23q-24 0 -33 -7t-9 -36v-303q0 -90 -49 -145t-155 -55q-44 0 -75.5 10t-52 26.5t-31.5 38.5t-13 46v10v0z" />
    <glyph glyph-name="K.SC" horiz-adv-x="742" 
d="M340 306l-93 -79v-109q0 -28 9.5 -35t33.5 -7h22q12 0 15 -3t3 -11v-45q0 -10 -3.5 -13.5t-14.5 -3.5h-244q-11 0 -15 3.5t-4 13.5v45q0 8 3.5 11t15.5 3h20q25 0 34.5 8t9.5 34v377q0 26 -9.5 34.5t-33.5 8.5h-22q-11 0 -14.5 3t-3.5 11v44q0 11 3.5 14.5t14.5 3.5h244
q11 0 14.5 -3.5t3.5 -14.5v-44q0 -9 -3 -11.5t-15 -2.5h-23q-23 0 -32 -7t-9 -36v-187l234 205q17 15 15.5 20t-15.5 5h-25q-11 0 -14.5 7t-3.5 15v36q0 11 3.5 14.5t14.5 3.5h231q11 0 14.5 -3.5t3.5 -14.5v-40q0 -8 -3.5 -13t-14.5 -5h-44q-15 0 -30.5 -6.5t-38.5 -26.5
l-166 -141q48 -3 81.5 -19t58.5 -47.5t45 -79t41 -112.5q8 -16 18 -22t27 -6q8 0 14.5 2.5l19.5 7.5q17 6 17 -14v-46q0 -10 -3.5 -14.5t-14.5 -9.5q-13 -6 -32 -9.5t-34 -3.5q-16 0 -32 1.5t-32 8.5t-30 20.5t-25 37.5q-14 31 -28.5 73.5t-35 81t-49.5 65.5t-72 27h-2z" />
    <glyph glyph-name="L.SC" horiz-adv-x="619" 
d="M68 0q-10 0 -14.5 3t-4.5 14v40q0 19 17 19q38 0 51 6.5t15 27.5v392q-2 22 -11.5 29t-31.5 7h-21q-12 0 -15.5 3t-3.5 11v44q0 11 4 14.5t15 3.5h244q11 0 14.5 -3.5t3.5 -14.5v-44q0 -9 -3.5 -11.5t-14.5 -2.5h-23q-24 0 -33 -7t-9 -36v-420h160q25 0 41.5 1t26 5
t14.5 13t8 26l6 49q3 16 23 16h49q12 0 14.5 -4t1.5 -14l-14 -135q-3 -23 -10.5 -27.5t-24.5 -4.5h-474v0z" />
    <glyph glyph-name="M.SC" horiz-adv-x="975" 
d="M501 87l211 510q5 10 10.5 13.5t21.5 3.5h161q11 0 14.5 -3t3.5 -14v-38q0 -7 -3 -12.5t-15 -6.5l-40 -1q-5 -1 -11 -1.5t-11 -2.5v-419q0 -26 6.5 -33t27.5 -7h35q13 0 17.5 -4t4.5 -12v-43q0 -11 -5.5 -14t-16.5 -3h-241q-11 0 -15 3t-4 14v43q0 8 3.5 12t15.5 4h27
q23 0 32.5 7.5t9.5 32.5v328l-180 -436q-3 -8 -7.5 -10t-19.5 -2h-92q-11 0 -15.5 2t-9.5 9l-198 452v-350q0 -23 9.5 -28t35.5 -5h23q11 0 15 -3t4 -11v-45q0 -11 -4 -14t-15 -3h-225q-11 0 -15 3t-4 13v47q0 8 3.5 10.5t15.5 2.5h22q25 0 35 5t10 28v430q-4 0 -7.5 0.5
t-8.5 0.5h-36q-11 1 -14.5 5t-3.5 11v41q0 11 3.5 14t14.5 3h183q11 0 16.5 -6.5t7.5 -14.5z" />
    <glyph glyph-name="N.SC" horiz-adv-x="813" 
d="M201 614q20 0 31 -13l368 -423v323q0 23 -10 30t-34 7h-21q-11 0 -15 2.5t-4 10.5v45q0 11 4 14.5t15 3.5h220q11 0 15 -3t4 -14v-45q0 -8 -3.5 -11t-15.5 -3h-19q-24 0 -34.5 -7t-10.5 -30v-494q0 -8 -3.5 -11t-16.5 -3h-30q-8 0 -15.5 2t-13.5 9l-389 436v-327
q0 -24 9.5 -30.5t34.5 -6.5h20q12 0 15.5 -3t3.5 -11v-45q0 -11 -4 -14t-15 -3h-220q-11 0 -14.5 3t-3.5 14v45q0 8 3 11t15 3h19q25 0 35 7t10 30v383q-2 26 -14 34t-39 8h-5q-14 0 -18.5 3.5t-4.5 11.5v44q0 11 5 14t18 3h128v0z" />
    <glyph glyph-name="O.SC" horiz-adv-x="800" 
d="M43 305q0 54 16.5 110.5t57.5 102.5t110 75.5t173 29.5q99 0 167.5 -26.5t111 -71t61 -101.5t18.5 -117q0 -54 -16.5 -110.5t-57.5 -102.5t-110 -75.5t-174 -29.5q-100 0 -168 26.5t-110 71t-60.5 101.5t-18.5 117zM399 542q-69 0 -114.5 -21.5t-72.5 -56t-38 -76.5
t-11 -82q0 -37 10 -78.5t37 -76.5t73.5 -58t118.5 -23q70 0 115.5 22t72 56.5t37 76t10.5 80.5q0 37 -10 78.5t-36.5 76.5t-73 58.5t-118.5 23.5z" />
    <glyph glyph-name="P.SC" horiz-adv-x="659" 
d="M247 231v-113q0 -28 9.5 -35t33.5 -7h22q12 0 15 -3t3 -11v-45q0 -10 -3.5 -13.5t-14.5 -3.5h-244q-11 0 -15 3.5t-4 13.5v45q0 8 3.5 11t15.5 3h20q25 0 34.5 8t9.5 34v379q0 21 -7 29.5t-25 10.5h-34q-17 0 -17 17v43q0 11 4 14t16 3h235q79 0 139.5 -9t100.5 -31
t60.5 -58.5t20.5 -90.5q0 -49 -19 -85.5t-53.5 -60.5t-82.5 -36t-107 -12h-116zM324 306q93 0 136.5 30.5t43.5 88.5q0 63 -46.5 88.5t-140.5 25.5h-70v-233h77z" />
    <glyph glyph-name="Q.SC" horiz-adv-x="800" 
d="M43 305q0 54 16.5 110.5t57.5 102.5t110 75.5t173 29.5q99 0 167.5 -26.5t111 -71t61 -101.5t18.5 -117q0 -41 -9.5 -84.5t-32 -82.5t-59.5 -72t-92 -53q30 -14 62 -44q17 -17 34 -28.5t34 -11.5q12 0 22.5 3t25.5 9q8 3 11.5 0.5t3.5 -13.5v-49q0 -14 -18 -21
q-30 -14 -76 -14q-42 0 -75.5 17t-72.5 56q-26 23 -52 41t-68 29q-99 1 -166.5 27.5t-109 70.5t-59.5 101t-18 117zM399 542q-69 0 -114.5 -21.5t-72.5 -56t-38 -76.5t-11 -82q0 -37 10 -78.5t37 -76.5t73.5 -58t118.5 -23q70 0 115.5 22t72 56.5t37 76t10.5 80.5
q0 37 -10 78.5t-36.5 76.5t-73 58.5t-118.5 23.5z" />
    <glyph glyph-name="R.SC" horiz-adv-x="673" 
d="M132 497q0 21 -7 29.5t-25 10.5h-34q-17 0 -17 17v43q0 11 4 14t16 3h235q72 0 125 -9t88.5 -30t53 -55.5t17.5 -85.5q0 -70 -38 -112.5t-102 -60.5q32 -17 57.5 -53t58.5 -101q8 -17 17.5 -23t26.5 -6q7 0 14 2.5l21 7.5q15 6 15 -14v-46q0 -10 -3 -14.5t-14 -9.5
q-13 -6 -33.5 -9.5t-42.5 -3.5q-12 0 -26.5 1.5t-29.5 8.5t-29 20.5t-25 37.5q-13 24 -26.5 55.5t-31.5 60.5t-42.5 50t-59.5 23h-48v-130q0 -28 9.5 -35t33.5 -7h22q12 0 15 -3t3 -11v-45q0 -10 -3.5 -13.5t-14.5 -3.5h-244q-11 0 -15 3.5t-4 13.5v45q0 8 3.5 11t15.5 3h20
q25 0 34.5 8t9.5 34v379zM319 323q76 0 112 27.5t36 83.5q0 57 -39.5 81t-115.5 24h-65v-216h72z" />
    <glyph glyph-name="S.SC" horiz-adv-x="608" 
d="M554 480q0 -33 -22.5 -53t-54.5 -20q-30 0 -49.5 18.5t-19.5 50.5q0 27 18 48q-24 11 -54 15t-62 4q-59 0 -95.5 -16t-36.5 -54q0 -37 28 -57t70.5 -33.5t92 -25.5t92 -34t70.5 -58.5t28 -97.5q0 -48 -20.5 -82t-56.5 -55.5t-83.5 -31t-101.5 -9.5q-128 0 -194 35
t-67 107q0 32 21 53t55 21q31 0 51 -19t20 -51q0 -28 -18 -49q25 -10 58 -14t70 -4q32 0 59.5 4.5t48 15t32 27.5t11.5 42q0 31 -16.5 50.5t-43 33t-61 22.5t-70 18.5t-70 21.5t-61 31.5t-43 49t-16.5 73.5q0 85 67 125t181 40q122 0 182.5 -38t60.5 -104z" />
    <glyph glyph-name="T.SC" horiz-adv-x="642" 
d="M198 533q-23 0 -37 -1t-22 -4t-12 -9.5t-7 -18.5l-6 -39q-2 -10 -5.5 -13t-14.5 -3h-48q-12 0 -14.5 3.5t-1.5 14.5l8 118q1 23 7 28t25 5h501q20 0 26 -5t7 -28l8 -119q1 -10 -1 -13.5t-15 -3.5h-47q-11 0 -15.5 3t-6.5 13l-4 40q-2 12 -6.5 18.5t-13.5 9.5t-24 3.5
t-38 0.5h-63v-415q0 -28 10 -35t34 -7h22q12 0 15 -3t3 -11v-45q0 -10 -3.5 -13.5t-14.5 -3.5h-244q-11 0 -15 3.5t-4 13.5v45q0 8 3.5 11t15.5 3h20q22 0 32 7t12 28v422h-66z" />
    <glyph glyph-name="U.SC" horiz-adv-x="797" 
d="M683 235q0 -128 -72 -187t-210 -59q-142 0 -214.5 58.5t-72.5 176.5v271q0 26 -9.5 34.5t-33.5 8.5h-22q-11 0 -14.5 3t-3.5 11v44q0 11 3.5 14.5t14.5 3.5h244q11 0 14.5 -3.5t3.5 -14.5v-44q0 -9 -3 -11.5t-15 -2.5h-23q-23 0 -32 -7t-9 -36v-258q0 -84 44.5 -121.5
t130.5 -37.5q84 0 133 38.5t49 122.5v262q0 23 -9.5 30t-33.5 7h-21q-11 0 -15 3t-4 11v44q0 11 4 14.5t15 3.5h226q11 0 15 -3.5t4 -14.5v-44q0 -9 -3.5 -11.5t-15.5 -2.5h-22q-26 0 -34.5 -6.5t-8.5 -30.5v-266v0z" />
    <glyph glyph-name="V.SC" horiz-adv-x="728" 
d="M378 90l166 410q8 22 0 29.5t-31 9.5h-13q-14 2 -17.5 6t-3.5 12v39q0 11 4.5 14.5t15.5 3.5h205q10 0 14 -3t4 -14v-40q0 -8 -3.5 -13t-14.5 -6l-30 -1q-12 -1 -20 -7.5t-20 -35.5l-197 -488q-4 -8 -7.5 -10.5t-17.5 -2.5h-95q-10 0 -14 2.5t-8 9.5l-201 485
q-6 16 -11 25.5t-10 14t-13 6t-20 1.5l-18 1q-13 0 -17 3.5t-4 11.5v43q0 11 3.5 14.5t16.5 3.5h232q13 0 17 -3t4 -14v-39q0 -8 -4 -12t-17 -6h-12q-28 -2 -34 -11t5 -35z" />
    <glyph glyph-name="W.SC" horiz-adv-x="1031" 
d="M337 102l133 492q4 13 6.5 16.5t13.5 3.5h88q11 0 13.5 -4.5t7.5 -16.5l142 -461l109 365q4 15 5 23t-3.5 12.5t-16 5.5t-32.5 1q-18 0 -18 17v42q0 11 3 13.5t20 2.5h198q10 0 13 -3t3 -14v-39q0 -8 -2.5 -13.5t-13.5 -5.5q-19 0 -30 -1t-18 -5.5t-11.5 -14.5t-9.5 -27
l-147 -474q-5 -16 -10 -20t-20 -4h-78q-14 0 -18.5 7t-7.5 17l-136 441l-118 -441q-5 -16 -9.5 -20t-15.5 -4h-106q-10 0 -15 4.5t-9 19.5l-155 472q-6 17 -10.5 27t-10.5 14.5t-15.5 5.5t-24.5 1q-18 0 -22.5 5t-4.5 20v36q0 10 3.5 13t14.5 3h241q11 0 14 -3.5t3 -12.5
v-43q0 -7 -3 -11t-12 -4q-32 0 -44 -2.5t-12 -15.5q0 -10 6 -29z" />
    </font>
</defs>
</svg>
