<?xml version="1.0" standalone="no"?>
<!DOCTYPE svg PUBLIC "-//W3C//DTD SVG 1.1//EN" "http://www.w3.org/Graphics/SVG/1.1/DTD/svg11.dtd" >
<svg xmlns="http://www.w3.org/2000/svg" xmlns:xlink="http://www.w3.org/1999/xlink" version="1.1">
<metadata>
Created by FontForge 20170731 at Wed Mar 29 18:26:08 2017
 By Aleksey,,,
Copyright (c) 2007 by Kosal Sen. All rights reserved.
</metadata>
<defs>
<font id="Markup" horiz-adv-x="525" >
  <font-face 
    font-family="Markup"
    font-weight="400"
    font-stretch="normal"
    units-per-em="1000"
    panose-1="2 0 0 0 0 0 0 0 0 0"
    ascent="750"
    descent="-250"
    x-height="491"
    cap-height="687"
    bbox="-200 -417 1059 1086"
    underline-thickness="50"
    underline-position="-150"
    unicode-range="U+000D-2122"
  />
<missing-glyph horiz-adv-x="299" 
 />
    <glyph glyph-name=".notdef" horiz-adv-x="299" 
 />
    <glyph glyph-name=".null" horiz-adv-x="0" 
 />
    <glyph glyph-name=".null" horiz-adv-x="0" 
 />
    <glyph glyph-name="nonmarkingreturn" unicode="&#xd;" horiz-adv-x="299" 
 />
    <glyph glyph-name="space" unicode=" " horiz-adv-x="237" 
 />
    <glyph glyph-name="exclam" unicode="!" horiz-adv-x="224" 
d="M65 256q0 80 -4.5 139.5t-10 103t-10 73t-4.5 50.5q0 25 14 45t52 20q24 0 38.5 -13.5t25.5 -50.5q6 -29 10 -60t7 -72t4.5 -96t1.5 -132q0 -25 -5.5 -41t-14.5 -25t-21 -12.5t-25 -3.5q-26 0 -42 18.5t-16 56.5zM48 68q0 31 21.5 52.5t52.5 21.5t52.5 -21.5t21.5 -52.5
t-21.5 -52.5t-52.5 -21.5t-52.5 21.5t-21.5 52.5z" />
    <glyph glyph-name="quotedbl" unicode="&#x22;" horiz-adv-x="365" 
d="M47 458q0 18 -0.5 41t-1 46.5t-1 45.5t-0.5 38q0 23 12.5 41t35.5 18q26 0 43 -11.5t20 -46.5q1 -16 2 -25.5t1.5 -16.5t0.5 -15t-0.5 -21t-0.5 -34v-54q0 -45 -17.5 -59.5t-41.5 -14.5q-23 0 -37.5 17t-14.5 51zM216 458q0 18 -0.5 41t-1 46.5t-1 45.5t-0.5 38
q0 23 12.5 41t35.5 18q26 0 43 -11.5t20 -46.5q1 -16 2 -25.5t1.5 -16.5t0.5 -15t-0.5 -21t-0.5 -34v-54q0 -45 -17.5 -59.5t-41.5 -14.5q-23 0 -37.5 17t-14.5 51z" />
    <glyph glyph-name="numbersign" unicode="#" horiz-adv-x="670" 
d="M96 264q17 -1 33.5 -1h32.5v132h-35.5t-34.5 1q-32 0 -46.5 10t-19.5 25q-7 23 0.5 39t26.5 22q7 2 17 4.5t22 0.5q18 -1 35 -1h34q-2 79 -3 104q0 25 9.5 43.5t41.5 19.5q16 0 25 -3.5t14 -10t7.5 -15.5t4.5 -19q2 -16 3 -47.5t2 -72.5q41 -1 70 -1h59q-1 41 -1.5 68.5
t-1.5 41.5q0 25 9.5 43.5t41.5 19.5q16 0 25 -3.5t14 -10t7.5 -15.5t4.5 -19q2 -17 3 -49.5t2 -75.5q23 1 39.5 1t27.5 1q25 1 43.5 -8.5t19.5 -41.5q0 -16 -3.5 -25t-10 -14t-15.5 -7.5t-19 -4.5q-14 -2 -35 -3.5t-47 -1.5q-1 -32 -1 -63.5v-64.5q25 0 43 0.5t29 1.5
q25 1 43.5 -9t19.5 -42q0 -16 -3.5 -25t-10 -14t-15.5 -7t-19 -4q-14 -2 -37 -3.5t-52 -1.5q-1 -26 -1 -50v-47q-1 -32 -10.5 -46t-24.5 -20q-23 -7 -39 0.5t-23 26.5q-2 7 -4 17t0 22q0 25 0.5 49t0.5 48q-31 0 -64 0.5t-68 1.5q-1 -27 -1 -53v-50q-1 -32 -10.5 -46
t-24.5 -20q-23 -7 -39 0.5t-23 26.5q-2 7 -4 17t0 22q0 27 0.5 53.5t0.5 52.5h-32.5t-32.5 1q-32 0 -46.5 10t-19.5 24q-7 23 0.5 39t26.5 23q7 2 17 4t22 0zM264 262q41 -1 71 -1h60v129l-130 2q-1 -32 -1 -64v-66z" />
    <glyph glyph-name="dollar" unicode="$" horiz-adv-x="602" 
d="M254 691q0 26 13.5 39.5t30 14t31.5 -12t19 -37.5v-41q40 -7 76 -22.5t64 -35.5t44.5 -43.5t16.5 -46.5q0 -20 -16 -35.5t-45 -15.5q-20 0 -35.5 8.5t-31 20t-32.5 24t-41 20.5v-167l55 -22q50 -20 84 -41t55 -42t30.5 -43t9.5 -45q0 -29 -10.5 -57t-37 -52t-71.5 -41
t-115 -23v-70q-4 -22 -16.5 -34t-27.5 -12.5t-29 9.5t-21 31v74q-46 1 -87 7t-71.5 18t-48.5 31t-18 47q0 9 2 19.5t8.5 19.5t18.5 15.5t32 6.5q19 0 33.5 -7t31.5 -16t40 -17.5t59 -11.5v168q-46 16 -85.5 34.5t-69 42.5t-46.5 55.5t-17 73.5q0 34 14 64.5t42 54t68.5 39
t93.5 20.5v34zM451 171q0 16 -28.5 32t-74.5 35v-131q53 7 78 27.5t25 36.5zM176 478q0 -23 20.5 -40.5t57.5 -35.5v130q-38 -7 -58 -23.5t-20 -30.5z" />
    <glyph glyph-name="ampersand" unicode="&#x26;" horiz-adv-x="576" 
d="M325 2q-20 0 -33.5 12.5t-15.5 38.5q-53 3 -98 12.5t-78 28t-51.5 46.5t-18.5 68q0 25 9.5 45.5t24 36.5t31 28t30.5 19.5t23.5 11.5l9.5 4q-34 10 -55.5 40.5t-21.5 73.5q0 32 17.5 56t45.5 40t61.5 25t66.5 12q-2 18 13 36t43 18q20 0 34 -13t14 -43q39 -8 67.5 -21
t47.5 -27t28.5 -28t9.5 -25q0 -22 -13.5 -35t-35.5 -13q-15 0 -26 7.5t-22 17t-24.5 17t-32.5 7.5q2 -22 2.5 -48t1.5 -55q8 -1 16 -1h16q52 0 69.5 -14.5t17.5 -39.5t-19.5 -34t-58.5 -9h-40v-137q16 5 29 11t26 11.5t27.5 9.5t32.5 4t28.5 -11t10.5 -25q0 -35 -40 -66
t-117 -40q-5 -31 -19.5 -41.5t-32.5 -10.5zM283 163v32.5v37.5t-0.5 37t-0.5 31q-30 -4 -54 -14t-41 -22.5t-26 -25t-9 -21.5q0 -15 11 -26t29 -18.5t41.5 -12t49.5 -6.5v8zM279 502q-12 0 -25 -2.5t-23 -8t-16.5 -13t-6.5 -17.5q0 -14 8.5 -24t20.5 -16.5t25 -10t23 -3.5z
" />
    <glyph glyph-name="quotesingle" unicode="'" horiz-adv-x="232" 
d="M67 458q0 18 -0.5 41t-1 46.5t-1 45.5t-0.5 38q0 23 12.5 41t35.5 18q26 0 43 -11.5t20 -46.5q1 -16 2 -25.5t1.5 -16.5t0.5 -15t-0.5 -21t-0.5 -34v-54q0 -45 -17.5 -59.5t-41.5 -14.5q-23 0 -37.5 17t-14.5 51z" />
    <glyph glyph-name="parenleft" unicode="(" horiz-adv-x="270" 
d="M196 672q33 0 45.5 -17t12.5 -41q0 -16 -14.5 -35.5t-32 -54.5t-32 -91.5t-14.5 -145.5q0 -74 13.5 -121t29 -78t29 -50.5t13.5 -39.5q0 -23 -13 -37t-38 -14q-32 0 -59.5 31.5t-47.5 82t-31.5 113t-11.5 124.5t10 128t29 121t47.5 90t64.5 35z" />
    <glyph glyph-name="parenright" unicode=")" horiz-adv-x="306" 
d="M105 668q36 -1 64 -36.5t47.5 -90.5t29.5 -121t10 -128q-1 -61 -12.5 -123.5t-31.5 -113t-47.5 -82t-59.5 -31.5q-25 0 -38 14.5t-13 37.5q0 19 13 38.5t29 50t29.5 77.5t13.5 121q0 60 -6.5 104.5t-17 77.5t-22.5 55.5t-22.5 39t-18 28.5t-7.5 23q0 24 12.5 41t47.5 18z
" />
    <glyph glyph-name="asterisk" unicode="*" horiz-adv-x="245" 
d="M211 496q8 -10 7.5 -22.5t-10.5 -20.5t-23 -7t-21 11q-8 8 -20 23t-19 23h-2l-38 -46q-8 -10 -21 -11t-23 7t-10.5 20.5t7.5 22.5l33 39q-11 7 -26.5 16t-23.5 14q-11 7 -14.5 19t3.5 23t19.5 14t23.5 -4l39 -24q0 13 0.5 27.5t-0.5 22.5q-1 13 8 22.5t22 9.5
q14 -1 22.5 -9.5t8.5 -21.5v-49l33 20q11 7 23.5 4t19.5 -14t3.5 -23t-14.5 -19l-43 -26q8 -10 19 -22.5t17 -18.5z" />
    <glyph glyph-name="plus" unicode="+" horiz-adv-x="538" 
d="M217 120v67t-1 56h-100q-25 0 -41 2.5t-25 8.5t-12.5 15.5t-3.5 23.5q0 26 18.5 40t56.5 14h106q-1 21 -1.5 36t-1 26t-0.5 20v19q0 9 2.5 21t8.5 22.5t15.5 17.5t22.5 7q23 0 38.5 -15t18.5 -47q2 -23 2.5 -48.5t1.5 -56.5q37 1 64.5 2t44.5 1q25 0 47 -9.5t22 -34.5
q0 -29 -12.5 -44.5t-50.5 -16.5l-115 -3v-26.5v-26v-29.5v-37q0 -20 -5 -33t-13.5 -20.5t-18.5 -10.5t-20 -3q-21 0 -34.5 16t-13.5 46z" />
    <glyph glyph-name="comma" unicode="," horiz-adv-x="277" 
d="M148 142q15 0 28.5 -6.5t24 -18t16.5 -27t6 -33.5q0 -28 -8 -52.5t-22 -43t-33.5 -29.5t-43.5 -11q-12 0 -25.5 4t-13.5 24q0 10 5 15.5t11 10t11 9.5t5 14q0 11 -6.5 15t-14.5 8.5t-14.5 14t-6.5 31.5q0 13 5 26.5t15 24t25 17.5t36 7z" />
    <glyph glyph-name="hyphen" unicode="-" horiz-adv-x="535" 
d="M57 244q0 25 17 43t43 19h308q26 0 44 -18t18 -44t-18 -44t-43 -18h-309q-26 0 -43 18t-17 44z" />
    <glyph glyph-name="period" unicode="." horiz-adv-x="250" 
d="M67 65q0 33 22.5 56t55.5 23t56 -23t23 -56t-23 -55.5t-56 -22.5t-55.5 22.5t-22.5 55.5z" />
    <glyph glyph-name="slash" unicode="/" horiz-adv-x="393" 
d="M31 1q43 118 82 231t70.5 206t53 158t27.5 86q17 57 69 57q19 0 30.5 -6.5t17.5 -16t7.5 -21.5t-0.5 -23q-4 -21 -17.5 -65.5t-33.5 -104.5t-45 -130.5t-50.5 -142.5t-50.5 -141t-45 -125q-13 -35 -29.5 -48.5t-34.5 -13.5q-29 0 -45 15.5t-16 38.5q0 18 10 46z" />
    <glyph glyph-name="zero" unicode="0" horiz-adv-x="587" 
d="M20 330q0 71 16 133.5t50 109t85.5 73.5t122.5 27t123 -26.5t86.5 -72t51 -107.5t16.5 -133q0 -78 -15 -141.5t-47.5 -108t-83 -68.5t-121.5 -24t-124 26t-88.5 72t-53.5 107.5t-18 132.5zM154 330q0 -42 8 -81t25.5 -69t46 -48.5t70.5 -18.5q41 0 65.5 21t38 53.5
t17.5 71.5t4 75t-6 76t-22 73t-42.5 55t-68.5 22q-32 0 -57 -22t-42.5 -56t-27 -74.5t-9.5 -77.5z" />
    <glyph glyph-name="one" unicode="1" horiz-adv-x="351" 
d="M208 667q13 0 26 -3.5t23.5 -11.5t17 -21.5t6.5 -33.5q0 -89 -0.5 -216.5t0.5 -307.5q0 -26 -5.5 -43t-15 -26.5t-21.5 -13.5t-25 -4q-28 0 -45.5 20.5t-17.5 59.5q0 48 -0.5 97t-1.5 97.5t-2 94t-2 86.5l-12 -11q-24 -20 -44.5 -17.5t-33 16.5t-14.5 34t11 37q6 7 22 30
t33.5 48.5t31.5 46t16 23.5q8 8 20.5 13.5t32.5 5.5z" />
    <glyph glyph-name="two" unicode="2" horiz-adv-x="580" 
d="M321 674q51 0 92 -13t70.5 -36.5t45 -56.5t15.5 -72q0 -38 -18 -72t-66 -75q-34 -29 -77.5 -66t-82.5 -70q-46 -39 -93 -79q4 -2 15 -3q9 -1 24.5 -1.5t40.5 -0.5q50 0 98.5 4.5t86.5 4.5q19 0 36 -3.5t30 -11t20.5 -19.5t7.5 -29q0 -35 -25 -55t-73 -20t-96.5 1.5
t-113.5 1.5q-32 0 -57.5 -0.5t-46 -1t-37 -1t-31.5 -0.5q-30 0 -53.5 20t-23.5 55q0 16 7 34t38 47q17 16 38.5 34t45.5 37.5t48 39.5t45 39q33 29 64 54.5t54.5 48.5t37.5 44.5t14 44.5q0 29 -25.5 44.5t-61.5 15.5q-42 0 -76 -16.5t-59 -39.5q-10 -9 -20 -20t-21.5 -20
t-24.5 -15t-29 -6q-26 0 -42 15t-16 38q0 16 10 33.5t25.5 34t33.5 31t35 25.5q33 22 83.5 39t107.5 17z" />
    <glyph glyph-name="three" unicode="3" horiz-adv-x="539" 
d="M294 668q40 0 76 -10t63 -28.5t42.5 -46t15.5 -62.5q0 -29 -11.5 -51.5t-28.5 -39t-37 -28t-37.5 -18.5t-28.5 -10l-11 -3q20 -6 52.5 -21t63 -38.5t53 -56t22.5 -75.5q0 -39 -14.5 -73.5t-46 -61t-80.5 -42t-118 -15.5q-43 0 -77.5 5t-63 13.5t-51.5 19.5t-42 24
q-14 9 -24 24.5t-10 32.5q0 7 3.5 17t11.5 18.5t20 14.5t30 6t34 -8.5t36.5 -18t48.5 -18t69 -8.5q65 0 100.5 18.5t35.5 51.5q0 23 -21 45.5t-53.5 40t-71.5 28.5t-76 11q-27 0 -43 9t-16 29t14.5 32t36.5 21q11 4 41 12.5t62 22t57 32t25 43.5q0 22 -19 36t-48 14
q-38 0 -62 -5.5t-42.5 -12.5t-37 -12.5t-45.5 -5.5q-22 0 -34 14t-12 37q0 20 24 37.5t60.5 31t80.5 21t84 7.5z" />
    <glyph glyph-name="four" unicode="4" horiz-adv-x="609" 
d="M440 614q36 0 49 -23t13 -53v-85.5t1 -130.5h40q9 0 17 -5.5t13.5 -14t8.5 -18t3 -18.5t-3 -19t-9 -18.5t-15 -14.5t-21 -6h-32q0 -57 -0.5 -97t-0.5 -68q0 -26 -15 -41t-44 -15t-47 15t-18 41q0 19 0.5 60.5t1.5 101.5q-51 -2 -101 -4.5t-93 -4.5t-75 -3.5t-45 -1.5
q-18 0 -30.5 7.5t-20.5 18.5t-11.5 23.5t-3.5 23.5q0 43 25 67q27 25 51 61t43 75.5t33 78.5t20 69q8 34 24.5 46t39.5 12t38 -13t15 -51q0 -11 -2.5 -31.5t-7.5 -44.5t-12.5 -49t-17.5 -46q-9 -20 -21.5 -41t-23.5 -40q-13 -22 -27 -43q26 1 58 2q27 1 64 2t81 3
q-1 63 -3 120.5t-2 96.5q0 30 13.5 53t49.5 23z" />
    <glyph glyph-name="five" unicode="5" horiz-adv-x="544" 
d="M90 662q34 0 87 -0.5t107 -1t102 -1t72 -0.5q31 0 44.5 -18t13.5 -41t-17.5 -41t-43.5 -18q-33 0 -62 0.5t-61 1t-70.5 1t-90.5 0.5v-151q17 4 39 8q19 3 44.5 6t57.5 3q45 0 83.5 -8t67.5 -26.5t45.5 -49t16.5 -74.5q0 -22 -5 -45t-18 -46t-35.5 -47t-58.5 -48
q-34 -23 -69 -38.5t-68.5 -24.5t-64 -12.5t-55.5 -3.5q-35 0 -57.5 6t-35 15.5t-17.5 22.5t-5 27q0 30 14.5 42.5t38 16.5t53.5 4t62 4q35 4 66.5 19t55.5 34t38 38t14 32q0 30 -19.5 39.5t-43.5 9.5q-27 0 -60 -5t-65 -11t-60.5 -11t-44.5 -5q-15 0 -25 5t-16.5 12t-9 15.5
t-2.5 14.5l-5 287q-1 32 14 47.5t49 15.5z" />
    <glyph glyph-name="six" unicode="6" horiz-adv-x="570" 
d="M364 680q24 0 43 -16t19 -40q0 -12 -4.5 -21t-15.5 -20.5t-31 -26.5t-51 -39q-48 -36 -87 -76t-57 -91q42 26 82 41t90 15q98 0 156 -46.5t58 -129.5q0 -53 -18 -97.5t-53 -76t-85.5 -49t-115.5 -17.5q-62 0 -111.5 19t-83.5 53t-52 80.5t-18 100.5q0 53 15 102t37 90.5
t46.5 73t43.5 49.5t42.5 39.5t49 39.5t51.5 30.5t50 12.5zM339 296q-52 0 -96.5 -21t-71.5 -50q11 -55 44 -86t90 -31q34 0 59.5 11t42.5 28t25.5 37t8.5 37q0 10 -4 23t-15.5 24.5t-31.5 19.5t-51 8z" />
    <glyph glyph-name="seven" unicode="7" horiz-adv-x="442" 
d="M358 668q45 0 67 -24t22 -56q0 -24 -11.5 -47t-30 -52t-41.5 -67t-46 -92q-39 -91 -67.5 -165.5t-38.5 -112.5q-8 -29 -28 -48t-52 -19t-49.5 16t-17.5 48q0 19 10 52t25 72.5t33 81t34 76.5q22 49 44.5 89t40 69.5t28 46t9.5 17.5q-18 0 -54 -2t-76 -4t-78.5 -4
t-62.5 -2q-29 0 -44 17.5t-15 35.5q0 32 19.5 48t45.5 16q46 0 96 1.5t95 3.5t82.5 3.5t60.5 1.5z" />
    <glyph glyph-name="eight" unicode="8" horiz-adv-x="526" 
d="M512 183q0 -51 -21 -88t-55 -61t-78 -35t-89 -11q-47 0 -93 11.5t-83.5 33.5t-60.5 54t-23 73q0 40 20.5 72.5t45 56t46 36.5t24.5 15q-1 0 -19 12t-39.5 34t-39 53.5t-17.5 70.5q0 37 16.5 66t46.5 49t71 30.5t90 10.5t90 -9.5t71 -28.5t46.5 -48.5t16.5 -69.5
q0 -34 -15 -64t-33 -52t-33 -34.5t-15 -11.5q27 -13 50.5 -28.5t41 -35t28 -44.5t10.5 -57zM258 290q-31 -21 -55 -43q-21 -19 -38 -40.5t-17 -40.5q0 -14 10 -27t27 -22.5t40 -15.5t49 -6q53 0 86 18t33 53q0 26 -21 48t-47 39q-30 19 -67 37zM256 401q26 15 47 32
q17 14 32 32.5t15 38.5q0 22 -27.5 41t-69.5 19q-20 0 -37.5 -5.5t-30 -14.5t-19.5 -19.5t-7 -20.5q0 -26 15.5 -45.5t33.5 -32t33 -19z" />
    <glyph glyph-name="nine" unicode="9" horiz-adv-x="483" 
d="M405 681q65 0 65 -56q0 -20 -5.5 -80t-11.5 -142.5t-11.5 -178.5t-5.5 -189q0 -23 -17.5 -39t-50.5 -16q-19 0 -33 7.5t-23 18t-13.5 22.5t-4.5 22q0 28 1 72t3 87q2 49 5 104q-18 -12 -40 -21q-19 -8 -45.5 -14.5t-59.5 -6.5q-35 0 -66 9t-54.5 28.5t-37.5 51t-14 75.5
q0 49 29 89t77.5 68t112 43.5t132.5 15.5q5 8 15 15q8 5 20.5 10t32.5 5zM104 437q0 -26 22 -43t62 -17q27 0 52.5 15t45 40t31.5 56.5t12 64.5q-45 0 -86 -9t-71.5 -24.5t-49 -36.5t-18.5 -46z" />
    <glyph glyph-name="colon" unicode=":" horiz-adv-x="289" 
d="M67 65q0 33 22.5 56t55.5 23t56 -23t23 -56t-23 -55.5t-56 -22.5t-55.5 22.5t-22.5 55.5zM67 418q0 33 22.5 56t55.5 23t56 -23t23 -56t-23 -55.5t-56 -22.5t-55.5 22.5t-22.5 55.5z" />
    <glyph glyph-name="semicolon" unicode=";" horiz-adv-x="279" 
d="M67 398q0 33 22.5 56t55.5 23t56 -23t23 -56t-23 -55.5t-56 -22.5t-55.5 22.5t-22.5 55.5zM148 142q15 0 28.5 -6.5t24 -18t16.5 -27t6 -33.5q0 -28 -8 -52.5t-22 -43t-33.5 -29.5t-43.5 -11q-12 0 -25.5 4t-13.5 24q0 10 5 15.5t11 10t11 9.5t5 14q0 11 -6.5 15
t-14.5 8.5t-14.5 14t-6.5 31.5q0 13 5 26.5t15 24t25 17.5t36 7z" />
    <glyph glyph-name="less" unicode="&#x3c;" horiz-adv-x="551" 
d="M519 555q0 -25 -18 -44t-53 -40q-12 -7 -33.5 -18t-47.5 -24.5t-53.5 -27t-50.5 -24.5t-38.5 -18.5t-17.5 -8.5l21 -7t45.5 -15.5t60.5 -21t65 -23.5t60 -24t45 -22q15 -9 24.5 -22.5t9.5 -39.5q0 -11 -4 -22.5t-11 -20.5t-16 -15t-19 -6q-2 0 -10 2t-16.5 5t-16.5 6
t-10 4q-43 19 -83 36t-82 33.5t-87.5 33.5t-97.5 36q-26 10 -40 20t-21 20.5t-8 22t-1 24.5t12 28.5t41 29.5q41 21 105.5 56.5t168.5 90.5q44 23 73 39t51 16q25 0 39 -20t14 -39z" />
    <glyph glyph-name="equal" unicode="=" horiz-adv-x="641" 
d="M149 249q80 -3 139.5 -0.5t103 6.5t73.5 7.5t51 2.5q25 -1 44.5 -16t18.5 -52q-1 -24 -15 -38t-51 -24q-30 -4 -61 -7.5t-72 -5t-96 -1t-132 3.5q-25 1 -40.5 6.5t-24.5 15t-12 21.5t-3 26q1 26 20 41.5t57 13.5zM156 469q80 -3 139.5 -0.5t103 6.5t73.5 7.5t51 2.5
q25 -1 44.5 -16t18.5 -52q-1 -24 -15 -38t-51 -24q-29 -5 -60.5 -8t-72.5 -4.5t-96 -1t-132 3.5q-25 1 -40.5 6.5t-24.5 15t-12 21.5t-3 26q1 26 20 41.5t57 13.5z" />
    <glyph glyph-name="greater" unicode="&#x3e;" horiz-adv-x="555" 
d="M34 555q0 19 14 39t39 20q22 0 51 -16t73 -39q104 -55 168.5 -90.5t105.5 -56.5q29 -14 41 -29.5t12 -28.5t-1 -24.5t-8 -22t-21 -20.5t-40 -20q-53 -19 -98 -36t-87 -33.5t-82 -33.5t-83 -36q-2 -1 -10 -4t-16.5 -6t-16.5 -5t-10 -2q-10 0 -19 6t-16 15t-11 20.5
t-4 22.5q0 26 9.5 39.5t24.5 22.5q17 10 44.5 22t59.5 24t65 23.5t60.5 21t45.5 15.5l21 7q-2 1 -17.5 8.5t-38.5 18.5t-50 24.5t-53 27t-47.5 24.5t-33.5 18q-35 21 -53 40t-18 44z" />
    <glyph glyph-name="question" unicode="?" horiz-adv-x="500" 
d="M240 569q-39 0 -60.5 -14.5t-36 -32t-28.5 -32t-39 -14.5q-23 0 -36 14t-13 40q0 33 17 61.5t46.5 49.5t68.5 33t83 12q112 0 172 -53t60 -147q0 -47 -20.5 -81t-50.5 -58t-63 -40.5t-57 -29.5q-11 -6 -19.5 -16t-18 -19t-22.5 -16t-33 -7q-23 0 -38.5 13t-15.5 48
q0 22 16 38.5t39.5 30.5t51 26.5t51 27.5t39.5 33.5t16 43.5q0 45 -31 67t-78 22zM130 65q0 33 22.5 56t55.5 23t56 -23t23 -56t-23 -55.5t-56 -22.5t-55.5 22.5t-22.5 55.5z" />
    <glyph glyph-name="at" unicode="@" horiz-adv-x="750" 
d="M444 463q20 0 37 -8t17 -27q0 -9 -2 -16t-5 -16t-5 -22.5t-2 -36.5t3.5 -47t9 -43.5t13 -32t16.5 -12.5q11 0 24 8t23.5 24t17.5 39.5t7 55.5q0 45 -13 83t-37.5 65t-60 42t-80.5 15q-59 0 -106 -22t-80 -58.5t-50.5 -85t-17.5 -101.5t22 -95.5t55 -72t71 -45t70 -15.5
t45.5 -15.5t12 -34.5t-17 -34.5t-42.5 -15.5q-48 0 -106 18t-107.5 57t-83 101.5t-33.5 151.5t30 159t80 118t115 73.5t135 25.5q57 0 111 -19t96 -57.5t68 -97t26 -138.5q0 -56 -18.5 -98.5t-45.5 -70.5t-59 -42t-59 -14t-46 14.5t-31 32t-18 32t-7 14.5q-4 -12 -11 -27
t-18.5 -28.5t-27 -23t-35.5 -9.5q-15 0 -32 5t-31.5 20.5t-24 44t-9.5 75.5t18 85.5t48 65.5t69.5 41.5t81.5 14.5zM386 370q-10 0 -23 -8t-24 -22.5t-19 -33.5t-8 -40t6 -39t24 -18t30.5 25t19 55.5t5.5 55.5t-11 25z" />
    <glyph glyph-name="A" unicode="A" horiz-adv-x="570" 
d="M261 694q29 0 46 -15t26 -43q4 -14 20 -51.5t36.5 -87t42.5 -103.5t39 -100h11q5 0 11 0.5t13 0.5q12 0 27 -7t15 -29q0 -17 -6.5 -27t-15 -15.5t-15.5 -7.5l-7 -2q23 -51 41 -93q15 -37 28 -71t13 -48q0 -27 -17.5 -45t-46.5 -18q-28 0 -45.5 14t-28.5 41
q-5 10 -12.5 29t-17 41.5t-19 46.5t-17 43t-12 31.5l-4.5 12.5l-186 -20l-9 -27q-5 -13 -13 -32t-19 -42q-17 -35 -37 -49t-43 -14q-29 0 -41.5 16t-12.5 43q0 13 7.5 36t20.5 53.5t30 68t36 80.5t34 79.5t26 71t17 68.5t6 72q0 18 5 36t15 32t25 22.5t34 8.5zM279 417
l-58 -147l113 7z" />
    <glyph glyph-name="B" unicode="B" horiz-adv-x="647" 
d="M48 83q0 89 -5 169t-11 143.5t-11 107.5t-5 62q0 35 13 56t38 31.5t60.5 13.5t80.5 3q60 0 120.5 -10.5t108.5 -33t78 -58t30 -86.5q0 -37 -18.5 -70t-43.5 -49q22 -5 49 -15t51 -28t40 -44t16 -63q0 -50 -29.5 -89.5t-92.5 -67t-162.5 -42t-240.5 -14.5q-29 0 -47.5 21
t-18.5 63zM174 282q0 -12 0.5 -31t1 -40t1 -42.5t0.5 -37.5q52 0 108 4.5t102.5 15t76 28t29.5 44.5q0 14 -20.5 24.5t-49 18t-57.5 12t-46 7.5q-20 0 -43 -0.5t-44 -1t-37 -1t-22 -0.5zM168 375q50 0 94 4t76.5 14.5t51 28.5t18.5 47q0 21 -14.5 36t-38 25t-52 15t-55.5 5
q-16 0 -32 -2t-29 -6.5t-21 -12t-8 -19.5q0 -23 2.5 -58t7.5 -77z" />
    <glyph glyph-name="C" unicode="C" horiz-adv-x="624" 
d="M263 668q35 0 66 -8t58 -21t49 -30t38 -34q30 -32 46 -54.5t16 -52.5q0 -26 -16.5 -41t-39.5 -15q-27 0 -48 20.5t-43 45t-50 45t-68 20.5q-18 0 -37.5 -10.5t-35 -31t-25.5 -50.5t-10 -68q0 -64 17 -113.5t44.5 -83.5t62.5 -52t72 -18q36 0 60 9.5t40.5 23.5t25.5 29
t15 27q14 32 29.5 49t47.5 17q15 0 26 -6.5t18 -16.5t10 -22.5t3 -25.5q0 -29 -18.5 -65.5t-54 -68.5t-87 -53.5t-117.5 -21.5q-80 0 -142.5 31t-105.5 84.5t-66 125.5t-23 155q0 44 13 93.5t42.5 91t75.5 69t112 27.5z" />
    <glyph glyph-name="D" unicode="D" horiz-adv-x="648" 
d="M72 76q0 133 -9 222.5t-19.5 147.5t-19 92t-8.5 58q0 13 3.5 27.5t14 27t30.5 20.5t54 8t62.5 -5t62 -22t78 -49.5t110.5 -87.5q56 -47 96 -88t65.5 -79.5t37.5 -75.5t12 -75q0 -39 -13 -78t-49.5 -70t-101.5 -50.5t-169 -19.5q-41 0 -83 4.5t-76.5 15.5t-56 29.5
t-21.5 47.5zM217 133q21 -8 58 -14.5t87 -6.5q22 0 43.5 5.5t38 16t26.5 26.5t10 37q0 26 -14 56t-37 61.5t-53.5 62.5t-63 58.5t-65.5 50.5t-61 38q4 -31 9 -77.5t9.5 -100t8 -109.5t4.5 -104z" />
    <glyph glyph-name="E" unicode="E" horiz-adv-x="589" 
d="M278 646q34 0 57.5 1t41.5 1.5t32.5 1.5t31.5 1q34 0 56.5 -15t22.5 -44q0 -33 -18 -47t-51 -14q-39 0 -80.5 -0.5t-78.5 -1t-67.5 -1t-47.5 -1.5q4 -23 8 -55.5t9 -64.5q19 1 52 4t68 6t66.5 5t47.5 2q37 0 55.5 -13.5t18.5 -43.5t-18.5 -47.5t-63.5 -17.5
q-17 0 -44.5 -1.5t-58 -4t-60.5 -5.5t-52 -5q2 -34 4 -75t3 -83q72 0 119 13t80.5 28t59.5 28t56 13q32 0 43 -16t11 -42q0 -36 -42 -65.5t-105.5 -51t-138 -33.5t-139.5 -12q-46 0 -66 23t-20 59q0 133 -8.5 221t-18.5 145t-18.5 89.5t-8.5 56.5q0 13 3.5 26t12 23.5
t22.5 17t34 6.5z" />
    <glyph glyph-name="F" unicode="F" horiz-adv-x="483" 
d="M69 48q0 133 -8.5 230.5t-18 165.5t-18 110t-8.5 66q0 29 16 38.5t43 9.5q32 0 75.5 -5.5t91.5 -5.5q41 0 77 1.5t71 1.5q34 0 58 -16t24 -48q0 -34 -24 -48.5t-71 -14.5h-36.5t-54.5 0.5t-56 1t-42 1.5q5 -27 9 -59.5t7 -79.5q15 2 37.5 3.5t49.5 2t56 1t56 0.5
q12 0 24 -2t22.5 -8t17 -15.5t6.5 -24.5q0 -34 -20.5 -44t-51.5 -10q-27 0 -55.5 -0.5t-54.5 -2t-47.5 -3t-34.5 -2.5q0 -26 1.5 -60.5t3 -70t3 -67t1.5 -49.5q0 -29 -19.5 -50t-54.5 -21q-29 0 -52 16.5t-23 57.5z" />
    <glyph glyph-name="G" unicode="G" horiz-adv-x="681" 
d="M283 679q55 0 108 -16.5t95 -40.5t67.5 -51t25.5 -49q0 -26 -15 -40.5t-41 -14.5q-28 0 -50.5 13t-46.5 28.5t-52.5 28.5t-69.5 13q-27 0 -51 -15.5t-41.5 -44t-27.5 -68t-10 -87.5q0 -41 9 -78.5t28.5 -66.5t49.5 -46.5t71 -17.5q31 0 57.5 12.5t45.5 31.5t30 42t11 43
q-24 -2 -49 -3q-21 -1 -45 -1.5t-45 -0.5q-26 0 -38 10.5t-12 26.5q0 21 11 37t37 16q66 0 108 2.5t69.5 5t44 5t31.5 2.5q29 0 46.5 -12t17.5 -46q0 -28 -0.5 -46.5t-1.5 -36t-1.5 -38.5t-0.5 -54q0 -28 2.5 -64.5t2.5 -67.5q0 -35 -17.5 -52.5t-46.5 -17.5t-44.5 19
t-15.5 49v37t-0.5 58t-1 58t-1.5 36q-21 -88 -74 -132t-131 -44q-66 0 -121.5 23.5t-95.5 67.5t-62 107t-22 141q0 54 13 114t43.5 110t81 82.5t125.5 32.5z" />
    <glyph glyph-name="H" unicode="H" horiz-adv-x="624" 
d="M70 72q0 133 -8.5 226t-18.5 155t-18.5 99.5t-8.5 61.5q0 13 3.5 26t12 23.5t22.5 17t34 6.5q26 0 46.5 -21t31.5 -63q8 -34 16 -88.5t14 -127.5q13 1 42 2t63 2.5t68.5 3t59.5 1.5q-3 48 -6 84.5t-6 64.5t-5 47.5t-2 34.5q0 27 15.5 48.5t55.5 21.5q22 0 36 -6.5
t22.5 -17.5t11.5 -26t4 -31q1 -17 4.5 -71.5t7.5 -131t7.5 -167.5t3.5 -181q0 -27 -5.5 -43.5t-15 -25t-22 -11.5t-26.5 -3q-30 0 -52.5 21.5t-22.5 60.5q0 15 0.5 32t0.5 34v33.5v28.5v52t-1 48q-25 0 -58 -1t-65.5 -2t-61.5 -3t-46 -3q2 -47 3.5 -97t1.5 -106
q0 -28 -6 -45.5t-16 -28t-23 -14.5t-27 -4q-29 0 -47.5 21t-18.5 63z" />
    <glyph glyph-name="I" unicode="I" horiz-adv-x="240" 
d="M70 72q0 133 -8.5 226t-18.5 155t-18.5 99.5t-8.5 61.5q0 13 3.5 26t12 23.5t22.5 17t34 6.5q57 0 78 -84q15 -65 28 -198t14 -325q0 -28 -6 -45.5t-16 -28t-23 -14.5t-27 -4q-29 0 -47.5 21t-18.5 63z" />
    <glyph glyph-name="J" unicode="J" horiz-adv-x="519" 
d="M77 320q32 0 53.5 -19.5t34.5 -72.5q6 -25 16 -47.5t25 -39t35.5 -26t46.5 -9.5q18 0 28 8t15.5 19.5t7 24.5t1.5 24q0 29 -4.5 69t-10.5 84t-14 88t-14 81t-10.5 63t-4.5 34q0 38 18.5 57.5t47.5 19.5q15 0 27.5 -4t23 -15t18 -31.5t13.5 -54.5q6 -37 15.5 -87.5
t18.5 -104.5t15 -106t6 -91q0 -48 -14 -85t-39.5 -62.5t-60.5 -38.5t-78 -13q-44 0 -84.5 10.5t-75 35t-61 64.5t-43.5 99q-3 11 -5.5 23.5t-2.5 25.5q0 29 12 51.5t44 25.5z" />
    <glyph glyph-name="K" unicode="K" horiz-adv-x="648" 
d="M534 639q31 0 43.5 -18t12.5 -39q0 -15 -9 -31.5t-24 -34t-34.5 -36.5t-40.5 -38q-57 -51 -95.5 -84.5t-64.5 -50.5q12 -7 35.5 -21t52.5 -31t61 -36t61.5 -36.5t54 -32.5t38.5 -23q27 -17 45 -34t18 -41t-16.5 -41t-43.5 -17q-34 0 -55.5 8.5t-48.5 28.5
q-18 13 -58 38.5t-87.5 56l-95 61t-79.5 53.5q2 -38 3 -84.5t1 -89.5q0 -28 -6 -45.5t-16 -28t-23 -14.5t-27 -4q-29 0 -47.5 21t-18.5 63q0 133 -8.5 226t-18.5 155t-18.5 99.5t-8.5 61.5q0 13 3.5 26t12 23.5t22.5 17t34 6.5q28 0 45.5 -17.5t28.5 -54.5t18 -94t14 -135
q47 31 102.5 77t106.5 102q32 36 62.5 62t68.5 26z" />
    <glyph glyph-name="L" unicode="L" horiz-adv-x="515" 
d="M70 72q0 133 -8.5 226t-18.5 155t-18.5 99.5t-8.5 61.5q0 13 3.5 26t12 23.5t22.5 17t34 6.5q57 0 78 -84q14 -62 26.5 -181.5t14.5 -296.5q56 3 99.5 10.5t76 15t55 13.5t37.5 6q29 0 50.5 -14t21.5 -44t-19.5 -47t-57.5 -27q-27 -7 -71 -15t-91 -15t-89 -12t-64 -6
q-5 -1 -9.5 -1.5t-9.5 -0.5q-29 0 -47.5 21t-18.5 63z" />
    <glyph glyph-name="M" unicode="M" horiz-adv-x="758" 
d="M114 647q23 0 38 -8t25.5 -22t19 -32t18.5 -39t23.5 -47.5t28.5 -56t30 -60t30 -58.5q33 -67 70 -137q25 92 46 172q9 34 18 68.5t17.5 65t15 54.5t10.5 38q8 26 14 47t16 36t25.5 23t42.5 8q36 0 57.5 -27.5t21.5 -73.5q0 -114 9 -206.5t20 -163.5t20 -120t9 -77
q0 -24 -7.5 -38.5t-18 -22.5t-23 -10.5t-22.5 -2.5q-21 0 -38 11.5t-27 40.5q-3 8 -6 31t-6 55.5t-6.5 71.5t-6.5 78q-7 92 -15 205q-23 -90 -42 -166q-8 -32 -16.5 -64.5t-15 -60.5t-12 -49t-7.5 -30q-9 -39 -28 -51.5t-36 -12.5t-32 7t-26 24q-3 4 -12 22l-22 44
t-28.5 58.5t-30.5 65.5q-36 77 -80 173q0 -63 1 -123q1 -51 1.5 -106.5t0.5 -94.5q0 -46 -15 -68.5t-56 -22.5q-27 0 -48.5 20.5t-21.5 66.5q0 39 2 75.5t2 71.5v56.5v71.5t-0.5 77t-0.5 72v56v29q0 20 20 38t54 18z" />
    <glyph glyph-name="N" unicode="N" horiz-adv-x="640" 
d="M120 644q18 0 33 -11t28.5 -28t25.5 -38t24 -41q34 -58 76 -122.5t79 -118.5q43 -63 87 -125q-13 114 -23 211q-4 41 -8 83t-7 78t-5 64t-2 42q0 37 21.5 57.5t47.5 20.5q36 0 57 -21t21 -67q0 -51 4.5 -126t10 -157t10 -161t4.5 -138q0 -40 -19.5 -57t-48.5 -17
q-17 0 -37 8.5t-42 36.5q-18 22 -39 50t-43.5 58.5t-45 62t-43.5 60.5q-49 69 -100 141q2 -61 4 -118q2 -49 3.5 -102.5t1.5 -92.5q0 -50 -18 -70t-59 -20q-27 0 -47 21t-20 67q0 39 2.5 85.5t2.5 103.5q0 22 -1 53t-2.5 64t-3 66.5t-3 61t-2.5 47.5t-1 26q0 26 21.5 44.5
t55.5 18.5z" />
    <glyph glyph-name="O" unicode="O" horiz-adv-x="633" 
d="M8 312q0 71 21 128.5t60 98.5t95.5 63.5t127.5 22.5t128 -21.5t96.5 -62t61 -97.5t21.5 -128t-20 -130.5t-58 -103t-93 -68t-126 -24.5t-129 23.5t-99 66.5t-63.5 102t-22.5 130zM158 312q0 -83 40.5 -134t123.5 -51q42 0 70 16t45.5 42.5t25 60.5t7.5 70t-9.5 69.5
t-29.5 59.5t-50.5 41.5t-72.5 15.5q-32 0 -59 -16t-47.5 -42t-32 -60.5t-11.5 -71.5z" />
    <glyph glyph-name="P" unicode="P" horiz-adv-x="569" 
d="M92 657q93 0 177 -4.5t147 -25t100 -61.5t37 -113q0 -45 -20 -79.5t-52 -59.5t-72 -41.5t-79 -27.5t-73.5 -16.5t-56.5 -7.5q3 -68 3 -142q0 -26 -5.5 -43t-14.5 -27t-21 -13.5t-25 -3.5q-28 0 -49.5 20t-21.5 59q0 127 -8 214.5t-17 147t-17 95t-8 58.5q0 24 17 47
t56 23h3v1zM192 354q22 0 59.5 4t74.5 14.5t64 30t27 52.5q0 27 -21 43.5t-51.5 25.5t-66 12t-65.5 3q-14 0 -24 -0.5t-19 -0.5q6 -35 11.5 -80.5t10.5 -103.5z" />
    <glyph glyph-name="Q" unicode="Q" horiz-adv-x="647" 
d="M20 312q0 71 19.5 135t57 112.5t92 77t125.5 28.5t129 -27t99.5 -73.5t64 -109t22.5 -133.5q0 -66 -15.5 -124.5t-50.5 -105.5q26 -29 44.5 -53t18.5 -47q0 -18 -13 -37t-45 -19q-19 0 -41 14.5t-52 47.5l-4 4l-4 4q-27 -12 -57.5 -19t-65.5 -7q-71 0 -130.5 25.5
t-102.5 70t-67 105t-24 131.5zM340 306q16 0 31 -9.5t30.5 -25t32 -36.5t35.5 -45q11 27 16 63.5t5 68.5q0 42 -12.5 80t-36 67.5t-56.5 47t-75 17.5q-32 0 -59.5 -19t-48 -50.5t-32.5 -71t-12 -81.5t13 -80t36.5 -67t57 -46t75.5 -17q11 0 25.5 2.5t23.5 4.5
q-17 20 -33.5 40t-30.5 37t-23.5 31.5t-10.5 23.5q-1 5 -1.5 8.5t-0.5 8.5q0 20 11 34t40 14z" />
    <glyph glyph-name="R" unicode="R" horiz-adv-x="591" 
d="M223 667q63 0 120.5 -10t100.5 -33.5t68.5 -61t25.5 -92.5q0 -38 -16 -66t-43 -48.5t-63 -34.5t-75 -24q27 -17 63.5 -39t71.5 -43.5t65 -40.5t45 -28q27 -17 45 -34t18 -41t-16.5 -40t-43.5 -16q-34 0 -58 9t-55 27q-18 10 -54.5 32.5t-79.5 50t-87 56t-78 51.5h-2
q2 -34 2.5 -79t0.5 -83q0 -26 -5.5 -43t-14.5 -27t-21 -13.5t-25 -3.5q-28 0 -49.5 20t-21.5 59q0 96 -4 163.5t-8.5 114t-8.5 77t-4 53.5q0 96 52 142t155 46zM167 354q34 0 73 8t73 23t56.5 37t22.5 51q0 30 -32 54.5t-105 24.5q-36 0 -55.5 -10t-28.5 -24t-10.5 -29.5
t-1.5 -27.5q0 -17 4 -46.5t4 -60.5z" />
    <glyph glyph-name="S" unicode="S" horiz-adv-x="588" 
d="M285 659q47 0 92.5 -14t81.5 -36t58 -49t22 -54q0 -20 -16 -35.5t-45 -15.5q-24 0 -42.5 12.5t-38.5 28t-46 28t-65 12.5q-30 0 -50 -5.5t-31.5 -14.5t-16 -19t-4.5 -19q0 -20 10.5 -35t35.5 -30.5t64.5 -33t98.5 -40.5q100 -41 142.5 -89t42.5 -102q0 -16 -3 -35.5
t-12 -39t-26.5 -38.5t-47 -33.5t-72.5 -23t-103 -8.5q-51 0 -103 8.5t-95 24.5t-70 39.5t-27 53.5q0 9 2 19.5t8.5 19.5t18.5 15.5t32 6.5q22 0 44 -10t50 -22.5t64 -22.5t86 -10q54 0 81.5 16.5t27.5 35.5q0 29 -47.5 61t-140.5 65q-46 16 -84.5 33t-66 40t-43 55.5
t-15.5 79.5q0 37 15.5 70t46 58t77.5 39t110 14z" />
    <glyph glyph-name="T" unicode="T" horiz-adv-x="477" 
d="M168 72q0 178 -6.5 290.5t-11.5 178.5q-37 1 -72 1.5t-51 2.5q-23 2 -37.5 9t-23 16.5t-12 21t-3.5 21.5q0 29 22.5 39t55.5 10q63 -6 106.5 -8t81.5 -2q47 0 77.5 2.5t51.5 5.5t34.5 5.5t27.5 2.5q12 0 24 -3t22.5 -9.5t17 -17.5t6.5 -26q0 -23 -12 -36.5t-35 -21.5
t-56.5 -11t-77.5 -3q8 -80 9 -198.5t1 -261.5q0 -28 -6 -45.5t-16 -28t-23.5 -14.5t-27.5 -4q-29 0 -47.5 21t-18.5 63z" />
    <glyph glyph-name="U" unicode="U" horiz-adv-x="588" 
d="M132 675q11 0 24 -3t24 -9.5t18 -16t7 -22.5t-5.5 -50t-12.5 -84.5t-12.5 -99t-5.5 -93.5q0 -32 7 -64.5t23 -58.5t43 -43t66 -17q35 0 58 15.5t36.5 41t18.5 58.5t5 68q0 40 -7 81t-15.5 78t-15.5 68t-7 51t7 33.5t18 21.5t23.5 11.5t23.5 3.5q19 0 37 -11.5t26 -37.5
q9 -32 18.5 -73.5t17 -84.5t12 -83.5t4.5 -68.5q0 -54 -13 -107t-43 -94.5t-80 -67.5t-124 -26q-75 0 -129 23t-89 63.5t-52 97t-17 122.5q0 39 4.5 84t11 90t13.5 86t12 72q3 17 24 31.5t46 14.5z" />
    <glyph glyph-name="V" unicode="V" horiz-adv-x="591" 
d="M59 646q28 0 49 -19.5t44 -58.5q6 -10 16 -30.5t22.5 -46.5t27 -56.5t28.5 -60.5q33 -70 71 -154q26 97 51 181q10 36 21.5 72t23 68.5t21.5 58t19 40.5q10 17 25 27.5t43 10.5q12 0 24.5 -4.5t22.5 -12t16.5 -18t6.5 -21.5q0 -3 -2.5 -11.5t-6 -18t-6.5 -18t-4 -11.5
q-21 -48 -42.5 -109.5t-42.5 -128t-41 -134t-38 -126.5q-8 -28 -19 -43.5t-23.5 -23t-26.5 -9t-28 -1.5q-6 0 -14.5 1.5t-17 7t-17 17t-15.5 32.5q-8 24 -28 68.5t-46 100t-57 117t-61 118.5q-26 49 -43.5 81t-17.5 57q0 13 6.5 24t16 18.5t21 11.5t21.5 4z" />
    <glyph glyph-name="W" unicode="W" horiz-adv-x="822" 
d="M244 198q21 72 40 136q8 27 16.5 55.5t16 54t13.5 46.5l10 35q7 27 16 43.5t19 25.5t20 12t20 3q19 0 33.5 -11t25.5 -30q4 -7 15.5 -39t26.5 -76t32 -93t31.5 -92t24 -73t11.5 -34q0 2 2 34l5 80t6.5 105t7.5 109.5t6.5 92.5t4.5 54q5 43 25.5 60t49.5 17q28 0 45.5 -23
t17.5 -57q0 -9 -2.5 -38t-7 -71t-10.5 -93t-12.5 -104t-12.5 -103.5t-11 -91t-9 -68t-5 -33.5q-3 -12 -8.5 -25t-14.5 -23.5t-21.5 -17t-28.5 -6.5q-32 0 -53 14t-33 37q-4 7 -17 40.5t-30.5 79.5t-36 97t-34.5 94t-26.5 71t-10.5 27t-6.5 -22.5t-16.5 -55t-22.5 -74.5
t-24.5 -80.5t-22.5 -72.5t-15.5 -51t-11 -31.5t-14.5 -23t-20.5 -14.5t-30 -5q-29 0 -45.5 21.5t-24.5 46.5q-4 12 -9.5 37t-12 58t-14.5 71t-17 77q-9 37 -19.5 79t-20 81t-16 71.5t-6.5 50.5q0 37 20 53.5t42 16.5q25 0 45 -12t30 -39q2 -7 6.5 -28t10.5 -50.5t12.5 -65
t12.5 -71.5q15 -84 33 -188z" />
    <glyph glyph-name="X" unicode="X" horiz-adv-x="619" 
d="M450 609q14 20 32 30.5t50 10.5q23 0 39.5 -15.5t16.5 -45.5q0 -23 -22 -53.5t-53.5 -64.5t-66 -69.5t-59.5 -67.5q62 -70 105 -116t69.5 -76t38.5 -46.5t12 -28.5q0 -11 -2 -21t-8 -18t-17.5 -13t-31.5 -5t-44 17t-53.5 47.5t-65 72t-78.5 90.5q-15 -17 -35.5 -41
t-42 -49t-41 -49t-32.5 -41q-24 -32 -51.5 -52t-50.5 -20q-28 0 -45 14.5t-17 43.5q0 21 19 49.5t51 64.5t73.5 80.5t87.5 96.5q-45 55 -82.5 93t-64.5 66.5t-42 50.5t-15 45q0 27 15.5 42.5t50.5 15.5q17 0 45.5 -24.5t60.5 -59.5t63 -73t54 -64q36 45 69.5 89t67.5 94z
" />
    <glyph glyph-name="Y" unicode="Y" horiz-adv-x="522" 
d="M189 71q0 34 -0.5 55t-1.5 35.5t-2.5 25t-2.5 25.5q-8 23 -22.5 50t-31.5 55.5t-34.5 58t-32.5 56.5q-26 49 -44.5 81t-18.5 57q0 27 17.5 42.5t37.5 15.5q14 0 24.5 -3.5t20 -11.5t19 -21.5t21.5 -32.5q11 -20 30.5 -52.5t38.5 -64.5q22 -37 46 -77q31 48 59 95
q24 40 49 83t40 73q8 17 24.5 32t43.5 15q22 0 40 -14t18 -34q0 -8 -2.5 -17t-6 -17t-6.5 -14.5t-4 -9.5q-22 -49 -44.5 -87.5t-46 -75.5t-48 -78t-48.5 -96q2 -27 4 -63.5t2 -77.5q0 -28 -6 -45.5t-16 -28t-23 -14.5t-27 -4q-29 0 -47.5 21t-18.5 63z" />
    <glyph glyph-name="Z" unicode="Z" horiz-adv-x="608" 
d="M234 622q44 0 71.5 0.5t50.5 0.5t47 0.5t62 0.5q30 0 50 -7t32 -18t17 -25t5 -28q0 -18 -5 -31t-14 -24t-21 -22t-26 -24q-33 -32 -81.5 -76t-98.5 -89.5t-94 -87t-68 -69.5q36 0 77.5 1.5t84.5 3t84 3t75 1.5q55 0 81 -18.5t26 -44.5q0 -34 -21.5 -51.5t-75.5 -17.5
q-26 0 -38.5 0.5t-26.5 0.5t-37 0.5t-70 0.5q-59 0 -101.5 -1.5t-85.5 -1.5q-30 0 -53.5 9t-40 23t-25 32t-8.5 36q0 9 2 20.5t8 25t17 28.5t30 33q13 12 34.5 32t47 44t54 50t56.5 52q65 60 139 127q-57 -2 -107 -4q-44 -2 -87.5 -2.5t-69.5 -0.5q-48 0 -74 11t-26 41
q0 27 17 48t57 21h28t13 -0.5t7 -1t11 -1t24 -0.5h47z" />
    <glyph glyph-name="bracketleft" unicode="[" horiz-adv-x="443" 
d="M357 621q25 -2 38 -19.5t12.5 -38t-13.5 -38t-39 -18.5h-138l-2 -692h142q25 -2 38 -19.5t12.5 -38t-13.5 -38t-39 -18.5h-225q-18 5 -27 13.5t-15 26.5l3 826q0 44 44 54h222v0z" />
    <glyph glyph-name="backslash" unicode="\" horiz-adv-x="411" 
d="M383 1q10 -28 10 -46q0 -23 -16 -38.5t-45 -15.5q-18 0 -34.5 13.5t-29.5 48.5q-20 56 -45 125t-50.5 141t-50.5 142.5t-45 130.5t-34 104.5t-17 65.5q-2 11 -1 23t7 21.5t18 16t31 6.5q52 0 69 -57q6 -21 27.5 -86t53 -158t70.5 -206t82 -231z" />
    <glyph glyph-name="bracketright" unicode="]" horiz-adv-x="409" 
d="M298 621q44 -10 44 -54l3 -826q-6 -18 -15 -26.5t-27 -13.5h-225q-26 1 -39 18.5t-13.5 38t12 38t38.5 19.5h142l-2 692h-138q-26 1 -39 18.5t-13.5 38t12 38t38.5 19.5h222z" />
    <glyph glyph-name="asciicircum" unicode="^" horiz-adv-x="544" 
d="M554 416q15 -21 15 -41q0 -24 -17.5 -39.5t-42.5 -15.5q-21 0 -45 15q-10 6 -25.5 21t-34 33.5l-38.5 38.5t-38 36.5t-33.5 27t-24.5 10.5q-15 0 -43.5 -22.5t-59 -52t-58.5 -57t-43 -36.5q-20 -13 -41 -13q-25 0 -43 16.5t-18 40.5q0 11 5 23.5t17 24.5q39 38 79 74
q34 31 72 65t70 60q13 10 29.5 15.5t33.5 5.5t33.5 -5.5t28.5 -15.5q32 -28 71 -64t73 -68q40 -38 78 -77z" />
    <glyph glyph-name="underscore" unicode="_" horiz-adv-x="557" 
d="M2 -152q0 25 17 43t43 19h436q26 0 44 -18t18 -44t-18 -44t-43 -18h-437q-26 0 -43 18t-17 44z" />
    <glyph glyph-name="grave" unicode="`" horiz-adv-x="297" 
d="M280 531q-5 -10 -21.5 -11t-38.5 3.5t-47 13t-47.5 17.5t-40 17t-24.5 11q-24 11 -33.5 33t-1.5 42q11 20 35 26t46 -8q7 -4 24 -13.5t38 -22t43 -27.5t39 -29.5t25.5 -28t3.5 -23.5z" />
    <glyph glyph-name="a" unicode="a" 
d="M409 28q-8 19 -21 49.5t-27 69.5q-12 -28 -31.5 -57t-45.5 -53t-58.5 -39t-71.5 -15t-66.5 15t-44.5 42t-25 64t-8 82q0 52 19.5 109.5t52.5 106t76.5 80.5t91.5 32q69 0 110.5 -36t58.5 -113q20 -88 41 -157t41 -117l13.5 -31.5t7.5 -31.5q0 -17 -12 -30t-38 -13
q-27 0 -41 12.5t-22 30.5zM174 97q18 0 41.5 15t45 41.5t36.5 63.5t15 82q0 44 -17 71.5t-47 27.5q-17 0 -39 -16.5t-41.5 -45.5t-33 -68.5t-13.5 -86.5q0 -15 2 -30t8 -27t16 -19.5t27 -7.5z" />
    <glyph glyph-name="b" unicode="b" horiz-adv-x="534" 
d="M66 71q0 125 -8 218t-17 158.5t-17 106.5t-8 63q0 12 3.5 24.5t11.5 22.5t20.5 16.5t31.5 6.5q55 0 73 -80q6 -26 12 -59.5t11 -91.5v-2q34 26 74.5 40t97.5 12q37 -2 68.5 -17.5t53.5 -41.5t33.5 -61t9.5 -77q-3 -60 -27.5 -117.5t-72.5 -102t-120 -71.5t-170 -27
q-27 2 -43.5 22t-16.5 58zM197 114q44 4 78.5 20.5t59 41.5t38 56t15.5 63q5 91 -66 96q-24 1 -47 -6t-41.5 -21t-31 -34.5t-13.5 -46.5q-2 -45 0.5 -86t7.5 -83z" />
    <glyph glyph-name="c" unicode="c" horiz-adv-x="485" 
d="M189 505q48 0 95.5 -16.5t79.5 -44.5q26 -23 46 -50.5t20 -47.5q0 -8 -1.5 -18t-8 -19t-19.5 -15t-35 -6q-23 0 -39 15.5t-34 34t-40.5 34t-58.5 15.5q-59 0 -59 -87q0 -30 13.5 -65.5t35.5 -66t51 -51t59 -20.5q35 0 54 18.5t27 36.5q11 24 23.5 36.5t36.5 12.5
t35.5 -18t11.5 -38q0 -19 -11 -45.5t-34.5 -51t-60 -41.5t-87.5 -17q-61 0 -112.5 25t-88.5 68t-57.5 100t-20.5 121q0 34 9 69.5t30 64.5t55 48t85 19z" />
    <glyph glyph-name="d" unicode="d" horiz-adv-x="521" 
d="M305 624q-2 13 1.5 27t12 25t21.5 18t30 7q35 0 51 -20t18 -45q3 -45 6 -100.5t8.5 -116.5t14 -126t22.5 -130q3 -12 9 -29t12.5 -34.5t11.5 -34t5 -28.5q0 -32 -19.5 -47t-50.5 -15q-24 0 -40 14.5t-26.5 35.5t-18 45.5t-13.5 44.5q-11 -21 -27.5 -44t-38.5 -42.5
t-48.5 -32t-57.5 -12.5q-48 0 -81 14t-53 38.5t-29 59.5t-9 77q0 63 23.5 119.5t64 101.5t94.5 77t115 47q-1 17 -3 46.5t-5 59.5zM193 89q21 0 41.5 13t38.5 34t33 48.5t25 56.5q-1 29 -5.5 70.5t-12.5 97.5q-36 -8 -69 -29.5t-58.5 -51.5t-40.5 -67t-15 -76q0 -15 2 -32
t9 -31t19.5 -23.5t32.5 -9.5z" />
    <glyph glyph-name="e" unicode="e" horiz-adv-x="504" 
d="M289 94q33 0 53 14t36.5 31.5t32 31.5t39.5 14q44 0 44 -43q0 -24 -17 -50.5t-46.5 -48.5t-70 -36.5t-87.5 -14.5q-48 0 -95.5 16.5t-84.5 50.5t-60 85t-23 119q0 49 14.5 93t40.5 77.5t62.5 53t81.5 19.5q58 0 103.5 -20t77 -51.5t48 -70.5t16.5 -76q0 -22 -11 -37.5
t-41 -17.5q-23 -2 -58 -5t-72.5 -5.5t-74 -4.5t-63.5 -2q9 -52 46.5 -87t108.5 -35zM331 310q-11 25 -27 44q-14 17 -35.5 31t-50.5 14q-23 0 -39 -8.5t-26.5 -23t-16 -32t-6.5 -35.5z" />
    <glyph glyph-name="f" unicode="f" horiz-adv-x="421" 
d="M98 348q-21 76 -28.5 128.5t-7.5 77.5q0 49 26.5 80.5t85.5 31.5q40 0 82.5 -15.5t77.5 -39.5t58 -52.5t23 -54.5t-12.5 -35t-36.5 -9q-17 0 -36 14.5t-39 32.5t-40.5 32.5t-40.5 14.5q-16 0 -16 -22q0 -17 8.5 -60t23.5 -114l132 11q21 0 30 -11.5t9 -28.5q0 -20 -8 -29
t-26 -14t-47 -8t-71 -10l4 -18q6 -25 11.5 -59t10.5 -67t8 -60t3 -38q0 -41 -14.5 -58t-44.5 -17q-26 0 -39 23.5t-22 64t-17.5 94.5t-25.5 115q-16 -2 -28 -3t-20 -1q-32 0 -46.5 14.5t-14.5 33.5t15.5 35.5t38.5 18.5z" />
    <glyph glyph-name="g" unicode="g" horiz-adv-x="544" 
d="M510 191q0 -79 9 -150.5t9 -145.5q0 -52 -14 -87.5t-40 -57.5t-62 -31.5t-80 -9.5q-46 0 -86.5 8t-75 21.5t-63.5 31.5t-51 37q-15 13 -29.5 29.5t-14.5 35.5q0 30 15 48t47 18q15 0 31 -7.5t32 -18t31 -23t28 -21.5q28 -20 57.5 -29.5t59.5 -9.5q45 0 65 27.5t20 72.5
q0 10 -0.5 20.5t-1.5 23.5t-2.5 30t-3.5 41q-30 -26 -72.5 -38.5t-92.5 -12.5q-97 0 -144 51t-47 141q0 53 25.5 109t69.5 102t103 75.5t126 29.5q0 8 4.5 16.5t14 16t25.5 12.5t39 5q35 0 53 -19.5t18 -53.5q0 -24 -0.5 -46t-0.5 -53t-0.5 -75.5t-0.5 -112.5zM371 348
q0 23 -14 33t-36 10q-25 0 -54 -19t-54 -47.5t-41.5 -62.5t-16.5 -64q0 -44 20.5 -69.5t53.5 -25.5q38 0 77 16.5t71 48.5q0 15 -1 40t-2 51t-2 50.5t-1 38.5z" />
    <glyph glyph-name="h" unicode="h" horiz-adv-x="539" 
d="M70 68q0 133 -8.5 230t-18.5 164t-18.5 108.5t-8.5 65.5q0 13 3.5 26t12 23.5t22.5 17t34 6.5q23 0 39 -16.5t27.5 -52t18.5 -92t13 -135.5q8 18 23 37t35 34t44 24.5t49 9.5q29 0 60.5 -10.5t57 -37.5t42 -73t16.5 -116q0 -73 -7 -132.5t-13 -97.5q-5 -32 -24 -48.5
t-48 -16.5q-26 0 -42.5 19t-16.5 45t3 50t6 50.5t6 56t3 66.5q0 50 -16 83t-52 33q-33 0 -53 -31.5t-31.5 -78.5t-15.5 -102t-4 -101q0 -28 -6 -45.5t-16 -28t-23 -14.5t-27 -4q-29 0 -47.5 21t-18.5 63z" />
    <glyph glyph-name="i" unicode="i" horiz-adv-x="240" 
d="M129 465q6 0 15 -2t17 -7.5t13.5 -13.5t5.5 -20q0 -33 -3.5 -68.5t-3.5 -58.5q0 -41 3.5 -71.5t7.5 -57t7.5 -53.5t3.5 -61q0 -15 -3 -28t-10.5 -22.5t-21.5 -15.5t-36 -6q-29 0 -46 28.5t-25.5 70t-10.5 87.5t-2 81q0 62 2.5 103.5t11.5 67t26.5 36.5t48.5 11zM43 577
q0 33 22.5 56t55.5 23t56 -23t23 -56t-23 -55.5t-56 -22.5t-55.5 22.5t-22.5 55.5z" />
    <glyph glyph-name="j" unicode="j" horiz-adv-x="282" 
d="M211 377q0 -42 3.5 -78t8 -78t8 -94.5t3.5 -126.5q0 -53 -19.5 -96t-51 -73t-70 -46.5t-76.5 -16.5q-33 0 -56.5 3.5t-42.5 10.5t-34 15.5t-30 19.5q-18 13 -36 31t-18 45q0 23 15 37.5t39 14.5q23 0 40.5 -11.5t37.5 -23.5q14 -8 29 -14t37 -6q45 0 69.5 29.5t24.5 85.5
q0 67 -4.5 116.5t-10.5 91t-10.5 80t-4.5 83.5q0 49 20.5 68.5t51.5 19.5q40 0 58.5 -24.5t18.5 -62.5zM139 654q17 -2 29.5 -9t20.5 -17.5t12 -22.5t4 -24q0 -15 -2.5 -30t-10 -26.5t-21 -18.5t-35.5 -7q-48 0 -65 19.5t-17 49.5q0 40 17.5 63t67.5 23z" />
    <glyph glyph-name="k" unicode="k" horiz-adv-x="520" 
d="M85 713q35 0 52 -22.5t21 -53.5q2 -16 6.5 -52.5t9 -81t9 -91.5t6.5 -84q46 31 82 66.5t64.5 66.5t51.5 51.5t44 20.5q27 0 39.5 -14.5t12.5 -38.5q0 -15 -17.5 -38.5t-44.5 -51t-60.5 -55.5t-65.5 -52l25.5 -20.5t63 -49.5t80.5 -60.5t76 -55.5q16 -11 28 -24.5
t12 -33.5q0 -24 -13 -37.5t-43 -13.5q-22 0 -53 20t-72.5 52.5t-93 74.5t-113.5 87q0 -18 1.5 -46t2.5 -56.5t-0.5 -53t-6.5 -36.5q-10 -23 -25.5 -33t-44.5 -10t-44.5 22t-15.5 64v131q0 75 -6.5 143.5t-15 125t-15 97t-6.5 60.5q0 40 17 61.5t52 21.5z" />
    <glyph glyph-name="l" unicode="l" horiz-adv-x="225" 
d="M66 58q0 125 -8 223t-17 169.5t-17 118t-8 68.5q0 12 3.5 24.5t11.5 22.5t20.5 16.5t31.5 6.5q55 0 73 -80q7 -30 14 -88t13 -133.5t9.5 -163t3.5 -177.5q0 -26 -5.5 -43t-15 -26.5t-21.5 -13.5t-25 -4q-28 0 -45.5 20.5t-17.5 59.5z" />
    <glyph glyph-name="m" unicode="m" horiz-adv-x="756" 
d="M81 503q6 0 14 -0.5t17 -4t17.5 -11t14.5 -20.5q9 -20 15 -39t14 -39q7 25 16.5 47t22.5 38.5t31.5 26.5t43.5 10q29 0 49 -11.5t33.5 -29t21.5 -37.5t13 -38q1 -6 7 -6t7 7q6 25 20 47t33.5 38t44 25t50.5 9q33 0 63 -12t53.5 -41t37 -78t13.5 -123q0 -66 -7 -115
t-12 -87q-7 -48 -25.5 -70t-53.5 -22q-25 0 -40.5 16t-15.5 45q0 14 5 35t11 46.5t11 55t5 62.5q0 22 -2.5 47.5t-10 47t-20.5 35.5t-35 14q-29 0 -43.5 -35.5t-20.5 -87.5t-7 -111.5t-1 -107.5q0 -24 -18.5 -35t-45.5 -11t-44.5 14t-17.5 41q0 6 0.5 32t-0.5 61.5t-5 75.5
t-12.5 74t-22.5 56t-36 22q-21 0 -34.5 -12t-20.5 -31.5t-8 -45.5t3 -53q2 -12 6.5 -42.5t9.5 -65t9 -66t4 -44.5q0 -14 -5.5 -24t-14 -16t-18.5 -8.5t-19 -2.5q-36 0 -51 13t-19 33l-9 45t-16.5 81.5t-20.5 99t-19.5 99t-14.5 80t-6 42.5q0 10 3.5 21t10.5 20t17.5 15
t24.5 6z" />
    <glyph glyph-name="n" unicode="n" 
d="M74 500q22 0 36 -10t23.5 -27.5t16.5 -40.5t16 -48q11 29 29 54t41.5 43.5t50.5 29t56 10.5q27 0 56.5 -10.5t53.5 -35.5t40 -66.5t16 -103.5q0 -36 -3.5 -76t-8 -77.5t-9 -68.5t-7.5 -49q-5 -32 -24 -47.5t-48 -15.5q-25 0 -41 18t-16 44q0 51 9 114t9 135q0 24 -2.5 45
t-8.5 36t-17.5 24t-29.5 9q-29 0 -47 -27.5t-28 -71t-13 -98.5t-3 -110q0 -28 -5.5 -45.5t-15 -28t-22.5 -14.5t-27 -4q-22 0 -42 14.5t-23 37.5q-6 47 -11 85t-10 69t-10 56.5t-10 48.5q-6 29 -12 49.5t-10.5 36.5t-7.5 28.5t-3 26.5q0 27 16.5 44t45.5 17z" />
    <glyph glyph-name="o" unicode="o" 
d="M202 503q59 0 107.5 -20t83.5 -57t54.5 -88t19.5 -113q0 -46 -16 -88.5t-46 -75t-72 -52t-94 -19.5q-59 0 -106 19.5t-80 55.5t-50.5 86.5t-17.5 111.5q0 48 15.5 91.5t43.5 76.5t68 52.5t90 19.5zM218 392q-24 0 -43 -11.5t-31.5 -30t-19.5 -43t-7 -50.5q0 -30 7.5 -58
t22.5 -49.5t38 -34.5t53 -13q26 0 44.5 11t30 29t17 40.5t5.5 45.5q0 37 -9.5 67.5t-25 52t-37 33t-45.5 11.5z" />
    <glyph glyph-name="p" unicode="p" horiz-adv-x="536" 
d="M519 292q0 -77 -26.5 -134.5t-69 -95t-96.5 -56t-109 -18.5q2 -21 4 -36.5t3.5 -30t2.5 -29.5t1 -34q0 -73 -64 -73q-31 0 -48.5 18.5t-22.5 52.5q-6 43 -13 107.5t-15 137t-17 147t-19 137.5q-2 11 -4 26t-2 29q0 41 22 59t53 18q35 0 49.5 -14.5t14.5 -35.5
q29 24 58 32.5t64 8.5q50 0 93 -14.5t74.5 -42.5t49 -68t17.5 -91zM277 393q-24 0 -41 -6.5t-28.5 -17t-17 -23t-6.5 -23.5q0 -9 2 -27.5t4.5 -41.5t5.5 -49t5.5 -48t4.5 -39t3 -22q49 0 83.5 16t56.5 42.5t32 59.5t10 67q0 28 -10 49t-26 35t-36.5 21t-41.5 7z" />
    <glyph glyph-name="q" unicode="q" horiz-adv-x="518" 
d="M380 -162q-11 41 -18.5 95t-10.5 111q-43 -30 -76 -39.5t-71 -9.5q-47 0 -83 15t-60.5 41t-37.5 60.5t-13 72.5q0 86 31 148t80 102.5t109 59.5t118 19q7 11 18 20q9 8 23.5 14.5t34.5 6.5q23 0 43 -12.5t20 -36.5q0 -14 -2 -48.5t-4.5 -78t-4.5 -90.5t-2 -86
q0 -84 4 -143.5t9.5 -101.5t9.5 -69t4 -44q0 -24 -15.5 -40.5t-41.5 -16.5q-23 0 -39.5 11.5t-24.5 39.5zM356 360q0 23 -13.5 33t-35.5 10q-36 0 -68 -21t-56 -51.5t-38 -66.5t-14 -66q0 -44 21.5 -65.5t54.5 -21.5q19 0 40 5.5t41.5 15.5t37.5 23t29 28q0 15 0.5 39.5
t0.5 50v49.5v38z" />
    <glyph glyph-name="r" unicode="r" horiz-adv-x="407" 
d="M45 512q10 3 21 3q31 0 49 -18.5t27.5 -41t12.5 -41.5t3 -21q1 3 15 24.5t39 47t60.5 46t79.5 20.5q48 0 66.5 -17t18.5 -41q0 -22 -12.5 -36t-35.5 -16q-32 -3 -65 -17t-60 -39.5t-44.5 -64t-17.5 -90.5q0 -41 6 -74.5t6 -64.5q0 -25 -7 -41.5t-17.5 -26t-23 -13
t-23.5 -3.5q-22 0 -40 18.5t-20 53.5q-1 17 -4.5 59t-11 93t-19 103t-27.5 90q-5 12 -8.5 25t-3.5 27q0 19 8 34.5t28 21.5z" />
    <glyph glyph-name="s" unicode="s" horiz-adv-x="484" 
d="M221 508q53 0 97 -16.5t75.5 -40t48.5 -48.5t17 -42q0 -13 -10.5 -29.5t-38.5 -16.5q-20 0 -36 14t-36.5 31t-48.5 31t-73 14q-36 0 -49.5 -15.5t-13.5 -29.5q0 -15 10.5 -25t31.5 -20t54 -21.5t78 -29.5q78 -31 112 -64t34 -68q0 -24 -10.5 -49.5t-38.5 -46.5t-77.5 -34
t-126.5 -13q-46 0 -84.5 5.5t-66 17t-43 29t-15.5 40.5q0 55 59 55q17 0 29 -5.5t28 -11.5t39 -11.5t61 -5.5q33 0 54 2.5t33.5 7t17 11t4.5 13.5q0 9 -7 15t-23 12.5t-40.5 14.5t-60.5 21q-35 12 -67.5 27.5t-57.5 35.5t-39.5 47.5t-14.5 63.5q0 61 49 98t146 37z" />
    <glyph glyph-name="t" unicode="t" horiz-adv-x="378" 
d="M130 28q0 40 -1 82.5t-3 83t-4 77t-5 65.5l-120 -10q-23 2 -37 21.5t-14 41.5q0 6 2 15t6.5 17t11.5 14t18 7l121 6q-9 73 -17 119.5t-8 69.5q0 12 3.5 24.5t11.5 22.5t20.5 16.5t31.5 6.5q55 0 73 -80q6 -26 12 -70t11 -102l122 7q26 -1 41.5 -16t15.5 -38q0 -17 -8 -31
t-25 -17l-138 -12q2 -33 3.5 -72.5t3 -80.5t2 -82t0.5 -78q0 -26 -5.5 -43t-15 -26.5t-21.5 -13.5t-25 -4q-28 0 -45.5 20.5t-17.5 59.5z" />
    <glyph glyph-name="u" unicode="u" horiz-adv-x="490" 
d="M346 125q-14 -44 -34 -70.5t-44 -41t-50.5 -19.5t-53.5 -5q-46 0 -76 18.5t-47 49.5t-24 71.5t-7 84.5q0 75 13 134.5t26 103.5q9 31 28 41t39 10q29 0 43 -15.5t14 -38.5q0 -6 -5 -30t-11 -57.5t-11 -72t-5 -74.5q0 -54 14.5 -75.5t43.5 -21.5q43 0 71.5 50.5
t28.5 147.5q0 40 -4 72.5t-4 46.5q0 24 20 41t48 17q21 0 38.5 -13.5t20.5 -34.5q2 -15 6.5 -42t9.5 -61t10.5 -72.5t11.5 -74.5t10.5 -67.5t8.5 -52.5q2 -9 2.5 -17.5t0.5 -12.5q0 -31 -17.5 -43.5t-37.5 -12.5q-23 0 -36 10.5t-20 29t-11 43.5t-10 54z" />
    <glyph glyph-name="v" unicode="v" horiz-adv-x="458" 
d="M23 503q28 0 47.5 -19.5t42.5 -58.5q11 -20 30 -54t37 -68q21 -40 43 -83q26 77 51 146q10 29 21.5 59t23 57.5t21.5 50t19 37.5q10 17 25 27.5t43 10.5q24 0 42 -16.5t18 -39.5q0 -3 -2.5 -10t-6 -15t-6.5 -15t-4 -10q-42 -96 -85.5 -207t-78.5 -230q-8 -28 -17.5 -43.5
t-20 -23t-23 -9t-26.5 -1.5q-6 0 -14.5 1.5t-17 7t-17 17t-15.5 32.5q-8 24 -17 46t-22.5 50.5t-34 68t-50.5 96.5q-26 49 -43.5 81t-17.5 57q0 27 17.5 42.5t37.5 15.5z" />
    <glyph glyph-name="w" unicode="w" horiz-adv-x="637" 
d="M135 474q4 -8 8.5 -26.5t9.5 -42.5t10 -52l10 -56q11 -66 23 -143q18 48 33 93q12 38 22.5 77.5t10.5 64.5v15q0 42 18.5 60.5t38.5 18.5q21 0 35 -16t28 -48q7 -16 19 -50t26 -73.5t28.5 -78.5t26.5 -64q2 7 4.5 31.5t4 53.5t2.5 56.5t1 40.5q0 40 -4.5 78t-9.5 68.5
t-9.5 52t-4.5 28.5q0 24 14 42t48 18q17 0 31.5 -14.5t25.5 -46.5t17 -83.5t6 -125.5q0 -55 -4.5 -109.5t-11 -102t-13.5 -84.5t-12 -56q-5 -20 -23.5 -30t-35.5 -10q-15 0 -30 8.5t-23 25.5q-5 11 -16 34.5t-24.5 53t-27.5 60.5t-26.5 57t-20.5 43.5t-9 20.5
q0 -2 -5.5 -16.5t-14 -35.5t-19 -47t-21 -51t-20 -46.5t-15.5 -34.5q-9 -19 -23 -26.5t-28 -7.5q-21 0 -36 8t-27 27.5t-21.5 52.5t-20.5 83q-9 40 -19 83.5t-18.5 82t-14.5 67t-6 40.5q0 34 14 50.5t37 16.5q17 0 34 -7.5t28 -27.5z" />
    <glyph glyph-name="x" unicode="x" horiz-adv-x="475" 
d="M352 484q11 15 21.5 23.5t35.5 8.5q18 0 35 -10.5t17 -33.5q0 -18 -16 -46t-39.5 -59.5t-49.5 -63t-45 -56.5q48 -55 80.5 -92t52 -61.5t28 -39t8.5 -23.5q0 -17 -11.5 -30.5t-42.5 -13.5q-16 0 -37.5 14.5t-46 38.5t-52 55.5t-55.5 65.5q-11 -14 -28 -35t-35 -44.5
t-34.5 -45t-25.5 -35.5q-15 -22 -27 -35.5t-23.5 -21t-22 -10.5t-22.5 -3q-21 0 -36 10.5t-15 33.5q0 16 17 45t45 66t63 78.5t71 82.5q-35 43 -63 74t-47.5 55t-29.5 42t-10 36q0 21 12 34.5t40 13.5q13 0 32 -13.5t41 -36.5t47.5 -53t52.5 -63q29 35 58.5 72t56.5 76z" />
    <glyph glyph-name="y" unicode="y" horiz-adv-x="505" 
d="M271 421q-4 13 -4 26q0 32 19.5 45.5t42.5 13.5q21 0 39.5 -9.5t23.5 -26.5q33 -104 54 -180.5t33 -136t17 -107t5 -92.5q0 -121 -63.5 -192t-194.5 -71q-45 0 -79 9t-57 23.5t-34.5 31.5t-11.5 33q0 12 5 20t12.5 13t16.5 7.5t16 2.5q13 0 27 -3.5t29.5 -8t31 -8
t31.5 -3.5q45 0 73 12t44.5 32.5t22.5 48.5t6 60q0 21 -1 39t-4.5 40.5t-10 53.5t-18.5 76q-12 -47 -25.5 -82.5t-34.5 -59.5t-52 -36.5t-77 -12.5q-37 0 -63.5 14t-44 38.5t-25.5 56.5t-8 68q0 23 0.5 60t1.5 77t3 76t5 57q6 41 26 55.5t43 14.5q25 0 40 -18t15 -38
q0 -10 -2 -36.5t-4.5 -59.5t-4.5 -68t-2 -61q0 -51 14.5 -77.5t31.5 -26.5q15 0 33 13t33.5 40.5t25.5 69.5t10 100v32t-1 17t-3 14t-6 24z" />
    <glyph glyph-name="z" unicode="z" horiz-adv-x="502" 
d="M212 482q31 0 52.5 1.5t40.5 3l38 3t46 1.5q42 0 60 -19t18 -48t-12 -46t-32 -36q-23 -23 -58 -52.5t-71 -60.5t-68 -59.5t-49 -47.5q21 1 48.5 2t57 2t59 1.5t53.5 0.5q54 0 72.5 -16.5t18.5 -42.5q0 -29 -25 -45t-66 -16h-30.5t-26.5 0.5t-33.5 0.5h-52.5q-42 0 -79 -1
t-67 -1q-43 0 -66.5 22.5t-23.5 61.5q0 25 11 44t46 48l227 194q-1 0 -10 -1t-23 -1.5t-31.5 -1.5t-35.5 -1q-32 0 -65.5 1t-65.5 6q-26 5 -37.5 19.5t-11.5 34.5t15 35.5t43 15.5t40 -0.5t22.5 -1t25 -0.5h46.5z" />
    <glyph glyph-name="braceleft" unicode="{" horiz-adv-x="404" 
d="M238 690q53 0 79 -23t26 -58q0 -22 -14.5 -36t-35.5 -14q-10 0 -17.5 3.5t-14 7.5t-12.5 7.5t-12 3.5q-9 0 -14.5 -6.5t-8 -16.5t-3.5 -21.5t-1 -21.5q0 -32 3.5 -57.5t8.5 -48.5t9 -45t6 -46q0 -47 -24 -78q23 -25 30.5 -57.5t7.5 -70.5t-7 -85t-7 -93q11 11 24.5 15.5
t33.5 4.5q10 0 20.5 -3.5t19.5 -10.5t14.5 -18.5t5.5 -26.5q0 -42 -30 -66t-73 -24q-56 0 -87 36t-31 88q0 20 1.5 48t3.5 56.5t3.5 54t1.5 40.5t-4.5 30t-21.5 19q-31 6 -48 20.5t-17 39.5q0 18 12 28t26 16.5t26 12.5t12 17q0 30 -4.5 57.5t-9.5 53t-9.5 50.5t-4.5 50
q0 30 9 60t26.5 54t43 39t58.5 15z" />
    <glyph glyph-name="bar" unicode="|" horiz-adv-x="277" 
d="M89 616q0 26 13.5 39.5t30 14t31.5 -12t19 -37.5v-880q-4 -22 -16.5 -34t-27.5 -12.5t-29 9.5t-21 31v882v0z" />
    <glyph glyph-name="braceright" unicode="}" horiz-adv-x="412" 
d="M155 689q35 0 61.5 -15.5t44.5 -40.5t27 -56.5t9 -62.5q0 -24 -3 -46.5t-7 -46.5t-7 -50t-3 -57q0 -11 12 -17t27 -12t27 -16t12 -29q0 -25 -16.5 -39t-46.5 -21q-14 -4 -19 -17.5t-5 -27.5q0 -13 2.5 -39.5t6 -57.5t6 -61t2.5 -50q0 -52 -31 -87.5t-88 -35.5
q-41 0 -71 23t-30 65q0 17 6.5 28.5t16 18t21 9.5t21.5 3q17 0 29 -4t23 -14q-1 25 -4 51.5t-6.5 51.5t-6.5 48t-3 43q0 32 6.5 61t26.5 52q-26 31 -26 77q0 23 3 43.5t7 42t7 45t3 51.5q0 9 -0.5 23t-3.5 27t-9 22t-17 9q-7 0 -13 -4t-12.5 -8.5t-14 -8t-17.5 -3.5
q-21 0 -35.5 14t-14.5 36q0 34 25.5 57.5t77.5 25.5z" />
    <glyph glyph-name="asciitilde" unicode="~" horiz-adv-x="518" 
d="M140 178q-19 -17 -38.5 -16.5t-31.5 12t-13.5 30.5t14.5 39q29 32 65 45t78 2q31 -9 52 -20t38.5 -16t35 2t41.5 34q19 12 36.5 11t28 -11.5t13 -27.5t-8.5 -37q-11 -11 -22 -23t-24 -21q-18 -13 -38 -18t-41 -4.5t-42 5.5t-40 13t-36.5 15t-37.5 9q-11 -3 -16 -8.5
t-13 -14.5z" />
    <glyph glyph-name="exclamdown" unicode="&#xa1;" horiz-adv-x="224" 
d="M167 255q0 -80 4.5 -139.5t10 -103t10 -73t4.5 -50.5q0 -25 -14 -45t-52 -20q-24 0 -38.5 13.5t-25.5 50.5q-6 29 -10 60t-7 72t-4.5 96t-1.5 132q0 49 19.5 65.5t46.5 16.5q26 0 42 -18.5t16 -56.5zM184 443q0 -31 -21.5 -52.5t-52.5 -21.5t-52.5 21.5t-21.5 52.5
t21.5 52.5t52.5 21.5t52.5 -21.5t21.5 -52.5z" />
    <glyph glyph-name="cent" unicode="&#xa2;" horiz-adv-x="519" 
d="M267 -108q-20 0 -34.5 14t-15.5 34v60q-88 23 -140.5 91.5t-52.5 172.5q0 50 13.5 92t38 73.5t60.5 50.5t81 24v50q0 21 15 35.5t35 14.5t35 -14.5t15 -34.5v-62q23 -8 42.5 -20.5t38.5 -28.5q26 -23 46 -50.5t20 -47.5q0 -8 -1.5 -18t-8 -19t-19.5 -15t-35 -6
q-15 0 -25.5 7t-19.5 18t-17.5 23.5t-20.5 23.5v-263q29 3 41.5 20.5t20.5 34.5q11 24 23.5 36.5t36.5 12.5t35.5 -18t11.5 -38q0 -18 -9 -43.5t-29 -49t-52.5 -41t-78.5 -20.5v-51q0 -20 -15 -34t-35 -14zM149 260q0 -36 19 -70.5t49 -58.5v252q-13 -3 -25 -11t-21.5 -22
t-15.5 -36t-6 -54z" />
    <glyph glyph-name="sterling" unicode="&#xa3;" horiz-adv-x="601" 
d="M328 676q18 0 48 -5t59 -16t50 -28t21 -42q0 -19 -11.5 -35t-34.5 -16q-19 0 -34.5 5t-30.5 11t-30.5 11t-33.5 5q-38 0 -58 -29.5t-20 -95.5q0 -8 0.5 -16.5t0.5 -16.5q19 0 52 -0.5t64.5 -6.5t54.5 -19.5t23 -38.5q0 -10 -2 -20.5t-8 -19t-16.5 -13.5t-27.5 -2
q-35 5 -65.5 7.5t-60.5 2.5q3 -17 5 -31t4 -30t3 -36.5t1 -49.5q5 -5 17.5 -10.5t28 -10.5t32.5 -8.5t32 -3.5q28 0 48 7.5t35 16.5t28 16.5t29 7.5q27 0 47 -18.5t20 -41.5q0 -15 -9 -28q-34 -50 -87.5 -68.5t-117.5 -18.5q-26 0 -46 3.5t-37 8.5t-32.5 10.5t-32.5 10.5
q-12 -25 -42.5 -42.5t-65.5 -17.5q-53 0 -84 28t-31 73t30 71.5t87 26.5q8 0 13.5 -0.5t13.5 -2.5q0 26 -2 43.5t-5.5 31t-7.5 25t-7 26.5q-15 -3 -32.5 -7t-31.5 -4q-26 0 -40.5 15t-14.5 34q0 30 25 42t74 23q-2 17 -3 33t-1 31q0 38 8.5 77.5t32 72t66 53t110.5 20.5z
" />
    <glyph glyph-name="currency" unicode="&#xa4;" horiz-adv-x="833" 
 />
    <glyph glyph-name="yen" unicode="&#xa5;" horiz-adv-x="502" 
d="M87 319q8 -1 15.5 -1h15.5q-17 29 -34.5 57.5t-32.5 56.5q-26 49 -44.5 81t-18.5 57q0 27 17.5 42.5t37.5 15.5q14 0 24.5 -3.5t20 -11.5t19 -21.5t21.5 -32.5q11 -20 30.5 -52.5t38.5 -64.5q22 -37 46 -77q31 48 59 95q24 40 49 83t40 73q8 17 24.5 32t43.5 15
q22 0 40 -14t18 -34q0 -8 -2.5 -17t-6 -17t-6.5 -14.5t-4 -9.5q-16 -35 -32 -64.5t-33 -56.5t-34 -53.5t-34 -56.5q27 2 47.5 3t31.5 1q19 -1 33 -11.5t13 -37.5q-1 -18 -11 -28t-37 -18q-23 -5 -90 -6h-37q-2 -3 -4 -9l3 -57q45 2 78 4.5t47 2.5q18 -1 32.5 -11.5
t13.5 -37.5q0 -18 -10.5 -28t-37.5 -18q-11 -2 -33.5 -3t-56.5 -2q-8 -1 -15.5 -1h-14.5q-1 -25 -7.5 -41t-16 -25t-22.5 -12.5t-26 -3.5q-29 0 -46.5 20t-19.5 58q-40 0 -95 3q-36 1 -47.5 15.5t-10.5 34.5q1 19 15 30t41 10q24 -1 48 -1h47q-1 16 -2 27.5t-3 27.5l-5 13
l-78 3q-36 2 -47.5 16t-11.5 34q1 19 15 30.5t42 10.5z" />
    <glyph glyph-name="brokenbar" unicode="&#xa6;" horiz-adv-x="220" 
d="M69 616q0 26 13.5 39.5t30 14t31.5 -12t19 -37.5v-296q-4 -22 -16.5 -34t-27.5 -12.5t-29 9.5t-21 31v298zM69 192q0 26 13.5 39.5t30 14t31.5 -12t19 -37.5v-296q-4 -22 -16.5 -34t-27.5 -12.5t-29 9.5t-21 31v298z" />
    <glyph glyph-name="section" unicode="&#xa7;" horiz-adv-x="833" 
d="M307 366q-20 0 -31 -17t-11 -39q0 -23 12 -42t36 -19q22 0 31.5 16t9.5 35q0 30 -14 48t-33 18zM297 443q55 0 92 -32t46 -86q81 -37 114 -73.5t33 -78.5q0 -32 -13 -64t-46.5 -58t-91.5 -42.5t-148 -16.5q-51 0 -97 5t-81 17t-55.5 32t-20.5 50q0 9 2 19.5t8.5 19.5
t18.5 15.5t32 6.5q22 0 38 -6.5t36 -15t49.5 -15t79.5 -6.5q43 0 70 6t42.5 15t21.5 19.5t6 19.5q0 17 -28 35q-16 -17 -39 -27t-52 -10q-58 0 -92 30.5t-39 89.5q-62 26 -99.5 68.5t-37.5 117.5q0 37 15.5 70t46 58t77.5 39t110 14q47 0 92.5 -14t81.5 -36t58 -49t22 -54
q0 -20 -16 -35.5t-45 -15.5q-24 0 -42.5 12.5t-38.5 28t-46 28t-65 12.5q-30 0 -50 -5.5t-31.5 -14.5t-16 -19t-4.5 -19q0 -17 8 -30.5t26 -27.5q14 11 31.5 17t37.5 6z" />
    <glyph glyph-name="dieresis" unicode="&#xa8;" horiz-adv-x="354" 
d="M31 606q0 26 17 43t43 17t43 -17t17 -43t-17 -42.5t-43 -16.5t-43 16.5t-17 42.5zM209 606q0 26 16.5 43t42.5 17t43.5 -17t17.5 -43t-17.5 -42.5t-43.5 -16.5t-42.5 16.5t-16.5 42.5z" />
    <glyph glyph-name="copyright" unicode="&#xa9;" horiz-adv-x="833" 
d="M326 491q25 0 49 -12t43 -29t31 -37t12 -36q0 -19 -7 -31.5t-30 -12.5q-12 0 -20 12t-17.5 26.5t-23.5 26.5t-38 12q-26 0 -41 -22.5t-18 -53.5q-2 -20 0.5 -41t10 -39t21 -30.5t34.5 -13.5q27 -3 39.5 7t21 22t17.5 22t27 9q17 -2 25 -15t6 -26q-1 -13 -11 -29.5
t-28 -30.5t-44 -24t-60 -10q-38 0 -67.5 15t-49.5 41.5t-29 63t-5 80.5q2 23 11.5 50t28 50.5t46.5 39.5t66 16zM18 312q0 71 21 128.5t60 98.5t95.5 63.5t127.5 22.5t128 -21.5t96.5 -62t61 -97.5t21.5 -128t-20 -130.5t-58 -103t-93 -68t-126 -24.5t-129 23.5t-99 66.5
t-63.5 102t-22.5 130zM118 312q0 -106 55.5 -167t161.5 -61q52 0 89 19t60.5 51.5t34.5 74.5t11 87t-13.5 86.5t-40.5 73t-66.5 50.5t-91.5 19q-40 0 -76.5 -19t-64 -51t-43.5 -74.5t-16 -88.5z" />
    <glyph glyph-name="ordfeminine" unicode="&#xaa;" 
d="M397 222q-6 14 -15 40.5t-24 79.5q-15 -39 -36.5 -66t-46.5 -43.5t-50.5 -24t-47.5 -7.5q-37 0 -63 14t-42.5 37t-24 52t-7.5 60q0 20 0.5 39t4.5 40t12 44t23 52q20 39 44 66.5t48.5 44.5t48.5 25t45 8t44.5 -3t45 -17.5t39 -44t26.5 -81.5q8 -41 21 -90.5t27 -92.5
q16 -51 34 -101q0 -4 1 -8t1.5 -7.5t0.5 -8.5q0 -17 -15.5 -26.5t-36.5 -9.5q-15 0 -32 5.5t-25 23.5zM189 313q10 0 25.5 6t33 25.5t34 57t28.5 100.5q-8 42 -22 52.5t-28 10.5q-16 0 -35 -14.5t-35.5 -40t-28 -62t-11.5 -79.5q0 -27 8 -41.5t31 -14.5z" />
    <glyph glyph-name="guillemotleft" unicode="&#xab;" horiz-adv-x="772" 
d="M445 420q0 -32 -31.5 -59t-73.5 -49t-84 -38.5t-63 -25.5q4 -2 27.5 -10t56 -19.5t67 -24.5t61.5 -23q29 -11 42 -28t13 -43q0 -20 -14.5 -35t-38.5 -15q-13 0 -24 4q-74 24 -147.5 52.5t-154.5 58.5q-26 9 -40 19t-21 19.5t-8 19.5t-1 19q0 18 17.5 35t56 40t100 55.5
t149.5 80.5q17 9 27.5 14t30.5 5q31 0 42 -16.5t11 -35.5zM747 427q0 -25 -18 -46t-53 -42q-18 -10 -41 -23.5t-44 -25.5t-37 -21.5t-19 -10.5q4 -2 21.5 -10t42 -19.5t53 -24.5t55.5 -23q29 -11 42 -28t13 -43q0 -19 -14 -35.5t-37 -16.5q-13 0 -26 6q-46 20 -109.5 48
t-142.5 63q-25 11 -39 21t-21 19.5t-8.5 18.5t-1.5 18q0 13 12 33.5t41 34.5q20 10 45.5 26.5t54 35.5t59 40t61.5 41q16 11 27 15t31 4q31 0 42 -18t11 -37z" />
    <glyph glyph-name="logicalnot" unicode="&#xac;" horiz-adv-x="500" 
d="M392 380q34 0 49.5 -13.5t15.5 -33.5v-166q0 -32 -14.5 -45.5t-37.5 -13.5q-25 0 -35.5 18t-10.5 41v107h-282q-24 0 -35.5 14.5t-11.5 36.5q0 27 12.5 41t34.5 14h315v0z" />
    <glyph glyph-name="uni00AD" unicode="&#xad;" horiz-adv-x="833" 
 />
    <glyph glyph-name="registered" unicode="&#xae;" horiz-adv-x="833" 
d="M18 312q0 71 21 128.5t60 98.5t95.5 63.5t127.5 22.5t128 -21.5t96.5 -62t61 -97.5t21.5 -128t-20 -130.5t-58 -103t-93 -68t-126 -24.5t-129 23.5t-99 66.5t-63.5 102t-22.5 130zM248 480q11 0 16.5 -2.5t8.5 -4.5q4 -4 5 -7h19q17 0 46.5 -1.5t57.5 -10t48.5 -26
t20.5 -50.5q0 -19 -8.5 -33.5t-19 -24t-20.5 -15t-14 -7.5q-1 -1 -2 -1q0 -1 13 -6t31 -12.5t38 -16t34 -15.5l1 -1q3 17 5 34.5t2 35.5q0 45 -13.5 86.5t-40.5 73t-66.5 50.5t-91.5 19q-40 0 -76.5 -19t-64 -51t-43.5 -74.5t-16 -88.5q0 -106 55.5 -167t161.5 -61
q57 0 95.5 22t61.5 60q-17 8 -36 20.5t-44 27t-57 28.5t-74 25q3 -15 5 -34.5t2 -31.5q0 -26 -8 -36.5t-32 -10.5q-20 0 -31.5 17.5t-16.5 47.5t-6 69t-1 82q0 49 11 79.5t44 30.5zM268 370q0 -23 3 -45q58 1 87.5 15t29.5 34q0 11 -17 20t-56 9q-28 0 -37.5 -11.5
t-9.5 -21.5z" />
    <glyph glyph-name="degree" unicode="&#xb0;" horiz-adv-x="279" 
d="M81 566q0 -24 16.5 -40.5t40.5 -16.5t41 16.5t17 40.5t-17 41t-41 17t-40.5 -17t-16.5 -41zM12 566q0 26 9.5 49t26.5 40.5t40 27.5t50 10q26 0 49 -10t40.5 -27.5t27.5 -40.5t10 -49q0 -27 -10 -50t-27.5 -40t-40.5 -26.5t-49 -9.5q-27 0 -50 9.5t-40 26.5t-26.5 40
t-9.5 50z" />
    <glyph glyph-name="plusminus" unicode="&#xb1;" horiz-adv-x="538" 
d="M101 102q28 0 63 0.5t71.5 1t72.5 1.5t66.5 1.5t52.5 1t31 0.5q20 0 35 -8t15 -29q0 -23 -8.5 -34t-37.5 -18q-18 -4 -59.5 -6t-93 -2.5t-105.5 0t-97 0.5q-38 0 -50.5 13.5t-12.5 33.5q0 44 57 44zM217 200v67t-1 56h-100q-25 0 -41 2.5t-25 8.5t-12.5 15.5t-3.5 23.5
q0 26 18.5 40t56.5 14h106q-1 21 -1.5 36t-1 26t-0.5 20v19q0 9 2.5 21t8.5 22.5t15.5 17.5t22.5 7q23 0 38.5 -15t18.5 -47q2 -23 2.5 -48.5t1.5 -56.5q37 1 64.5 2t44.5 1q25 0 47 -9.5t22 -34.5q0 -29 -12.5 -44.5t-50.5 -16.5l-115 -3v-26.5v-26v-29.5v-37q0 -20 -5 -33
t-13.5 -20.5t-18.5 -10.5t-20 -3q-21 0 -34.5 16t-13.5 46z" />
    <glyph glyph-name="twosuperior" unicode="&#xb2;" horiz-adv-x="409" 
d="M225 675q60 0 95.5 -29.5t35.5 -78.5q0 -23 -10.5 -46t-39.5 -46q-19 -16 -40.5 -33.5t-39.5 -32.5l-42 -35q26 1 50 2q20 1 41.5 2t35.5 1q26 0 43 -9.5t17 -36.5q0 -22 -17.5 -36t-49.5 -14h-211q-19 0 -35 14t-16 36q0 11 3 20t23 26q26 22 56 47t65 57q24 22 46.5 41
t22.5 41q0 11 -12 18t-29 7q-20 0 -36.5 -10.5t-29.5 -23.5t-24.5 -20.5t-34.5 -7.5q-18 0 -30.5 10t-12.5 28q0 11 6 22t15.5 20.5t20.5 18.5t21 15q20 13 49 23t64 10z" />
    <glyph glyph-name="threesuperior" unicode="&#xb3;" horiz-adv-x="331" 
d="M177 663q24 0 45 -5t37.5 -16.5t26 -28.5t9.5 -41q0 -20 -10.5 -35.5t-23.5 -25.5q-15 -12 -34 -20q13 -7 28.5 -17.5t29 -25t22 -32.5t8.5 -39q0 -54 -37.5 -78.5t-112.5 -24.5q-48 0 -81 11t-57 26q-8 6 -13.5 15t-5.5 20q0 12 10 26.5t35 14.5q8 0 18 -4t17 -7
q11 -6 27 -11t41 -5q38 0 51 9t13 22q0 10 -10.5 20t-26.5 18t-35.5 12.5t-38.5 4.5q-41 0 -41 29q0 17 12.5 27.5t29.5 15.5q9 3 24.5 7t29.5 9.5t24.5 13t10.5 16.5q0 13 -9.5 19t-20.5 6q-21 0 -34 -6.5t-23 -9.5q-11 -5 -21 -7.5t-24 -2.5q-17 0 -26 10t-9 27
q0 12 14 23.5t35.5 20.5t47 14t48.5 5z" />
    <glyph glyph-name="acute" unicode="&#xb4;" horiz-adv-x="362" 
d="M36 531q-5 10 3.5 23.5t25.5 28t39 29.5t43 27.5t38 22t24 13.5q22 14 46 8t35 -26q8 -20 -1.5 -42t-33.5 -33q-7 -3 -24.5 -11t-40 -17t-47.5 -17.5t-47 -13t-38.5 -3.5t-21.5 11z" />
    <glyph glyph-name="mu" unicode="&#xb5;" horiz-adv-x="598" 
d="M431 112q-13 -39 -32 -63t-42 -37t-48 -17.5t-49 -4.5q-17 0 -39.5 7t-33.5 16q-5 -64 -10.5 -116.5t-11.5 -87.5q-5 -29 -26 -43t-43 -12.5t-38 18.5t-11 50q11 52 17.5 112.5t9.5 138t3.5 174t0.5 220.5q0 15 6 24t15 14t20 6.5t20 1.5q26 0 39.5 -12.5t13.5 -33.5
q0 -6 0.5 -37.5t1.5 -73.5t1.5 -87t0.5 -77q0 -24 6.5 -40.5t16.5 -27t23 -15t26 -4.5q19 0 40.5 11.5t39 34t29 56t11.5 76.5q0 18 -1 46l-2 56t-2 50.5t-1 28.5q0 22 18 37t43 15q20 0 35.5 -12t18.5 -31q2 -13 5.5 -43t8 -69t9.5 -83t10 -85t9.5 -74.5t7.5 -52.5
q3 -17 3 -27q0 -28 -16 -39t-34 -11q-21 0 -32.5 9.5t-18 26t-10 39t-8.5 48.5z" />
    <glyph glyph-name="paragraph" unicode="&#xb6;" horiz-adv-x="684" 
d="M667 586q0 -24 -14 -36.5t-37 -12.5q-19 0 -41 8q6 -43 12 -98.5t11 -118.5t8 -131t3 -137q0 -25 -5.5 -41t-15.5 -25t-22.5 -12t-25.5 -3q-26 0 -44 20.5t-19 58.5q-1 52 -3 99t-4 90q-9 -2 -17.5 -3.5t-17.5 -3.5q2 -43 3 -86.5t1 -88.5q0 -26 -5.5 -43t-15 -26.5
t-21.5 -13.5t-25 -4q-28 0 -45.5 20.5t-17.5 59.5q0 45 -1 86t-3 79h-17q-49 0 -96.5 11.5t-85 38.5t-61 72t-23.5 112t24 115t65 79t95 45.5t114 14.5q55 0 116.5 -5.5t112.5 -19.5t84.5 -38.5t33.5 -61.5zM266 573q-21 -6 -39.5 -15.5t-32.5 -23.5t-22.5 -33t-8.5 -44
q0 -26 11 -44.5t29 -31t42 -19t50 -9.5q-8 73 -16 127.5t-13 92.5zM460 371q-6 69 -12.5 119.5t-11.5 85.5l-29 3q6 -39 11.5 -95t10.5 -122z" />
    <glyph glyph-name="periodcentered" unicode="&#xb7;" horiz-adv-x="266" 
d="M46 277q0 33 22.5 56t55.5 23t56 -23t23 -56t-23 -55.5t-56 -22.5t-55.5 22.5t-22.5 55.5z" />
    <glyph glyph-name="cedilla" unicode="&#xb8;" horiz-adv-x="833" 
d="M116 -13q0 22 11.5 32.5t25.5 10.5t25.5 -10t13.5 -30q-1 2 -1 5q0 2 -0.5 4.5t-0.5 4.5q-1 1 -1 3v1q1 0 3 -9.5t3 -10.5q11 -14 34 -17.5t46.5 -10t41.5 -23.5t18 -59q0 -57 -30 -79t-84 -22q-20 0 -31 11t-11 25q0 12 9 23t27 16q13 2 27.5 5.5t17.5 18.5
q-3 11 -12 16t-21 7t-25 3t-23 5q-11 4 -22.5 12t-20.5 18.5t-14.5 23.5t-5.5 26z" />
    <glyph glyph-name="onesuperior" unicode="&#xb9;" horiz-adv-x="249" 
d="M83 628q8 9 25 24t43 15q23 0 36 -8.5t13 -31.5v-288q0 -15 -6.5 -24.5t-15.5 -15.5t-19 -8t-17 -2q-8 0 -17.5 3t-18 9t-14.5 14.5t-6 19.5q0 30 1 61t1 58.5t-1 49.5t-5 34l-7 -6q-14 -11 -25.5 -10t-18.5 9t-8.5 20t6.5 21q3 4 11 12.5t17 17.5t16.5 16t9.5 10z" />
    <glyph glyph-name="ordmasculine" unicode="&#xba;" horiz-adv-x="490" 
d="M202 503q59 0 107.5 -20t83.5 -57t54.5 -88t19.5 -113q0 -46 -16 -88.5t-46 -75t-72 -52t-94 -19.5q-59 0 -106 19.5t-80 55.5t-50.5 86.5t-17.5 111.5q0 48 15.5 91.5t43.5 76.5t68 52.5t90 19.5zM218 392q-24 0 -43 -11.5t-31.5 -30t-19.5 -43t-7 -50.5q0 -30 7.5 -58
t22.5 -49.5t38 -34.5t53 -13q26 0 44.5 11t30 29t17 40.5t5.5 45.5q0 37 -9.5 67.5t-25 52t-37 33t-45.5 11.5z" />
    <glyph glyph-name="guillemotright" unicode="&#xbb;" horiz-adv-x="780" 
d="M327 420q0 19 11 35.5t42 16.5q20 0 30.5 -5t27.5 -14q88 -48 149.5 -80.5t100 -55.5t56 -40t17.5 -35q0 -9 -1 -19t-8 -19.5t-21 -19.5t-40 -19q-81 -30 -154.5 -58.5t-147.5 -52.5q-11 -4 -24 -4q-24 0 -38.5 15t-14.5 35q0 26 13 43t42 28q27 10 61.5 23t67 24.5
t56 19.5t27.5 10q-21 9 -63 25.5t-84 38.5t-73.5 49t-31.5 59zM25 427q0 19 11 37t42 18q20 0 31 -4t27 -15q31 -20 61.5 -41t59 -40t54 -35.5t45.5 -26.5q29 -14 41 -34.5t12 -33.5q0 -9 -1.5 -18t-8.5 -18.5t-21 -19.5t-39 -21q-79 -35 -142.5 -63t-109.5 -48
q-14 -6 -26 -6q-23 0 -37 16.5t-14 35.5q0 26 13 43t42 28q27 10 55.5 23t53 24.5t42 19.5t21.5 10q-3 1 -19 10.5t-37 21.5t-44 25.5t-41 23.5q-35 21 -53 42t-18 46z" />
    <glyph glyph-name="onequarter" unicode="&#xbc;" horiz-adv-x="658" 
d="M108 78q49 85 95 167.5t83 150.5t62 115.5t33 63.5q19 35 50 35q29 0 39 -13t10 -26q0 -11 -3 -21q-6 -16 -22.5 -48.5t-40.5 -76.5t-52.5 -95.5t-58.5 -103.5t-59 -102t-52 -91q-13 -23 -25.5 -32t-24.5 -9q-23 0 -36 13.5t-13 29.5q0 10 4 20.5t11 22.5zM541 329
q18 0 28.5 -11.5t10.5 -26.5q0 -14 1 -44t1 -59h10q8 0 17 -11t9 -30t-10 -31t-19 -12h-6v-80q0 -13 -12.5 -20t-27.5 -7q-14 0 -26 7t-12 20q0 10 -1 29.5t0 49.5q-51 -2 -93 -3.5t-56 -1.5q-18 0 -25.5 13t-7.5 24t3.5 18.5t8.5 14.5q10 15 19 33t17 37.5t14.5 38
t11.5 33.5q5 16 17.5 24.5t26.5 8.5t28 -8.5t14 -27.5q0 -11 -6 -33t-14 -45q-4 -10 -7 -18t-6 -14q-4 -7 -6 -13q2 0 10 1q6 1 18.5 1t34.5 1q-1 32 -2 58t-1 46q0 15 10 26.5t28 11.5zM111 634q5 5 17 9t23 4q7 0 15.5 -2.5t16 -7t12.5 -12.5t5 -18q0 -46 -0.5 -111.5
t0.5 -159.5q0 -14 -4.5 -22.5t-11.5 -13.5t-15 -7t-15 -2q-14 0 -29.5 10.5t-15.5 30.5q0 101 -3 185l-6 -6q-12 -11 -23 -8t-17.5 12t-7.5 21t6 21q3 4 11.5 16.5t18 26t16.5 24z" />
    <glyph glyph-name="onehalf" unicode="&#xbd;" horiz-adv-x="658" 
d="M108 78q49 85 95 167.5t83 150.5t62 115.5t33 63.5q19 35 50 35q29 0 39 -13t10 -26q0 -11 -3 -21q-6 -16 -22.5 -48.5t-40.5 -76.5t-52.5 -95.5t-58.5 -103.5t-59 -102t-52 -91q-13 -23 -25.5 -32t-24.5 -9q-23 0 -36 13.5t-13 29.5q0 10 4 20.5t11 22.5zM507 330
q24 0 44 -8t34 -21t21.5 -30.5t7.5 -36.5t-9.5 -35.5t-32.5 -36.5q-16 -14 -33.5 -26.5l-31.5 -22.5q-18 -11 -34 -22q6 -1 11 -1h17q24 0 47 2t41 2t26.5 -13t8.5 -30t-12 -30t-36 -13q-23 0 -46 0.5t-53 0.5h-26.5t-18.5 -0.5t-14.5 -0.5h-13.5q-17 0 -33.5 12.5
t-16.5 32.5t5 29t19 23q17 14 40.5 31.5t45.5 34.5q32 26 46 39.5t14 23.5q0 12 -8.5 16t-17.5 4q-11 0 -19 -7.5t-14 -19.5q-15 -30 -53 -30q-20 0 -30 11.5t-10 23.5q0 19 14 38.5t28 30.5q16 12 37 20.5t56 8.5zM109 623q5 5 16 14.5t32 9.5q43 0 43 -40
q0 -46 -0.5 -111.5t0.5 -159.5q0 -14 -4.5 -22.5t-11.5 -13.5t-15 -7t-15 -2q-14 0 -29.5 10.5t-15.5 30.5q0 101 -3 185l-6 -6q-12 -11 -23 -8t-17.5 12t-7.5 21t6 21q3 4 11.5 14.5t17 22t15.5 20.5z" />
    <glyph glyph-name="threequarters" unicode="&#xbe;" horiz-adv-x="658" 
d="M108 78q49 85 95 167.5t83 150.5t62 115.5t33 63.5q19 35 50 35q29 0 39 -13t10 -26q0 -11 -3 -21q-6 -16 -22.5 -48.5t-40.5 -76.5t-52.5 -95.5t-58.5 -103.5t-59 -102t-52 -91q-13 -23 -25.5 -32t-24.5 -9q-23 0 -36 13.5t-13 29.5q0 10 4 20.5t11 22.5zM541 329
q18 0 28.5 -11.5t10.5 -26.5q0 -14 1 -44t1 -59h10q8 0 17 -11t9 -30t-10 -31t-19 -12h-6v-80q0 -13 -12.5 -20t-27.5 -7q-14 0 -26 7t-12 20q0 10 -1 29.5t0 49.5q-51 -2 -93 -3.5t-56 -1.5q-18 0 -25.5 13t-7.5 24t3.5 18.5t8.5 14.5q10 15 19 33t17 37.5t14.5 38
t11.5 33.5q5 16 17.5 24.5t26.5 8.5t28 -8.5t14 -27.5q0 -11 -6 -33t-14 -45q-4 -10 -7 -18t-6 -14q-4 -7 -6 -13q2 0 10 1q6 1 18.5 1t34.5 1q-1 32 -2 58t-1 46q0 15 10 26.5t28 11.5zM139 632q42 0 74 -18.5t32 -57.5q0 -16 -6 -28.5t-14 -20.5t-15 -12.5t-8 -5.5
q17 -11 34.5 -27.5t17.5 -44.5q0 -17 -7 -35.5t-22 -34.5t-38 -26.5t-55 -10.5q-56 0 -88 13.5t-32 39.5q0 17 9.5 30t29.5 13q12 0 19.5 -3t15 -6.5t17 -6.5t25.5 -3q14 0 24.5 7.5t10.5 19.5q0 19 -15 24t-35 8t-33.5 8.5t-13.5 25.5t14 25.5t33 8.5q17 3 30.5 7.5
t13.5 18.5q0 7 -6 13.5t-20 6.5t-22.5 -4t-16.5 -8.5t-16.5 -8.5t-21.5 -4q-16 0 -23 11.5t-7 22.5q0 15 11 27t27.5 20t37 12t39.5 4z" />
    <glyph glyph-name="questiondown" unicode="&#xbf;" horiz-adv-x="500" 
d="M261 104q39 0 60.5 14.5t36 32t28.5 32t39 14.5q23 0 36 -14t13 -40q0 -33 -17 -61.5t-46.5 -49.5t-68.5 -33t-83 -12q-112 0 -172 53t-60 147q0 47 20.5 81t50.5 58t63 40.5t57 29.5q11 6 19.5 16t18 19t22.5 16t33 7q23 0 38.5 -13t15.5 -48q0 -22 -16 -38.5
t-39.5 -30.5t-51 -26.5t-51 -27.5t-39.5 -33.5t-16 -43.5q0 -45 31 -67t78 -22zM371 608q0 -33 -22.5 -56t-55.5 -23t-56 23t-23 56t23 55.5t56 22.5t55.5 -22.5t22.5 -55.5z" />
    <glyph glyph-name="Agrave" unicode="&#xc0;" horiz-adv-x="570" 
d="M261 694q29 0 46 -15t26 -43q4 -14 20 -51.5t36.5 -87t42.5 -103.5t39 -100h11q5 0 11 0.5t13 0.5q12 0 27 -7t15 -29q0 -17 -6.5 -27t-15 -15.5t-15.5 -7.5l-7 -2q23 -51 41 -93q15 -37 28 -71t13 -48q0 -27 -17.5 -45t-46.5 -18q-28 0 -45.5 14t-28.5 41
q-5 10 -12.5 29t-17 41.5t-19 46.5t-17 43t-12 31.5l-4.5 12.5l-186 -20l-9 -27q-5 -13 -13 -32t-19 -42q-17 -35 -38.5 -49.5t-44.5 -14.5q-29 0 -40 16.5t-11 43.5q0 13 7.5 36t20.5 53.5t30 68t36 80.5t34 79.5t26 71t17 68.5t6 72q0 18 5 36t15 32t25 22.5t34 8.5z
M279 417l-58 -147l113 7zM377 712q-5 -10 -21.5 -11t-38.5 3.5t-47 13t-47.5 17.5t-40 17t-24.5 11q-24 11 -33.5 33t-1.5 42q11 20 35 26t46 -8q7 -4 24 -13.5t38 -22t43 -27.5t39 -29.5t25.5 -28t3.5 -23.5z" />
    <glyph glyph-name="Aacute" unicode="&#xc1;" horiz-adv-x="570" 
d="M261 694q29 0 46 -15t26 -43q4 -14 20 -51.5t36.5 -87t42.5 -103.5t39 -100h11q5 0 11 0.5t13 0.5q12 0 27 -7t15 -29q0 -17 -6.5 -27t-15 -15.5t-15.5 -7.5l-7 -2q23 -51 41 -93q15 -37 28 -71t13 -48q0 -27 -17.5 -45t-46.5 -18q-28 0 -45.5 14t-28.5 41
q-5 10 -12.5 29t-17 41.5t-19 46.5t-17 43t-12 31.5l-4.5 12.5l-186 -20l-9 -27q-5 -13 -13 -32t-19 -42q-17 -35 -38.5 -49.5t-44.5 -14.5q-29 0 -40 16.5t-11 43.5q0 13 7.5 36t20.5 53.5t30 68t36 80.5t34 79.5t26 71t17 68.5t6 72q0 18 5 36t15 32t25 22.5t34 8.5z
M279 417l-58 -147l113 7zM149 712q-5 10 3.5 23.5t25.5 28t39 29.5t43 27.5t38 22t24 13.5q22 14 46 8t35 -26q8 -20 -1.5 -42t-33.5 -33q-7 -3 -24.5 -11t-40 -17t-47.5 -17.5t-47 -13t-38.5 -3.5t-21.5 11z" />
    <glyph glyph-name="Acircumflex" unicode="&#xc2;" horiz-adv-x="570" 
d="M261 694q29 0 46 -15t26 -43q4 -14 20 -51.5t36.5 -87t42.5 -103.5t39 -100h11q5 0 11 0.5t13 0.5q12 0 27 -7t15 -29q0 -17 -6.5 -27t-15 -15.5t-15.5 -7.5l-7 -2q23 -51 41 -93q15 -37 28 -71t13 -48q0 -27 -17.5 -45t-46.5 -18q-28 0 -45.5 14t-28.5 41
q-5 10 -12.5 29t-17 41.5t-19 46.5t-17 43t-12 31.5l-4.5 12.5l-186 -20l-9 -27q-5 -13 -13 -32t-19 -42q-17 -35 -38.5 -49.5t-44.5 -14.5q-29 0 -40 16.5t-11 43.5q0 13 7.5 36t20.5 53.5t30 68t36 80.5t34 79.5t26 71t17 68.5t6 72q0 18 5 36t15 32t25 22.5t34 8.5z
M279 417l-58 -147l113 7zM414 788q15 -14 14.5 -29.5t-10 -26.5t-24.5 -14.5t-30 6.5q-9 6 -20 15.5t-23.5 18t-26 15t-26.5 6.5t-26.5 -6.5t-26 -15t-23.5 -18t-20 -15.5q-15 -10 -30 -6.5t-24.5 14.5t-10 26.5t14.5 29.5q18 20 41 37q20 14 46.5 25.5t58.5 11.5
t58.5 -11.5t46.5 -25.5q23 -17 41 -37z" />
    <glyph glyph-name="Atilde" unicode="&#xc3;" horiz-adv-x="570" 
d="M261 694q29 0 46 -15t26 -43q4 -14 20 -51.5t36.5 -87t42.5 -103.5t39 -100h11q5 0 11 0.5t13 0.5q12 0 27 -7t15 -29q0 -17 -6.5 -27t-15 -15.5t-15.5 -7.5l-7 -2q23 -51 41 -93q15 -37 28 -71t13 -48q0 -27 -17.5 -45t-46.5 -18q-28 0 -45.5 14t-28.5 41
q-5 10 -12.5 29t-17 41.5t-19 46.5t-17 43t-12 31.5l-4.5 12.5l-186 -20l-9 -27q-5 -13 -13 -32t-19 -42q-17 -35 -38.5 -49.5t-44.5 -14.5q-29 0 -40 16.5t-11 43.5q0 13 7.5 36t20.5 53.5t30 68t36 80.5t34 79.5t26 71t17 68.5t6 72q0 18 5 36t15 32t25 22.5t34 8.5z
M279 417l-58 -147l113 7zM169 733q-19 -17 -38.5 -16.5t-31.5 12t-13.5 30.5t14.5 39q29 32 65 45t78 2q31 -9 52 -20t38.5 -16t35 2t41.5 34q19 12 36.5 11t28 -11.5t13 -27.5t-8.5 -37q-11 -11 -22 -23t-24 -21q-18 -13 -38 -18t-41 -4.5t-42 5.5t-40 13t-36.5 15t-37.5 9
q-11 -3 -16 -8.5t-13 -14.5z" />
    <glyph glyph-name="Adieresis" unicode="&#xc4;" horiz-adv-x="570" 
d="M261 694q29 0 46 -15t26 -43q4 -14 20 -51.5t36.5 -87t42.5 -103.5t39 -100h11q5 0 11 0.5t13 0.5q12 0 27 -7t15 -29q0 -17 -6.5 -27t-15 -15.5t-15.5 -7.5l-7 -2q23 -51 41 -93q15 -37 28 -71t13 -48q0 -27 -17.5 -45t-46.5 -18q-28 0 -45.5 14t-28.5 41
q-5 10 -12.5 29t-17 41.5t-19 46.5t-17 43t-12 31.5l-4.5 12.5l-186 -20l-9 -27q-5 -13 -13 -32t-19 -42q-17 -35 -38.5 -49.5t-44.5 -14.5q-29 0 -40 16.5t-11 43.5q0 13 7.5 36t20.5 53.5t30 68t36 80.5t34 79.5t26 71t17 68.5t6 72q0 18 5 36t15 32t25 22.5t34 8.5z
M279 417l-58 -147l113 7zM112 787q0 26 17 43t43 17t43 -17t17 -43t-17 -42.5t-43 -16.5t-43 16.5t-17 42.5zM290 787q0 26 16.5 43t42.5 17t43.5 -17t17.5 -43t-17.5 -42.5t-43.5 -16.5t-42.5 16.5t-16.5 42.5z" />
    <glyph glyph-name="Aring" unicode="&#xc5;" horiz-adv-x="570" 
d="M261 694q29 0 46 -15t26 -43q4 -14 20 -51.5t36.5 -87t42.5 -103.5t39 -100h11q5 0 11 0.5t13 0.5q12 0 27 -7t15 -29q0 -17 -6.5 -27t-15 -15.5t-15.5 -7.5l-7 -2q23 -51 41 -93q15 -37 28 -71t13 -48q0 -27 -17.5 -45t-46.5 -18q-28 0 -45.5 14t-28.5 41
q-5 10 -12.5 29t-17 41.5t-19 46.5t-17 43t-12 31.5l-4.5 12.5l-186 -20l-9 -27q-5 -13 -13 -32t-19 -42q-17 -35 -38.5 -49.5t-44.5 -14.5q-29 0 -40 16.5t-11 43.5q0 13 7.5 36t20.5 53.5t30 68t36 80.5t34 79.5t26 71t17 68.5t6 72q0 18 5 36t15 32t25 22.5t34 8.5z
M279 417l-58 -147l113 7zM222 796q0 -22 13 -35t35 -13q21 0 35 13t14 35q0 21 -14 35t-35 14q-22 0 -35 -14t-13 -35zM179 796q0 38 26 65t65 27q19 0 36 -7t29.5 -19.5t19.5 -29.5t7 -36q0 -39 -27 -65t-65 -26q-39 0 -65 26t-26 65z" />
    <glyph glyph-name="AE" unicode="&#xc6;" horiz-adv-x="935" 
d="M426 666q4 0 46 -5t138 -5q34 0 57.5 1t41.5 1.5t32.5 1.5t31.5 1q34 0 56.5 -15t22.5 -44q0 -33 -18 -47t-51 -14q-39 0 -80.5 0.5t-78.5 1t-67.5 1t-47.5 -0.5q2 -11 4 -28t4 -35.5t4.5 -37.5t4.5 -35q19 1 52 4t68 6t66.5 5t47.5 2q37 0 55.5 -13.5t18.5 -43.5
t-18.5 -47.5t-63.5 -17.5q-17 0 -43 -1.5t-55 -4t-57.5 -5.5t-50.5 -5q2 -34 10 -75t18 -83q72 0 114.5 13t70 28t49 28t51.5 13q32 0 43 -16t11 -42q0 -29 -29 -54.5t-75.5 -46t-105 -34.5t-117.5 -21q0 -14 -16.5 -30t-42.5 -16q-33 0 -53.5 12t-28.5 42q-4 16 -9 39.5
t-8.5 45.5t-6 38t-2.5 17l-197 -8q-2 -5 -13.5 -29t-30.5 -51.5t-43 -49.5t-51 -22q-29 0 -41.5 14.5t-12.5 34.5v10t2 10q2 13 16 40.5t34 62.5t43 76.5t43 83.5q22 48 39.5 85t31.5 68t26.5 59t26.5 58q16 35 49.5 57.5t75.5 22.5h9zM370 471l-90 -227h122z" />
    <glyph glyph-name="Ccedilla" unicode="&#xc7;" horiz-adv-x="617" 
d="M256 668q35 0 66 -8t58 -21t49 -30t38 -34q30 -32 46 -54.5t16 -52.5q0 -26 -16.5 -41t-39.5 -15q-27 0 -48 20.5t-43 45t-50 45t-68 20.5q-18 0 -37.5 -10.5t-35 -31t-25.5 -50.5t-10 -68q0 -64 17 -113.5t44.5 -83.5t62.5 -52t72 -18q36 0 60 9.5t40.5 23.5t25.5 29
t15 27q14 32 29.5 49t47.5 17q15 0 26 -6.5t18 -16.5t10 -22.5t3 -25.5q0 -29 -18.5 -65.5t-54 -68.5t-87 -53.5t-117.5 -21.5q-80 0 -142.5 31t-105.5 84.5t-66 125.5t-23 155q0 44 13 93.5t42.5 91t75.5 69t112 27.5zM289 -20q0 22 11.5 32.5t25.5 10.5t25.5 -10t13.5 -30
q-1 2 -1 5q0 2 -0.5 4.5t-0.5 4.5q-1 1 -1 3v1q1 0 3 -9.5t3 -10.5q11 -14 34 -17.5t46.5 -10t41.5 -23.5t18 -59q0 -57 -30 -79t-84 -22q-20 0 -31 11t-11 25q0 12 9 23t27 16q13 2 27.5 5.5t17.5 18.5q-3 11 -12 16t-21 7t-25 3t-23 5q-11 4 -22.5 12t-20.5 18.5
t-14.5 23.5t-5.5 26z" />
    <glyph glyph-name="Egrave" unicode="&#xc8;" horiz-adv-x="589" 
d="M278 646q34 0 57.5 1t41.5 1.5t32.5 1.5t31.5 1q34 0 56.5 -15t22.5 -44q0 -33 -18 -47t-51 -14q-39 0 -80.5 -0.5t-78.5 -1t-67.5 -1t-47.5 -1.5q4 -23 8 -55.5t9 -64.5q19 1 52 4t68 6t66.5 5t47.5 2q37 0 55.5 -13.5t18.5 -43.5t-18.5 -47.5t-63.5 -17.5
q-17 0 -44.5 -1.5t-58 -4t-60.5 -5.5t-52 -5q2 -34 4 -75t3 -83q72 0 119 13t80.5 28t59.5 28t56 13q32 0 43 -16t11 -42q0 -36 -42 -65.5t-105.5 -51t-138 -33.5t-139.5 -12q-46 0 -66 23t-20 59q0 133 -8.5 221t-18.5 145t-18.5 89.5t-8.5 56.5q0 13 3.5 26t12 23.5
t22.5 17t34 6.5zM365 700q-5 -10 -21.5 -11t-38.5 3.5t-47 13t-47.5 17.5t-40 17t-24.5 11q-24 11 -33.5 33t-1.5 42q11 20 35 26t46 -8q7 -4 24 -13.5t38 -22t43 -27.5t39 -29.5t25.5 -28t3.5 -23.5z" />
    <glyph glyph-name="Eacute" unicode="&#xc9;" horiz-adv-x="589" 
d="M278 646q34 0 57.5 1t41.5 1.5t32.5 1.5t31.5 1q34 0 56.5 -15t22.5 -44q0 -33 -18 -47t-51 -14q-39 0 -80.5 -0.5t-78.5 -1t-67.5 -1t-47.5 -1.5q4 -23 8 -55.5t9 -64.5q19 1 52 4t68 6t66.5 5t47.5 2q37 0 55.5 -13.5t18.5 -43.5t-18.5 -47.5t-63.5 -17.5
q-17 0 -44.5 -1.5t-58 -4t-60.5 -5.5t-52 -5q2 -34 4 -75t3 -83q72 0 119 13t80.5 28t59.5 28t56 13q32 0 43 -16t11 -42q0 -36 -42 -65.5t-105.5 -51t-138 -33.5t-139.5 -12q-46 0 -66 23t-20 59q0 133 -8.5 221t-18.5 145t-18.5 89.5t-8.5 56.5q0 13 3.5 26t12 23.5
t22.5 17t34 6.5zM137 700q-5 10 3.5 23.5t25.5 28t39 29.5t43 27.5t38 22t24 13.5q22 14 46 8t35 -26q8 -20 -1.5 -42t-33.5 -33q-7 -3 -24.5 -11t-40 -17t-47.5 -17.5t-47 -13t-38.5 -3.5t-21.5 11z" />
    <glyph glyph-name="Ecircumflex" unicode="&#xca;" horiz-adv-x="589" 
d="M278 646q34 0 57.5 1t41.5 1.5t32.5 1.5t31.5 1q34 0 56.5 -15t22.5 -44q0 -33 -18 -47t-51 -14q-39 0 -80.5 -0.5t-78.5 -1t-67.5 -1t-47.5 -1.5q4 -23 8 -55.5t9 -64.5q19 1 52 4t68 6t66.5 5t47.5 2q37 0 55.5 -13.5t18.5 -43.5t-18.5 -47.5t-63.5 -17.5
q-17 0 -44.5 -1.5t-58 -4t-60.5 -5.5t-52 -5q2 -34 4 -75t3 -83q72 0 119 13t80.5 28t59.5 28t56 13q32 0 43 -16t11 -42q0 -36 -42 -65.5t-105.5 -51t-138 -33.5t-139.5 -12q-46 0 -66 23t-20 59q0 133 -8.5 221t-18.5 145t-18.5 89.5t-8.5 56.5q0 13 3.5 26t12 23.5
t22.5 17t34 6.5zM402 776q15 -14 14.5 -29.5t-10 -26.5t-24.5 -14.5t-30 6.5q-9 6 -20 15.5t-23.5 18t-26 15t-26.5 6.5t-26.5 -6.5t-26 -15t-23.5 -18t-20 -15.5q-15 -10 -30 -6.5t-24.5 14.5t-10 26.5t14.5 29.5q18 20 41 37q20 14 46.5 25.5t58.5 11.5t58.5 -11.5
t46.5 -25.5q23 -17 41 -37z" />
    <glyph glyph-name="Edieresis" unicode="&#xcb;" horiz-adv-x="589" 
d="M278 646q34 0 57.5 1t41.5 1.5t32.5 1.5t31.5 1q34 0 56.5 -15t22.5 -44q0 -33 -18 -47t-51 -14q-39 0 -80.5 -0.5t-78.5 -1t-67.5 -1t-47.5 -1.5q4 -23 8 -55.5t9 -64.5q19 1 52 4t68 6t66.5 5t47.5 2q37 0 55.5 -13.5t18.5 -43.5t-18.5 -47.5t-63.5 -17.5
q-17 0 -44.5 -1.5t-58 -4t-60.5 -5.5t-52 -5q2 -34 4 -75t3 -83q72 0 119 13t80.5 28t59.5 28t56 13q32 0 43 -16t11 -42q0 -36 -42 -65.5t-105.5 -51t-138 -33.5t-139.5 -12q-46 0 -66 23t-20 59q0 133 -8.5 221t-18.5 145t-18.5 89.5t-8.5 56.5q0 13 3.5 26t12 23.5
t22.5 17t34 6.5zM100 775q0 26 17 43t43 17t43 -17t17 -43t-17 -42.5t-43 -16.5t-43 16.5t-17 42.5zM278 775q0 26 16.5 43t42.5 17t43.5 -17t17.5 -43t-17.5 -42.5t-43.5 -16.5t-42.5 16.5t-16.5 42.5z" />
    <glyph glyph-name="Igrave" unicode="&#xcc;" horiz-adv-x="321" 
d="M151 72q0 133 -8.5 226t-18.5 155t-18.5 99.5t-8.5 61.5q0 13 3.5 26t12 23.5t22.5 17t34 6.5q57 0 78 -84q15 -65 28 -198t14 -325q0 -28 -6 -45.5t-16 -28t-23 -14.5t-27 -4q-29 0 -47.5 21t-18.5 63zM274 748q-5 -10 -21.5 -11t-38.5 3.5t-47 13t-47.5 17.5t-40 17
t-24.5 11q-24 11 -33.5 33t-1.5 42q11 20 35 26t46 -8q7 -4 24 -13.5t38 -22t43 -27.5t39 -29.5t25.5 -28t3.5 -23.5z" />
    <glyph glyph-name="Iacute" unicode="&#xcd;" horiz-adv-x="308" 
d="M123 72q0 133 -8.5 226t-18.5 155t-18.5 99.5t-8.5 61.5q0 13 3.5 26t12 23.5t22.5 17t34 6.5q57 0 78 -84q15 -65 28 -198t14 -325q0 -28 -6 -45.5t-16 -28t-23 -14.5t-27 -4q-29 0 -47.5 21t-18.5 63zM18 748q-5 10 3.5 23.5t25.5 28t39 29.5t43 27.5t38 22t24 13.5
q22 14 46 8t35 -26q8 -20 -1.5 -42t-33.5 -33q-7 -3 -24.5 -11t-40 -17t-47.5 -17.5t-47 -13t-38.5 -3.5t-21.5 11z" />
    <glyph glyph-name="Icircumflex" unicode="&#xce;" horiz-adv-x="370" 
d="M163 72q0 133 -8.5 226t-18.5 155t-18.5 99.5t-8.5 61.5q0 13 3.5 26t12 23.5t22.5 17t34 6.5q57 0 78 -84q15 -65 28 -198t14 -325q0 -28 -6 -45.5t-16 -28t-23 -14.5t-27 -4q-29 0 -47.5 21t-18.5 63zM323 824q15 -14 14.5 -29.5t-10 -26.5t-24.5 -14.5t-30 6.5
q-9 6 -20 15.5t-23.5 18t-26 15t-26.5 6.5t-26.5 -6.5t-26 -15t-23.5 -18t-20 -15.5q-15 -10 -30 -6.5t-24.5 14.5t-10 26.5t14.5 29.5q18 20 41 37q20 14 46.5 25.5t58.5 11.5t58.5 -11.5t46.5 -25.5q23 -17 41 -37z" />
    <glyph glyph-name="Idieresis" unicode="&#xcf;" horiz-adv-x="346" 
d="M158 72q0 133 -8.5 226t-18.5 155t-18.5 99.5t-8.5 61.5q0 13 3.5 26t12 23.5t22.5 17t34 6.5q57 0 78 -84q15 -65 28 -198t14 -325q0 -28 -6 -45.5t-16 -28t-23 -14.5t-27 -4q-29 0 -47.5 21t-18.5 63zM16 823q0 26 17 43t43 17t43 -17t17 -43t-17 -42.5t-43 -16.5
t-43 16.5t-17 42.5zM194 823q0 26 16.5 43t42.5 17t43.5 -17t17.5 -43t-17.5 -42.5t-43.5 -16.5t-42.5 16.5t-16.5 42.5z" />
    <glyph glyph-name="Eth" unicode="&#xd0;" horiz-adv-x="632" 
d="M51 341q-6 56 -13.5 97t-14 70.5t-11 50t-4.5 37.5q0 13 3.5 27.5t14 27t30.5 20.5t54 8t62.5 -5t62 -22t78 -49.5t110.5 -87.5q56 -47 96 -88t65.5 -79.5t37.5 -75.5t12 -75q0 -39 -13 -78t-49.5 -70t-101.5 -50.5t-169 -19.5q-41 0 -83 4.5t-76.5 15.5t-56 29.5
t-21.5 47.5q0 39 -1 74t-3 67h-38q-25 0 -41 5t-25 14t-12.5 21t-3.5 26q0 26 18.5 42t56.5 16h36zM209 133q21 -8 58 -14.5t87 -6.5q22 0 43.5 5.5t38 16t26.5 26.5t10 37q0 26 -14 56t-37 61.5t-53.5 62.5t-63 58.5t-65.5 50.5t-61 38q4 -31 8.5 -77.5t9.5 -100.5
q34 2 59 3.5t42 1.5q25 0 45 -12.5t20 -38.5q0 -29 -13 -46t-51 -26q-21 -5 -43.5 -7.5t-49.5 -3.5q2 -22 2.5 -43t1.5 -41z" />
    <glyph glyph-name="Ntilde" unicode="&#xd1;" horiz-adv-x="612" 
d="M102 644q23 0 38 -7.5t26 -21t20 -31.5t20 -38q12 -22 28.5 -48.5t36 -56t40 -59.5t40.5 -58q46 -66 97 -136q-9 93 -16 174q-3 34 -6 69t-5 66t-3.5 55.5t-1.5 38.5q0 18 6.5 32.5t17 24.5t23 15.5t25.5 5.5q36 0 57.5 -21t21.5 -67q0 -51 3.5 -118.5t8 -140.5t8 -145
t3.5 -131q0 -40 -21.5 -57t-50.5 -17q-17 0 -37 8.5t-42 36.5q-18 22 -38.5 48t-42 54t-43 55.5t-41.5 53.5q-47 60 -94 122q-1 -50 -1 -98v-176q0 -46 -14 -69t-55 -23q-14 0 -28 6t-25 17.5t-18.5 28.5t-7.5 40q0 19 1 31t1.5 25t1.5 32.5t1 54.5q0 23 -1 56.5t-2 71.5
t-2.5 77t-2.5 72t-2 56t-1 29q0 26 21.5 44.5t55.5 18.5zM160 709q-19 -17 -38.5 -16.5t-31.5 12t-13.5 30.5t14.5 39q29 32 65 45t78 2q31 -9 52 -20t38.5 -16t35 2t41.5 34q19 12 36.5 11t28 -11.5t13 -27.5t-8.5 -37q-11 -11 -22 -23t-24 -21q-18 -13 -38 -18t-41 -4.5
t-42 5.5t-40 13t-36.5 15t-37.5 9q-11 -3 -16 -8.5t-13 -14.5z" />
    <glyph glyph-name="Ograve" unicode="&#xd2;" horiz-adv-x="647" 
d="M8 312q0 71 21 128.5t60 98.5t95.5 63.5t127.5 22.5t128 -21.5t96.5 -62t61 -97.5t21.5 -128t-20 -130.5t-58 -103t-93 -68t-126 -24.5t-129 23.5t-99 66.5t-63.5 102t-22.5 130zM158 312q0 -83 40.5 -134t123.5 -51q42 0 70 16t45.5 42.5t25 60.5t7.5 70t-9.5 69.5
t-29.5 59.5t-50.5 41.5t-72.5 15.5q-32 0 -59 -16t-47.5 -42t-32 -60.5t-11.5 -71.5zM434 656q-5 -10 -21.5 -11t-38.5 3.5t-47 13t-47.5 17.5t-40 17t-24.5 11q-24 11 -33.5 33t-1.5 42q11 20 35 26t46 -8q7 -4 24 -13.5t38 -22t43 -27.5t39 -29.5t25.5 -28t3.5 -23.5z" />
    <glyph glyph-name="Oacute" unicode="&#xd3;" horiz-adv-x="647" 
d="M8 312q0 71 21 128.5t60 98.5t95.5 63.5t127.5 22.5t128 -21.5t96.5 -62t61 -97.5t21.5 -128t-20 -130.5t-58 -103t-93 -68t-126 -24.5t-129 23.5t-99 66.5t-63.5 102t-22.5 130zM158 312q0 -83 40.5 -134t123.5 -51q42 0 70 16t45.5 42.5t25 60.5t7.5 70t-9.5 69.5
t-29.5 59.5t-50.5 41.5t-72.5 15.5q-32 0 -59 -16t-47.5 -42t-32 -60.5t-11.5 -71.5zM206 656q-5 10 3.5 23.5t25.5 28t39 29.5t43 27.5t38 22t24 13.5q22 14 46 8t35 -26q8 -20 -1.5 -42t-33.5 -33q-7 -3 -24.5 -11t-40 -17t-47.5 -17.5t-47 -13t-38.5 -3.5t-21.5 11z" />
    <glyph glyph-name="Ocircumflex" unicode="&#xd4;" horiz-adv-x="647" 
d="M8 312q0 71 21 128.5t60 98.5t95.5 63.5t127.5 22.5t128 -21.5t96.5 -62t61 -97.5t21.5 -128t-20 -130.5t-58 -103t-93 -68t-126 -24.5t-129 23.5t-99 66.5t-63.5 102t-22.5 130zM158 312q0 -83 40.5 -134t123.5 -51q42 0 70 16t45.5 42.5t25 60.5t7.5 70t-9.5 69.5
t-29.5 59.5t-50.5 41.5t-72.5 15.5q-32 0 -59 -16t-47.5 -42t-32 -60.5t-11.5 -71.5zM471 732q15 -14 14.5 -29.5t-10 -26.5t-24.5 -14.5t-30 6.5q-9 6 -20 15.5t-23.5 18t-26 15t-26.5 6.5t-26.5 -6.5t-26 -15t-23.5 -18t-20 -15.5q-15 -10 -30 -6.5t-24.5 14.5t-10 26.5
t14.5 29.5q18 20 41 37q20 14 46.5 25.5t58.5 11.5t58.5 -11.5t46.5 -25.5q23 -17 41 -37z" />
    <glyph glyph-name="Otilde" unicode="&#xd5;" horiz-adv-x="647" 
d="M8 312q0 71 21 128.5t60 98.5t95.5 63.5t127.5 22.5t128 -21.5t96.5 -62t61 -97.5t21.5 -128t-20 -130.5t-58 -103t-93 -68t-126 -24.5t-129 23.5t-99 66.5t-63.5 102t-22.5 130zM158 312q0 -83 40.5 -134t123.5 -51q42 0 70 16t45.5 42.5t25 60.5t7.5 70t-9.5 69.5
t-29.5 59.5t-50.5 41.5t-72.5 15.5q-32 0 -59 -16t-47.5 -42t-32 -60.5t-11.5 -71.5zM226 677q-19 -17 -38.5 -16.5t-31.5 12t-13.5 30.5t14.5 39q29 32 65 45t78 2q31 -9 52 -20t38.5 -16t35 2t41.5 34q19 12 36.5 11t28 -11.5t13 -27.5t-8.5 -37q-11 -11 -22 -23t-24 -21
q-18 -13 -38 -18t-41 -4.5t-42 5.5t-40 13t-36.5 15t-37.5 9q-11 -3 -16 -8.5t-13 -14.5z" />
    <glyph glyph-name="Odieresis" unicode="&#xd6;" horiz-adv-x="647" 
d="M8 312q0 71 21 128.5t60 98.5t95.5 63.5t127.5 22.5t128 -21.5t96.5 -62t61 -97.5t21.5 -128t-20 -130.5t-58 -103t-93 -68t-126 -24.5t-129 23.5t-99 66.5t-63.5 102t-22.5 130zM158 312q0 -83 40.5 -134t123.5 -51q42 0 70 16t45.5 42.5t25 60.5t7.5 70t-9.5 69.5
t-29.5 59.5t-50.5 41.5t-72.5 15.5q-32 0 -59 -16t-47.5 -42t-32 -60.5t-11.5 -71.5zM169 731q0 26 17 43t43 17t43 -17t17 -43t-17 -42.5t-43 -16.5t-43 16.5t-17 42.5zM347 731q0 26 16.5 43t42.5 17t43.5 -17t17.5 -43t-17.5 -42.5t-43.5 -16.5t-42.5 16.5t-16.5 42.5z
" />
    <glyph glyph-name="multiply" unicode="&#xd7;" horiz-adv-x="520" 
d="M266 208l-84 -84q-35 -35 -54.5 -38.5t-38.5 15.5q-38 39 15 92l87 88q-35 33 -53.5 50t-32.5 31q-6 7 -12.5 17t-9.5 21.5t-1.5 23.5t10.5 21q16 16 37.5 16t46.5 -20q19 -16 40.5 -36.5t48.5 -46.5l83 86q9 9 19 16t20.5 10.5t21 2t19.5 -10.5q20 -21 22.5 -40.5
t-24.5 -47.5q-16 -16 -37.5 -39t-49.5 -52l92 -92q14 -14 20 -26.5t5.5 -23.5t-5.5 -20.5t-12 -16.5q-15 -15 -36 -13.5t-42 23.5z" />
    <glyph glyph-name="Oslash" unicode="&#xd8;" horiz-adv-x="645" 
d="M146 1q43 118 82 231t70.5 206t53 158t27.5 86q17 57 69 57q19 0 30.5 -6.5t17.5 -16t7.5 -21.5t-0.5 -23q-4 -21 -17.5 -65.5t-33.5 -104.5t-45 -130.5t-50.5 -142.5t-50.5 -141t-45 -125q-13 -35 -29.5 -48.5t-34.5 -13.5q-29 0 -45 15.5t-16 38.5q0 18 10 46zM6 312
q0 71 21 128.5t60 98.5t95.5 63.5t127.5 22.5t128 -21.5t96.5 -62t61 -97.5t21.5 -128t-20 -130.5t-58 -103t-93 -68t-126 -24.5t-129 23.5t-99 66.5t-63.5 102t-22.5 130zM156 312q0 -83 40.5 -134t123.5 -51q42 0 70 16t45.5 42.5t25 60.5t7.5 70t-9.5 69.5t-29.5 59.5
t-50.5 41.5t-72.5 15.5q-32 0 -59 -16t-47.5 -42t-32 -60.5t-11.5 -71.5z" />
    <glyph glyph-name="Ugrave" unicode="&#xd9;" horiz-adv-x="588" 
d="M132 675q11 0 24 -3t24 -9.5t18 -16t7 -22.5t-5.5 -50t-12.5 -84.5t-12.5 -99t-5.5 -93.5q0 -32 7 -64.5t23 -58.5t43 -43t66 -17q35 0 58 15.5t36.5 41t18.5 58.5t5 68q0 40 -7 81t-15.5 78t-15.5 68t-7 51t7 33.5t18 21.5t23.5 11.5t23.5 3.5q19 0 37 -11.5t26 -37.5
q9 -32 18.5 -73.5t17 -84.5t12 -83.5t4.5 -68.5q0 -54 -13 -107t-43 -94.5t-80 -67.5t-124 -26q-75 0 -129 23t-89 63.5t-52 97t-17 122.5q0 39 4.5 84t11 90t13.5 86t12 72q3 17 24 31.5t46 14.5zM419 696q-5 -10 -21.5 -11t-38.5 3.5t-47 13t-47.5 17.5t-40 17t-24.5 11
q-24 11 -33.5 33t-1.5 42q11 20 35 26t46 -8q7 -4 24 -13.5t38 -22t43 -27.5t39 -29.5t25.5 -28t3.5 -23.5z" />
    <glyph glyph-name="Uacute" unicode="&#xda;" horiz-adv-x="588" 
d="M132 675q11 0 24 -3t24 -9.5t18 -16t7 -22.5t-5.5 -50t-12.5 -84.5t-12.5 -99t-5.5 -93.5q0 -32 7 -64.5t23 -58.5t43 -43t66 -17q35 0 58 15.5t36.5 41t18.5 58.5t5 68q0 40 -7 81t-15.5 78t-15.5 68t-7 51t7 33.5t18 21.5t23.5 11.5t23.5 3.5q19 0 37 -11.5t26 -37.5
q9 -32 18.5 -73.5t17 -84.5t12 -83.5t4.5 -68.5q0 -54 -13 -107t-43 -94.5t-80 -67.5t-124 -26q-75 0 -129 23t-89 63.5t-52 97t-17 122.5q0 39 4.5 84t11 90t13.5 86t12 72q3 17 24 31.5t46 14.5zM191 696q-5 10 3.5 23.5t25.5 28t39 29.5t43 27.5t38 22t24 13.5
q22 14 46 8t35 -26q8 -20 -1.5 -42t-33.5 -33q-7 -3 -24.5 -11t-40 -17t-47.5 -17.5t-47 -13t-38.5 -3.5t-21.5 11z" />
    <glyph glyph-name="Ucircumflex" unicode="&#xdb;" horiz-adv-x="588" 
d="M132 675q11 0 24 -3t24 -9.5t18 -16t7 -22.5t-5.5 -50t-12.5 -84.5t-12.5 -99t-5.5 -93.5q0 -32 7 -64.5t23 -58.5t43 -43t66 -17q35 0 58 15.5t36.5 41t18.5 58.5t5 68q0 40 -7 81t-15.5 78t-15.5 68t-7 51t7 33.5t18 21.5t23.5 11.5t23.5 3.5q19 0 37 -11.5t26 -37.5
q9 -32 18.5 -73.5t17 -84.5t12 -83.5t4.5 -68.5q0 -54 -13 -107t-43 -94.5t-80 -67.5t-124 -26q-75 0 -129 23t-89 63.5t-52 97t-17 122.5q0 39 4.5 84t11 90t13.5 86t12 72q3 17 24 31.5t46 14.5zM456 772q15 -14 14.5 -29.5t-10 -26.5t-24.5 -14.5t-30 6.5q-9 6 -20 15.5
t-23.5 18t-26 15t-26.5 6.5t-26.5 -6.5t-26 -15t-23.5 -18t-20 -15.5q-15 -10 -30 -6.5t-24.5 14.5t-10 26.5t14.5 29.5q18 20 41 37q20 14 46.5 25.5t58.5 11.5t58.5 -11.5t46.5 -25.5q23 -17 41 -37z" />
    <glyph glyph-name="Udieresis" unicode="&#xdc;" horiz-adv-x="588" 
d="M132 675q11 0 24 -3t24 -9.5t18 -16t7 -22.5t-5.5 -50t-12.5 -84.5t-12.5 -99t-5.5 -93.5q0 -32 7 -64.5t23 -58.5t43 -43t66 -17q35 0 58 15.5t36.5 41t18.5 58.5t5 68q0 40 -7 81t-15.5 78t-15.5 68t-7 51t7 33.5t18 21.5t23.5 11.5t23.5 3.5q19 0 37 -11.5t26 -37.5
q9 -32 18.5 -73.5t17 -84.5t12 -83.5t4.5 -68.5q0 -54 -13 -107t-43 -94.5t-80 -67.5t-124 -26q-75 0 -129 23t-89 63.5t-52 97t-17 122.5q0 39 4.5 84t11 90t13.5 86t12 72q3 17 24 31.5t46 14.5zM154 771q0 26 17 43t43 17t43 -17t17 -43t-17 -42.5t-43 -16.5t-43 16.5
t-17 42.5zM332 771q0 26 16.5 43t42.5 17t43.5 -17t17.5 -43t-17.5 -42.5t-43.5 -16.5t-42.5 16.5t-16.5 42.5z" />
    <glyph glyph-name="Yacute" unicode="&#xdd;" horiz-adv-x="522" 
d="M189 71q0 34 -0.5 55t-1.5 35.5t-2.5 25t-2.5 25.5q-8 23 -22.5 50t-31.5 55.5t-34.5 58t-32.5 56.5q-26 49 -44.5 81t-18.5 57q0 27 17.5 42.5t37.5 15.5q14 0 24.5 -3.5t20 -11.5t19 -21.5t21.5 -32.5q11 -20 30.5 -52.5t38.5 -64.5q22 -37 46 -77q31 48 59 95
q24 40 49 83t40 73q8 17 24.5 32t43.5 15q22 0 40 -14t18 -34q0 -8 -2.5 -17t-6 -17t-6.5 -14.5t-4 -9.5q-22 -49 -44.5 -87.5t-46 -75.5t-48 -78t-48.5 -96q2 -27 4 -63.5t2 -77.5q0 -28 -6 -45.5t-16 -28t-23 -14.5t-27 -4q-29 0 -47.5 21t-18.5 63zM116 672
q-5 10 3.5 23.5t25.5 28t39 29.5t43 27.5t38 22t24 13.5q22 14 46 8t35 -26q8 -20 -1.5 -42t-33.5 -33q-7 -3 -24.5 -11t-40 -17t-47.5 -17.5t-47 -13t-38.5 -3.5t-21.5 11z" />
    <glyph glyph-name="Thorn" unicode="&#xde;" horiz-adv-x="529" 
d="M504 345q0 -47 -24 -86t-64 -66.5t-92 -42.5t-107 -15q1 -8 2 -19t2 -23t2 -23.5t1 -18.5q0 -36 -16 -52.5t-47 -16.5t-48.5 18.5t-22.5 52.5q-6 43 -14 102.5t-16 125.5t-17 135.5t-17 133.5q-2 11 -3.5 26t-1.5 29q0 41 21.5 59t52.5 18q26 0 45 -18.5t23 -47.5
q3 -22 5.5 -51.5t4.5 -52.5q75 6 136.5 -0.5t104.5 -27t66.5 -55.5t23.5 -84zM365 335q0 20 -14.5 36.5t-39 26.5t-57 13t-69.5 -3l18 -162q75 2 118.5 26t43.5 63z" />
    <glyph glyph-name="germandbls" unicode="&#xdf;" horiz-adv-x="539" 
d="M249 685q23 0 51.5 -6.5t53.5 -25t42 -51.5t17 -86q0 -35 -10.5 -61.5t-23.5 -43.5q-15 -21 -34 -35q44 -10 78 -30q29 -17 53.5 -48t24.5 -81q0 -48 -22.5 -90.5t-60 -73.5t-87 -49t-102.5 -18q2 -16 5 -39.5t6 -49t5 -49.5t2 -41t-5.5 -30t-14.5 -23t-19 -15t-19 -5
q-8 0 -20 3.5t-24 12.5t-22.5 25.5t-14.5 43.5q-4 22 -8.5 61t-9.5 89.5t-9.5 110t-8 122t-6 125.5t-2.5 121q0 87 21 135t50 70.5t61 27t53 4.5zM201 254q0 -43 3.5 -83t8.5 -77q35 6 63.5 17.5t49 26.5t31.5 33t11 36q0 13 -8.5 23t-23.5 17t-34.5 10.5t-40.5 3.5
q-17 0 -32 -2t-28 -5zM249 565q-28 0 -35 -48t-11 -135q17 6 33 21t28 34t19.5 40t7.5 39q0 6 -2 14.5t-7 16t-13 13t-20 5.5z" />
    <glyph glyph-name="agrave" unicode="&#xe0;" 
d="M409 28q-8 19 -21 49.5t-27 69.5q-12 -28 -31.5 -57t-45.5 -53t-58.5 -39t-71.5 -15t-66.5 15t-44.5 42t-25 64t-8 82q0 52 19.5 109.5t52.5 106t76.5 80.5t91.5 32q69 0 110.5 -36t58.5 -113q20 -88 41 -157t41 -117l13.5 -31.5t7.5 -31.5q0 -17 -12 -30t-38 -13
q-27 0 -41 12.5t-22 30.5zM174 97q18 0 41.5 15t45 41.5t36.5 63.5t15 82q0 44 -17 71.5t-47 27.5q-17 0 -39 -16.5t-41.5 -45.5t-33 -68.5t-13.5 -86.5q0 -15 2 -30t8 -27t16 -19.5t27 -7.5zM343 531q-5 -10 -21.5 -11t-38.5 3.5t-47 13t-47.5 17.5t-40 17t-24.5 11
q-24 11 -33.5 33t-1.5 42q11 20 35 26t46 -8q7 -4 24 -13.5t38 -22t43 -27.5t39 -29.5t25.5 -28t3.5 -23.5z" />
    <glyph glyph-name="aacute" unicode="&#xe1;" 
d="M409 28q-8 19 -21 49.5t-27 69.5q-12 -28 -31.5 -57t-45.5 -53t-58.5 -39t-71.5 -15t-66.5 15t-44.5 42t-25 64t-8 82q0 52 19.5 109.5t52.5 106t76.5 80.5t91.5 32q69 0 110.5 -36t58.5 -113q20 -88 41 -157t41 -117l13.5 -31.5t7.5 -31.5q0 -17 -12 -30t-38 -13
q-27 0 -41 12.5t-22 30.5zM174 97q18 0 41.5 15t45 41.5t36.5 63.5t15 82q0 44 -17 71.5t-47 27.5q-17 0 -39 -16.5t-41.5 -45.5t-33 -68.5t-13.5 -86.5q0 -15 2 -30t8 -27t16 -19.5t27 -7.5zM115 531q-5 10 3.5 23.5t25.5 28t39 29.5t43 27.5t38 22t24 13.5q22 14 46 8
t35 -26q8 -20 -1.5 -42t-33.5 -33q-7 -3 -24.5 -11t-40 -17t-47.5 -17.5t-47 -13t-38.5 -3.5t-21.5 11z" />
    <glyph glyph-name="acircumflex" unicode="&#xe2;" 
d="M409 28q-8 19 -21 49.5t-27 69.5q-12 -28 -31.5 -57t-45.5 -53t-58.5 -39t-71.5 -15t-66.5 15t-44.5 42t-25 64t-8 82q0 52 19.5 109.5t52.5 106t76.5 80.5t91.5 32q69 0 110.5 -36t58.5 -113q20 -88 41 -157t41 -117l13.5 -31.5t7.5 -31.5q0 -17 -12 -30t-38 -13
q-27 0 -41 12.5t-22 30.5zM174 97q18 0 41.5 15t45 41.5t36.5 63.5t15 82q0 44 -17 71.5t-47 27.5q-17 0 -39 -16.5t-41.5 -45.5t-33 -68.5t-13.5 -86.5q0 -15 2 -30t8 -27t16 -19.5t27 -7.5zM380 607q15 -14 14.5 -29.5t-10 -26.5t-24.5 -14.5t-30 6.5q-9 6 -20 15.5
t-23.5 18t-26 15t-26.5 6.5t-26.5 -6.5t-26 -15t-23.5 -18t-20 -15.5q-15 -10 -30 -6.5t-24.5 14.5t-10 26.5t14.5 29.5q18 20 41 37q20 14 46.5 25.5t58.5 11.5t58.5 -11.5t46.5 -25.5q23 -17 41 -37z" />
    <glyph glyph-name="atilde" unicode="&#xe3;" 
d="M409 28q-8 19 -21 49.5t-27 69.5q-12 -28 -31.5 -57t-45.5 -53t-58.5 -39t-71.5 -15t-66.5 15t-44.5 42t-25 64t-8 82q0 52 19.5 109.5t52.5 106t76.5 80.5t91.5 32q69 0 110.5 -36t58.5 -113q20 -88 41 -157t41 -117l13.5 -31.5t7.5 -31.5q0 -17 -12 -30t-38 -13
q-27 0 -41 12.5t-22 30.5zM174 97q18 0 41.5 15t45 41.5t36.5 63.5t15 82q0 44 -17 71.5t-47 27.5q-17 0 -39 -16.5t-41.5 -45.5t-33 -68.5t-13.5 -86.5q0 -15 2 -30t8 -27t16 -19.5t27 -7.5zM135 552q-19 -17 -38.5 -16.5t-31.5 12t-13.5 30.5t14.5 39q29 32 65 45t78 2
q31 -9 52 -20t38.5 -16t35 2t41.5 34q19 12 36.5 11t28 -11.5t13 -27.5t-8.5 -37q-11 -11 -22 -23t-24 -21q-18 -13 -38 -18t-41 -4.5t-42 5.5t-40 13t-36.5 15t-37.5 9q-11 -3 -16 -8.5t-13 -14.5z" />
    <glyph glyph-name="adieresis" unicode="&#xe4;" 
d="M409 28q-8 19 -21 49.5t-27 69.5q-12 -28 -31.5 -57t-45.5 -53t-58.5 -39t-71.5 -15t-66.5 15t-44.5 42t-25 64t-8 82q0 52 19.5 109.5t52.5 106t76.5 80.5t91.5 32q69 0 110.5 -36t58.5 -113q20 -88 41 -157t41 -117l13.5 -31.5t7.5 -31.5q0 -17 -12 -30t-38 -13
q-27 0 -41 12.5t-22 30.5zM174 97q18 0 41.5 15t45 41.5t36.5 63.5t15 82q0 44 -17 71.5t-47 27.5q-17 0 -39 -16.5t-41.5 -45.5t-33 -68.5t-13.5 -86.5q0 -15 2 -30t8 -27t16 -19.5t27 -7.5zM78 606q0 26 17 43t43 17t43 -17t17 -43t-17 -42.5t-43 -16.5t-43 16.5t-17 42.5
zM256 606q0 26 16.5 43t42.5 17t43.5 -17t17.5 -43t-17.5 -42.5t-43.5 -16.5t-42.5 16.5t-16.5 42.5z" />
    <glyph glyph-name="aring" unicode="&#xe5;" 
d="M409 28q-8 19 -21 49.5t-27 69.5q-12 -28 -31.5 -57t-45.5 -53t-58.5 -39t-71.5 -15t-66.5 15t-44.5 42t-25 64t-8 82q0 52 19.5 109.5t52.5 106t76.5 80.5t91.5 32q69 0 110.5 -36t58.5 -113q20 -88 41 -157t41 -117l13.5 -31.5t7.5 -31.5q0 -17 -12 -30t-38 -13
q-27 0 -41 12.5t-22 30.5zM174 97q18 0 41.5 15t45 41.5t36.5 63.5t15 82q0 44 -17 71.5t-47 27.5q-17 0 -39 -16.5t-41.5 -45.5t-33 -68.5t-13.5 -86.5q0 -15 2 -30t8 -27t16 -19.5t27 -7.5zM188 615q0 -22 13 -35t35 -13q21 0 35 13t14 35q0 21 -14 35t-35 14
q-22 0 -35 -14t-13 -35zM145 615q0 38 26 65t65 27q19 0 36 -7t29.5 -19.5t19.5 -29.5t7 -36q0 -39 -27 -65t-65 -26q-39 0 -65 26t-26 65z" />
    <glyph glyph-name="ae" unicode="&#xe6;" horiz-adv-x="796" 
d="M386 443q1 0 11 11.5t30 25t50.5 25t72.5 11.5q46 0 81.5 -13t60 -36t37 -54t12.5 -67q0 -42 -18.5 -68t-43 -40.5t-50 -19.5t-40.5 -5q-26 0 -52 0.5t-46.5 1t-33.5 1.5t-13 2q1 -4 5.5 -25t19.5 -45t42 -43.5t73 -19.5q31 0 50 6t32.5 13t25 13t28.5 6q33 0 42.5 -17
t9.5 -36q0 -24 -18.5 -42t-46.5 -29.5t-61 -17t-63 -5.5q-69 0 -122 27t-76 73q-9 -20 -22.5 -39t-34.5 -33.5t-50.5 -23.5t-69.5 -9q-92 0 -134 43t-42 118q0 35 17.5 68t51.5 58.5t84.5 41t115.5 15.5q0 1 -1.5 14t-10 27.5t-27.5 26.5t-53 12q-18 0 -30.5 -3t-24 -6
t-22 -6t-23.5 -3q-26 0 -43 8.5t-17 42.5q0 17 14 33t36.5 28t50.5 19.5t57 7.5q52 0 86 -11.5t55 -25.5q24 -16 38 -36zM442 306q24 -1 47 -1h75q29 0 50 11.5t21 39.5q0 8 -4.5 18.5t-14 19.5t-25 15.5t-36.5 6.5t-40 -8.5t-34.5 -23.5t-25.5 -35t-13 -43zM305 224
q-167 -15 -167 -97q0 -7 3 -16.5t10.5 -18.5t19.5 -15t30 -6q21 0 40 8.5t33.5 25t23 42t8.5 58.5q0 5 -0.5 9.5t-0.5 9.5z" />
    <glyph glyph-name="ccedilla" unicode="&#xe7;" horiz-adv-x="487" 
d="M191 505q48 0 95.5 -16.5t79.5 -44.5q26 -23 46 -50.5t20 -47.5q0 -8 -1.5 -18t-8 -19t-19.5 -15t-35 -6q-23 0 -39 15.5t-34 34t-40.5 34t-58.5 15.5q-59 0 -59 -87q0 -30 13.5 -65.5t35.5 -66t51 -51t59 -20.5q35 0 54 18.5t27 36.5q11 24 23.5 36.5t36.5 12.5
t35.5 -18t11.5 -38q0 -19 -11 -45.5t-34.5 -51t-60 -41.5t-87.5 -17q-61 0 -112.5 25t-88.5 68t-57.5 100t-20.5 121q0 34 9 69.5t30 64.5t55 48t85 19zM213 -13q0 22 11.5 32.5t25.5 10.5t25.5 -10t13.5 -30q-1 2 -1 5q0 2 -0.5 4.5t-0.5 4.5q-1 1 -1 3v1q1 0 3 -9.5
t3 -10.5q11 -14 34 -17.5t46.5 -10t41.5 -23.5t18 -59q0 -57 -30 -79t-84 -22q-20 0 -31 11t-11 25q0 12 9 23t27 16q13 2 27.5 5.5t17.5 18.5q-3 11 -12 16t-21 7t-25 3t-23 5q-11 4 -22.5 12t-20.5 18.5t-14.5 23.5t-5.5 26z" />
    <glyph glyph-name="egrave" unicode="&#xe8;" horiz-adv-x="504" 
d="M289 94q33 0 53 14t36.5 31.5t32 31.5t39.5 14q44 0 44 -43q0 -24 -17 -50.5t-46.5 -48.5t-70 -36.5t-87.5 -14.5q-48 0 -95.5 16.5t-84.5 50.5t-60 85t-23 119q0 49 14.5 93t40.5 77.5t62.5 53t81.5 19.5q58 0 103.5 -20t77 -51.5t48 -70.5t16.5 -76q0 -22 -11 -37.5
t-41 -17.5q-23 -2 -58 -5t-72.5 -5.5t-74 -4.5t-63.5 -2q9 -52 46.5 -87t108.5 -35zM331 310q-11 25 -27 44q-14 17 -35.5 31t-50.5 14q-23 0 -39 -8.5t-26.5 -23t-16 -32t-6.5 -35.5zM349 531q-5 -10 -21.5 -11t-38.5 3.5t-47 13t-47.5 17.5t-40 17t-24.5 11
q-24 11 -33.5 33t-1.5 42q11 20 35 26t46 -8q7 -4 24 -13.5t38 -22t43 -27.5t39 -29.5t25.5 -28t3.5 -23.5z" />
    <glyph glyph-name="eacute" unicode="&#xe9;" horiz-adv-x="504" 
d="M289 94q33 0 53 14t36.5 31.5t32 31.5t39.5 14q44 0 44 -43q0 -24 -17 -50.5t-46.5 -48.5t-70 -36.5t-87.5 -14.5q-48 0 -95.5 16.5t-84.5 50.5t-60 85t-23 119q0 49 14.5 93t40.5 77.5t62.5 53t81.5 19.5q58 0 103.5 -20t77 -51.5t48 -70.5t16.5 -76q0 -22 -11 -37.5
t-41 -17.5q-23 -2 -58 -5t-72.5 -5.5t-74 -4.5t-63.5 -2q9 -52 46.5 -87t108.5 -35zM331 310q-11 25 -27 44q-14 17 -35.5 31t-50.5 14q-23 0 -39 -8.5t-26.5 -23t-16 -32t-6.5 -35.5zM121 531q-5 10 3.5 23.5t25.5 28t39 29.5t43 27.5t38 22t24 13.5q22 14 46 8t35 -26
q8 -20 -1.5 -42t-33.5 -33q-7 -3 -24.5 -11t-40 -17t-47.5 -17.5t-47 -13t-38.5 -3.5t-21.5 11z" />
    <glyph glyph-name="ecircumflex" unicode="&#xea;" horiz-adv-x="504" 
d="M289 94q33 0 53 14t36.5 31.5t32 31.5t39.5 14q44 0 44 -43q0 -24 -17 -50.5t-46.5 -48.5t-70 -36.5t-87.5 -14.5q-48 0 -95.5 16.5t-84.5 50.5t-60 85t-23 119q0 49 14.5 93t40.5 77.5t62.5 53t81.5 19.5q58 0 103.5 -20t77 -51.5t48 -70.5t16.5 -76q0 -22 -11 -37.5
t-41 -17.5q-23 -2 -58 -5t-72.5 -5.5t-74 -4.5t-63.5 -2q9 -52 46.5 -87t108.5 -35zM331 310q-11 25 -27 44q-14 17 -35.5 31t-50.5 14q-23 0 -39 -8.5t-26.5 -23t-16 -32t-6.5 -35.5zM386 607q15 -14 14.5 -29.5t-10 -26.5t-24.5 -14.5t-30 6.5q-9 6 -20 15.5t-23.5 18
t-26 15t-26.5 6.5t-26.5 -6.5t-26 -15t-23.5 -18t-20 -15.5q-15 -10 -30 -6.5t-24.5 14.5t-10 26.5t14.5 29.5q18 20 41 37q20 14 46.5 25.5t58.5 11.5t58.5 -11.5t46.5 -25.5q23 -17 41 -37z" />
    <glyph glyph-name="edieresis" unicode="&#xeb;" horiz-adv-x="504" 
d="M289 94q33 0 53 14t36.5 31.5t32 31.5t39.5 14q44 0 44 -43q0 -24 -17 -50.5t-46.5 -48.5t-70 -36.5t-87.5 -14.5q-48 0 -95.5 16.5t-84.5 50.5t-60 85t-23 119q0 49 14.5 93t40.5 77.5t62.5 53t81.5 19.5q58 0 103.5 -20t77 -51.5t48 -70.5t16.5 -76q0 -22 -11 -37.5
t-41 -17.5q-23 -2 -58 -5t-72.5 -5.5t-74 -4.5t-63.5 -2q9 -52 46.5 -87t108.5 -35zM331 310q-11 25 -27 44q-14 17 -35.5 31t-50.5 14q-23 0 -39 -8.5t-26.5 -23t-16 -32t-6.5 -35.5zM84 606q0 26 17 43t43 17t43 -17t17 -43t-17 -42.5t-43 -16.5t-43 16.5t-17 42.5z
M262 606q0 26 16.5 43t42.5 17t43.5 -17t17.5 -43t-17.5 -42.5t-43.5 -16.5t-42.5 16.5t-16.5 42.5z" />
    <glyph glyph-name="igrave" unicode="&#xec;" horiz-adv-x="340" 
d="M203 465q6 0 15 -2t17 -7.5t13.5 -13.5t5.5 -20q0 -33 -3.5 -68.5t-3.5 -58.5q0 -41 3.5 -71.5t7.5 -57t7.5 -53.5t3.5 -61q0 -15 -3 -28t-10.5 -22.5t-21.5 -15.5t-36 -6q-29 0 -46 28.5t-25.5 70t-10.5 87.5t-2 81q0 62 2.5 103.5t11.5 67t26.5 36.5t48.5 11zM298 531
q-5 -10 -21.5 -11t-38.5 3.5t-47 13t-47.5 17.5t-40 17t-24.5 11q-24 11 -33.5 33t-1.5 42q11 20 35 26t46 -8q7 -4 24 -13.5t38 -22t43 -27.5t39 -29.5t25.5 -28t3.5 -23.5z" />
    <glyph glyph-name="iacute" unicode="&#xed;" horiz-adv-x="340" 
d="M175 465q6 0 15 -2t17 -7.5t13.5 -13.5t5.5 -20q0 -33 -3.5 -68.5t-3.5 -58.5q0 -41 3.5 -71.5t7.5 -57t7.5 -53.5t3.5 -61q0 -15 -3 -28t-10.5 -22.5t-21.5 -15.5t-36 -6q-29 0 -46 28.5t-25.5 70t-10.5 87.5t-2 81q0 62 2.5 103.5t11.5 67t26.5 36.5t48.5 11zM42 531
q-5 10 3.5 23.5t25.5 28t39 29.5t43 27.5t38 22t24 13.5q22 14 46 8t35 -26q8 -20 -1.5 -42t-33.5 -33q-7 -3 -24.5 -11t-40 -17t-47.5 -17.5t-47 -13t-38.5 -3.5t-21.5 11z" />
    <glyph glyph-name="icircumflex" unicode="&#xee;" horiz-adv-x="402" 
d="M215 465q6 0 15 -2t17 -7.5t13.5 -13.5t5.5 -20q0 -33 -3.5 -68.5t-3.5 -58.5q0 -41 3.5 -71.5t7.5 -57t7.5 -53.5t3.5 -61q0 -15 -3 -28t-10.5 -22.5t-21.5 -15.5t-36 -6q-29 0 -46 28.5t-25.5 70t-10.5 87.5t-2 81q0 62 2.5 103.5t11.5 67t26.5 36.5t48.5 11zM347 607
q15 -14 14.5 -29.5t-10 -26.5t-24.5 -14.5t-30 6.5q-9 6 -20 15.5t-23.5 18t-26 15t-26.5 6.5t-26.5 -6.5t-26 -15t-23.5 -18t-20 -15.5q-15 -10 -30 -6.5t-24.5 14.5t-10 26.5t14.5 29.5q18 20 41 37q20 14 46.5 25.5t58.5 11.5t58.5 -11.5t46.5 -25.5q23 -17 41 -37z" />
    <glyph glyph-name="idieresis" unicode="&#xef;" horiz-adv-x="378" 
d="M210 465q6 0 15 -2t17 -7.5t13.5 -13.5t5.5 -20q0 -33 -3.5 -68.5t-3.5 -58.5q0 -41 3.5 -71.5t7.5 -57t7.5 -53.5t3.5 -61q0 -15 -3 -28t-10.5 -22.5t-21.5 -15.5t-36 -6q-29 0 -46 28.5t-25.5 70t-10.5 87.5t-2 81q0 62 2.5 103.5t11.5 67t26.5 36.5t48.5 11zM40 606
q0 26 17 43t43 17t43 -17t17 -43t-17 -42.5t-43 -16.5t-43 16.5t-17 42.5zM218 606q0 26 16.5 43t42.5 17t43.5 -17t17.5 -43t-17.5 -42.5t-43.5 -16.5t-42.5 16.5t-16.5 42.5z" />
    <glyph glyph-name="eth" unicode="&#xf0;" horiz-adv-x="522" 
d="M76 440q-14 14 -14.5 33t13.5 33l20 20q-17 14 -27 24t-15 18t-7 16t-2 18q0 23 16 40t44 17q10 0 29.5 -13.5t44.5 -36.5l16 16q14 14 33.5 14t33.5 -14t14.5 -33.5t-13.5 -33.5l-15 -15q31 -32 61.5 -65t56.5 -61q32 -35 56 -65t40.5 -57.5t25 -53.5t8.5 -54
q0 -50 -16 -90t-46.5 -69t-75 -44.5t-102.5 -15.5q-50 0 -91 14.5t-70 41.5t-44.5 66t-15.5 87t21 87t52.5 67.5t68 44.5t66.5 17q-4 2 -25 22t-51 48l-24 -24q-14 -14 -33 -13.5t-33 14.5zM295 312q-33 0 -59.5 -11t-45.5 -29.5t-29 -43t-10 -51.5t9 -47t24 -33.5t34.5 -20
t39.5 -6.5q23 0 45 7t39 21.5t27.5 35t10.5 47.5t-13.5 50.5t-29.5 41.5q-18 21 -42 39z" />
    <glyph glyph-name="ntilde" unicode="&#xf1;" horiz-adv-x="517" 
d="M74 500q22 0 36 -10t23.5 -27.5t16.5 -40.5t16 -48q11 29 29 54t41.5 43.5t50.5 29t56 10.5q27 0 56.5 -10.5t53.5 -35.5t40 -66.5t16 -103.5q0 -36 -3.5 -76t-8 -77.5t-9 -68.5t-7.5 -49q-5 -32 -24 -47.5t-48 -15.5q-25 0 -41 18t-16 44q0 51 9 114t9 135q0 24 -2.5 45
t-8.5 36t-17.5 24t-29.5 9q-29 0 -47 -27.5t-28 -71t-13 -98.5t-3 -110q0 -28 -5.5 -45.5t-15 -28t-22.5 -14.5t-27 -4q-22 0 -42 14.5t-23 37.5q-6 47 -11 85t-10 69t-10 56.5t-10 48.5q-6 29 -12 49.5t-10.5 36.5t-7.5 28.5t-3 26.5q0 27 16.5 44t45.5 17zM156 552
q-19 -17 -38.5 -16.5t-31.5 12t-13.5 30.5t14.5 39q29 32 65 45t78 2q31 -9 52 -20t38.5 -16t35 2t41.5 34q19 12 36.5 11t28 -11.5t13 -27.5t-8.5 -37q-11 -11 -22 -23t-24 -21q-18 -13 -38 -18t-41 -4.5t-42 5.5t-40 13t-36.5 15t-37.5 9q-11 -3 -16 -8.5t-13 -14.5z" />
    <glyph glyph-name="ograve" unicode="&#xf2;" horiz-adv-x="490" 
d="M202 503q59 0 107.5 -20t83.5 -57t54.5 -88t19.5 -113q0 -46 -16 -88.5t-46 -75t-72 -52t-94 -19.5q-59 0 -106 19.5t-80 55.5t-50.5 86.5t-17.5 111.5q0 48 15.5 91.5t43.5 76.5t68 52.5t90 19.5zM218 392q-24 0 -43 -11.5t-31.5 -30t-19.5 -43t-7 -50.5q0 -30 7.5 -58
t22.5 -49.5t38 -34.5t53 -13q26 0 44.5 11t30 29t17 40.5t5.5 45.5q0 37 -9.5 67.5t-25 52t-37 33t-45.5 11.5zM346 531q-5 -10 -21.5 -11t-38.5 3.5t-47 13t-47.5 17.5t-40 17t-24.5 11q-24 11 -33.5 33t-1.5 42q11 20 35 26t46 -8q7 -4 24 -13.5t38 -22t43 -27.5t39 -29.5
t25.5 -28t3.5 -23.5z" />
    <glyph glyph-name="oacute" unicode="&#xf3;" horiz-adv-x="490" 
d="M202 503q59 0 107.5 -20t83.5 -57t54.5 -88t19.5 -113q0 -46 -16 -88.5t-46 -75t-72 -52t-94 -19.5q-59 0 -106 19.5t-80 55.5t-50.5 86.5t-17.5 111.5q0 48 15.5 91.5t43.5 76.5t68 52.5t90 19.5zM218 392q-24 0 -43 -11.5t-31.5 -30t-19.5 -43t-7 -50.5q0 -30 7.5 -58
t22.5 -49.5t38 -34.5t53 -13q26 0 44.5 11t30 29t17 40.5t5.5 45.5q0 37 -9.5 67.5t-25 52t-37 33t-45.5 11.5zM118 531q-5 10 3.5 23.5t25.5 28t39 29.5t43 27.5t38 22t24 13.5q22 14 46 8t35 -26q8 -20 -1.5 -42t-33.5 -33q-7 -3 -24.5 -11t-40 -17t-47.5 -17.5t-47 -13
t-38.5 -3.5t-21.5 11z" />
    <glyph glyph-name="ocircumflex" unicode="&#xf4;" horiz-adv-x="490" 
d="M202 503q59 0 107.5 -20t83.5 -57t54.5 -88t19.5 -113q0 -46 -16 -88.5t-46 -75t-72 -52t-94 -19.5q-59 0 -106 19.5t-80 55.5t-50.5 86.5t-17.5 111.5q0 48 15.5 91.5t43.5 76.5t68 52.5t90 19.5zM218 392q-24 0 -43 -11.5t-31.5 -30t-19.5 -43t-7 -50.5q0 -30 7.5 -58
t22.5 -49.5t38 -34.5t53 -13q26 0 44.5 11t30 29t17 40.5t5.5 45.5q0 37 -9.5 67.5t-25 52t-37 33t-45.5 11.5zM383 607q15 -14 14.5 -29.5t-10 -26.5t-24.5 -14.5t-30 6.5q-9 6 -20 15.5t-23.5 18t-26 15t-26.5 6.5t-26.5 -6.5t-26 -15t-23.5 -18t-20 -15.5
q-15 -10 -30 -6.5t-24.5 14.5t-10 26.5t14.5 29.5q18 20 41 37q20 14 46.5 25.5t58.5 11.5t58.5 -11.5t46.5 -25.5q23 -17 41 -37z" />
    <glyph glyph-name="otilde" unicode="&#xf5;" horiz-adv-x="490" 
d="M202 503q59 0 107.5 -20t83.5 -57t54.5 -88t19.5 -113q0 -46 -16 -88.5t-46 -75t-72 -52t-94 -19.5q-59 0 -106 19.5t-80 55.5t-50.5 86.5t-17.5 111.5q0 48 15.5 91.5t43.5 76.5t68 52.5t90 19.5zM218 392q-24 0 -43 -11.5t-31.5 -30t-19.5 -43t-7 -50.5q0 -30 7.5 -58
t22.5 -49.5t38 -34.5t53 -13q26 0 44.5 11t30 29t17 40.5t5.5 45.5q0 37 -9.5 67.5t-25 52t-37 33t-45.5 11.5zM138 552q-19 -17 -38.5 -16.5t-31.5 12t-13.5 30.5t14.5 39q29 32 65 45t78 2q31 -9 52 -20t38.5 -16t35 2t41.5 34q19 12 36.5 11t28 -11.5t13 -27.5t-8.5 -37
q-11 -11 -22 -23t-24 -21q-18 -13 -38 -18t-41 -4.5t-42 5.5t-40 13t-36.5 15t-37.5 9q-11 -3 -16 -8.5t-13 -14.5z" />
    <glyph glyph-name="odieresis" unicode="&#xf6;" horiz-adv-x="490" 
d="M202 503q59 0 107.5 -20t83.5 -57t54.5 -88t19.5 -113q0 -46 -16 -88.5t-46 -75t-72 -52t-94 -19.5q-59 0 -106 19.5t-80 55.5t-50.5 86.5t-17.5 111.5q0 48 15.5 91.5t43.5 76.5t68 52.5t90 19.5zM218 392q-24 0 -43 -11.5t-31.5 -30t-19.5 -43t-7 -50.5q0 -30 7.5 -58
t22.5 -49.5t38 -34.5t53 -13q26 0 44.5 11t30 29t17 40.5t5.5 45.5q0 37 -9.5 67.5t-25 52t-37 33t-45.5 11.5zM81 606q0 26 17 43t43 17t43 -17t17 -43t-17 -42.5t-43 -16.5t-43 16.5t-17 42.5zM259 606q0 26 16.5 43t42.5 17t43.5 -17t17.5 -43t-17.5 -42.5t-43.5 -16.5
t-42.5 16.5t-16.5 42.5z" />
    <glyph glyph-name="divide" unicode="&#xf7;" horiz-adv-x="480" 
d="M79 305q54 0 106 0.5t96.5 1t78 1t51.5 0.5q25 0 45 -10.5t20 -36.5q0 -15 -2 -23.5t-8.5 -14.5t-18 -10t-30.5 -8q-24 -6 -57.5 -7t-75.5 -0.5t-92 2t-106 1.5q-25 0 -41 2.5t-25 8.5t-12.5 15.5t-3.5 23.5q0 26 18.5 40t56.5 14zM180 65q0 33 22.5 56t55.5 23t56 -23
t23 -56t-23 -55.5t-56 -22.5t-55.5 22.5t-22.5 55.5zM180 418q0 33 22.5 56t55.5 23t56 -23t23 -56t-23 -55.5t-56 -22.5t-55.5 22.5t-22.5 55.5z" />
    <glyph glyph-name="oslash" unicode="&#xf8;" horiz-adv-x="490" 
d="M202 503q59 0 107.5 -20t83.5 -57t54.5 -88t19.5 -113q0 -46 -16 -88.5t-46 -75t-72 -52t-94 -19.5q-59 0 -106 19.5t-80 55.5t-50.5 86.5t-17.5 111.5q0 48 15.5 91.5t43.5 76.5t68 52.5t90 19.5zM218 392q-24 0 -43 -11.5t-31.5 -30t-19.5 -43t-7 -50.5q0 -30 7.5 -58
t22.5 -49.5t38 -34.5t53 -13q26 0 44.5 11t30 29t17 40.5t5.5 45.5q0 37 -9.5 67.5t-25 52t-37 33t-45.5 11.5zM92 -4q37 102 71 200t61.5 178.5t45.5 137t24 74.5q14 49 59 49q16 0 26.5 -5.5t15.5 -14t6 -18.5t0 -20q-3 -18 -15 -56.5t-29.5 -90.5t-39 -113t-43.5 -123.5
t-44 -122t-39 -108.5q-11 -31 -25 -42.5t-30 -11.5q-25 0 -39 13.5t-14 33.5q0 8 2.5 18.5t6.5 21.5z" />
    <glyph glyph-name="ugrave" unicode="&#xf9;" horiz-adv-x="490" 
d="M346 125q-14 -44 -34 -70.5t-44 -41t-50.5 -19.5t-53.5 -5q-46 0 -76 18.5t-47 49.5t-24 71.5t-7 84.5q0 75 13 134.5t26 103.5q9 31 28 41t39 10q29 0 43 -15.5t14 -38.5q0 -6 -5 -30t-11 -57.5t-11 -72t-5 -74.5q0 -54 14.5 -75.5t43.5 -21.5q43 0 71.5 50.5
t28.5 147.5q0 40 -4 72.5t-4 46.5q0 24 20 41t48 17q21 0 38.5 -13.5t20.5 -34.5q2 -15 6.5 -42t9.5 -61t10.5 -72.5t11.5 -74.5t10.5 -67.5t8.5 -52.5q2 -9 2.5 -17.5t0.5 -12.5q0 -31 -17.5 -43.5t-37.5 -12.5q-23 0 -36 10.5t-20 29t-11 43.5t-10 54zM322 531
q-5 -10 -21.5 -11t-38.5 3.5t-47 13t-47.5 17.5t-40 17t-24.5 11q-24 11 -33.5 33t-1.5 42q11 20 35 26t46 -8q7 -4 24 -13.5t38 -22t43 -27.5t39 -29.5t25.5 -28t3.5 -23.5z" />
    <glyph glyph-name="uacute" unicode="&#xfa;" horiz-adv-x="490" 
d="M346 125q-14 -44 -34 -70.5t-44 -41t-50.5 -19.5t-53.5 -5q-46 0 -76 18.5t-47 49.5t-24 71.5t-7 84.5q0 75 13 134.5t26 103.5q9 31 28 41t39 10q29 0 43 -15.5t14 -38.5q0 -6 -5 -30t-11 -57.5t-11 -72t-5 -74.5q0 -54 14.5 -75.5t43.5 -21.5q43 0 71.5 50.5
t28.5 147.5q0 40 -4 72.5t-4 46.5q0 24 20 41t48 17q21 0 38.5 -13.5t20.5 -34.5q2 -15 6.5 -42t9.5 -61t10.5 -72.5t11.5 -74.5t10.5 -67.5t8.5 -52.5q2 -9 2.5 -17.5t0.5 -12.5q0 -31 -17.5 -43.5t-37.5 -12.5q-23 0 -36 10.5t-20 29t-11 43.5t-10 54zM94 531
q-5 10 3.5 23.5t25.5 28t39 29.5t43 27.5t38 22t24 13.5q22 14 46 8t35 -26q8 -20 -1.5 -42t-33.5 -33q-7 -3 -24.5 -11t-40 -17t-47.5 -17.5t-47 -13t-38.5 -3.5t-21.5 11z" />
    <glyph glyph-name="ucircumflex" unicode="&#xfb;" horiz-adv-x="490" 
d="M346 125q-14 -44 -34 -70.5t-44 -41t-50.5 -19.5t-53.5 -5q-46 0 -76 18.5t-47 49.5t-24 71.5t-7 84.5q0 75 13 134.5t26 103.5q9 31 28 41t39 10q29 0 43 -15.5t14 -38.5q0 -6 -5 -30t-11 -57.5t-11 -72t-5 -74.5q0 -54 14.5 -75.5t43.5 -21.5q43 0 71.5 50.5
t28.5 147.5q0 40 -4 72.5t-4 46.5q0 24 20 41t48 17q21 0 38.5 -13.5t20.5 -34.5q2 -15 6.5 -42t9.5 -61t10.5 -72.5t11.5 -74.5t10.5 -67.5t8.5 -52.5q2 -9 2.5 -17.5t0.5 -12.5q0 -31 -17.5 -43.5t-37.5 -12.5q-23 0 -36 10.5t-20 29t-11 43.5t-10 54zM359 607
q15 -14 14.5 -29.5t-10 -26.5t-24.5 -14.5t-30 6.5q-9 6 -20 15.5t-23.5 18t-26 15t-26.5 6.5t-26.5 -6.5t-26 -15t-23.5 -18t-20 -15.5q-15 -10 -30 -6.5t-24.5 14.5t-10 26.5t14.5 29.5q18 20 41 37q20 14 46.5 25.5t58.5 11.5t58.5 -11.5t46.5 -25.5q23 -17 41 -37z" />
    <glyph glyph-name="udieresis" unicode="&#xfc;" horiz-adv-x="490" 
d="M346 125q-14 -44 -34 -70.5t-44 -41t-50.5 -19.5t-53.5 -5q-46 0 -76 18.5t-47 49.5t-24 71.5t-7 84.5q0 75 13 134.5t26 103.5q9 31 28 41t39 10q29 0 43 -15.5t14 -38.5q0 -6 -5 -30t-11 -57.5t-11 -72t-5 -74.5q0 -54 14.5 -75.5t43.5 -21.5q43 0 71.5 50.5
t28.5 147.5q0 40 -4 72.5t-4 46.5q0 24 20 41t48 17q21 0 38.5 -13.5t20.5 -34.5q2 -15 6.5 -42t9.5 -61t10.5 -72.5t11.5 -74.5t10.5 -67.5t8.5 -52.5q2 -9 2.5 -17.5t0.5 -12.5q0 -31 -17.5 -43.5t-37.5 -12.5q-23 0 -36 10.5t-20 29t-11 43.5t-10 54zM57 606q0 26 17 43
t43 17t43 -17t17 -43t-17 -42.5t-43 -16.5t-43 16.5t-17 42.5zM235 606q0 26 16.5 43t42.5 17t43.5 -17t17.5 -43t-17.5 -42.5t-43.5 -16.5t-42.5 16.5t-16.5 42.5z" />
    <glyph glyph-name="yacute" unicode="&#xfd;" horiz-adv-x="514" 
d="M271 421q-4 13 -4 26q0 32 19.5 45.5t42.5 13.5q21 0 39.5 -9.5t23.5 -26.5q33 -104 54 -180.5t33 -136t17 -107t5 -92.5q0 -121 -63.5 -192t-194.5 -71q-45 0 -79 9t-57 23.5t-34.5 31.5t-11.5 33q0 12 5 20t12.5 13t16.5 7.5t16 2.5q13 0 27 -3.5t29.5 -8t31 -8
t31.5 -3.5q45 0 73 12t44.5 32.5t22.5 48.5t6 60q0 21 -1 39t-4.5 40.5t-10 53.5t-18.5 76q-12 -47 -25.5 -82.5t-34.5 -59.5t-52 -36.5t-77 -12.5q-37 0 -63.5 14t-44 38.5t-25.5 56.5t-8 68q0 23 0.5 60t1.5 77t3 76t5 57q6 41 26 55.5t43 14.5q25 0 40 -18t15 -38
q0 -10 -2 -36.5t-4.5 -59.5t-4.5 -68t-2 -61q0 -51 14.5 -77.5t31.5 -26.5q15 0 33 13t33.5 40.5t25.5 69.5t10 100v32t-1 17t-3 14t-6 24zM86 531q-5 10 3.5 23.5t25.5 28t39 29.5t43 27.5t38 22t24 13.5q22 14 46 8t35 -26q8 -20 -1.5 -42t-33.5 -33q-7 -3 -24.5 -11
t-40 -17t-47.5 -17.5t-47 -13t-38.5 -3.5t-21.5 11z" />
    <glyph glyph-name="thorn" unicode="&#xfe;" horiz-adv-x="534" 
d="M516 288q0 -77 -26 -133.5t-68 -93.5t-95.5 -55t-108.5 -18q2 -21 4 -36.5t3.5 -30t2.5 -29.5t1 -34q0 -73 -64 -73q-31 0 -48.5 18.5t-22.5 52.5q-4 29 -9 80t-11 114t-12.5 133t-13 137.5t-13.5 127.5t-14 102q-2 11 -4 26t-2 29q0 41 22 59t53 18q11 0 24 -2.5
t24 -9.5t19 -20t10 -34q1 -11 2 -28t2 -37t1.5 -41.5t0.5 -42.5q15 12 27.5 20t25.5 12.5t27.5 6.5t31.5 2q50 0 92.5 -15.5t73 -44t48 -69t17.5 -91.5zM277 393q-24 0 -41 -6.5t-28.5 -17t-17 -23t-6.5 -23.5q0 -9 2 -27.5t4.5 -41.5t5.5 -49t5.5 -48t4.5 -39t3 -22
q49 0 83.5 16t56.5 42.5t32 59.5t10 67q0 28 -10 49t-26 35t-36.5 21t-41.5 7z" />
    <glyph glyph-name="ydieresis" unicode="&#xff;" horiz-adv-x="514" 
d="M271 421q-4 13 -4 26q0 32 19.5 45.5t42.5 13.5q21 0 39.5 -9.5t23.5 -26.5q33 -104 54 -180.5t33 -136t17 -107t5 -92.5q0 -121 -63.5 -192t-194.5 -71q-45 0 -79 9t-57 23.5t-34.5 31.5t-11.5 33q0 12 5 20t12.5 13t16.5 7.5t16 2.5q13 0 27 -3.5t29.5 -8t31 -8
t31.5 -3.5q45 0 73 12t44.5 32.5t22.5 48.5t6 60q0 21 -1 39t-4.5 40.5t-10 53.5t-18.5 76q-12 -47 -25.5 -82.5t-34.5 -59.5t-52 -36.5t-77 -12.5q-37 0 -63.5 14t-44 38.5t-25.5 56.5t-8 68q0 23 0.5 60t1.5 77t3 76t5 57q6 41 26 55.5t43 14.5q25 0 40 -18t15 -38
q0 -10 -2 -36.5t-4.5 -59.5t-4.5 -68t-2 -61q0 -51 14.5 -77.5t31.5 -26.5q15 0 33 13t33.5 40.5t25.5 69.5t10 100v32t-1 17t-3 14t-6 24zM49 606q0 26 17 43t43 17t43 -17t17 -43t-17 -42.5t-43 -16.5t-43 16.5t-17 42.5zM227 606q0 26 16.5 43t42.5 17t43.5 -17t17.5 -43
t-17.5 -42.5t-43.5 -16.5t-42.5 16.5t-16.5 42.5z" />
    <glyph glyph-name="Abreve" unicode="&#x102;" horiz-adv-x="0" 
d="M403 778q-18 -21 -41 -37q-20 -14 -46.5 -25.5t-58.5 -11.5t-58.5 11.5t-46.5 25.5q-23 16 -41 37q-15 14 -14.5 29.5t10 26.5t24.5 14.5t30 -6.5q9 -6 20 -15.5t23.5 -18t26 -15t26.5 -6.5t26.5 6.5t26 15t23.5 18t20 15.5q15 10 30 6.5t24.5 -14.5t10 -26.5
t-14.5 -29.5zM261 694q29 0 46 -15t26 -43q4 -14 20 -51.5t36.5 -87t42.5 -103.5t39 -100h11q5 0 11 0.5t13 0.5q12 0 27 -7t15 -29q0 -17 -6.5 -27t-15 -15.5t-15.5 -7.5l-7 -2q23 -51 41 -93q15 -37 28 -71t13 -48q0 -27 -17.5 -45t-46.5 -18q-28 0 -45.5 14t-28.5 41
q-5 10 -12.5 29t-17 41.5t-19 46.5t-17 43t-12 31.5l-4.5 12.5l-186 -20l-9 -27q-5 -13 -13 -32t-19 -42q-17 -35 -37 -49t-43 -14q-29 0 -41.5 16t-12.5 43q0 13 7.5 36t20.5 53.5t30 68t36 80.5t34 79.5t26 71t17 68.5t6 72q0 18 5 36t15 32t25 22.5t34 8.5zM279 417
l-58 -147l113 7z" />
    <glyph glyph-name="abreve" unicode="&#x103;" horiz-adv-x="523" 
d="M113 611q-15 14 -14.5 29.5t10 26.5t24.5 14.5t30 -6.5q9 -6 22.5 -15.5t28 -18t27 -15t18.5 -6.5t18.5 6.5t27 15t28 18t22.5 15.5q15 10 30 6.5t24.5 -14.5t10 -26.5t-14.5 -29.5q-30 -21 -57 -37q-23 -14 -48 -25.5t-41 -11.5q-20 0 -44.5 11.5t-47.5 25.5
q-26 16 -54 37zM409 28q-8 19 -21 49.5t-27 69.5q-12 -28 -31.5 -57t-45.5 -53t-58.5 -39t-71.5 -15t-66.5 15t-44.5 42t-25 64t-8 82q0 52 19.5 109.5t52.5 106t76.5 80.5t91.5 32q69 0 110.5 -36t58.5 -113q20 -88 41 -157t41 -117l13.5 -31.5t7.5 -31.5q0 -17 -12 -30
t-38 -13q-27 0 -41 12.5t-22 30.5zM174 97q18 0 41.5 15t45 41.5t36.5 63.5t15 82q0 44 -17 71.5t-47 27.5q-17 0 -39 -16.5t-41.5 -45.5t-33 -68.5t-13.5 -86.5q0 -15 2 -30t8 -27t16 -19.5t27 -7.5z" />
    <glyph glyph-name="Dcroat" unicode="&#x110;" horiz-adv-x="648" 
d="M-69 305q0 25 17 43t43 19h308q26 0 44 -18t18 -44t-18 -44t-43 -18h-309q-26 0 -43 18t-17 44zM72 76q0 133 -9 222.5t-19.5 147.5t-19 92t-8.5 58q0 13 3.5 27.5t14 27t30.5 20.5t54 8t62.5 -5t62 -22t78 -49.5t110.5 -87.5q56 -47 96 -88t65.5 -79.5t37.5 -75.5
t12 -75q0 -39 -13 -78t-49.5 -70t-101.5 -50.5t-169 -19.5q-41 0 -83 4.5t-76.5 15.5t-56 29.5t-21.5 47.5zM217 133q21 -8 58 -14.5t87 -6.5q22 0 43.5 5.5t38 16t26.5 26.5t10 37q0 26 -14 56t-37 61.5t-53.5 62.5t-63 58.5t-65.5 50.5t-61 38q4 -31 9 -77.5t9.5 -100
t8 -109.5t4.5 -104z" />
    <glyph glyph-name="dcroat" unicode="&#x111;" horiz-adv-x="521" 
d="M305 624q-2 13 1.5 27t12 25t21.5 18t30 7q35 0 51 -20t18 -45q3 -45 6 -100.5t8.5 -116.5t14 -126t22.5 -130q3 -12 9 -29t12.5 -34.5t11.5 -34t5 -28.5q0 -32 -19.5 -47t-50.5 -15q-24 0 -40 14.5t-26.5 35.5t-18 45.5t-13.5 44.5q-11 -21 -27.5 -44t-38.5 -42.5
t-48.5 -32t-57.5 -12.5q-48 0 -81 14t-53 38.5t-29 59.5t-9 77q0 63 23.5 119.5t64 101.5t94.5 77t115 47q-1 17 -3 46.5t-5 59.5zM193 89q21 0 41.5 13t38.5 34t33 48.5t25 56.5q-1 29 -5.5 70.5t-12.5 97.5q-36 -8 -69 -29.5t-58.5 -51.5t-40.5 -67t-15 -76q0 -15 2 -32
t9 -31t19.5 -23.5t32.5 -9.5zM151 595q0 25 17 43t43 19h308q26 0 44 -18t18 -44t-18 -44t-43 -18h-309q-26 0 -43 18t-17 44z" />
    <glyph glyph-name="Itilde" unicode="&#x128;" horiz-adv-x="240" 
d="M70 72q0 133 -8.5 226t-18.5 155t-18.5 99.5t-8.5 61.5q0 13 3.5 26t12 23.5t22.5 17t34 6.5q57 0 78 -84q15 -65 28 -198t14 -325q0 -28 -6 -45.5t-16 -28t-23 -14.5t-27 -4q-29 0 -47.5 21t-18.5 63zM7 722q-19 -17 -38.5 -16.5t-31.5 12t-13.5 30.5t14.5 39
q29 32 65 45t78 2q31 -9 52 -20t38.5 -16t35 2t41.5 34q19 12 36.5 11t28 -11.5t13 -27.5t-8.5 -37q-11 -11 -22 -23t-24 -21q-18 -13 -38 -18t-41 -4.5t-42 5.5t-40 13t-36.5 15t-37.5 9q-11 -3 -16 -8.5t-13 -14.5z" />
    <glyph glyph-name="itilde" unicode="&#x129;" horiz-adv-x="240" 
d="M129 465q6 0 15 -2t17 -7.5t13.5 -13.5t5.5 -20q0 -33 -3.5 -68.5t-3.5 -58.5q0 -41 3.5 -71.5t7.5 -57t7.5 -53.5t3.5 -61q0 -15 -3 -28t-10.5 -22.5t-21.5 -15.5t-36 -6q-29 0 -46 28.5t-25.5 70t-10.5 87.5t-2 81q0 62 2.5 103.5t11.5 67t26.5 36.5t48.5 11zM7 554
q-19 -17 -38.5 -16.5t-31.5 12t-13.5 30.5t14.5 39q29 32 65 45t78 2q31 -9 52 -20t38.5 -16t35 2t41.5 34q19 12 36.5 11t28 -11.5t13 -27.5t-8.5 -37q-11 -11 -22 -23t-24 -21q-18 -13 -38 -18t-41 -4.5t-42 5.5t-40 13t-36.5 15t-37.5 9q-11 -3 -16 -8.5t-13 -14.5z" />
    <glyph glyph-name="OE" unicode="&#x152;" horiz-adv-x="1075" 
d="M36 312q0 71 21 128.5t60 98.5t95.5 63.5t127.5 22.5q59 0 107.5 -15t86.5 -43v17q0 13 3.5 26t12 23.5t22.5 17t34 6.5l150 -11q34 0 57.5 1t41.5 1.5t32.5 1.5t31.5 1q34 0 56.5 -15t22.5 -44q0 -33 -18 -47t-51 -14q-39 0 -80.5 -0.5t-78.5 -1t-67.5 -1t-47.5 -1.5
q4 -23 8 -55.5t9 -64.5q19 1 52 4t68 6t66.5 5t47.5 2q37 0 55.5 -13.5t18.5 -43.5t-18.5 -47.5t-63.5 -17.5q-17 0 -44.5 -1.5t-58 -4t-60.5 -5.5t-52 -5q2 -34 4 -75t3 -83q72 0 119 13t80.5 28t59.5 28t56 13q32 0 43 -16t11 -42q0 -36 -42 -65.5t-105.5 -51t-138 -33.5
t-139.5 -12q-42 0 -62.5 19t-23.5 51q-37 -34 -86.5 -52t-111.5 -18q-71 0 -129 23.5t-99 66.5t-63.5 102t-22.5 130zM186 312q0 -83 40.5 -134t123.5 -51q42 0 70 16t45.5 42.5t25 60.5t7.5 70t-9.5 69.5t-29.5 59.5t-50.5 41.5t-72.5 15.5q-32 0 -59 -16t-47.5 -42
t-32 -60.5t-11.5 -71.5z" />
    <glyph glyph-name="oe" unicode="&#x153;" horiz-adv-x="856" 
d="M202 503q59 0 107.5 -20t83.5 -57t54.5 -88t19.5 -113q0 -46 -16 -88.5t-46 -75t-72 -52t-94 -19.5q-59 0 -106 19.5t-80 55.5t-50.5 86.5t-17.5 111.5q0 48 15.5 91.5t43.5 76.5t68 52.5t90 19.5zM218 392q-24 0 -43 -11.5t-31.5 -30t-19.5 -43t-7 -50.5q0 -30 7.5 -58
t22.5 -49.5t38 -34.5t53 -13q26 0 44.5 11t30 29t17 40.5t5.5 45.5q0 37 -9.5 67.5t-25 52t-37 33t-45.5 11.5zM642 94q33 0 53 14t36.5 31.5t32 31.5t39.5 14q44 0 44 -43q0 -24 -17 -50.5t-46.5 -48.5t-70 -36.5t-87.5 -14.5q-48 0 -95.5 16.5t-84.5 50.5t-60 85t-23 119
q0 49 14.5 93t40.5 77.5t62.5 53t81.5 19.5q58 0 103.5 -20t77 -51.5t48 -70.5t16.5 -76q0 -22 -11 -37.5t-41 -17.5q-23 -2 -58 -5t-72.5 -5.5t-74 -4.5t-63.5 -2q9 -52 46.5 -87t108.5 -35zM684 310q-11 25 -27 44q-14 17 -35.5 31t-50.5 14q-23 0 -39 -8.5t-26.5 -23
t-16 -32t-6.5 -35.5z" />
    <glyph glyph-name="Scaron" unicode="&#x160;" horiz-adv-x="602" 
d="M453 778q-18 -21 -41 -37q-20 -14 -46.5 -25.5t-58.5 -11.5t-58.5 11.5t-46.5 25.5q-23 16 -41 37q-15 14 -14.5 29.5t10 26.5t24.5 14.5t30 -6.5q9 -6 20 -15.5t23.5 -18t26 -15t26.5 -6.5t26.5 6.5t26 15t23.5 18t20 15.5q15 10 30 6.5t24.5 -14.5t10 -26.5
t-14.5 -29.5zM285 659q47 0 92.5 -14t81.5 -36t58 -49t22 -54q0 -20 -16 -35.5t-45 -15.5q-24 0 -42.5 12.5t-38.5 28t-46 28t-65 12.5q-30 0 -50 -5.5t-31.5 -14.5t-16 -19t-4.5 -19q0 -20 10.5 -35t35.5 -30.5t64.5 -33t98.5 -40.5q100 -41 142.5 -89t42.5 -102
q0 -16 -3 -35.5t-12 -39t-26.5 -38.5t-47 -33.5t-72.5 -23t-103 -8.5q-51 0 -103 8.5t-95 24.5t-70 39.5t-27 53.5q0 9 2 19.5t8.5 19.5t18.5 15.5t32 6.5q22 0 44 -10t50 -22.5t64 -22.5t86 -10q54 0 81.5 16.5t27.5 35.5q0 29 -47.5 61t-140.5 65q-46 16 -84.5 33t-66 40
t-43 55.5t-15.5 79.5q0 37 15.5 70t46 58t77.5 39t110 14z" />
    <glyph glyph-name="scaron" unicode="&#x161;" horiz-adv-x="484" 
d="M93 611q-15 14 -14.5 29.5t10 26.5t24.5 14.5t30 -6.5q9 -6 22.5 -15.5t28 -18t27 -15t18.5 -6.5t18.5 6.5t27 15t28 18t22.5 15.5q15 10 30 6.5t24.5 -14.5t10 -26.5t-14.5 -29.5q-30 -21 -57 -37q-23 -14 -48 -25.5t-41 -11.5q-20 0 -44.5 11.5t-47.5 25.5
q-26 16 -54 37zM221 508q53 0 97 -16.5t75.5 -40t48.5 -48.5t17 -42q0 -13 -10.5 -29.5t-38.5 -16.5q-20 0 -36 14t-36.5 31t-48.5 31t-73 14q-36 0 -49.5 -15.5t-13.5 -29.5q0 -15 10.5 -25t31.5 -20t54 -21.5t78 -29.5q78 -31 112 -64t34 -68q0 -24 -10.5 -49.5
t-38.5 -46.5t-77.5 -34t-126.5 -13q-46 0 -84.5 5.5t-66 17t-43 29t-15.5 40.5q0 55 59 55q17 0 29 -5.5t28 -11.5t39 -11.5t61 -5.5q33 0 54 2.5t33.5 7t17 11t4.5 13.5q0 9 -7 15t-23 12.5t-40.5 14.5t-60.5 21q-35 12 -67.5 27.5t-57.5 35.5t-39.5 47.5t-14.5 63.5
q0 61 49 98t146 37z" />
    <glyph glyph-name="Utilde" unicode="&#x168;" horiz-adv-x="588" 
d="M132 675q11 0 24 -3t24 -9.5t18 -16t7 -22.5t-5.5 -50t-12.5 -84.5t-12.5 -99t-5.5 -93.5q0 -32 7 -64.5t23 -58.5t43 -43t66 -17q35 0 58 15.5t36.5 41t18.5 58.5t5 68q0 40 -7 81t-15.5 78t-15.5 68t-7 51t7 33.5t18 21.5t23.5 11.5t23.5 3.5q19 0 37 -11.5t26 -37.5
q9 -32 18.5 -73.5t17 -84.5t12 -83.5t4.5 -68.5q0 -54 -13 -107t-43 -94.5t-80 -67.5t-124 -26q-75 0 -129 23t-89 63.5t-52 97t-17 122.5q0 39 4.5 84t11 90t13.5 86t12 72q3 17 24 31.5t46 14.5zM180 722q-19 -17 -38.5 -16.5t-31.5 12t-13.5 30.5t14.5 39q29 32 65 45
t78 2q31 -9 52 -20t38.5 -16t35 2t41.5 34q19 12 36.5 11t28 -11.5t13 -27.5t-8.5 -37q-11 -11 -22 -23t-24 -21q-18 -13 -38 -18t-41 -4.5t-42 5.5t-40 13t-36.5 15t-37.5 9q-11 -3 -16 -8.5t-13 -14.5z" />
    <glyph glyph-name="utilde" unicode="&#x169;" horiz-adv-x="490" 
d="M346 125q-14 -44 -34 -70.5t-44 -41t-50.5 -19.5t-53.5 -5q-46 0 -76 18.5t-47 49.5t-24 71.5t-7 84.5q0 75 13 134.5t26 103.5q9 31 28 41t39 10q29 0 43 -15.5t14 -38.5q0 -6 -5 -30t-11 -57.5t-11 -72t-5 -74.5q0 -54 14.5 -75.5t43.5 -21.5q43 0 71.5 50.5
t28.5 147.5q0 40 -4 72.5t-4 46.5q0 24 20 41t48 17q21 0 38.5 -13.5t20.5 -34.5q2 -15 6.5 -42t9.5 -61t10.5 -72.5t11.5 -74.5t10.5 -67.5t8.5 -52.5q2 -9 2.5 -17.5t0.5 -12.5q0 -31 -17.5 -43.5t-37.5 -12.5q-23 0 -36 10.5t-20 29t-11 43.5t-10 54zM131 554
q-19 -17 -38.5 -16.5t-31.5 12t-13.5 30.5t14.5 39q29 32 65 45t78 2q31 -9 52 -20t38.5 -16t35 2t41.5 34q19 12 36.5 11t28 -11.5t13 -27.5t-8.5 -37q-11 -11 -22 -23t-24 -21q-18 -13 -38 -18t-41 -4.5t-42 5.5t-40 13t-36.5 15t-37.5 9q-11 -3 -16 -8.5t-13 -14.5z" />
    <glyph glyph-name="Ydieresis" unicode="&#x178;" horiz-adv-x="522" 
d="M189 71q0 34 -0.5 55t-1.5 35.5t-2.5 25t-2.5 25.5q-8 23 -22.5 50t-31.5 55.5t-34.5 58t-32.5 56.5q-26 49 -44.5 81t-18.5 57q0 27 17.5 42.5t37.5 15.5q14 0 24.5 -3.5t20 -11.5t19 -21.5t21.5 -32.5q11 -20 30.5 -52.5t38.5 -64.5q22 -37 46 -77q31 48 59 95
q24 40 49 83t40 73q8 17 24.5 32t43.5 15q22 0 40 -14t18 -34q0 -8 -2.5 -17t-6 -17t-6.5 -14.5t-4 -9.5q-22 -49 -44.5 -87.5t-46 -75.5t-48 -78t-48.5 -96q2 -27 4 -63.5t2 -77.5q0 -28 -6 -45.5t-16 -28t-23 -14.5t-27 -4q-29 0 -47.5 21t-18.5 63zM79 747q0 26 17 43
t43 17t43 -17t17 -43t-17 -42.5t-43 -16.5t-43 16.5t-17 42.5zM257 747q0 26 16.5 43t42.5 17t43.5 -17t17.5 -43t-17.5 -42.5t-43.5 -16.5t-42.5 16.5t-16.5 42.5z" />
    <glyph glyph-name="Zcaron" unicode="&#x17d;" horiz-adv-x="608" 
d="M160 757q-15 14 -14.5 29.5t10 26.5t24.5 14.5t30 -6.5q9 -6 22.5 -15.5t28 -18t27 -15t18.5 -6.5t18.5 6.5t27 15t28 18t22.5 15.5q15 10 30 6.5t24.5 -14.5t10 -26.5t-14.5 -29.5q-30 -21 -57 -37q-23 -14 -48 -25.5t-41 -11.5q-20 0 -44.5 11.5t-47.5 25.5
q-26 16 -54 37zM234 622q44 0 71.5 0.5t50.5 0.5t47 0.5t62 0.5q30 0 50 -7t32 -18t17 -25t5 -28q0 -18 -5 -31t-14 -24t-21 -22t-26 -24q-33 -32 -81.5 -76t-98.5 -89.5t-94 -87t-68 -69.5q36 0 77.5 1.5t84.5 3t84 3t75 1.5q55 0 81 -18.5t26 -44.5q0 -34 -21.5 -51.5
t-75.5 -17.5q-26 0 -38.5 0.5t-26.5 0.5t-37 0.5t-70 0.5q-59 0 -101.5 -1.5t-85.5 -1.5q-30 0 -53.5 9t-40 23t-25 32t-8.5 36q0 9 2 20.5t8 25t17 28.5t30 33q13 12 34.5 32t47 44t54 50t56.5 52q65 60 139 127q-57 -2 -107 -4q-44 -2 -87.5 -2.5t-69.5 -0.5q-48 0 -74 11
t-26 41q0 27 17 48t57 21h28t13 -0.5t7 -1t11 -1t24 -0.5h47z" />
    <glyph glyph-name="zcaron" unicode="&#x17e;" horiz-adv-x="475" 
d="M96 613q-15 14 -14.5 29.5t10 26.5t24.5 14.5t30 -6.5q9 -6 22.5 -15.5t28 -18t27 -15t18.5 -6.5t18.5 6.5t27 15t28 18t22.5 15.5q15 10 30 6.5t24.5 -14.5t10 -26.5t-14.5 -29.5q-30 -21 -57 -37q-23 -14 -48 -25.5t-41 -11.5q-20 0 -44.5 11.5t-47.5 25.5
q-26 16 -54 37zM198 482q31 0 52.5 1.5t40.5 3l38 3t46 1.5q42 0 60 -19t18 -48t-12 -46t-32 -36q-23 -23 -58 -52.5t-71 -60.5t-68 -59.5t-49 -47.5q21 1 48.5 2t57 2t59 1.5t53.5 0.5q54 0 72.5 -16.5t18.5 -42.5q0 -29 -25 -45t-66 -16h-30.5t-26.5 0.5t-33.5 0.5h-52.5
q-42 0 -79 -1t-67 -1q-43 0 -66.5 22.5t-23.5 61.5q0 25 11 44t46 48l227 194q-1 0 -10 -1t-23 -1.5t-31.5 -1.5t-35.5 -1q-32 0 -65.5 1t-65.5 6q-26 5 -37.5 19.5t-11.5 34.5t15 35.5t43 15.5t40 -0.5t22.5 -1t25 -0.5h46.5z" />
    <glyph glyph-name="florin" unicode="&#x192;" horiz-adv-x="530" 
d="M175 378v67q0 59 16 100.5t44 68t67 39t85 12.5q37 0 64.5 -10t45.5 -23.5t27 -29t9 -25.5q0 -25 -11.5 -40.5t-34.5 -15.5q-14 0 -27.5 4t-26.5 9t-25.5 9t-24.5 4q-22 0 -35 -7t-20 -19.5t-9.5 -31t-2.5 -40.5v-68q47 1 82 2t49 1q21 0 37.5 -11.5t16.5 -32.5
q0 -25 -10.5 -39.5t-42.5 -17.5q-20 -2 -55 -3t-77 -2v-316q0 -62 -9.5 -110.5t-33.5 -82t-63.5 -51t-99.5 -17.5q-45 0 -66.5 13t-21.5 45t19.5 45.5t57.5 13.5q29 0 44 20t22 45q8 29 9 66v328h-69q-41 0 -54.5 16t-13.5 38q0 20 15.5 33.5t45.5 13.5h77z" />
    <glyph glyph-name="Ohorn" unicode="&#x1a0;" horiz-adv-x="633" 
d="M621 672q25 -10 34.5 -40.5t-4.5 -62.5q-23 -50 -62.5 -74.5t-80.5 -7.5l-10 6t-9 7.5t-5 11.5t3 16t10 11.5t13 4t13 4.5t9 11q4 10 0 16t-8.5 13t-6.5 18t7 31q5 11 14.5 20.5t22 15.5t28 6.5t32.5 -7.5zM8 312q0 71 21 128.5t60 98.5t95.5 63.5t127.5 22.5t128 -21.5
t96.5 -62t61 -97.5t21.5 -128t-20 -130.5t-58 -103t-93 -68t-126 -24.5t-129 23.5t-99 66.5t-63.5 102t-22.5 130zM158 312q0 -83 40.5 -134t123.5 -51q42 0 70 16t45.5 42.5t25 60.5t7.5 70t-9.5 69.5t-29.5 59.5t-50.5 41.5t-72.5 15.5q-32 0 -59 -16t-47.5 -42t-32 -60.5
t-11.5 -71.5z" />
    <glyph glyph-name="ohorn" unicode="&#x1a1;" 
d="M516 546q23 -11 30 -39.5t-7 -57.5q-12 -22 -28 -38.5t-34.5 -26t-38.5 -10t-38 8.5q-8 5 -17 13t0 25q4 8 10 10.5t12 3.5t12 3t10 9q4 9 1 15t-7.5 13t-5.5 17t8 28q6 10 15 18.5t21 13t26.5 4t30.5 -9.5zM237 503q59 0 107.5 -20t83.5 -57t54.5 -88t19.5 -113
q0 -46 -16 -88.5t-46 -75t-72 -52t-94 -19.5q-59 0 -106 19.5t-80 55.5t-50.5 86.5t-17.5 111.5q0 48 15.5 91.5t43.5 76.5t68 52.5t90 19.5zM253 392q-24 0 -43 -11.5t-31.5 -30t-19.5 -43t-7 -50.5q0 -30 7.5 -58t22.5 -49.5t38 -34.5t53 -13q26 0 44.5 11t30 29t17 40.5
t5.5 45.5q0 37 -9.5 67.5t-25 52t-37 33t-45.5 11.5z" />
    <glyph glyph-name="Uhorn" unicode="&#x1af;" horiz-adv-x="588" 
d="M631 672q25 -10 34.5 -40.5t-4.5 -62.5q-23 -50 -62.5 -74.5t-80.5 -7.5l-10 6t-9 7.5t-5 11.5t3 16t10 11.5t13 4t13 4.5t9 11q4 10 0 16t-8.5 13t-6.5 18t7 31q5 11 14.5 20.5t22 15.5t28 6.5t32.5 -7.5zM132 675q11 0 24 -3t24 -9.5t18 -16t7 -22.5t-5.5 -50
t-12.5 -84.5t-12.5 -99t-5.5 -93.5q0 -32 7 -64.5t23 -58.5t43 -43t66 -17q35 0 58 15.5t36.5 41t18.5 58.5t5 68q0 40 -7 81t-15.5 78t-15.5 68t-7 51t7 33.5t18 21.5t23.5 11.5t23.5 3.5q19 0 37 -11.5t26 -37.5q9 -32 18.5 -73.5t17 -84.5t12 -83.5t4.5 -68.5
q0 -54 -13 -107t-43 -94.5t-80 -67.5t-124 -26q-75 0 -129 23t-89 63.5t-52 97t-17 122.5q0 39 4.5 84t11 90t13.5 86t12 72q3 17 24 31.5t46 14.5z" />
    <glyph glyph-name="uhorn" unicode="&#x1b0;" horiz-adv-x="490" 
d="M516 546q23 -11 30 -39.5t-7 -57.5q-12 -22 -28 -38.5t-34.5 -26t-38.5 -10t-38 8.5q-8 5 -17 13t0 25q4 8 10 10.5t12 3.5t12 3t10 9q4 9 1 15t-7.5 13t-5.5 17t8 28q6 10 15 18.5t21 13t26.5 4t30.5 -9.5zM346 125q-14 -44 -34 -70.5t-44 -41t-50.5 -19.5t-53.5 -5
q-46 0 -76 18.5t-47 49.5t-24 71.5t-7 84.5q0 75 13 134.5t26 103.5q9 31 28 41t39 10q29 0 43 -15.5t14 -38.5q0 -6 -5 -30t-11 -57.5t-11 -72t-5 -74.5q0 -54 14.5 -75.5t43.5 -21.5q43 0 71.5 50.5t28.5 147.5q0 40 -4 72.5t-4 46.5q0 24 20 41t48 17q21 0 38.5 -13.5
t20.5 -34.5q2 -15 6.5 -42t9.5 -61t10.5 -72.5t11.5 -74.5t10.5 -67.5t8.5 -52.5q2 -9 2.5 -17.5t0.5 -12.5q0 -31 -17.5 -43.5t-37.5 -12.5q-23 0 -36 10.5t-20 29t-11 43.5t-10 54z" />
    <glyph glyph-name="circumflex" unicode="&#x2c6;" horiz-adv-x="393" 
d="M341 607q15 -14 14.5 -29.5t-10 -26.5t-24.5 -14.5t-30 6.5q-9 6 -20 15.5t-23.5 18t-26 15t-26.5 6.5t-26.5 -6.5t-26 -15t-23.5 -18t-20 -15.5q-15 -10 -30 -6.5t-24.5 14.5t-10 26.5t14.5 29.5q18 20 41 37q20 14 46.5 25.5t58.5 11.5t58.5 -11.5t46.5 -25.5
q23 -17 41 -37z" />
    <glyph glyph-name="ring" unicode="&#x2da;" horiz-adv-x="191" 
d="M45 615q0 -22 13 -35t35 -13q21 0 35 13t14 35q0 21 -14 35t-35 14q-22 0 -35 -14t-13 -35zM2 615q0 38 26 65t65 27q19 0 36 -7t29.5 -19.5t19.5 -29.5t7 -36q0 -39 -27 -65t-65 -26q-39 0 -65 26t-26 65z" />
    <glyph glyph-name="tilde" unicode="&#x2dc;" horiz-adv-x="439" 
d="M101 554q-19 -17 -38.5 -16.5t-31.5 12t-13.5 30.5t14.5 39q29 32 65 45t78 2q31 -9 52 -20t38.5 -16t35 2t41.5 34q19 12 36.5 11t28 -11.5t13 -27.5t-8.5 -37q-11 -11 -22 -23t-24 -21q-18 -13 -38 -18t-41 -4.5t-42 5.5t-40 13t-36.5 15t-37.5 9q-11 -3 -16 -8.5
t-13 -14.5z" />
    <glyph glyph-name="uni1EA0" unicode="&#x1ea0;" horiz-adv-x="570" 
d="M225 -114q0 28 19 47.5t47 19.5t47.5 -19.5t19.5 -47.5t-19.5 -47t-47.5 -19t-47 19t-19 47zM261 694q29 0 46 -15t26 -43q4 -14 20 -51.5t36.5 -87t42.5 -103.5t39 -100h11q5 0 11 0.5t13 0.5q12 0 27 -7t15 -29q0 -17 -6.5 -27t-15 -15.5t-15.5 -7.5l-7 -2
q23 -51 41 -93q15 -37 28 -71t13 -48q0 -27 -17.5 -45t-46.5 -18q-28 0 -45.5 14t-28.5 41q-5 10 -12.5 29t-17 41.5t-19 46.5t-17 43t-12 31.5l-4.5 12.5l-186 -20l-9 -27q-5 -13 -13 -32t-19 -42q-17 -35 -37 -49t-43 -14q-29 0 -41.5 16t-12.5 43q0 13 7.5 36t20.5 53.5
t30 68t36 80.5t34 79.5t26 71t17 68.5t6 72q0 18 5 36t15 32t25 22.5t34 8.5zM279 417l-58 -147l113 7z" />
    <glyph glyph-name="uni1EA1" unicode="&#x1ea1;" horiz-adv-x="526" 
d="M225 -114q0 28 19 47.5t47 19.5t47.5 -19.5t19.5 -47.5t-19.5 -47t-47.5 -19t-47 19t-19 47zM409 28q-8 19 -21 49.5t-27 69.5q-12 -28 -31.5 -57t-45.5 -53t-58.5 -39t-71.5 -15t-66.5 15t-44.5 42t-25 64t-8 82q0 52 19.5 109.5t52.5 106t76.5 80.5t91.5 32
q69 0 110.5 -36t58.5 -113q20 -88 41 -157t41 -117l13.5 -31.5t7.5 -31.5q0 -17 -12 -30t-38 -13q-27 0 -41 12.5t-22 30.5zM174 97q18 0 41.5 15t45 41.5t36.5 63.5t15 82q0 44 -17 71.5t-47 27.5q-17 0 -39 -16.5t-41.5 -45.5t-33 -68.5t-13.5 -86.5q0 -15 2 -30t8 -27
t16 -19.5t27 -7.5z" />
    <glyph glyph-name="uni1EA2" unicode="&#x1ea2;" horiz-adv-x="570" 
d="M309 933q29 0 50 -23.5t21 -56.5q0 -26 -7.5 -49t-21 -40.5t-32 -27.5t-40.5 -10q-11 0 -23.5 3.5t-12.5 22.5q0 9 4.5 14.5t10.5 9.5t10.5 8.5t4.5 13.5q0 10 -6 14t-13.5 8t-13.5 12.5t-6 29.5q0 25 18.5 48t56.5 23zM261 694q29 0 46 -15t26 -43q4 -14 20 -51.5
t36.5 -87t42.5 -103.5t39 -100h11q5 0 11 0.5t13 0.5q12 0 27 -7t15 -29q0 -17 -6.5 -27t-15 -15.5t-15.5 -7.5l-7 -2q23 -51 41 -93q15 -37 28 -71t13 -48q0 -27 -17.5 -45t-46.5 -18q-28 0 -45.5 14t-28.5 41q-5 10 -12.5 29t-17 41.5t-19 46.5t-17 43t-12 31.5l-4.5 12.5
l-186 -20l-9 -27q-5 -13 -13 -32t-19 -42q-17 -35 -37 -49t-43 -14q-29 0 -41.5 16t-12.5 43q0 13 7.5 36t20.5 53.5t30 68t36 80.5t34 79.5t26 71t17 68.5t6 72q0 18 5 36t15 32t25 22.5t34 8.5zM279 417l-58 -147l113 7z" />
    <glyph glyph-name="uni1EA3" unicode="&#x1ea3;" 
d="M303 752q29 0 50 -23.5t21 -56.5q0 -26 -7.5 -49t-21 -40.5t-32 -27.5t-40.5 -10q-11 0 -23.5 3.5t-12.5 22.5q0 9 4.5 14.5t10.5 9.5t10.5 8.5t4.5 13.5q0 10 -6 14t-13.5 8t-13.5 12.5t-6 29.5q0 25 18.5 48t56.5 23zM409 28q-8 19 -21 49.5t-27 69.5
q-12 -28 -31.5 -57t-45.5 -53t-58.5 -39t-71.5 -15t-66.5 15t-44.5 42t-25 64t-8 82q0 52 19.5 109.5t52.5 106t76.5 80.5t91.5 32q69 0 110.5 -36t58.5 -113q20 -88 41 -157t41 -117l13.5 -31.5t7.5 -31.5q0 -17 -12 -30t-38 -13q-27 0 -41 12.5t-22 30.5zM174 97
q18 0 41.5 15t45 41.5t36.5 63.5t15 82q0 44 -17 71.5t-47 27.5q-17 0 -39 -16.5t-41.5 -45.5t-33 -68.5t-13.5 -86.5q0 -15 2 -30t8 -27t16 -19.5t27 -7.5z" />
    <glyph glyph-name="uni1EA4" unicode="&#x1ea4;" horiz-adv-x="570" 
d="M261 694q29 0 46 -15t26 -43q4 -14 20 -51.5t36.5 -87t42.5 -103.5t39 -100h11q5 0 11 0.5t13 0.5q12 0 27 -7t15 -29q0 -17 -6.5 -27t-15 -15.5t-15.5 -7.5l-7 -2q23 -51 41 -93q15 -37 28 -71t13 -48q0 -27 -17.5 -45t-46.5 -18q-28 0 -45.5 14t-28.5 41
q-5 10 -12.5 29t-17 41.5t-19 46.5t-17 43t-12 31.5l-4.5 12.5l-186 -20l-9 -27q-5 -13 -13 -32t-19 -42q-17 -35 -38.5 -49.5t-44.5 -14.5q-29 0 -40 16.5t-11 43.5q0 13 7.5 36t20.5 53.5t30 68t36 80.5t34 79.5t26 71t17 68.5t6 72q0 18 5 36t15 32t25 22.5t34 8.5z
M279 417l-58 -147l113 7zM414 788q15 -14 14.5 -29.5t-10 -26.5t-24.5 -14.5t-30 6.5q-9 6 -20 15.5t-23.5 18t-26 15t-26.5 6.5t-26.5 -6.5t-26 -15t-23.5 -18t-20 -15.5q-15 -10 -30 -6.5t-24.5 14.5t-10 26.5t14.5 29.5q18 20 41 37q20 14 46.5 25.5t58.5 11.5
t58.5 -11.5t46.5 -25.5q23 -17 41 -37zM397 828q-5 10 3.5 23.5t25.5 28t39 29.5t43 27.5t38 22t24 13.5q22 14 46 8t35 -26q8 -20 -1.5 -42t-33.5 -33q-7 -3 -24.5 -11t-40 -17t-47.5 -17.5t-47 -13t-38.5 -3.5t-21.5 11z" />
    <glyph glyph-name="uni1EA5" unicode="&#x1ea5;" 
d="M409 28q-8 19 -21 49.5t-27 69.5q-12 -28 -31.5 -57t-45.5 -53t-58.5 -39t-71.5 -15t-66.5 15t-44.5 42t-25 64t-8 82q0 52 19.5 109.5t52.5 106t76.5 80.5t91.5 32q69 0 110.5 -36t58.5 -113q20 -88 41 -157t41 -117l13.5 -31.5t7.5 -31.5q0 -17 -12 -30t-38 -13
q-27 0 -41 12.5t-22 30.5zM174 97q18 0 41.5 15t45 41.5t36.5 63.5t15 82q0 44 -17 71.5t-47 27.5q-17 0 -39 -16.5t-41.5 -45.5t-33 -68.5t-13.5 -86.5q0 -15 2 -30t8 -27t16 -19.5t27 -7.5zM380 607q15 -14 14.5 -29.5t-10 -26.5t-24.5 -14.5t-30 6.5q-9 6 -20 15.5
t-23.5 18t-26 15t-26.5 6.5t-26.5 -6.5t-26 -15t-23.5 -18t-20 -15.5q-15 -10 -30 -6.5t-24.5 14.5t-10 26.5t14.5 29.5q18 20 41 37q20 14 46.5 25.5t58.5 11.5t58.5 -11.5t46.5 -25.5q23 -17 41 -37zM363 647q-5 10 3.5 23.5t25.5 28t39 29.5t43 27.5t38 22t24 13.5
q22 14 46 8t35 -26q8 -20 -1.5 -42t-33.5 -33q-7 -3 -24.5 -11t-40 -17t-47.5 -17.5t-47 -13t-38.5 -3.5t-21.5 11zM380 607q15 -14 14.5 -29.5t-10 -26.5t-24.5 -14.5t-30 6.5q-9 6 -20 15.5t-23.5 18t-26 15t-26.5 6.5t-26.5 -6.5t-26 -15t-23.5 -18t-20 -15.5
q-15 -10 -30 -6.5t-24.5 14.5t-10 26.5t14.5 29.5q18 20 41 37q20 14 46.5 25.5t58.5 11.5t58.5 -11.5t46.5 -25.5q23 -17 41 -37zM363 647q-5 10 3.5 23.5t25.5 28t39 29.5t43 27.5t38 22t24 13.5q22 14 46 8t35 -26q8 -20 -1.5 -42t-33.5 -33q-7 -3 -24.5 -11t-40 -17
t-47.5 -17.5t-47 -13t-38.5 -3.5t-21.5 11z" />
    <glyph glyph-name="uni1EA6" unicode="&#x1ea6;" horiz-adv-x="570" 
d="M407 894q-5 -10 -21.5 -11t-38.5 3.5t-47 13t-47.5 17.5t-40 17t-24.5 11q-24 11 -33.5 33t-1.5 42q11 20 35 26t46 -8q7 -4 24 -13.5t38 -22t43 -27.5t39 -29.5t25.5 -28t3.5 -23.5zM261 694q29 0 46 -15t26 -43q4 -14 20 -51.5t36.5 -87t42.5 -103.5t39 -100h11
q5 0 11 0.5t13 0.5q12 0 27 -7t15 -29q0 -17 -6.5 -27t-15 -15.5t-15.5 -7.5l-7 -2q23 -51 41 -93q15 -37 28 -71t13 -48q0 -27 -17.5 -45t-46.5 -18q-28 0 -45.5 14t-28.5 41q-5 10 -12.5 29t-17 41.5t-19 46.5t-17 43t-12 31.5l-4.5 12.5l-186 -20l-9 -27q-5 -13 -13 -32
t-19 -42q-17 -35 -38.5 -49.5t-44.5 -14.5q-29 0 -40 16.5t-11 43.5q0 13 7.5 36t20.5 53.5t30 68t36 80.5t34 79.5t26 71t17 68.5t6 72q0 18 5 36t15 32t25 22.5t34 8.5zM279 417l-58 -147l113 7zM414 788q15 -14 14.5 -29.5t-10 -26.5t-24.5 -14.5t-30 6.5q-9 6 -20 15.5
t-23.5 18t-26 15t-26.5 6.5t-26.5 -6.5t-26 -15t-23.5 -18t-20 -15.5q-15 -10 -30 -6.5t-24.5 14.5t-10 26.5t14.5 29.5q18 20 41 37q20 14 46.5 25.5t58.5 11.5t58.5 -11.5t46.5 -25.5q23 -17 41 -37z" />
    <glyph glyph-name="uni1EA7" unicode="&#x1ea7;" 
d="M373 711q-5 -10 -21.5 -11t-38.5 3.5t-47 13t-47.5 17.5t-40 17t-24.5 11q-24 11 -33.5 33t-1.5 42q11 20 35 26t46 -8q7 -4 24 -13.5t38 -22t43 -27.5t39 -29.5t25.5 -28t3.5 -23.5zM409 28q-8 19 -21 49.5t-27 69.5q-12 -28 -31.5 -57t-45.5 -53t-58.5 -39t-71.5 -15
t-66.5 15t-44.5 42t-25 64t-8 82q0 52 19.5 109.5t52.5 106t76.5 80.5t91.5 32q69 0 110.5 -36t58.5 -113q20 -88 41 -157t41 -117l13.5 -31.5t7.5 -31.5q0 -17 -12 -30t-38 -13q-27 0 -41 12.5t-22 30.5zM174 97q18 0 41.5 15t45 41.5t36.5 63.5t15 82q0 44 -17 71.5
t-47 27.5q-17 0 -39 -16.5t-41.5 -45.5t-33 -68.5t-13.5 -86.5q0 -15 2 -30t8 -27t16 -19.5t27 -7.5zM380 607q15 -14 14.5 -29.5t-10 -26.5t-24.5 -14.5t-30 6.5q-9 6 -20 15.5t-23.5 18t-26 15t-26.5 6.5t-26.5 -6.5t-26 -15t-23.5 -18t-20 -15.5q-15 -10 -30 -6.5
t-24.5 14.5t-10 26.5t14.5 29.5q18 20 41 37q20 14 46.5 25.5t58.5 11.5t58.5 -11.5t46.5 -25.5q23 -17 41 -37z" />
    <glyph glyph-name="uni1EA8" unicode="&#x1ea8;" horiz-adv-x="570" 
d="M449 1047q29 0 50 -23.5t21 -56.5q0 -26 -7.5 -49t-21 -40.5t-32 -27.5t-40.5 -10q-11 0 -23.5 3.5t-12.5 22.5q0 9 4.5 14.5t10.5 9.5t10.5 8.5t4.5 13.5q0 10 -6 14t-13.5 8t-13.5 12.5t-6 29.5q0 25 18.5 48t56.5 23zM261 694q29 0 46 -15t26 -43q4 -14 20 -51.5
t36.5 -87t42.5 -103.5t39 -100h11q5 0 11 0.5t13 0.5q12 0 27 -7t15 -29q0 -17 -6.5 -27t-15 -15.5t-15.5 -7.5l-7 -2q23 -51 41 -93q15 -37 28 -71t13 -48q0 -27 -17.5 -45t-46.5 -18q-28 0 -45.5 14t-28.5 41q-5 10 -12.5 29t-17 41.5t-19 46.5t-17 43t-12 31.5l-4.5 12.5
l-186 -20l-9 -27q-5 -13 -13 -32t-19 -42q-17 -35 -38.5 -49.5t-44.5 -14.5q-29 0 -40 16.5t-11 43.5q0 13 7.5 36t20.5 53.5t30 68t36 80.5t34 79.5t26 71t17 68.5t6 72q0 18 5 36t15 32t25 22.5t34 8.5zM279 417l-58 -147l113 7zM414 788q15 -14 14.5 -29.5t-10 -26.5
t-24.5 -14.5t-30 6.5q-9 6 -20 15.5t-23.5 18t-26 15t-26.5 6.5t-26.5 -6.5t-26 -15t-23.5 -18t-20 -15.5q-15 -10 -30 -6.5t-24.5 14.5t-10 26.5t14.5 29.5q18 20 41 37q20 14 46.5 25.5t58.5 11.5t58.5 -11.5t46.5 -25.5q23 -17 41 -37z" />
    <glyph glyph-name="uni1EA9" unicode="&#x1ea9;" 
d="M409 28q-8 19 -21 49.5t-27 69.5q-12 -28 -31.5 -57t-45.5 -53t-58.5 -39t-71.5 -15t-66.5 15t-44.5 42t-25 64t-8 82q0 52 19.5 109.5t52.5 106t76.5 80.5t91.5 32q69 0 110.5 -36t58.5 -113q20 -88 41 -157t41 -117l13.5 -31.5t7.5 -31.5q0 -17 -12 -30t-38 -13
q-27 0 -41 12.5t-22 30.5zM174 97q18 0 41.5 15t45 41.5t36.5 63.5t15 82q0 44 -17 71.5t-47 27.5q-17 0 -39 -16.5t-41.5 -45.5t-33 -68.5t-13.5 -86.5q0 -15 2 -30t8 -27t16 -19.5t27 -7.5zM414 865q29 0 50 -23.5t21 -56.5q0 -26 -7.5 -49t-21 -40.5t-32 -27.5t-40.5 -10
q-11 0 -23.5 3.5t-12.5 22.5q0 9 4.5 14.5t10.5 9.5t10.5 8.5t4.5 13.5q0 10 -6 14t-13.5 8t-13.5 12.5t-6 29.5q0 25 18.5 48t56.5 23zM379 606q15 -14 14.5 -29.5t-10 -26.5t-24.5 -14.5t-30 6.5q-9 6 -20 15.5t-23.5 18t-26 15t-26.5 6.5t-26.5 -6.5t-26 -15t-23.5 -18
t-20 -15.5q-15 -10 -30 -6.5t-24.5 14.5t-10 26.5t14.5 29.5q18 20 41 37q20 14 46.5 25.5t58.5 11.5t58.5 -11.5t46.5 -25.5q23 -17 41 -37z" />
    <glyph glyph-name="uni1EAA" unicode="&#x1eaa;" horiz-adv-x="570" 
d="M261 694q29 0 46 -15t26 -43q4 -14 20 -51.5t36.5 -87t42.5 -103.5t39 -100h11q5 0 11 0.5t13 0.5q12 0 27 -7t15 -29q0 -17 -6.5 -27t-15 -15.5t-15.5 -7.5l-7 -2q23 -51 41 -93q15 -37 28 -71t13 -48q0 -27 -17.5 -45t-46.5 -18q-28 0 -45.5 14t-28.5 41
q-5 10 -12.5 29t-17 41.5t-19 46.5t-17 43t-12 31.5l-4.5 12.5l-186 -20l-9 -27q-5 -13 -13 -32t-19 -42q-17 -35 -38.5 -49.5t-44.5 -14.5q-29 0 -40 16.5t-11 43.5q0 13 7.5 36t20.5 53.5t30 68t36 80.5t34 79.5t26 71t17 68.5t6 72q0 18 5 36t15 32t25 22.5t34 8.5z
M279 417l-58 -147l113 7zM414 788q15 -14 14.5 -29.5t-10 -26.5t-24.5 -14.5t-30 6.5q-9 6 -20 15.5t-23.5 18t-26 15t-26.5 6.5t-26.5 -6.5t-26 -15t-23.5 -18t-20 -15.5q-15 -10 -30 -6.5t-24.5 14.5t-10 26.5t14.5 29.5q18 20 41 37q20 14 46.5 25.5t58.5 11.5
t58.5 -11.5t46.5 -25.5q23 -17 41 -37zM171 910q-19 -17 -38.5 -16.5t-31.5 12t-13.5 30.5t14.5 39q29 32 65 45t78 2q31 -9 52 -20t38.5 -16t35 2t41.5 34q19 12 36.5 11t28 -11.5t13 -27.5t-8.5 -37q-11 -11 -22 -23t-24 -21q-18 -13 -38 -18t-41 -4.5t-42 5.5t-40 13
t-36.5 15t-37.5 9q-11 -3 -16 -8.5t-13 -14.5z" />
    <glyph glyph-name="uni1EAB" unicode="&#x1eab;" 
d="M409 28q-8 19 -21 49.5t-27 69.5q-12 -28 -31.5 -57t-45.5 -53t-58.5 -39t-71.5 -15t-66.5 15t-44.5 42t-25 64t-8 82q0 52 19.5 109.5t52.5 106t76.5 80.5t91.5 32q69 0 110.5 -36t58.5 -113q20 -88 41 -157t41 -117l13.5 -31.5t7.5 -31.5q0 -17 -12 -30t-38 -13
q-27 0 -41 12.5t-22 30.5zM174 97q18 0 41.5 15t45 41.5t36.5 63.5t15 82q0 44 -17 71.5t-47 27.5q-17 0 -39 -16.5t-41.5 -45.5t-33 -68.5t-13.5 -86.5q0 -15 2 -30t8 -27t16 -19.5t27 -7.5zM380 609q15 -14 14.5 -29.5t-10 -26.5t-24.5 -14.5t-30 6.5q-9 6 -20 15.5
t-23.5 18t-26 15t-26.5 6.5t-26.5 -6.5t-26 -15t-23.5 -18t-20 -15.5q-15 -10 -30 -6.5t-24.5 14.5t-10 26.5t14.5 29.5q18 20 41 37q20 14 46.5 25.5t58.5 11.5t58.5 -11.5t46.5 -25.5q23 -17 41 -37zM137 731q-19 -17 -38.5 -16.5t-31.5 12t-13.5 30.5t14.5 39
q29 32 65 45t78 2q31 -9 52 -20t38.5 -16t35 2t41.5 34q19 12 36.5 11t28 -11.5t13 -27.5t-8.5 -37q-11 -11 -22 -23t-24 -21q-18 -13 -38 -18t-41 -4.5t-42 5.5t-40 13t-36.5 15t-37.5 9q-11 -3 -16 -8.5t-13 -14.5z" />
    <glyph glyph-name="uni1EAC" unicode="&#x1eac;" horiz-adv-x="570" 
d="M225 -114q0 28 19 47.5t47 19.5t47.5 -19.5t19.5 -47.5t-19.5 -47t-47.5 -19t-47 19t-19 47zM261 694q29 0 46 -15t26 -43q4 -14 20 -51.5t36.5 -87t42.5 -103.5t39 -100h11q5 0 11 0.5t13 0.5q12 0 27 -7t15 -29q0 -17 -6.5 -27t-15 -15.5t-15.5 -7.5l-7 -2
q23 -51 41 -93q15 -37 28 -71t13 -48q0 -27 -17.5 -45t-46.5 -18q-28 0 -45.5 14t-28.5 41q-5 10 -12.5 29t-17 41.5t-19 46.5t-17 43t-12 31.5l-4.5 12.5l-186 -20l-9 -27q-5 -13 -13 -32t-19 -42q-17 -35 -37 -49t-43 -14q-29 0 -41.5 16t-12.5 43q0 13 7.5 36t20.5 53.5
t30 68t36 80.5t34 79.5t26 71t17 68.5t6 72q0 18 5 36t15 32t25 22.5t34 8.5zM279 417l-58 -147l113 7zM414 777q15 -14 14.5 -29.5t-10 -26.5t-24.5 -14.5t-30 6.5q-9 6 -20 15.5t-23.5 18t-26 15t-26.5 6.5t-26.5 -6.5t-26 -15t-23.5 -18t-20 -15.5q-15 -10 -30 -6.5
t-24.5 14.5t-10 26.5t14.5 29.5q18 20 41 37q20 14 46.5 25.5t58.5 11.5t58.5 -11.5t46.5 -25.5q23 -17 41 -37z" />
    <glyph glyph-name="uni1EAD" unicode="&#x1ead;" 
d="M409 28q-8 19 -21 49.5t-27 69.5q-12 -28 -31.5 -57t-45.5 -53t-58.5 -39t-71.5 -15t-66.5 15t-44.5 42t-25 64t-8 82q0 52 19.5 109.5t52.5 106t76.5 80.5t91.5 32q69 0 110.5 -36t58.5 -113q20 -88 41 -157t41 -117l13.5 -31.5t7.5 -31.5q0 -17 -12 -30t-38 -13
q-27 0 -41 12.5t-22 30.5zM174 97q18 0 41.5 15t45 41.5t36.5 63.5t15 82q0 44 -17 71.5t-47 27.5q-17 0 -39 -16.5t-41.5 -45.5t-33 -68.5t-13.5 -86.5q0 -15 2 -30t8 -27t16 -19.5t27 -7.5zM380 607q15 -14 14.5 -29.5t-10 -26.5t-24.5 -14.5t-30 6.5q-9 6 -20 15.5
t-23.5 18t-26 15t-26.5 6.5t-26.5 -6.5t-26 -15t-23.5 -18t-20 -15.5q-15 -10 -30 -6.5t-24.5 14.5t-10 26.5t14.5 29.5q18 20 41 37q20 14 46.5 25.5t58.5 11.5t58.5 -11.5t46.5 -25.5q23 -17 41 -37zM225 -114q0 28 19 47.5t47 19.5t47.5 -19.5t19.5 -47.5t-19.5 -47
t-47.5 -19t-47 19t-19 47z" />
    <glyph glyph-name="uni1EAE" unicode="&#x1eae;" horiz-adv-x="570" 
d="M261 694q29 0 46 -15t26 -43q4 -14 20 -51.5t36.5 -87t42.5 -103.5t39 -100h11q5 0 11 0.5t13 0.5q12 0 27 -7t15 -29q0 -17 -6.5 -27t-15 -15.5t-15.5 -7.5l-7 -2q23 -51 41 -93q15 -37 28 -71t13 -48q0 -27 -17.5 -45t-46.5 -18q-28 0 -45.5 14t-28.5 41
q-5 10 -12.5 29t-17 41.5t-19 46.5t-17 43t-12 31.5l-4.5 12.5l-186 -20l-9 -27q-5 -13 -13 -32t-19 -42q-17 -35 -37 -49t-43 -14q-29 0 -41.5 16t-12.5 43q0 13 7.5 36t20.5 53.5t30 68t36 80.5t34 79.5t26 71t17 68.5t6 72q0 18 5 36t15 32t25 22.5t34 8.5zM279 417
l-58 -147l113 7zM128 794q-15 14 -14.5 29.5t10 26.5t24.5 14.5t30 -6.5q9 -6 20 -15.5t23.5 -18t26 -15t26.5 -6.5t26.5 6.5t26 15t23.5 18t20 15.5q15 10 30 6.5t24.5 -14.5t10 -26.5t-14.5 -29.5q-18 -21 -41 -37q-20 -14 -46.5 -25.5t-58.5 -11.5t-58.5 11.5t-46.5 25.5
q-23 16 -41 37zM257 883q-5 10 3.5 23.5t25.5 28t39 29.5t43 27.5t38 22t24 13.5q22 14 46 8t35 -26q8 -20 -1.5 -42t-33.5 -33q-7 -3 -24.5 -11t-40 -17t-47.5 -17.5t-47 -13t-38.5 -3.5t-21.5 11z" />
    <glyph glyph-name="uni1EAF" unicode="&#x1eaf;" 
d="M409 28q-8 19 -21 49.5t-27 69.5q-12 -28 -31.5 -57t-45.5 -53t-58.5 -39t-71.5 -15t-66.5 15t-44.5 42t-25 64t-8 82q0 52 19.5 109.5t52.5 106t76.5 80.5t91.5 32q69 0 110.5 -36t58.5 -113q20 -88 41 -157t41 -117l13.5 -31.5t7.5 -31.5q0 -17 -12 -30t-38 -13
q-27 0 -41 12.5t-22 30.5zM174 97q18 0 41.5 15t45 41.5t36.5 63.5t15 82q0 44 -17 71.5t-47 27.5q-17 0 -39 -16.5t-41.5 -45.5t-33 -68.5t-13.5 -86.5q0 -15 2 -30t8 -27t16 -19.5t27 -7.5zM128 620q-15 14 -14.5 29.5t10 26.5t24.5 14.5t30 -6.5q9 -6 20 -15.5t23.5 -18
t26 -15t26.5 -6.5t26.5 6.5t26 15t23.5 18t20 15.5q15 10 30 6.5t24.5 -14.5t10 -26.5t-14.5 -29.5q-18 -21 -41 -37q-20 -14 -46.5 -25.5t-58.5 -11.5t-58.5 11.5t-46.5 25.5q-23 16 -41 37zM257 709q-5 10 3.5 23.5t25.5 28t39 29.5t43 27.5t38 22t24 13.5q22 14 46 8
t35 -26q8 -20 -1.5 -42t-33.5 -33q-7 -3 -24.5 -11t-40 -17t-47.5 -17.5t-47 -13t-38.5 -3.5t-21.5 11z" />
    <glyph glyph-name="uni1EB0" unicode="&#x1eb0;" horiz-adv-x="570" 
d="M261 694q29 0 46 -15t26 -43q4 -14 20 -51.5t36.5 -87t42.5 -103.5t39 -100h11q5 0 11 0.5t13 0.5q12 0 27 -7t15 -29q0 -17 -6.5 -27t-15 -15.5t-15.5 -7.5l-7 -2q23 -51 41 -93q15 -37 28 -71t13 -48q0 -27 -17.5 -45t-46.5 -18q-28 0 -45.5 14t-28.5 41
q-5 10 -12.5 29t-17 41.5t-19 46.5t-17 43t-12 31.5l-4.5 12.5l-186 -20l-9 -27q-5 -13 -13 -32t-19 -42q-17 -35 -37 -49t-43 -14q-29 0 -41.5 16t-12.5 43q0 13 7.5 36t20.5 53.5t30 68t36 80.5t34 79.5t26 71t17 68.5t6 72q0 18 5 36t15 32t25 22.5t34 8.5zM279 417
l-58 -147l113 7zM128 794q-15 14 -14.5 29.5t10 26.5t24.5 14.5t30 -6.5q9 -6 20 -15.5t23.5 -18t26 -15t26.5 -6.5t26.5 6.5t26 15t23.5 18t20 15.5q15 10 30 6.5t24.5 -14.5t10 -26.5t-14.5 -29.5q-18 -21 -41 -37q-20 -14 -46.5 -25.5t-58.5 -11.5t-58.5 11.5t-46.5 25.5
q-23 16 -41 37zM313 879q-5 -10 -21.5 -11t-38.5 3.5t-47 13t-47.5 17.5t-40 17t-24.5 11q-24 11 -33.5 33t-1.5 42q11 20 35 26t46 -8q7 -4 24 -13.5t38 -22t43 -27.5t39 -29.5t25.5 -28t3.5 -23.5z" />
    <glyph glyph-name="uni1EB1" unicode="&#x1eb1;" 
d="M409 28q-8 19 -21 49.5t-27 69.5q-12 -28 -31.5 -57t-45.5 -53t-58.5 -39t-71.5 -15t-66.5 15t-44.5 42t-25 64t-8 82q0 52 19.5 109.5t52.5 106t76.5 80.5t91.5 32q69 0 110.5 -36t58.5 -113q20 -88 41 -157t41 -117l13.5 -31.5t7.5 -31.5q0 -17 -12 -30t-38 -13
q-27 0 -41 12.5t-22 30.5zM174 97q18 0 41.5 15t45 41.5t36.5 63.5t15 82q0 44 -17 71.5t-47 27.5q-17 0 -39 -16.5t-41.5 -45.5t-33 -68.5t-13.5 -86.5q0 -15 2 -30t8 -27t16 -19.5t27 -7.5zM128 618q-15 14 -14.5 29.5t10 26.5t24.5 14.5t30 -6.5q9 -6 20 -15.5t23.5 -18
t26 -15t26.5 -6.5t26.5 6.5t26 15t23.5 18t20 15.5q15 10 30 6.5t24.5 -14.5t10 -26.5t-14.5 -29.5q-18 -21 -41 -37q-20 -14 -46.5 -25.5t-58.5 -11.5t-58.5 11.5t-46.5 25.5q-23 16 -41 37zM313 703q-5 -10 -21.5 -11t-38.5 3.5t-47 13t-47.5 17.5t-40 17t-24.5 11
q-24 11 -33.5 33t-1.5 42q11 20 35 26t46 -8q7 -4 24 -13.5t38 -22t43 -27.5t39 -29.5t25.5 -28t3.5 -23.5z" />
    <glyph glyph-name="uni1EB2" unicode="&#x1eb2;" horiz-adv-x="572" 
d="M309 1086q29 0 50 -23.5t21 -56.5q0 -26 -7.5 -49t-21 -40.5t-32 -27.5t-40.5 -10q-11 0 -23.5 3.5t-12.5 22.5q0 9 4.5 14.5t10.5 9.5t10.5 8.5t4.5 13.5q0 10 -6 14t-13.5 8t-13.5 12.5t-6 29.5q0 25 18.5 48t56.5 23zM261 694q29 0 46 -15t26 -43q4 -14 20 -51.5
t36.5 -87t42.5 -103.5t39 -100h11q5 0 11 0.5t13 0.5q12 0 27 -7t15 -29q0 -17 -6.5 -27t-15 -15.5t-15.5 -7.5l-7 -2q23 -51 41 -93q15 -37 28 -71t13 -48q0 -27 -17.5 -45t-46.5 -18q-28 0 -45.5 14t-28.5 41q-5 10 -12.5 29t-17 41.5t-19 46.5t-17 43t-12 31.5l-4.5 12.5
l-186 -20l-9 -27q-5 -13 -13 -32t-19 -42q-17 -35 -37 -49t-43 -14q-29 0 -41.5 16t-12.5 43q0 13 7.5 36t20.5 53.5t30 68t36 80.5t34 79.5t26 71t17 68.5t6 72q0 18 5 36t15 32t25 22.5t34 8.5zM279 417l-58 -147l113 7zM128 794q-15 14 -14.5 29.5t10 26.5t24.5 14.5
t30 -6.5q9 -6 20 -15.5t23.5 -18t26 -15t26.5 -6.5t26.5 6.5t26 15t23.5 18t20 15.5q15 10 30 6.5t24.5 -14.5t10 -26.5t-14.5 -29.5q-18 -21 -41 -37q-20 -14 -46.5 -25.5t-58.5 -11.5t-58.5 11.5t-46.5 25.5q-23 16 -41 37z" />
    <glyph glyph-name="uni1EB3" unicode="&#x1eb3;" horiz-adv-x="523" 
d="M409 28q-8 19 -21 49.5t-27 69.5q-12 -28 -31.5 -57t-45.5 -53t-58.5 -39t-71.5 -15t-66.5 15t-44.5 42t-25 64t-8 82q0 52 19.5 109.5t52.5 106t76.5 80.5t91.5 32q69 0 110.5 -36t58.5 -113q20 -88 41 -157t41 -117l13.5 -31.5t7.5 -31.5q0 -17 -12 -30t-38 -13
q-27 0 -41 12.5t-22 30.5zM174 97q18 0 41.5 15t45 41.5t36.5 63.5t15 82q0 44 -17 71.5t-47 27.5q-17 0 -39 -16.5t-41.5 -45.5t-33 -68.5t-13.5 -86.5q0 -15 2 -30t8 -27t16 -19.5t27 -7.5zM309 910q29 0 50 -23.5t21 -56.5q0 -26 -7.5 -49t-21 -40.5t-32 -27.5t-40.5 -10
q-11 0 -23.5 3.5t-12.5 22.5q0 9 4.5 14.5t10.5 9.5t10.5 8.5t4.5 13.5q0 10 -6 14t-13.5 8t-13.5 12.5t-6 29.5q0 25 18.5 48t56.5 23zM128 618q-15 14 -14.5 29.5t10 26.5t24.5 14.5t30 -6.5q9 -6 20 -15.5t23.5 -18t26 -15t26.5 -6.5t26.5 6.5t26 15t23.5 18t20 15.5
q15 10 30 6.5t24.5 -14.5t10 -26.5t-14.5 -29.5q-18 -21 -41 -37q-20 -14 -46.5 -25.5t-58.5 -11.5t-58.5 11.5t-46.5 25.5q-23 16 -41 37z" />
    <glyph glyph-name="uni1EB4" unicode="&#x1eb4;" horiz-adv-x="572" 
d="M261 694q29 0 46 -15t26 -43q4 -14 20 -51.5t36.5 -87t42.5 -103.5t39 -100h11q5 0 11 0.5t13 0.5q12 0 27 -7t15 -29q0 -17 -6.5 -27t-15 -15.5t-15.5 -7.5l-7 -2q23 -51 41 -93q15 -37 28 -71t13 -48q0 -27 -17.5 -45t-46.5 -18q-28 0 -45.5 14t-28.5 41
q-5 10 -12.5 29t-17 41.5t-19 46.5t-17 43t-12 31.5l-4.5 12.5l-186 -20l-9 -27q-5 -13 -13 -32t-19 -42q-17 -35 -37 -49t-43 -14q-29 0 -41.5 16t-12.5 43q0 13 7.5 36t20.5 53.5t30 68t36 80.5t34 79.5t26 71t17 68.5t6 72q0 18 5 36t15 32t25 22.5t34 8.5zM279 417
l-58 -147l113 7zM128 794q-15 14 -14.5 29.5t10 26.5t24.5 14.5t30 -6.5q9 -6 20 -15.5t23.5 -18t26 -15t26.5 -6.5t26.5 6.5t26 15t23.5 18t20 15.5q15 10 30 6.5t24.5 -14.5t10 -26.5t-14.5 -29.5q-18 -21 -41 -37q-20 -14 -46.5 -25.5t-58.5 -11.5t-58.5 11.5t-46.5 25.5
q-23 16 -41 37zM305 897q-19 -17 -38.5 -16.5t-31.5 12t-13.5 30.5t14.5 39q29 32 65 45t78 2q31 -9 52 -20t38.5 -16t35 2t41.5 34q19 12 36.5 11t28 -11.5t13 -27.5t-8.5 -37q-11 -11 -22 -23t-24 -21q-18 -13 -38 -18t-41 -4.5t-42 5.5t-40 13t-36.5 15t-37.5 9
q-11 -3 -16 -8.5t-13 -14.5z" />
    <glyph glyph-name="uni1EB5" unicode="&#x1eb5;" horiz-adv-x="523" 
d="M409 28q-8 19 -21 49.5t-27 69.5q-12 -28 -31.5 -57t-45.5 -53t-58.5 -39t-71.5 -15t-66.5 15t-44.5 42t-25 64t-8 82q0 52 19.5 109.5t52.5 106t76.5 80.5t91.5 32q69 0 110.5 -36t58.5 -113q20 -88 41 -157t41 -117l13.5 -31.5t7.5 -31.5q0 -17 -12 -30t-38 -13
q-27 0 -41 12.5t-22 30.5zM174 97q18 0 41.5 15t45 41.5t36.5 63.5t15 82q0 44 -17 71.5t-47 27.5q-17 0 -39 -16.5t-41.5 -45.5t-33 -68.5t-13.5 -86.5q0 -15 2 -30t8 -27t16 -19.5t27 -7.5zM128 620q-15 14 -14.5 29.5t10 26.5t24.5 14.5t30 -6.5q9 -6 20 -15.5t23.5 -18
t26 -15t26.5 -6.5t26.5 6.5t26 15t23.5 18t20 15.5q15 10 30 6.5t24.5 -14.5t10 -26.5t-14.5 -29.5q-18 -21 -41 -37q-20 -14 -46.5 -25.5t-58.5 -11.5t-58.5 11.5t-46.5 25.5q-23 16 -41 37zM305 723q-19 -17 -38.5 -16.5t-31.5 12t-13.5 30.5t14.5 39q29 32 65 45t78 2
q31 -9 52 -20t38.5 -16t35 2t41.5 34q19 12 36.5 11t28 -11.5t13 -27.5t-8.5 -37q-11 -11 -22 -23t-24 -21q-18 -13 -38 -18t-41 -4.5t-42 5.5t-40 13t-36.5 15t-37.5 9q-11 -3 -16 -8.5t-13 -14.5z" />
    <glyph glyph-name="uni1EB6" unicode="&#x1eb6;" horiz-adv-x="570" 
d="M128 794q-15 14 -14.5 29.5t10 26.5t24.5 14.5t30 -6.5q9 -6 20 -15.5t23.5 -18t26 -15t26.5 -6.5t26.5 6.5t26 15t23.5 18t20 15.5q15 10 30 6.5t24.5 -14.5t10 -26.5t-14.5 -29.5q-18 -21 -41 -37q-20 -14 -46.5 -25.5t-58.5 -11.5t-58.5 11.5t-46.5 25.5
q-23 16 -41 37zM225 -114q0 28 19 47.5t47 19.5t47.5 -19.5t19.5 -47.5t-19.5 -47t-47.5 -19t-47 19t-19 47zM261 694q29 0 46 -15t26 -43q4 -14 20 -51.5t36.5 -87t42.5 -103.5t39 -100h11q5 0 11 0.5t13 0.5q12 0 27 -7t15 -29q0 -17 -6.5 -27t-15 -15.5t-15.5 -7.5l-7 -2
q23 -51 41 -93q15 -37 28 -71t13 -48q0 -27 -17.5 -45t-46.5 -18q-28 0 -45.5 14t-28.5 41q-5 10 -12.5 29t-17 41.5t-19 46.5t-17 43t-12 31.5l-4.5 12.5l-186 -20l-9 -27q-5 -13 -13 -32t-19 -42q-17 -35 -37 -49t-43 -14q-29 0 -41.5 16t-12.5 43q0 13 7.5 36t20.5 53.5
t30 68t36 80.5t34 79.5t26 71t17 68.5t6 72q0 18 5 36t15 32t25 22.5t34 8.5zM279 417l-58 -147l113 7z" />
    <glyph glyph-name="uni1EB7" unicode="&#x1eb7;" horiz-adv-x="523" 
d="M409 28q-8 19 -21 49.5t-27 69.5q-12 -28 -31.5 -57t-45.5 -53t-58.5 -39t-71.5 -15t-66.5 15t-44.5 42t-25 64t-8 82q0 52 19.5 109.5t52.5 106t76.5 80.5t91.5 32q69 0 110.5 -36t58.5 -113q20 -88 41 -157t41 -117l13.5 -31.5t7.5 -31.5q0 -17 -12 -30t-38 -13
q-27 0 -41 12.5t-22 30.5zM174 97q18 0 41.5 15t45 41.5t36.5 63.5t15 82q0 44 -17 71.5t-47 27.5q-17 0 -39 -16.5t-41.5 -45.5t-33 -68.5t-13.5 -86.5q0 -15 2 -30t8 -27t16 -19.5t27 -7.5zM225 -114q0 28 19 47.5t47 19.5t47.5 -19.5t19.5 -47.5t-19.5 -47t-47.5 -19
t-47 19t-19 47zM128 620q-15 14 -14.5 29.5t10 26.5t24.5 14.5t30 -6.5q9 -6 20 -15.5t23.5 -18t26 -15t26.5 -6.5t26.5 6.5t26 15t23.5 18t20 15.5q15 10 30 6.5t24.5 -14.5t10 -26.5t-14.5 -29.5q-18 -21 -41 -37q-20 -14 -46.5 -25.5t-58.5 -11.5t-58.5 11.5t-46.5 25.5
q-23 16 -41 37z" />
    <glyph glyph-name="uni1EB8" unicode="&#x1eb8;" horiz-adv-x="589" 
d="M225 -114q0 28 19 47.5t47 19.5t47.5 -19.5t19.5 -47.5t-19.5 -47t-47.5 -19t-47 19t-19 47zM278 646q34 0 57.5 1t41.5 1.5t32.5 1.5t31.5 1q34 0 56.5 -15t22.5 -44q0 -33 -18 -47t-51 -14q-39 0 -80.5 -0.5t-78.5 -1t-67.5 -1t-47.5 -1.5q4 -23 8 -55.5t9 -64.5
q19 1 52 4t68 6t66.5 5t47.5 2q37 0 55.5 -13.5t18.5 -43.5t-18.5 -47.5t-63.5 -17.5q-17 0 -44.5 -1.5t-58 -4t-60.5 -5.5t-52 -5q2 -34 4 -75t3 -83q72 0 119 13t80.5 28t59.5 28t56 13q32 0 43 -16t11 -42q0 -36 -42 -65.5t-105.5 -51t-138 -33.5t-139.5 -12
q-46 0 -66 23t-20 59q0 133 -8.5 221t-18.5 145t-18.5 89.5t-8.5 56.5q0 13 3.5 26t12 23.5t22.5 17t34 6.5z" />
    <glyph glyph-name="uni1EB9" unicode="&#x1eb9;" horiz-adv-x="504" 
d="M225 -114q0 28 19 47.5t47 19.5t47.5 -19.5t19.5 -47.5t-19.5 -47t-47.5 -19t-47 19t-19 47zM289 94q33 0 53 14t36.5 31.5t32 31.5t39.5 14q44 0 44 -43q0 -24 -17 -50.5t-46.5 -48.5t-70 -36.5t-87.5 -14.5q-48 0 -95.5 16.5t-84.5 50.5t-60 85t-23 119q0 49 14.5 93
t40.5 77.5t62.5 53t81.5 19.5q58 0 103.5 -20t77 -51.5t48 -70.5t16.5 -76q0 -22 -11 -37.5t-41 -17.5q-23 -2 -58 -5t-72.5 -5.5t-74 -4.5t-63.5 -2q9 -52 46.5 -87t108.5 -35zM331 310q-11 25 -27 44q-14 17 -35.5 31t-50.5 14q-23 0 -39 -8.5t-26.5 -23t-16 -32
t-6.5 -35.5z" />
    <glyph glyph-name="uni1EBA" unicode="&#x1eba;" horiz-adv-x="589" 
d="M309 911q29 0 50 -23.5t21 -56.5q0 -26 -7.5 -49t-21 -40.5t-32 -27.5t-40.5 -10q-11 0 -23.5 3.5t-12.5 22.5q0 9 4.5 14.5t10.5 9.5t10.5 8.5t4.5 13.5q0 10 -6 14t-13.5 8t-13.5 12.5t-6 29.5q0 25 18.5 48t56.5 23zM278 646q34 0 57.5 1t41.5 1.5t32.5 1.5t31.5 1
q34 0 56.5 -15t22.5 -44q0 -33 -18 -47t-51 -14q-39 0 -80.5 -0.5t-78.5 -1t-67.5 -1t-47.5 -1.5q4 -23 8 -55.5t9 -64.5q19 1 52 4t68 6t66.5 5t47.5 2q37 0 55.5 -13.5t18.5 -43.5t-18.5 -47.5t-63.5 -17.5q-17 0 -44.5 -1.5t-58 -4t-60.5 -5.5t-52 -5q2 -34 4 -75t3 -83
q72 0 119 13t80.5 28t59.5 28t56 13q32 0 43 -16t11 -42q0 -36 -42 -65.5t-105.5 -51t-138 -33.5t-139.5 -12q-46 0 -66 23t-20 59q0 133 -8.5 221t-18.5 145t-18.5 89.5t-8.5 56.5q0 13 3.5 26t12 23.5t22.5 17t34 6.5z" />
    <glyph glyph-name="uni1EBB" unicode="&#x1ebb;" horiz-adv-x="504" 
d="M309 756q29 0 50 -23.5t21 -56.5q0 -26 -7.5 -49t-21 -40.5t-32 -27.5t-40.5 -10q-11 0 -23.5 3.5t-12.5 22.5q0 9 4.5 14.5t10.5 9.5t10.5 8.5t4.5 13.5q0 10 -6 14t-13.5 8t-13.5 12.5t-6 29.5q0 25 18.5 48t56.5 23zM289 94q33 0 53 14t36.5 31.5t32 31.5t39.5 14
q44 0 44 -43q0 -24 -17 -50.5t-46.5 -48.5t-70 -36.5t-87.5 -14.5q-48 0 -95.5 16.5t-84.5 50.5t-60 85t-23 119q0 49 14.5 93t40.5 77.5t62.5 53t81.5 19.5q58 0 103.5 -20t77 -51.5t48 -70.5t16.5 -76q0 -22 -11 -37.5t-41 -17.5q-23 -2 -58 -5t-72.5 -5.5t-74 -4.5
t-63.5 -2q9 -52 46.5 -87t108.5 -35zM331 310q-11 25 -27 44q-14 17 -35.5 31t-50.5 14q-23 0 -39 -8.5t-26.5 -23t-16 -32t-6.5 -35.5z" />
    <glyph glyph-name="uni1EBC" unicode="&#x1ebc;" horiz-adv-x="589" 
d="M278 646q34 0 57.5 1t41.5 1.5t32.5 1.5t31.5 1q34 0 56.5 -15t22.5 -44q0 -33 -18 -47t-51 -14q-39 0 -80.5 -0.5t-78.5 -1t-67.5 -1t-47.5 -1.5q4 -23 8 -55.5t9 -64.5q19 1 52 4t68 6t66.5 5t47.5 2q37 0 55.5 -13.5t18.5 -43.5t-18.5 -47.5t-63.5 -17.5
q-17 0 -44.5 -1.5t-58 -4t-60.5 -5.5t-52 -5q2 -34 4 -75t3 -83q72 0 119 13t80.5 28t59.5 28t56 13q32 0 43 -16t11 -42q0 -36 -42 -65.5t-105.5 -51t-138 -33.5t-139.5 -12q-46 0 -66 23t-20 59q0 133 -8.5 221t-18.5 145t-18.5 89.5t-8.5 56.5q0 13 3.5 26t12 23.5
t22.5 17t34 6.5zM181 722q-19 -17 -38.5 -16.5t-31.5 12t-13.5 30.5t14.5 39q29 32 65 45t78 2q31 -9 52 -20t38.5 -16t35 2t41.5 34q19 12 36.5 11t28 -11.5t13 -27.5t-8.5 -37q-11 -11 -22 -23t-24 -21q-18 -13 -38 -18t-41 -4.5t-42 5.5t-40 13t-36.5 15t-37.5 9
q-11 -3 -16 -8.5t-13 -14.5z" />
    <glyph glyph-name="uni1EBD" unicode="&#x1ebd;" horiz-adv-x="504" 
d="M289 94q33 0 53 14t36.5 31.5t32 31.5t39.5 14q44 0 44 -43q0 -24 -17 -50.5t-46.5 -48.5t-70 -36.5t-87.5 -14.5q-48 0 -95.5 16.5t-84.5 50.5t-60 85t-23 119q0 49 14.5 93t40.5 77.5t62.5 53t81.5 19.5q58 0 103.5 -20t77 -51.5t48 -70.5t16.5 -76q0 -22 -11 -37.5
t-41 -17.5q-23 -2 -58 -5t-72.5 -5.5t-74 -4.5t-63.5 -2q9 -52 46.5 -87t108.5 -35zM331 310q-11 25 -27 44q-14 17 -35.5 31t-50.5 14q-23 0 -39 -8.5t-26.5 -23t-16 -32t-6.5 -35.5zM138 554q-19 -17 -38.5 -16.5t-31.5 12t-13.5 30.5t14.5 39q29 32 65 45t78 2
q31 -9 52 -20t38.5 -16t35 2t41.5 34q19 12 36.5 11t28 -11.5t13 -27.5t-8.5 -37q-11 -11 -22 -23t-24 -21q-18 -13 -38 -18t-41 -4.5t-42 5.5t-40 13t-36.5 15t-37.5 9q-11 -3 -16 -8.5t-13 -14.5z" />
    <glyph glyph-name="uni1EBE" unicode="&#x1ebe;" horiz-adv-x="589" 
d="M278 646q34 0 57.5 1t41.5 1.5t32.5 1.5t31.5 1q34 0 56.5 -15t22.5 -44q0 -33 -18 -47t-51 -14q-39 0 -80.5 -0.5t-78.5 -1t-67.5 -1t-47.5 -1.5q4 -23 8 -55.5t9 -64.5q19 1 52 4t68 6t66.5 5t47.5 2q37 0 55.5 -13.5t18.5 -43.5t-18.5 -47.5t-63.5 -17.5
q-17 0 -44.5 -1.5t-58 -4t-60.5 -5.5t-52 -5q2 -34 4 -75t3 -83q72 0 119 13t80.5 28t59.5 28t56 13q32 0 43 -16t11 -42q0 -36 -42 -65.5t-105.5 -51t-138 -33.5t-139.5 -12q-46 0 -66 23t-20 59q0 133 -8.5 221t-18.5 145t-18.5 89.5t-8.5 56.5q0 13 3.5 26t12 23.5
t22.5 17t34 6.5zM400 776q15 -14 14.5 -29.5t-10 -26.5t-24.5 -14.5t-30 6.5q-9 6 -20 15.5t-23.5 18t-26 15t-26.5 6.5t-26.5 -6.5t-26 -15t-23.5 -18t-20 -15.5q-15 -10 -30 -6.5t-24.5 14.5t-10 26.5t14.5 29.5q18 20 41 37q20 14 46.5 25.5t58.5 11.5t58.5 -11.5
t46.5 -25.5q23 -17 41 -37zM383 816q-5 10 3.5 23.5t25.5 28t39 29.5t43 27.5t38 22t24 13.5q22 14 46 8t35 -26q8 -20 -1.5 -42t-33.5 -33q-7 -3 -24.5 -11t-40 -17t-47.5 -17.5t-47 -13t-38.5 -3.5t-21.5 11z" />
    <glyph glyph-name="uni1EBF" unicode="&#x1ebf;" horiz-adv-x="504" 
d="M289 94q33 0 53 14t36.5 31.5t32 31.5t39.5 14q44 0 44 -43q0 -24 -17 -50.5t-46.5 -48.5t-70 -36.5t-87.5 -14.5q-48 0 -95.5 16.5t-84.5 50.5t-60 85t-23 119q0 49 14.5 93t40.5 77.5t62.5 53t81.5 19.5q58 0 103.5 -20t77 -51.5t48 -70.5t16.5 -76q0 -22 -11 -37.5
t-41 -17.5q-23 -2 -58 -5t-72.5 -5.5t-74 -4.5t-63.5 -2q9 -52 46.5 -87t108.5 -35zM331 310q-11 25 -27 44q-14 17 -35.5 31t-50.5 14q-23 0 -39 -8.5t-26.5 -23t-16 -32t-6.5 -35.5zM387 607q15 -14 14.5 -29.5t-10 -26.5t-24.5 -14.5t-30 6.5q-9 6 -20 15.5t-23.5 18
t-26 15t-26.5 6.5t-26.5 -6.5t-26 -15t-23.5 -18t-20 -15.5q-15 -10 -30 -6.5t-24.5 14.5t-10 26.5t14.5 29.5q18 20 41 37q20 14 46.5 25.5t58.5 11.5t58.5 -11.5t46.5 -25.5q23 -17 41 -37zM370 647q-5 10 3.5 23.5t25.5 28t39 29.5t43 27.5t38 22t24 13.5q22 14 46 8
t35 -26q8 -20 -1.5 -42t-33.5 -33q-7 -3 -24.5 -11t-40 -17t-47.5 -17.5t-47 -13t-38.5 -3.5t-21.5 11zM387 607q15 -14 14.5 -29.5t-10 -26.5t-24.5 -14.5t-30 6.5q-9 6 -20 15.5t-23.5 18t-26 15t-26.5 6.5t-26.5 -6.5t-26 -15t-23.5 -18t-20 -15.5q-15 -10 -30 -6.5
t-24.5 14.5t-10 26.5t14.5 29.5q18 20 41 37q20 14 46.5 25.5t58.5 11.5t58.5 -11.5t46.5 -25.5q23 -17 41 -37zM370 647q-5 10 3.5 23.5t25.5 28t39 29.5t43 27.5t38 22t24 13.5q22 14 46 8t35 -26q8 -20 -1.5 -42t-33.5 -33q-7 -3 -24.5 -11t-40 -17t-47.5 -17.5t-47 -13
t-38.5 -3.5t-21.5 11z" />
    <glyph glyph-name="uni1EC0" unicode="&#x1ec0;" horiz-adv-x="589" 
d="M278 646q34 0 57.5 1t41.5 1.5t32.5 1.5t31.5 1q34 0 56.5 -15t22.5 -44q0 -33 -18 -47t-51 -14q-39 0 -80.5 -0.5t-78.5 -1t-67.5 -1t-47.5 -1.5q4 -23 8 -55.5t9 -64.5q19 1 52 4t68 6t66.5 5t47.5 2q37 0 55.5 -13.5t18.5 -43.5t-18.5 -47.5t-63.5 -17.5
q-17 0 -44.5 -1.5t-58 -4t-60.5 -5.5t-52 -5q2 -34 4 -75t3 -83q72 0 119 13t80.5 28t59.5 28t56 13q32 0 43 -16t11 -42q0 -36 -42 -65.5t-105.5 -51t-138 -33.5t-139.5 -12q-46 0 -66 23t-20 59q0 133 -8.5 221t-18.5 145t-18.5 89.5t-8.5 56.5q0 13 3.5 26t12 23.5
t22.5 17t34 6.5zM394 882q-5 -10 -21.5 -11t-38.5 3.5t-47 13t-47.5 17.5t-40 17t-24.5 11q-24 11 -33.5 33t-1.5 42q11 20 35 26t46 -8q7 -4 24 -13.5t38 -22t43 -27.5t39 -29.5t25.5 -28t3.5 -23.5zM401 776q15 -14 14.5 -29.5t-10 -26.5t-24.5 -14.5t-30 6.5
q-9 6 -20 15.5t-23.5 18t-26 15t-26.5 6.5t-26.5 -6.5t-26 -15t-23.5 -18t-20 -15.5q-15 -10 -30 -6.5t-24.5 14.5t-10 26.5t14.5 29.5q18 20 41 37q20 14 46.5 25.5t58.5 11.5t58.5 -11.5t46.5 -25.5q23 -17 41 -37z" />
    <glyph glyph-name="uni1EC1" unicode="&#x1ec1;" horiz-adv-x="504" 
d="M289 94q33 0 53 14t36.5 31.5t32 31.5t39.5 14q44 0 44 -43q0 -24 -17 -50.5t-46.5 -48.5t-70 -36.5t-87.5 -14.5q-48 0 -95.5 16.5t-84.5 50.5t-60 85t-23 119q0 49 14.5 93t40.5 77.5t62.5 53t81.5 19.5q58 0 103.5 -20t77 -51.5t48 -70.5t16.5 -76q0 -22 -11 -37.5
t-41 -17.5q-23 -2 -58 -5t-72.5 -5.5t-74 -4.5t-63.5 -2q9 -52 46.5 -87t108.5 -35zM331 310q-11 25 -27 44q-14 17 -35.5 31t-50.5 14q-23 0 -39 -8.5t-26.5 -23t-16 -32t-6.5 -35.5zM377 712q-5 -10 -21.5 -11t-38.5 3.5t-47 13t-47.5 17.5t-40 17t-24.5 11
q-24 11 -33.5 33t-1.5 42q11 20 35 26t46 -8q7 -4 24 -13.5t38 -22t43 -27.5t39 -29.5t25.5 -28t3.5 -23.5zM384 606q15 -14 14.5 -29.5t-10 -26.5t-24.5 -14.5t-30 6.5q-9 6 -20 15.5t-23.5 18t-26 15t-26.5 6.5t-26.5 -6.5t-26 -15t-23.5 -18t-20 -15.5q-15 -10 -30 -6.5
t-24.5 14.5t-10 26.5t14.5 29.5q18 20 41 37q20 14 46.5 25.5t58.5 11.5t58.5 -11.5t46.5 -25.5q23 -17 41 -37z" />
    <glyph glyph-name="uni1EC2" unicode="&#x1ec2;" horiz-adv-x="589" 
d="M278 646q34 0 57.5 1t41.5 1.5t32.5 1.5t31.5 1q34 0 56.5 -15t22.5 -44q0 -33 -18 -47t-51 -14q-39 0 -80.5 -0.5t-78.5 -1t-67.5 -1t-47.5 -1.5q4 -23 8 -55.5t9 -64.5q19 1 52 4t68 6t66.5 5t47.5 2q37 0 55.5 -13.5t18.5 -43.5t-18.5 -47.5t-63.5 -17.5
q-17 0 -44.5 -1.5t-58 -4t-60.5 -5.5t-52 -5q2 -34 4 -75t3 -83q72 0 119 13t80.5 28t59.5 28t56 13q32 0 43 -16t11 -42q0 -36 -42 -65.5t-105.5 -51t-138 -33.5t-139.5 -12q-46 0 -66 23t-20 59q0 133 -8.5 221t-18.5 145t-18.5 89.5t-8.5 56.5q0 13 3.5 26t12 23.5
t22.5 17t34 6.5zM439 1036q29 0 50 -23.5t21 -56.5q0 -26 -7.5 -49t-21 -40.5t-32 -27.5t-40.5 -10q-11 0 -23.5 3.5t-12.5 22.5q0 9 4.5 14.5t10.5 9.5t10.5 8.5t4.5 13.5q0 10 -6 14t-13.5 8t-13.5 12.5t-6 29.5q0 25 18.5 48t56.5 23zM404 777q15 -14 14.5 -29.5
t-10 -26.5t-24.5 -14.5t-30 6.5q-9 6 -20 15.5t-23.5 18t-26 15t-26.5 6.5t-26.5 -6.5t-26 -15t-23.5 -18t-20 -15.5q-15 -10 -30 -6.5t-24.5 14.5t-10 26.5t14.5 29.5q18 20 41 37q20 14 46.5 25.5t58.5 11.5t58.5 -11.5t46.5 -25.5q23 -17 41 -37z" />
    <glyph glyph-name="uni1EC3" unicode="&#x1ec3;" horiz-adv-x="504" 
d="M289 94q33 0 53 14t36.5 31.5t32 31.5t39.5 14q44 0 44 -43q0 -24 -17 -50.5t-46.5 -48.5t-70 -36.5t-87.5 -14.5q-48 0 -95.5 16.5t-84.5 50.5t-60 85t-23 119q0 49 14.5 93t40.5 77.5t62.5 53t81.5 19.5q58 0 103.5 -20t77 -51.5t48 -70.5t16.5 -76q0 -22 -11 -37.5
t-41 -17.5q-23 -2 -58 -5t-72.5 -5.5t-74 -4.5t-63.5 -2q9 -52 46.5 -87t108.5 -35zM331 310q-11 25 -27 44q-14 17 -35.5 31t-50.5 14q-23 0 -39 -8.5t-26.5 -23t-16 -32t-6.5 -35.5zM421 865q29 0 50 -23.5t21 -56.5q0 -26 -7.5 -49t-21 -40.5t-32 -27.5t-40.5 -10
q-11 0 -23.5 3.5t-12.5 22.5q0 9 4.5 14.5t10.5 9.5t10.5 8.5t4.5 13.5q0 10 -6 14t-13.5 8t-13.5 12.5t-6 29.5q0 25 18.5 48t56.5 23zM386 606q15 -14 14.5 -29.5t-10 -26.5t-24.5 -14.5t-30 6.5q-9 6 -20 15.5t-23.5 18t-26 15t-26.5 6.5t-26.5 -6.5t-26 -15t-23.5 -18
t-20 -15.5q-15 -10 -30 -6.5t-24.5 14.5t-10 26.5t14.5 29.5q18 20 41 37q20 14 46.5 25.5t58.5 11.5t58.5 -11.5t46.5 -25.5q23 -17 41 -37z" />
    <glyph glyph-name="uni1EC4" unicode="&#x1ec4;" horiz-adv-x="589" 
d="M278 646q34 0 57.5 1t41.5 1.5t32.5 1.5t31.5 1q34 0 56.5 -15t22.5 -44q0 -33 -18 -47t-51 -14q-39 0 -80.5 -0.5t-78.5 -1t-67.5 -1t-47.5 -1.5q4 -23 8 -55.5t9 -64.5q19 1 52 4t68 6t66.5 5t47.5 2q37 0 55.5 -13.5t18.5 -43.5t-18.5 -47.5t-63.5 -17.5
q-17 0 -44.5 -1.5t-58 -4t-60.5 -5.5t-52 -5q2 -34 4 -75t3 -83q72 0 119 13t80.5 28t59.5 28t56 13q32 0 43 -16t11 -42q0 -36 -42 -65.5t-105.5 -51t-138 -33.5t-139.5 -12q-46 0 -66 23t-20 59q0 133 -8.5 221t-18.5 145t-18.5 89.5t-8.5 56.5q0 13 3.5 26t12 23.5
t22.5 17t34 6.5zM402 777q15 -14 14.5 -29.5t-10 -26.5t-24.5 -14.5t-30 6.5q-9 6 -20 15.5t-23.5 18t-26 15t-26.5 6.5t-26.5 -6.5t-26 -15t-23.5 -18t-20 -15.5q-15 -10 -30 -6.5t-24.5 14.5t-10 26.5t14.5 29.5q18 20 41 37q20 14 46.5 25.5t58.5 11.5t58.5 -11.5
t46.5 -25.5q23 -17 41 -37zM159 899q-19 -17 -38.5 -16.5t-31.5 12t-13.5 30.5t14.5 39q29 32 65 45t78 2q31 -9 52 -20t38.5 -16t35 2t41.5 34q19 12 36.5 11t28 -11.5t13 -27.5t-8.5 -37q-11 -11 -22 -23t-24 -21q-18 -13 -38 -18t-41 -4.5t-42 5.5t-40 13t-36.5 15
t-37.5 9q-11 -3 -16 -8.5t-13 -14.5z" />
    <glyph glyph-name="uni1EC5" unicode="&#x1ec5;" horiz-adv-x="504" 
d="M289 94q33 0 53 14t36.5 31.5t32 31.5t39.5 14q44 0 44 -43q0 -24 -17 -50.5t-46.5 -48.5t-70 -36.5t-87.5 -14.5q-48 0 -95.5 16.5t-84.5 50.5t-60 85t-23 119q0 49 14.5 93t40.5 77.5t62.5 53t81.5 19.5q58 0 103.5 -20t77 -51.5t48 -70.5t16.5 -76q0 -22 -11 -37.5
t-41 -17.5q-23 -2 -58 -5t-72.5 -5.5t-74 -4.5t-63.5 -2q9 -52 46.5 -87t108.5 -35zM331 310q-11 25 -27 44q-14 17 -35.5 31t-50.5 14q-23 0 -39 -8.5t-26.5 -23t-16 -32t-6.5 -35.5zM386 607q15 -14 14.5 -29.5t-10 -26.5t-24.5 -14.5t-30 6.5q-9 6 -20 15.5t-23.5 18
t-26 15t-26.5 6.5t-26.5 -6.5t-26 -15t-23.5 -18t-20 -15.5q-15 -10 -30 -6.5t-24.5 14.5t-10 26.5t14.5 29.5q18 20 41 37q20 14 46.5 25.5t58.5 11.5t58.5 -11.5t46.5 -25.5q23 -17 41 -37zM143 729q-19 -17 -38.5 -16.5t-31.5 12t-13.5 30.5t14.5 39q29 32 65 45t78 2
q31 -9 52 -20t38.5 -16t35 2t41.5 34q19 12 36.5 11t28 -11.5t13 -27.5t-8.5 -37q-11 -11 -22 -23t-24 -21q-18 -13 -38 -18t-41 -4.5t-42 5.5t-40 13t-36.5 15t-37.5 9q-11 -3 -16 -8.5t-13 -14.5z" />
    <glyph glyph-name="uni1EC6" unicode="&#x1ec6;" horiz-adv-x="589" 
d="M225 -114q0 28 19 47.5t47 19.5t47.5 -19.5t19.5 -47.5t-19.5 -47t-47.5 -19t-47 19t-19 47zM278 646q34 0 57.5 1t41.5 1.5t32.5 1.5t31.5 1q34 0 56.5 -15t22.5 -44q0 -33 -18 -47t-51 -14q-39 0 -80.5 -0.5t-78.5 -1t-67.5 -1t-47.5 -1.5q4 -23 8 -55.5t9 -64.5
q19 1 52 4t68 6t66.5 5t47.5 2q37 0 55.5 -13.5t18.5 -43.5t-18.5 -47.5t-63.5 -17.5q-17 0 -44.5 -1.5t-58 -4t-60.5 -5.5t-52 -5q2 -34 4 -75t3 -83q72 0 119 13t80.5 28t59.5 28t56 13q32 0 43 -16t11 -42q0 -36 -42 -65.5t-105.5 -51t-138 -33.5t-139.5 -12
q-46 0 -66 23t-20 59q0 133 -8.5 221t-18.5 145t-18.5 89.5t-8.5 56.5q0 13 3.5 26t12 23.5t22.5 17t34 6.5zM402 775q15 -14 14.5 -29.5t-10 -26.5t-24.5 -14.5t-30 6.5q-9 6 -20 15.5t-23.5 18t-26 15t-26.5 6.5t-26.5 -6.5t-26 -15t-23.5 -18t-20 -15.5q-15 -10 -30 -6.5
t-24.5 14.5t-10 26.5t14.5 29.5q18 20 41 37q20 14 46.5 25.5t58.5 11.5t58.5 -11.5t46.5 -25.5q23 -17 41 -37z" />
    <glyph glyph-name="uni1EC7" unicode="&#x1ec7;" horiz-adv-x="504" 
d="M289 94q33 0 53 14t36.5 31.5t32 31.5t39.5 14q44 0 44 -43q0 -24 -17 -50.5t-46.5 -48.5t-70 -36.5t-87.5 -14.5q-48 0 -95.5 16.5t-84.5 50.5t-60 85t-23 119q0 49 14.5 93t40.5 77.5t62.5 53t81.5 19.5q58 0 103.5 -20t77 -51.5t48 -70.5t16.5 -76q0 -22 -11 -37.5
t-41 -17.5q-23 -2 -58 -5t-72.5 -5.5t-74 -4.5t-63.5 -2q9 -52 46.5 -87t108.5 -35zM331 310q-11 25 -27 44q-14 17 -35.5 31t-50.5 14q-23 0 -39 -8.5t-26.5 -23t-16 -32t-6.5 -35.5zM386 607q15 -14 14.5 -29.5t-10 -26.5t-24.5 -14.5t-30 6.5q-9 6 -20 15.5t-23.5 18
t-26 15t-26.5 6.5t-26.5 -6.5t-26 -15t-23.5 -18t-20 -15.5q-15 -10 -30 -6.5t-24.5 14.5t-10 26.5t14.5 29.5q18 20 41 37q20 14 46.5 25.5t58.5 11.5t58.5 -11.5t46.5 -25.5q23 -17 41 -37zM225 -114q0 28 19 47.5t47 19.5t47.5 -19.5t19.5 -47.5t-19.5 -47t-47.5 -19
t-47 19t-19 47z" />
    <glyph glyph-name="uni1EC8" unicode="&#x1ec8;" horiz-adv-x="240" 
d="M122 927q29 0 50 -23.5t21 -56.5q0 -26 -7.5 -49t-21 -40.5t-32 -27.5t-40.5 -10q-11 0 -23.5 3.5t-12.5 22.5q0 9 4.5 14.5t10.5 9.5t10.5 8.5t4.5 13.5q0 10 -6 14t-13.5 8t-13.5 12.5t-6 29.5q0 25 18.5 48t56.5 23zM70 72q0 133 -8.5 226t-18.5 155t-18.5 99.5
t-8.5 61.5q0 13 3.5 26t12 23.5t22.5 17t34 6.5q57 0 78 -84q15 -65 28 -198t14 -325q0 -28 -6 -45.5t-16 -28t-23 -14.5t-27 -4q-29 0 -47.5 21t-18.5 63z" />
    <glyph glyph-name="uni1EC9" unicode="&#x1ec9;" horiz-adv-x="237" 
d="M129 465q6 0 15 -2t17 -7.5t13.5 -13.5t5.5 -20q0 -33 -3.5 -68.5t-3.5 -58.5q0 -41 3.5 -71.5t7.5 -57t7.5 -53.5t3.5 -61q0 -15 -3 -28t-10.5 -22.5t-21.5 -15.5t-36 -6q-29 0 -46 28.5t-25.5 70t-10.5 87.5t-2 81q0 62 2.5 103.5t11.5 67t26.5 36.5t48.5 11zM169 718
q29 0 50 -23.5t21 -56.5q0 -26 -7.5 -49t-21 -40.5t-32 -27.5t-40.5 -10q-11 0 -23.5 3.5t-12.5 22.5q0 9 4.5 14.5t10.5 9.5t10.5 8.5t4.5 13.5q0 10 -6 14t-13.5 8t-13.5 12.5t-6 29.5q0 25 18.5 48t56.5 23z" />
    <glyph glyph-name="uni1ECA" unicode="&#x1eca;" horiz-adv-x="240" 
d="M72 -114q0 28 19 47.5t47 19.5t47.5 -19.5t19.5 -47.5t-19.5 -47t-47.5 -19t-47 19t-19 47zM70 72q0 133 -8.5 226t-18.5 155t-18.5 99.5t-8.5 61.5q0 13 3.5 26t12 23.5t22.5 17t34 6.5q57 0 78 -84q15 -65 28 -198t14 -325q0 -28 -6 -45.5t-16 -28t-23 -14.5t-27 -4
q-29 0 -47.5 21t-18.5 63z" />
    <glyph glyph-name="uni1ECB" unicode="&#x1ecb;" horiz-adv-x="240" 
d="M77 -114q0 28 19 47.5t47 19.5t47.5 -19.5t19.5 -47.5t-19.5 -47t-47.5 -19t-47 19t-19 47zM129 465q6 0 15 -2t17 -7.5t13.5 -13.5t5.5 -20q0 -33 -3.5 -68.5t-3.5 -58.5q0 -41 3.5 -71.5t7.5 -57t7.5 -53.5t3.5 -61q0 -15 -3 -28t-10.5 -22.5t-21.5 -15.5t-36 -6
q-29 0 -46 28.5t-25.5 70t-10.5 87.5t-2 81q0 62 2.5 103.5t11.5 67t26.5 36.5t48.5 11zM43 577q0 33 22.5 56t55.5 23t56 -23t23 -56t-23 -55.5t-56 -22.5t-55.5 22.5t-22.5 55.5z" />
    <glyph glyph-name="uni1ECC" unicode="&#x1ecc;" horiz-adv-x="633" 
d="M254 -114q0 28 19 47.5t47 19.5t47.5 -19.5t19.5 -47.5t-19.5 -47t-47.5 -19t-47 19t-19 47zM8 312q0 71 21 128.5t60 98.5t95.5 63.5t127.5 22.5t128 -21.5t96.5 -62t61 -97.5t21.5 -128t-20 -130.5t-58 -103t-93 -68t-126 -24.5t-129 23.5t-99 66.5t-63.5 102
t-22.5 130zM158 312q0 -83 40.5 -134t123.5 -51q42 0 70 16t45.5 42.5t25 60.5t7.5 70t-9.5 69.5t-29.5 59.5t-50.5 41.5t-72.5 15.5q-32 0 -59 -16t-47.5 -42t-32 -60.5t-11.5 -71.5z" />
    <glyph glyph-name="uni1ECD" unicode="&#x1ecd;" 
d="M210 -114q0 -28 19 -47t47 -19t47.5 19t19.5 47t-19.5 47.5t-47.5 19.5t-47 -19.5t-19 -47.5zM202 503q59 0 107.5 -20t83.5 -57t54.5 -88t19.5 -113q0 -46 -16 -88.5t-46 -75t-72 -52t-94 -19.5q-59 0 -106 19.5t-80 55.5t-50.5 86.5t-17.5 111.5q0 48 15.5 91.5
t43.5 76.5t68 52.5t90 19.5zM218 392q-24 0 -43 -11.5t-31.5 -30t-19.5 -43t-7 -50.5q0 -30 7.5 -58t22.5 -49.5t38 -34.5t53 -13q26 0 44.5 11t30 29t17 40.5t5.5 45.5q0 37 -9.5 67.5t-25 52t-37 33t-45.5 11.5z" />
    <glyph glyph-name="uni1ECE" unicode="&#x1ece;" horiz-adv-x="633" 
d="M358 888q29 0 50 -23.5t21 -56.5q0 -26 -7.5 -49t-21 -40.5t-32 -27.5t-40.5 -10q-11 0 -23.5 3.5t-12.5 22.5q0 9 4.5 14.5t10.5 9.5t10.5 8.5t4.5 13.5q0 10 -6 14t-13.5 8t-13.5 12.5t-6 29.5q0 25 18.5 48t56.5 23zM8 312q0 71 21 128.5t60 98.5t95.5 63.5
t127.5 22.5t128 -21.5t96.5 -62t61 -97.5t21.5 -128t-20 -130.5t-58 -103t-93 -68t-126 -24.5t-129 23.5t-99 66.5t-63.5 102t-22.5 130zM158 312q0 -83 40.5 -134t123.5 -51q42 0 70 16t45.5 42.5t25 60.5t7.5 70t-9.5 69.5t-29.5 59.5t-50.5 41.5t-72.5 15.5
q-32 0 -59 -16t-47.5 -42t-32 -60.5t-11.5 -71.5z" />
    <glyph glyph-name="uni1ECF" unicode="&#x1ecf;" 
d="M289 748q29 0 50 -23.5t21 -56.5q0 -26 -7.5 -49t-21 -40.5t-32 -27.5t-40.5 -10q-11 0 -23.5 3.5t-12.5 22.5q0 9 4.5 14.5t10.5 9.5t10.5 8.5t4.5 13.5q0 10 -6 14t-13.5 8t-13.5 12.5t-6 29.5q0 25 18.5 48t56.5 23zM202 503q59 0 107.5 -20t83.5 -57t54.5 -88
t19.5 -113q0 -46 -16 -88.5t-46 -75t-72 -52t-94 -19.5q-59 0 -106 19.5t-80 55.5t-50.5 86.5t-17.5 111.5q0 48 15.5 91.5t43.5 76.5t68 52.5t90 19.5zM218 392q-24 0 -43 -11.5t-31.5 -30t-19.5 -43t-7 -50.5q0 -30 7.5 -58t22.5 -49.5t38 -34.5t53 -13q26 0 44.5 11
t30 29t17 40.5t5.5 45.5q0 37 -9.5 67.5t-25 52t-37 33t-45.5 11.5z" />
    <glyph glyph-name="uni1ED0" unicode="&#x1ed0;" horiz-adv-x="647" 
d="M8 312q0 71 21 128.5t60 98.5t95.5 63.5t127.5 22.5t128 -21.5t96.5 -62t61 -97.5t21.5 -128t-20 -130.5t-58 -103t-93 -68t-126 -24.5t-129 23.5t-99 66.5t-63.5 102t-22.5 130zM158 312q0 -83 40.5 -134t123.5 -51q42 0 70 16t45.5 42.5t25 60.5t7.5 70t-9.5 69.5
t-29.5 59.5t-50.5 41.5t-72.5 15.5q-32 0 -59 -16t-47.5 -42t-32 -60.5t-11.5 -71.5zM472 734q15 -14 14.5 -29.5t-10 -26.5t-24.5 -14.5t-30 6.5q-9 6 -20 15.5t-23.5 18t-26 15t-26.5 6.5t-26.5 -6.5t-26 -15t-23.5 -18t-20 -15.5q-15 -10 -30 -6.5t-24.5 14.5t-10 26.5
t14.5 29.5q18 20 41 37q20 14 46.5 25.5t58.5 11.5t58.5 -11.5t46.5 -25.5q23 -17 41 -37zM455 774q-5 10 3.5 23.5t25.5 28t39 29.5t43 27.5t38 22t24 13.5q22 14 46 8t35 -26q8 -20 -1.5 -42t-33.5 -33q-7 -3 -24.5 -11t-40 -17t-47.5 -17.5t-47 -13t-38.5 -3.5t-21.5 11z
" />
    <glyph glyph-name="uni1ED1" unicode="&#x1ed1;" horiz-adv-x="490" 
d="M202 503q59 0 107.5 -20t83.5 -57t54.5 -88t19.5 -113q0 -46 -16 -88.5t-46 -75t-72 -52t-94 -19.5q-59 0 -106 19.5t-80 55.5t-50.5 86.5t-17.5 111.5q0 48 15.5 91.5t43.5 76.5t68 52.5t90 19.5zM218 392q-24 0 -43 -11.5t-31.5 -30t-19.5 -43t-7 -50.5q0 -30 7.5 -58
t22.5 -49.5t38 -34.5t53 -13q26 0 44.5 11t30 29t17 40.5t5.5 45.5q0 37 -9.5 67.5t-25 52t-37 33t-45.5 11.5zM383 606q15 -14 14.5 -29.5t-10 -26.5t-24.5 -14.5t-30 6.5q-9 6 -20 15.5t-23.5 18t-26 15t-26.5 6.5t-26.5 -6.5t-26 -15t-23.5 -18t-20 -15.5
q-15 -10 -30 -6.5t-24.5 14.5t-10 26.5t14.5 29.5q18 20 41 37q20 14 46.5 25.5t58.5 11.5t58.5 -11.5t46.5 -25.5q23 -17 41 -37zM366 646q-5 10 3.5 23.5t25.5 28t39 29.5t43 27.5t38 22t24 13.5q22 14 46 8t35 -26q8 -20 -1.5 -42t-33.5 -33q-7 -3 -24.5 -11t-40 -17
t-47.5 -17.5t-47 -13t-38.5 -3.5t-21.5 11z" />
    <glyph glyph-name="uni1ED2" unicode="&#x1ed2;" horiz-adv-x="647" 
d="M8 312q0 71 21 128.5t60 98.5t95.5 63.5t127.5 22.5t128 -21.5t96.5 -62t61 -97.5t21.5 -128t-20 -130.5t-58 -103t-93 -68t-126 -24.5t-129 23.5t-99 66.5t-63.5 102t-22.5 130zM158 312q0 -83 40.5 -134t123.5 -51q42 0 70 16t45.5 42.5t25 60.5t7.5 70t-9.5 69.5
t-29.5 59.5t-50.5 41.5t-72.5 15.5q-32 0 -59 -16t-47.5 -42t-32 -60.5t-11.5 -71.5zM465 840q-5 -10 -21.5 -11t-38.5 3.5t-47 13t-47.5 17.5t-40 17t-24.5 11q-24 11 -33.5 33t-1.5 42q11 20 35 26t46 -8q7 -4 24 -13.5t38 -22t43 -27.5t39 -29.5t25.5 -28t3.5 -23.5z
M472 734q15 -14 14.5 -29.5t-10 -26.5t-24.5 -14.5t-30 6.5q-9 6 -20 15.5t-23.5 18t-26 15t-26.5 6.5t-26.5 -6.5t-26 -15t-23.5 -18t-20 -15.5q-15 -10 -30 -6.5t-24.5 14.5t-10 26.5t14.5 29.5q18 20 41 37q20 14 46.5 25.5t58.5 11.5t58.5 -11.5t46.5 -25.5
q23 -17 41 -37z" />
    <glyph glyph-name="uni1ED3" unicode="&#x1ed3;" horiz-adv-x="490" 
d="M202 503q59 0 107.5 -20t83.5 -57t54.5 -88t19.5 -113q0 -46 -16 -88.5t-46 -75t-72 -52t-94 -19.5q-59 0 -106 19.5t-80 55.5t-50.5 86.5t-17.5 111.5q0 48 15.5 91.5t43.5 76.5t68 52.5t90 19.5zM218 392q-24 0 -43 -11.5t-31.5 -30t-19.5 -43t-7 -50.5q0 -30 7.5 -58
t22.5 -49.5t38 -34.5t53 -13q26 0 44.5 11t30 29t17 40.5t5.5 45.5q0 37 -9.5 67.5t-25 52t-37 33t-45.5 11.5zM374 712q-5 -10 -21.5 -11t-38.5 3.5t-47 13t-47.5 17.5t-40 17t-24.5 11q-24 11 -33.5 33t-1.5 42q11 20 35 26t46 -8q7 -4 24 -13.5t38 -22t43 -27.5t39 -29.5
t25.5 -28t3.5 -23.5zM381 606q15 -14 14.5 -29.5t-10 -26.5t-24.5 -14.5t-30 6.5q-9 6 -20 15.5t-23.5 18t-26 15t-26.5 6.5t-26.5 -6.5t-26 -15t-23.5 -18t-20 -15.5q-15 -10 -30 -6.5t-24.5 14.5t-10 26.5t14.5 29.5q18 20 41 37q20 14 46.5 25.5t58.5 11.5t58.5 -11.5
t46.5 -25.5q23 -17 41 -37z" />
    <glyph glyph-name="uni1ED4" unicode="&#x1ed4;" horiz-adv-x="647" 
d="M8 312q0 71 21 128.5t60 98.5t95.5 63.5t127.5 22.5t128 -21.5t96.5 -62t61 -97.5t21.5 -128t-20 -130.5t-58 -103t-93 -68t-126 -24.5t-129 23.5t-99 66.5t-63.5 102t-22.5 130zM158 312q0 -83 40.5 -134t123.5 -51q42 0 70 16t45.5 42.5t25 60.5t7.5 70t-9.5 69.5
t-29.5 59.5t-50.5 41.5t-72.5 15.5q-32 0 -59 -16t-47.5 -42t-32 -60.5t-11.5 -71.5zM508 992q29 0 50 -23.5t21 -56.5q0 -26 -7.5 -49t-21 -40.5t-32 -27.5t-40.5 -10q-11 0 -23.5 3.5t-12.5 22.5q0 9 4.5 14.5t10.5 9.5t10.5 8.5t4.5 13.5q0 10 -6 14t-13.5 8t-13.5 12.5
t-6 29.5q0 25 18.5 48t56.5 23zM473 733q15 -14 14.5 -29.5t-10 -26.5t-24.5 -14.5t-30 6.5q-9 6 -20 15.5t-23.5 18t-26 15t-26.5 6.5t-26.5 -6.5t-26 -15t-23.5 -18t-20 -15.5q-15 -10 -30 -6.5t-24.5 14.5t-10 26.5t14.5 29.5q18 20 41 37q20 14 46.5 25.5t58.5 11.5
t58.5 -11.5t46.5 -25.5q23 -17 41 -37z" />
    <glyph glyph-name="uni1ED5" unicode="&#x1ed5;" horiz-adv-x="490" 
d="M202 503q59 0 107.5 -20t83.5 -57t54.5 -88t19.5 -113q0 -46 -16 -88.5t-46 -75t-72 -52t-94 -19.5q-59 0 -106 19.5t-80 55.5t-50.5 86.5t-17.5 111.5q0 48 15.5 91.5t43.5 76.5t68 52.5t90 19.5zM218 392q-24 0 -43 -11.5t-31.5 -30t-19.5 -43t-7 -50.5q0 -30 7.5 -58
t22.5 -49.5t38 -34.5t53 -13q26 0 44.5 11t30 29t17 40.5t5.5 45.5q0 37 -9.5 67.5t-25 52t-37 33t-45.5 11.5zM419 865q29 0 50 -23.5t21 -56.5q0 -26 -7.5 -49t-21 -40.5t-32 -27.5t-40.5 -10q-11 0 -23.5 3.5t-12.5 22.5q0 9 4.5 14.5t10.5 9.5t10.5 8.5t4.5 13.5
q0 10 -6 14t-13.5 8t-13.5 12.5t-6 29.5q0 25 18.5 48t56.5 23zM384 606q15 -14 14.5 -29.5t-10 -26.5t-24.5 -14.5t-30 6.5q-9 6 -20 15.5t-23.5 18t-26 15t-26.5 6.5t-26.5 -6.5t-26 -15t-23.5 -18t-20 -15.5q-15 -10 -30 -6.5t-24.5 14.5t-10 26.5t14.5 29.5q18 20 41 37
q20 14 46.5 25.5t58.5 11.5t58.5 -11.5t46.5 -25.5q23 -17 41 -37z" />
    <glyph glyph-name="uni1ED6" unicode="&#x1ed6;" horiz-adv-x="647" 
d="M8 312q0 71 21 128.5t60 98.5t95.5 63.5t127.5 22.5t128 -21.5t96.5 -62t61 -97.5t21.5 -128t-20 -130.5t-58 -103t-93 -68t-126 -24.5t-129 23.5t-99 66.5t-63.5 102t-22.5 130zM158 312q0 -83 40.5 -134t123.5 -51q42 0 70 16t45.5 42.5t25 60.5t7.5 70t-9.5 69.5
t-29.5 59.5t-50.5 41.5t-72.5 15.5q-32 0 -59 -16t-47.5 -42t-32 -60.5t-11.5 -71.5zM469 734q15 -14 14.5 -29.5t-10 -26.5t-24.5 -14.5t-30 6.5q-9 6 -20 15.5t-23.5 18t-26 15t-26.5 6.5t-26.5 -6.5t-26 -15t-23.5 -18t-20 -15.5q-15 -10 -30 -6.5t-24.5 14.5t-10 26.5
t14.5 29.5q18 20 41 37q20 14 46.5 25.5t58.5 11.5t58.5 -11.5t46.5 -25.5q23 -17 41 -37zM226 856q-19 -17 -38.5 -16.5t-31.5 12t-13.5 30.5t14.5 39q29 32 65 45t78 2q31 -9 52 -20t38.5 -16t35 2t41.5 34q19 12 36.5 11t28 -11.5t13 -27.5t-8.5 -37q-11 -11 -22 -23
t-24 -21q-18 -13 -38 -18t-41 -4.5t-42 5.5t-40 13t-36.5 15t-37.5 9q-11 -3 -16 -8.5t-13 -14.5z" />
    <glyph glyph-name="uni1ED7" unicode="&#x1ed7;" horiz-adv-x="490" 
d="M202 503q59 0 107.5 -20t83.5 -57t54.5 -88t19.5 -113q0 -46 -16 -88.5t-46 -75t-72 -52t-94 -19.5q-59 0 -106 19.5t-80 55.5t-50.5 86.5t-17.5 111.5q0 48 15.5 91.5t43.5 76.5t68 52.5t90 19.5zM218 392q-24 0 -43 -11.5t-31.5 -30t-19.5 -43t-7 -50.5q0 -30 7.5 -58
t22.5 -49.5t38 -34.5t53 -13q26 0 44.5 11t30 29t17 40.5t5.5 45.5q0 37 -9.5 67.5t-25 52t-37 33t-45.5 11.5zM383 608q15 -14 14.5 -29.5t-10 -26.5t-24.5 -14.5t-30 6.5q-9 6 -20 15.5t-23.5 18t-26 15t-26.5 6.5t-26.5 -6.5t-26 -15t-23.5 -18t-20 -15.5
q-15 -10 -30 -6.5t-24.5 14.5t-10 26.5t14.5 29.5q18 20 41 37q20 14 46.5 25.5t58.5 11.5t58.5 -11.5t46.5 -25.5q23 -17 41 -37zM140 730q-19 -17 -38.5 -16.5t-31.5 12t-13.5 30.5t14.5 39q29 32 65 45t78 2q31 -9 52 -20t38.5 -16t35 2t41.5 34q19 12 36.5 11t28 -11.5
t13 -27.5t-8.5 -37q-11 -11 -22 -23t-24 -21q-18 -13 -38 -18t-41 -4.5t-42 5.5t-40 13t-36.5 15t-37.5 9q-11 -3 -16 -8.5t-13 -14.5z" />
    <glyph glyph-name="uni1ED8" unicode="&#x1ed8;" horiz-adv-x="633" 
d="M8 312q0 71 21 128.5t60 98.5t95.5 63.5t127.5 22.5t128 -21.5t96.5 -62t61 -97.5t21.5 -128t-20 -130.5t-58 -103t-93 -68t-126 -24.5t-129 23.5t-99 66.5t-63.5 102t-22.5 130zM158 312q0 -83 40.5 -134t123.5 -51q42 0 70 16t45.5 42.5t25 60.5t7.5 70t-9.5 69.5
t-29.5 59.5t-50.5 41.5t-72.5 15.5q-32 0 -59 -16t-47.5 -42t-32 -60.5t-11.5 -71.5zM469 734q15 -14 14.5 -29.5t-10 -26.5t-24.5 -14.5t-30 6.5q-9 6 -20 15.5t-23.5 18t-26 15t-26.5 6.5t-26.5 -6.5t-26 -15t-23.5 -18t-20 -15.5q-15 -10 -30 -6.5t-24.5 14.5t-10 26.5
t14.5 29.5q18 20 41 37q20 14 46.5 25.5t58.5 11.5t58.5 -11.5t46.5 -25.5q23 -17 41 -37zM254 -114q0 28 19 47.5t47 19.5t47.5 -19.5t19.5 -47.5t-19.5 -47t-47.5 -19t-47 19t-19 47z" />
    <glyph glyph-name="uni1ED9" unicode="&#x1ed9;" 
d="M202 503q59 0 107.5 -20t83.5 -57t54.5 -88t19.5 -113q0 -46 -16 -88.5t-46 -75t-72 -52t-94 -19.5q-59 0 -106 19.5t-80 55.5t-50.5 86.5t-17.5 111.5q0 48 15.5 91.5t43.5 76.5t68 52.5t90 19.5zM218 392q-24 0 -43 -11.5t-31.5 -30t-19.5 -43t-7 -50.5q0 -30 7.5 -58
t22.5 -49.5t38 -34.5t53 -13q26 0 44.5 11t30 29t17 40.5t5.5 45.5q0 37 -9.5 67.5t-25 52t-37 33t-45.5 11.5zM384 606q15 -14 14.5 -29.5t-10 -26.5t-24.5 -14.5t-30 6.5q-9 6 -20 15.5t-23.5 18t-26 15t-26.5 6.5t-26.5 -6.5t-26 -15t-23.5 -18t-20 -15.5
q-15 -10 -30 -6.5t-24.5 14.5t-10 26.5t14.5 29.5q18 20 41 37q20 14 46.5 25.5t58.5 11.5t58.5 -11.5t46.5 -25.5q23 -17 41 -37zM210 -114q0 28 19 47.5t47 19.5t47.5 -19.5t19.5 -47.5t-19.5 -47t-47.5 -19t-47 19t-19 47z" />
    <glyph glyph-name="uni1EDA" unicode="&#x1eda;" horiz-adv-x="633" 
d="M621 672q25 -10 34.5 -40.5t-4.5 -62.5q-23 -50 -62.5 -74.5t-80.5 -7.5l-10 6t-9 7.5t-5 11.5t3 16t10 11.5t13 4t13 4.5t9 11q4 10 0 16t-8.5 13t-6.5 18t7 31q5 11 14.5 20.5t22 15.5t28 6.5t32.5 -7.5zM8 312q0 71 21 128.5t60 98.5t95.5 63.5t127.5 22.5t128 -21.5
t96.5 -62t61 -97.5t21.5 -128t-20 -130.5t-58 -103t-93 -68t-126 -24.5t-129 23.5t-99 66.5t-63.5 102t-22.5 130zM158 312q0 -83 40.5 -134t123.5 -51q42 0 70 16t45.5 42.5t25 60.5t7.5 70t-9.5 69.5t-29.5 59.5t-50.5 41.5t-72.5 15.5q-32 0 -59 -16t-47.5 -42t-32 -60.5
t-11.5 -71.5zM254 699q-5 10 3.5 23.5t25.5 28t39 29.5t43 27.5t38 22t24 13.5q22 14 46 8t35 -26q8 -20 -1.5 -42t-33.5 -33q-7 -3 -24.5 -11t-40 -17t-47.5 -17.5t-47 -13t-38.5 -3.5t-21.5 11z" />
    <glyph glyph-name="uni1EDB" unicode="&#x1edb;" 
d="M516 546q23 -11 30 -39.5t-7 -57.5q-12 -22 -28 -38.5t-34.5 -26t-38.5 -10t-38 8.5q-8 5 -17 13t0 25q4 8 10 10.5t12 3.5t12 3t10 9q4 9 1 15t-7.5 13t-5.5 17t8 28q6 10 15 18.5t21 13t26.5 4t30.5 -9.5zM237 503q59 0 107.5 -20t83.5 -57t54.5 -88t19.5 -113
q0 -46 -16 -88.5t-46 -75t-72 -52t-94 -19.5q-59 0 -106 19.5t-80 55.5t-50.5 86.5t-17.5 111.5q0 48 15.5 91.5t43.5 76.5t68 52.5t90 19.5zM253 392q-24 0 -43 -11.5t-31.5 -30t-19.5 -43t-7 -50.5q0 -30 7.5 -58t22.5 -49.5t38 -34.5t53 -13q26 0 44.5 11t30 29t17 40.5
t5.5 45.5q0 37 -9.5 67.5t-25 52t-37 33t-45.5 11.5zM183 531q-5 10 3.5 23.5t25.5 28t39 29.5t43 27.5t38 22t24 13.5q22 14 46 8t35 -26q8 -20 -1.5 -42t-33.5 -33q-7 -3 -24.5 -11t-40 -17t-47.5 -17.5t-47 -13t-38.5 -3.5t-21.5 11z" />
    <glyph glyph-name="uni1EDC" unicode="&#x1edc;" horiz-adv-x="633" 
d="M621 672q25 -10 34.5 -40.5t-4.5 -62.5q-23 -50 -62.5 -74.5t-80.5 -7.5l-10 6t-9 7.5t-5 11.5t3 16t10 11.5t13 4t13 4.5t9 11q4 10 0 16t-8.5 13t-6.5 18t7 31q5 11 14.5 20.5t22 15.5t28 6.5t32.5 -7.5zM8 312q0 71 21 128.5t60 98.5t95.5 63.5t127.5 22.5t128 -21.5
t96.5 -62t61 -97.5t21.5 -128t-20 -130.5t-58 -103t-93 -68t-126 -24.5t-129 23.5t-99 66.5t-63.5 102t-22.5 130zM158 312q0 -83 40.5 -134t123.5 -51q42 0 70 16t45.5 42.5t25 60.5t7.5 70t-9.5 69.5t-29.5 59.5t-50.5 41.5t-72.5 15.5q-32 0 -59 -16t-47.5 -42t-32 -60.5
t-11.5 -71.5zM438 699q-5 -10 -21.5 -11t-38.5 3.5t-47 13t-47.5 17.5t-40 17t-24.5 11q-24 11 -33.5 33t-1.5 42q11 20 35 26t46 -8q7 -4 24 -13.5t38 -22t43 -27.5t39 -29.5t25.5 -28t3.5 -23.5z" />
    <glyph glyph-name="uni1EDD" unicode="&#x1edd;" 
d="M516 546q23 -11 30 -39.5t-7 -57.5q-12 -22 -28 -38.5t-34.5 -26t-38.5 -10t-38 8.5q-8 5 -17 13t0 25q4 8 10 10.5t12 3.5t12 3t10 9q4 9 1 15t-7.5 13t-5.5 17t8 28q6 10 15 18.5t21 13t26.5 4t30.5 -9.5zM237 503q59 0 107.5 -20t83.5 -57t54.5 -88t19.5 -113
q0 -46 -16 -88.5t-46 -75t-72 -52t-94 -19.5q-59 0 -106 19.5t-80 55.5t-50.5 86.5t-17.5 111.5q0 48 15.5 91.5t43.5 76.5t68 52.5t90 19.5zM253 392q-24 0 -43 -11.5t-31.5 -30t-19.5 -43t-7 -50.5q0 -30 7.5 -58t22.5 -49.5t38 -34.5t53 -13q26 0 44.5 11t30 29t17 40.5
t5.5 45.5q0 37 -9.5 67.5t-25 52t-37 33t-45.5 11.5zM384 531q-5 -10 -21.5 -11t-38.5 3.5t-47 13t-47.5 17.5t-40 17t-24.5 11q-24 11 -33.5 33t-1.5 42q11 20 35 26t46 -8q7 -4 24 -13.5t38 -22t43 -27.5t39 -29.5t25.5 -28t3.5 -23.5z" />
    <glyph glyph-name="uni1EDE" unicode="&#x1ede;" horiz-adv-x="633" 
d="M399 887q29 0 50 -23.5t21 -56.5q0 -26 -7.5 -49t-21 -40.5t-32 -27.5t-40.5 -10q-11 0 -23.5 3.5t-12.5 22.5q0 9 4.5 14.5t10.5 9.5t10.5 8.5t4.5 13.5q0 10 -6 14t-13.5 8t-13.5 12.5t-6 29.5q0 25 18.5 48t56.5 23zM621 672q25 -10 34.5 -40.5t-4.5 -62.5
q-23 -50 -62.5 -74.5t-80.5 -7.5l-10 6t-9 7.5t-5 11.5t3 16t10 11.5t13 4t13 4.5t9 11q4 10 0 16t-8.5 13t-6.5 18t7 31q5 11 14.5 20.5t22 15.5t28 6.5t32.5 -7.5zM8 312q0 71 21 128.5t60 98.5t95.5 63.5t127.5 22.5t128 -21.5t96.5 -62t61 -97.5t21.5 -128t-20 -130.5
t-58 -103t-93 -68t-126 -24.5t-129 23.5t-99 66.5t-63.5 102t-22.5 130zM158 312q0 -83 40.5 -134t123.5 -51q42 0 70 16t45.5 42.5t25 60.5t7.5 70t-9.5 69.5t-29.5 59.5t-50.5 41.5t-72.5 15.5q-32 0 -59 -16t-47.5 -42t-32 -60.5t-11.5 -71.5z" />
    <glyph glyph-name="uni1EDF" unicode="&#x1edf;" 
d="M309 758q29 0 50 -23.5t21 -56.5q0 -26 -7.5 -49t-21 -40.5t-32 -27.5t-40.5 -10q-11 0 -23.5 3.5t-12.5 22.5q0 9 4.5 14.5t10.5 9.5t10.5 8.5t4.5 13.5q0 10 -6 14t-13.5 8t-13.5 12.5t-6 29.5q0 25 18.5 48t56.5 23zM516 546q23 -11 30 -39.5t-7 -57.5
q-12 -22 -28 -38.5t-34.5 -26t-38.5 -10t-38 8.5q-8 5 -17 13t0 25q4 8 10 10.5t12 3.5t12 3t10 9q4 9 1 15t-7.5 13t-5.5 17t8 28q6 10 15 18.5t21 13t26.5 4t30.5 -9.5zM237 503q59 0 107.5 -20t83.5 -57t54.5 -88t19.5 -113q0 -46 -16 -88.5t-46 -75t-72 -52t-94 -19.5
q-59 0 -106 19.5t-80 55.5t-50.5 86.5t-17.5 111.5q0 48 15.5 91.5t43.5 76.5t68 52.5t90 19.5zM253 392q-24 0 -43 -11.5t-31.5 -30t-19.5 -43t-7 -50.5q0 -30 7.5 -58t22.5 -49.5t38 -34.5t53 -13q26 0 44.5 11t30 29t17 40.5t5.5 45.5q0 37 -9.5 67.5t-25 52t-37 33
t-45.5 11.5z" />
    <glyph glyph-name="uni1EE0" unicode="&#x1ee0;" horiz-adv-x="633" 
d="M621 672q25 -10 34.5 -40.5t-4.5 -62.5q-23 -50 -62.5 -74.5t-80.5 -7.5l-10 6t-9 7.5t-5 11.5t3 16t10 11.5t13 4t13 4.5t9 11q4 10 0 16t-8.5 13t-6.5 18t7 31q5 11 14.5 20.5t22 15.5t28 6.5t32.5 -7.5zM8 312q0 71 21 128.5t60 98.5t95.5 63.5t127.5 22.5t128 -21.5
t96.5 -62t61 -97.5t21.5 -128t-20 -130.5t-58 -103t-93 -68t-126 -24.5t-129 23.5t-99 66.5t-63.5 102t-22.5 130zM158 312q0 -83 40.5 -134t123.5 -51q42 0 70 16t45.5 42.5t25 60.5t7.5 70t-9.5 69.5t-29.5 59.5t-50.5 41.5t-72.5 15.5q-32 0 -59 -16t-47.5 -42t-32 -60.5
t-11.5 -71.5zM203 722q-19 -17 -38.5 -16.5t-31.5 12t-13.5 30.5t14.5 39q29 32 65 45t78 2q31 -9 52 -20t38.5 -16t35 2t41.5 34q19 12 36.5 11t28 -11.5t13 -27.5t-8.5 -37q-11 -11 -22 -23t-24 -21q-18 -13 -38 -18t-41 -4.5t-42 5.5t-40 13t-36.5 15t-37.5 9
q-11 -3 -16 -8.5t-13 -14.5z" />
    <glyph glyph-name="uni1EE1" unicode="&#x1ee1;" 
d="M516 546q23 -11 30 -39.5t-7 -57.5q-12 -22 -28 -38.5t-34.5 -26t-38.5 -10t-38 8.5q-8 5 -17 13t0 25q4 8 10 10.5t12 3.5t12 3t10 9q4 9 1 15t-7.5 13t-5.5 17t8 28q6 10 15 18.5t21 13t26.5 4t30.5 -9.5zM237 503q59 0 107.5 -20t83.5 -57t54.5 -88t19.5 -113
q0 -46 -16 -88.5t-46 -75t-72 -52t-94 -19.5q-59 0 -106 19.5t-80 55.5t-50.5 86.5t-17.5 111.5q0 48 15.5 91.5t43.5 76.5t68 52.5t90 19.5zM253 392q-24 0 -43 -11.5t-31.5 -30t-19.5 -43t-7 -50.5q0 -30 7.5 -58t22.5 -49.5t38 -34.5t53 -13q26 0 44.5 11t30 29t17 40.5
t5.5 45.5q0 37 -9.5 67.5t-25 52t-37 33t-45.5 11.5zM149 554q-19 -17 -38.5 -16.5t-31.5 12t-13.5 30.5t14.5 39q29 32 65 45t78 2q31 -9 52 -20t38.5 -16t35 2t41.5 34q19 12 36.5 11t28 -11.5t13 -27.5t-8.5 -37q-11 -11 -22 -23t-24 -21q-18 -13 -38 -18t-41 -4.5
t-42 5.5t-40 13t-36.5 15t-37.5 9q-11 -3 -16 -8.5t-13 -14.5z" />
    <glyph glyph-name="uni1EE2" unicode="&#x1ee2;" horiz-adv-x="633" 
d="M254 -114q0 28 19 47.5t47 19.5t47.5 -19.5t19.5 -47.5t-19.5 -47t-47.5 -19t-47 19t-19 47zM621 672q25 -10 34.5 -40.5t-4.5 -62.5q-23 -50 -62.5 -74.5t-80.5 -7.5l-10 6t-9 7.5t-5 11.5t3 16t10 11.5t13 4t13 4.5t9 11q4 10 0 16t-8.5 13t-6.5 18t7 31
q5 11 14.5 20.5t22 15.5t28 6.5t32.5 -7.5zM8 312q0 71 21 128.5t60 98.5t95.5 63.5t127.5 22.5t128 -21.5t96.5 -62t61 -97.5t21.5 -128t-20 -130.5t-58 -103t-93 -68t-126 -24.5t-129 23.5t-99 66.5t-63.5 102t-22.5 130zM158 312q0 -83 40.5 -134t123.5 -51q42 0 70 16
t45.5 42.5t25 60.5t7.5 70t-9.5 69.5t-29.5 59.5t-50.5 41.5t-72.5 15.5q-32 0 -59 -16t-47.5 -42t-32 -60.5t-11.5 -71.5z" />
    <glyph glyph-name="uni1EE3" unicode="&#x1ee3;" 
d="M210 -114q0 28 19 47.5t47 19.5t47.5 -19.5t19.5 -47.5t-19.5 -47t-47.5 -19t-47 19t-19 47zM516 546q23 -11 30 -39.5t-7 -57.5q-12 -22 -28 -38.5t-34.5 -26t-38.5 -10t-38 8.5q-8 5 -17 13t0 25q4 8 10 10.5t12 3.5t12 3t10 9q4 9 1 15t-7.5 13t-5.5 17t8 28
q6 10 15 18.5t21 13t26.5 4t30.5 -9.5zM237 503q59 0 107.5 -20t83.5 -57t54.5 -88t19.5 -113q0 -46 -16 -88.5t-46 -75t-72 -52t-94 -19.5q-59 0 -106 19.5t-80 55.5t-50.5 86.5t-17.5 111.5q0 48 15.5 91.5t43.5 76.5t68 52.5t90 19.5zM253 392q-24 0 -43 -11.5t-31.5 -30
t-19.5 -43t-7 -50.5q0 -30 7.5 -58t22.5 -49.5t38 -34.5t53 -13q26 0 44.5 11t30 29t17 40.5t5.5 45.5q0 37 -9.5 67.5t-25 52t-37 33t-45.5 11.5z" />
    <glyph glyph-name="uni1EE4" unicode="&#x1ee4;" horiz-adv-x="588" 
d="M254 -114q0 28 19 47.5t47 19.5t47.5 -19.5t19.5 -47.5t-19.5 -47t-47.5 -19t-47 19t-19 47zM132 675q11 0 24 -3t24 -9.5t18 -16t7 -22.5t-5.5 -50t-12.5 -84.5t-12.5 -99t-5.5 -93.5q0 -32 7 -64.5t23 -58.5t43 -43t66 -17q35 0 58 15.5t36.5 41t18.5 58.5t5 68
q0 40 -7 81t-15.5 78t-15.5 68t-7 51t7 33.5t18 21.5t23.5 11.5t23.5 3.5q19 0 37 -11.5t26 -37.5q9 -32 18.5 -73.5t17 -84.5t12 -83.5t4.5 -68.5q0 -54 -13 -107t-43 -94.5t-80 -67.5t-124 -26q-75 0 -129 23t-89 63.5t-52 97t-17 122.5q0 39 4.5 84t11 90t13.5 86t12 72
q3 17 24 31.5t46 14.5z" />
    <glyph glyph-name="uni1EE5" unicode="&#x1ee5;" horiz-adv-x="490" 
d="M210 -114q0 28 19 47.5t47 19.5t47.5 -19.5t19.5 -47.5t-19.5 -47t-47.5 -19t-47 19t-19 47zM346 125q-14 -44 -34 -70.5t-44 -41t-50.5 -19.5t-53.5 -5q-46 0 -76 18.5t-47 49.5t-24 71.5t-7 84.5q0 75 13 134.5t26 103.5q9 31 28 41t39 10q29 0 43 -15.5t14 -38.5
q0 -6 -5 -30t-11 -57.5t-11 -72t-5 -74.5q0 -54 14.5 -75.5t43.5 -21.5q43 0 71.5 50.5t28.5 147.5q0 40 -4 72.5t-4 46.5q0 24 20 41t48 17q21 0 38.5 -13.5t20.5 -34.5q2 -15 6.5 -42t9.5 -61t10.5 -72.5t11.5 -74.5t10.5 -67.5t8.5 -52.5q2 -9 2.5 -17.5t0.5 -12.5
q0 -31 -17.5 -43.5t-37.5 -12.5q-23 0 -36 10.5t-20 29t-11 43.5t-10 54z" />
    <glyph glyph-name="uni1EE6" unicode="&#x1ee6;" horiz-adv-x="588" 
d="M366 887q29 0 50 -23.5t21 -56.5q0 -26 -7.5 -49t-21 -40.5t-32 -27.5t-40.5 -10q-11 0 -23.5 3.5t-12.5 22.5q0 9 4.5 14.5t10.5 9.5t10.5 8.5t4.5 13.5q0 10 -6 14t-13.5 8t-13.5 12.5t-6 29.5q0 25 18.5 48t56.5 23zM132 675q11 0 24 -3t24 -9.5t18 -16t7 -22.5
t-5.5 -50t-12.5 -84.5t-12.5 -99t-5.5 -93.5q0 -32 7 -64.5t23 -58.5t43 -43t66 -17q35 0 58 15.5t36.5 41t18.5 58.5t5 68q0 40 -7 81t-15.5 78t-15.5 68t-7 51t7 33.5t18 21.5t23.5 11.5t23.5 3.5q19 0 37 -11.5t26 -37.5q9 -32 18.5 -73.5t17 -84.5t12 -83.5t4.5 -68.5
q0 -54 -13 -107t-43 -94.5t-80 -67.5t-124 -26q-75 0 -129 23t-89 63.5t-52 97t-17 122.5q0 39 4.5 84t11 90t13.5 86t12 72q3 17 24 31.5t46 14.5z" />
    <glyph glyph-name="uni1EE7" unicode="&#x1ee7;" horiz-adv-x="490" 
d="M307 732q29 0 50 -23.5t21 -56.5q0 -26 -7.5 -49t-21 -40.5t-32 -27.5t-40.5 -10q-11 0 -23.5 3.5t-12.5 22.5q0 9 4.5 14.5t10.5 9.5t10.5 8.5t4.5 13.5q0 10 -6 14t-13.5 8t-13.5 12.5t-6 29.5q0 25 18.5 48t56.5 23zM346 125q-14 -44 -34 -70.5t-44 -41t-50.5 -19.5
t-53.5 -5q-46 0 -76 18.5t-47 49.5t-24 71.5t-7 84.5q0 75 13 134.5t26 103.5q9 31 28 41t39 10q29 0 43 -15.5t14 -38.5q0 -6 -5 -30t-11 -57.5t-11 -72t-5 -74.5q0 -54 14.5 -75.5t43.5 -21.5q43 0 71.5 50.5t28.5 147.5q0 40 -4 72.5t-4 46.5q0 24 20 41t48 17
q21 0 38.5 -13.5t20.5 -34.5q2 -15 6.5 -42t9.5 -61t10.5 -72.5t11.5 -74.5t10.5 -67.5t8.5 -52.5q2 -9 2.5 -17.5t0.5 -12.5q0 -31 -17.5 -43.5t-37.5 -12.5q-23 0 -36 10.5t-20 29t-11 43.5t-10 54z" />
    <glyph glyph-name="uni1EE8" unicode="&#x1ee8;" horiz-adv-x="588" 
d="M631 672q25 -10 34.5 -40.5t-4.5 -62.5q-23 -50 -62.5 -74.5t-80.5 -7.5l-10 6t-9 7.5t-5 11.5t3 16t10 11.5t13 4t13 4.5t9 11q4 10 0 16t-8.5 13t-6.5 18t7 31q5 11 14.5 20.5t22 15.5t28 6.5t32.5 -7.5zM132 675q11 0 24 -3t24 -9.5t18 -16t7 -22.5t-5.5 -50
t-12.5 -84.5t-12.5 -99t-5.5 -93.5q0 -32 7 -64.5t23 -58.5t43 -43t66 -17q35 0 58 15.5t36.5 41t18.5 58.5t5 68q0 40 -7 81t-15.5 78t-15.5 68t-7 51t7 33.5t18 21.5t23.5 11.5t23.5 3.5q19 0 37 -11.5t26 -37.5q9 -32 18.5 -73.5t17 -84.5t12 -83.5t4.5 -68.5
q0 -54 -13 -107t-43 -94.5t-80 -67.5t-124 -26q-75 0 -129 23t-89 63.5t-52 97t-17 122.5q0 39 4.5 84t11 90t13.5 86t12 72q3 17 24 31.5t46 14.5zM263 699q-5 10 3.5 23.5t25.5 28t39 29.5t43 27.5t38 22t24 13.5q22 14 46 8t35 -26q8 -20 -1.5 -42t-33.5 -33
q-7 -3 -24.5 -11t-40 -17t-47.5 -17.5t-47 -13t-38.5 -3.5t-21.5 11z" />
    <glyph glyph-name="uni1EE9" unicode="&#x1ee9;" horiz-adv-x="490" 
d="M516 546q23 -11 30 -39.5t-7 -57.5q-12 -22 -28 -38.5t-34.5 -26t-38.5 -10t-38 8.5q-8 5 -17 13t0 25q4 8 10 10.5t12 3.5t12 3t10 9q4 9 1 15t-7.5 13t-5.5 17t8 28q6 10 15 18.5t21 13t26.5 4t30.5 -9.5zM346 125q-14 -44 -34 -70.5t-44 -41t-50.5 -19.5t-53.5 -5
q-46 0 -76 18.5t-47 49.5t-24 71.5t-7 84.5q0 75 13 134.5t26 103.5q9 31 28 41t39 10q29 0 43 -15.5t14 -38.5q0 -6 -5 -30t-11 -57.5t-11 -72t-5 -74.5q0 -54 14.5 -75.5t43.5 -21.5q43 0 71.5 50.5t28.5 147.5q0 40 -4 72.5t-4 46.5q0 24 20 41t48 17q21 0 38.5 -13.5
t20.5 -34.5q2 -15 6.5 -42t9.5 -61t10.5 -72.5t11.5 -74.5t10.5 -67.5t8.5 -52.5q2 -9 2.5 -17.5t0.5 -12.5q0 -31 -17.5 -43.5t-37.5 -12.5q-23 0 -36 10.5t-20 29t-11 43.5t-10 54zM188 531q-5 10 3.5 23.5t25.5 28t39 29.5t43 27.5t38 22t24 13.5q22 14 46 8t35 -26
q8 -20 -1.5 -42t-33.5 -33q-7 -3 -24.5 -11t-40 -17t-47.5 -17.5t-47 -13t-38.5 -3.5t-21.5 11z" />
    <glyph glyph-name="uni1EEA" unicode="&#x1eea;" horiz-adv-x="588" 
d="M631 672q25 -10 34.5 -40.5t-4.5 -62.5q-23 -50 -62.5 -74.5t-80.5 -7.5l-10 6t-9 7.5t-5 11.5t3 16t10 11.5t13 4t13 4.5t9 11q4 10 0 16t-8.5 13t-6.5 18t7 31q5 11 14.5 20.5t22 15.5t28 6.5t32.5 -7.5zM132 675q11 0 24 -3t24 -9.5t18 -16t7 -22.5t-5.5 -50
t-12.5 -84.5t-12.5 -99t-5.5 -93.5q0 -32 7 -64.5t23 -58.5t43 -43t66 -17q35 0 58 15.5t36.5 41t18.5 58.5t5 68q0 40 -7 81t-15.5 78t-15.5 68t-7 51t7 33.5t18 21.5t23.5 11.5t23.5 3.5q19 0 37 -11.5t26 -37.5q9 -32 18.5 -73.5t17 -84.5t12 -83.5t4.5 -68.5
q0 -54 -13 -107t-43 -94.5t-80 -67.5t-124 -26q-75 0 -129 23t-89 63.5t-52 97t-17 122.5q0 39 4.5 84t11 90t13.5 86t12 72q3 17 24 31.5t46 14.5zM416 699q-5 -10 -21.5 -11t-38.5 3.5t-47 13t-47.5 17.5t-40 17t-24.5 11q-24 11 -33.5 33t-1.5 42q11 20 35 26t46 -8
q7 -4 24 -13.5t38 -22t43 -27.5t39 -29.5t25.5 -28t3.5 -23.5z" />
    <glyph glyph-name="uni1EEB" unicode="&#x1eeb;" horiz-adv-x="490" 
d="M516 546q23 -11 30 -39.5t-7 -57.5q-12 -22 -28 -38.5t-34.5 -26t-38.5 -10t-38 8.5q-8 5 -17 13t0 25q4 8 10 10.5t12 3.5t12 3t10 9q4 9 1 15t-7.5 13t-5.5 17t8 28q6 10 15 18.5t21 13t26.5 4t30.5 -9.5zM346 125q-14 -44 -34 -70.5t-44 -41t-50.5 -19.5t-53.5 -5
q-46 0 -76 18.5t-47 49.5t-24 71.5t-7 84.5q0 75 13 134.5t26 103.5q9 31 28 41t39 10q29 0 43 -15.5t14 -38.5q0 -6 -5 -30t-11 -57.5t-11 -72t-5 -74.5q0 -54 14.5 -75.5t43.5 -21.5q43 0 71.5 50.5t28.5 147.5q0 40 -4 72.5t-4 46.5q0 24 20 41t48 17q21 0 38.5 -13.5
t20.5 -34.5q2 -15 6.5 -42t9.5 -61t10.5 -72.5t11.5 -74.5t10.5 -67.5t8.5 -52.5q2 -9 2.5 -17.5t0.5 -12.5q0 -31 -17.5 -43.5t-37.5 -12.5q-23 0 -36 10.5t-20 29t-11 43.5t-10 54zM367 531q-5 -10 -21.5 -11t-38.5 3.5t-47 13t-47.5 17.5t-40 17t-24.5 11
q-24 11 -33.5 33t-1.5 42q11 20 35 26t46 -8q7 -4 24 -13.5t38 -22t43 -27.5t39 -29.5t25.5 -28t3.5 -23.5z" />
    <glyph glyph-name="uni1EEC" unicode="&#x1eec;" horiz-adv-x="588" 
d="M366 897q29 0 50 -23.5t21 -56.5q0 -26 -7.5 -49t-21 -40.5t-32 -27.5t-40.5 -10q-11 0 -23.5 3.5t-12.5 22.5q0 9 4.5 14.5t10.5 9.5t10.5 8.5t4.5 13.5q0 10 -6 14t-13.5 8t-13.5 12.5t-6 29.5q0 25 18.5 48t56.5 23zM631 672q25 -10 34.5 -40.5t-4.5 -62.5
q-23 -50 -62.5 -74.5t-80.5 -7.5l-10 6t-9 7.5t-5 11.5t3 16t10 11.5t13 4t13 4.5t9 11q4 10 0 16t-8.5 13t-6.5 18t7 31q5 11 14.5 20.5t22 15.5t28 6.5t32.5 -7.5zM132 675q11 0 24 -3t24 -9.5t18 -16t7 -22.5t-5.5 -50t-12.5 -84.5t-12.5 -99t-5.5 -93.5q0 -32 7 -64.5
t23 -58.5t43 -43t66 -17q35 0 58 15.5t36.5 41t18.5 58.5t5 68q0 40 -7 81t-15.5 78t-15.5 68t-7 51t7 33.5t18 21.5t23.5 11.5t23.5 3.5q19 0 37 -11.5t26 -37.5q9 -32 18.5 -73.5t17 -84.5t12 -83.5t4.5 -68.5q0 -54 -13 -107t-43 -94.5t-80 -67.5t-124 -26q-75 0 -129 23
t-89 63.5t-52 97t-17 122.5q0 39 4.5 84t11 90t13.5 86t12 72q3 17 24 31.5t46 14.5z" />
    <glyph glyph-name="uni1EED" unicode="&#x1eed;" horiz-adv-x="490" 
d="M307 732q29 0 50 -23.5t21 -56.5q0 -26 -7.5 -49t-21 -40.5t-32 -27.5t-40.5 -10q-11 0 -23.5 3.5t-12.5 22.5q0 9 4.5 14.5t10.5 9.5t10.5 8.5t4.5 13.5q0 10 -6 14t-13.5 8t-13.5 12.5t-6 29.5q0 25 18.5 48t56.5 23zM516 546q23 -11 30 -39.5t-7 -57.5
q-12 -22 -28 -38.5t-34.5 -26t-38.5 -10t-38 8.5q-8 5 -17 13t0 25q4 8 10 10.5t12 3.5t12 3t10 9q4 9 1 15t-7.5 13t-5.5 17t8 28q6 10 15 18.5t21 13t26.5 4t30.5 -9.5zM346 125q-14 -44 -34 -70.5t-44 -41t-50.5 -19.5t-53.5 -5q-46 0 -76 18.5t-47 49.5t-24 71.5
t-7 84.5q0 75 13 134.5t26 103.5q9 31 28 41t39 10q29 0 43 -15.5t14 -38.5q0 -6 -5 -30t-11 -57.5t-11 -72t-5 -74.5q0 -54 14.5 -75.5t43.5 -21.5q43 0 71.5 50.5t28.5 147.5q0 40 -4 72.5t-4 46.5q0 24 20 41t48 17q21 0 38.5 -13.5t20.5 -34.5q2 -15 6.5 -42t9.5 -61
t10.5 -72.5t11.5 -74.5t10.5 -67.5t8.5 -52.5q2 -9 2.5 -17.5t0.5 -12.5q0 -31 -17.5 -43.5t-37.5 -12.5q-23 0 -36 10.5t-20 29t-11 43.5t-10 54z" />
    <glyph glyph-name="uni1EEE" unicode="&#x1eee;" horiz-adv-x="588" 
d="M631 672q25 -10 34.5 -40.5t-4.5 -62.5q-23 -50 -62.5 -74.5t-80.5 -7.5l-10 6t-9 7.5t-5 11.5t3 16t10 11.5t13 4t13 4.5t9 11q4 10 0 16t-8.5 13t-6.5 18t7 31q5 11 14.5 20.5t22 15.5t28 6.5t32.5 -7.5zM132 675q11 0 24 -3t24 -9.5t18 -16t7 -22.5t-5.5 -50
t-12.5 -84.5t-12.5 -99t-5.5 -93.5q0 -32 7 -64.5t23 -58.5t43 -43t66 -17q35 0 58 15.5t36.5 41t18.5 58.5t5 68q0 40 -7 81t-15.5 78t-15.5 68t-7 51t7 33.5t18 21.5t23.5 11.5t23.5 3.5q19 0 37 -11.5t26 -37.5q9 -32 18.5 -73.5t17 -84.5t12 -83.5t4.5 -68.5
q0 -54 -13 -107t-43 -94.5t-80 -67.5t-124 -26q-75 0 -129 23t-89 63.5t-52 97t-17 122.5q0 39 4.5 84t11 90t13.5 86t12 72q3 17 24 31.5t46 14.5zM180 722q-19 -17 -38.5 -16.5t-31.5 12t-13.5 30.5t14.5 39q29 32 65 45t78 2q31 -9 52 -20t38.5 -16t35 2t41.5 34
q19 12 36.5 11t28 -11.5t13 -27.5t-8.5 -37q-11 -11 -22 -23t-24 -21q-18 -13 -38 -18t-41 -4.5t-42 5.5t-40 13t-36.5 15t-37.5 9q-11 -3 -16 -8.5t-13 -14.5z" />
    <glyph glyph-name="uni1EEF" unicode="&#x1eef;" horiz-adv-x="490" 
d="M516 546q23 -11 30 -39.5t-7 -57.5q-12 -22 -28 -38.5t-34.5 -26t-38.5 -10t-38 8.5q-8 5 -17 13t0 25q4 8 10 10.5t12 3.5t12 3t10 9q4 9 1 15t-7.5 13t-5.5 17t8 28q6 10 15 18.5t21 13t26.5 4t30.5 -9.5zM346 125q-14 -44 -34 -70.5t-44 -41t-50.5 -19.5t-53.5 -5
q-46 0 -76 18.5t-47 49.5t-24 71.5t-7 84.5q0 75 13 134.5t26 103.5q9 31 28 41t39 10q29 0 43 -15.5t14 -38.5q0 -6 -5 -30t-11 -57.5t-11 -72t-5 -74.5q0 -54 14.5 -75.5t43.5 -21.5q43 0 71.5 50.5t28.5 147.5q0 40 -4 72.5t-4 46.5q0 24 20 41t48 17q21 0 38.5 -13.5
t20.5 -34.5q2 -15 6.5 -42t9.5 -61t10.5 -72.5t11.5 -74.5t10.5 -67.5t8.5 -52.5q2 -9 2.5 -17.5t0.5 -12.5q0 -31 -17.5 -43.5t-37.5 -12.5q-23 0 -36 10.5t-20 29t-11 43.5t-10 54zM131 554q-19 -17 -38.5 -16.5t-31.5 12t-13.5 30.5t14.5 39q29 32 65 45t78 2
q31 -9 52 -20t38.5 -16t35 2t41.5 34q19 12 36.5 11t28 -11.5t13 -27.5t-8.5 -37q-11 -11 -22 -23t-24 -21q-18 -13 -38 -18t-41 -4.5t-42 5.5t-40 13t-36.5 15t-37.5 9q-11 -3 -16 -8.5t-13 -14.5z" />
    <glyph glyph-name="uni1EF0" unicode="&#x1ef0;" horiz-adv-x="588" 
d="M254 -114q0 28 19 47.5t47 19.5t47.5 -19.5t19.5 -47.5t-19.5 -47t-47.5 -19t-47 19t-19 47zM631 672q25 -10 34.5 -40.5t-4.5 -62.5q-23 -50 -62.5 -74.5t-80.5 -7.5l-10 6t-9 7.5t-5 11.5t3 16t10 11.5t13 4t13 4.5t9 11q4 10 0 16t-8.5 13t-6.5 18t7 31
q5 11 14.5 20.5t22 15.5t28 6.5t32.5 -7.5zM132 675q11 0 24 -3t24 -9.5t18 -16t7 -22.5t-5.5 -50t-12.5 -84.5t-12.5 -99t-5.5 -93.5q0 -32 7 -64.5t23 -58.5t43 -43t66 -17q35 0 58 15.5t36.5 41t18.5 58.5t5 68q0 40 -7 81t-15.5 78t-15.5 68t-7 51t7 33.5t18 21.5
t23.5 11.5t23.5 3.5q19 0 37 -11.5t26 -37.5q9 -32 18.5 -73.5t17 -84.5t12 -83.5t4.5 -68.5q0 -54 -13 -107t-43 -94.5t-80 -67.5t-124 -26q-75 0 -129 23t-89 63.5t-52 97t-17 122.5q0 39 4.5 84t11 90t13.5 86t12 72q3 17 24 31.5t46 14.5z" />
    <glyph glyph-name="uni1EF1" unicode="&#x1ef1;" horiz-adv-x="490" 
d="M210 -114q0 28 19 47.5t47 19.5t47.5 -19.5t19.5 -47.5t-19.5 -47t-47.5 -19t-47 19t-19 47zM516 546q23 -11 30 -39.5t-7 -57.5q-12 -22 -28 -38.5t-34.5 -26t-38.5 -10t-38 8.5q-8 5 -17 13t0 25q4 8 10 10.5t12 3.5t12 3t10 9q4 9 1 15t-7.5 13t-5.5 17t8 28
q6 10 15 18.5t21 13t26.5 4t30.5 -9.5zM346 125q-14 -44 -34 -70.5t-44 -41t-50.5 -19.5t-53.5 -5q-46 0 -76 18.5t-47 49.5t-24 71.5t-7 84.5q0 75 13 134.5t26 103.5q9 31 28 41t39 10q29 0 43 -15.5t14 -38.5q0 -6 -5 -30t-11 -57.5t-11 -72t-5 -74.5q0 -54 14.5 -75.5
t43.5 -21.5q43 0 71.5 50.5t28.5 147.5q0 40 -4 72.5t-4 46.5q0 24 20 41t48 17q21 0 38.5 -13.5t20.5 -34.5q2 -15 6.5 -42t9.5 -61t10.5 -72.5t11.5 -74.5t10.5 -67.5t8.5 -52.5q2 -9 2.5 -17.5t0.5 -12.5q0 -31 -17.5 -43.5t-37.5 -12.5q-23 0 -36 10.5t-20 29t-11 43.5
t-10 54z" />
    <glyph glyph-name="Ygrave" unicode="&#x1ef2;" horiz-adv-x="522" 
d="M189 71q0 34 -0.5 55t-1.5 35.5t-2.5 25t-2.5 25.5q-8 23 -22.5 50t-31.5 55.5t-34.5 58t-32.5 56.5q-26 49 -44.5 81t-18.5 57q0 27 17.5 42.5t37.5 15.5q14 0 24.5 -3.5t20 -11.5t19 -21.5t21.5 -32.5q11 -20 30.5 -52.5t38.5 -64.5q22 -37 46 -77q31 48 59 95
q24 40 49 83t40 73q8 17 24.5 32t43.5 15q22 0 40 -14t18 -34q0 -8 -2.5 -17t-6 -17t-6.5 -14.5t-4 -9.5q-22 -49 -44.5 -87.5t-46 -75.5t-48 -78t-48.5 -96q2 -27 4 -63.5t2 -77.5q0 -28 -6 -45.5t-16 -28t-23 -14.5t-27 -4q-29 0 -47.5 21t-18.5 63zM383 699
q-5 -10 -21.5 -11t-38.5 3.5t-47 13t-47.5 17.5t-40 17t-24.5 11q-24 11 -33.5 33t-1.5 42q11 20 35 26t46 -8q7 -4 24 -13.5t38 -22t43 -27.5t39 -29.5t25.5 -28t3.5 -23.5z" />
    <glyph glyph-name="ygrave" unicode="&#x1ef3;" horiz-adv-x="505" 
d="M271 421q-4 13 -4 26q0 32 19.5 45.5t42.5 13.5q21 0 39.5 -9.5t23.5 -26.5q33 -104 54 -180.5t33 -136t17 -107t5 -92.5q0 -121 -63.5 -192t-194.5 -71q-45 0 -79 9t-57 23.5t-34.5 31.5t-11.5 33q0 12 5 20t12.5 13t16.5 7.5t16 2.5q13 0 27 -3.5t29.5 -8t31 -8
t31.5 -3.5q45 0 73 12t44.5 32.5t22.5 48.5t6 60q0 21 -1 39t-4.5 40.5t-10 53.5t-18.5 76q-12 -47 -25.5 -82.5t-34.5 -59.5t-52 -36.5t-77 -12.5q-37 0 -63.5 14t-44 38.5t-25.5 56.5t-8 68q0 23 0.5 60t1.5 77t3 76t5 57q6 41 26 55.5t43 14.5q25 0 40 -18t15 -38
q0 -10 -2 -36.5t-4.5 -59.5t-4.5 -68t-2 -61q0 -51 14.5 -77.5t31.5 -26.5q15 0 33 13t33.5 40.5t25.5 69.5t10 100v32t-1 17t-3 14t-6 24zM374 531q-5 -10 -21.5 -11t-38.5 3.5t-47 13t-47.5 17.5t-40 17t-24.5 11q-24 11 -33.5 33t-1.5 42q11 20 35 26t46 -8
q7 -4 24 -13.5t38 -22t43 -27.5t39 -29.5t25.5 -28t3.5 -23.5z" />
    <glyph glyph-name="uni1EF4" unicode="&#x1ef4;" horiz-adv-x="522" 
d="M186 -114q0 28 19 47.5t47 19.5t47.5 -19.5t19.5 -47.5t-19.5 -47t-47.5 -19t-47 19t-19 47zM189 71q0 34 -0.5 55t-1.5 35.5t-2.5 25t-2.5 25.5q-8 23 -22.5 50t-31.5 55.5t-34.5 58t-32.5 56.5q-26 49 -44.5 81t-18.5 57q0 27 17.5 42.5t37.5 15.5q14 0 24.5 -3.5
t20 -11.5t19 -21.5t21.5 -32.5q11 -20 30.5 -52.5t38.5 -64.5q22 -37 46 -77q31 48 59 95q24 40 49 83t40 73q8 17 24.5 32t43.5 15q22 0 40 -14t18 -34q0 -8 -2.5 -17t-6 -17t-6.5 -14.5t-4 -9.5q-22 -49 -44.5 -87.5t-46 -75.5t-48 -78t-48.5 -96q2 -27 4 -63.5t2 -77.5
q0 -28 -6 -45.5t-16 -28t-23 -14.5t-27 -4q-29 0 -47.5 21t-18.5 63z" />
    <glyph glyph-name="uni1EF5" unicode="&#x1ef5;" horiz-adv-x="505" 
d="M374 -351q0 28 19 47.5t47 19.5t47.5 -19.5t19.5 -47.5t-19.5 -47t-47.5 -19t-47 19t-19 47zM271 421q-4 13 -4 26q0 32 19.5 45.5t42.5 13.5q21 0 39.5 -9.5t23.5 -26.5q33 -104 54 -180.5t33 -136t17 -107t5 -92.5q0 -121 -63.5 -192t-194.5 -71q-45 0 -79 9t-57 23.5
t-34.5 31.5t-11.5 33q0 12 5 20t12.5 13t16.5 7.5t16 2.5q13 0 27 -3.5t29.5 -8t31 -8t31.5 -3.5q45 0 73 12t44.5 32.5t22.5 48.5t6 60q0 21 -1 39t-4.5 40.5t-10 53.5t-18.5 76q-12 -47 -25.5 -82.5t-34.5 -59.5t-52 -36.5t-77 -12.5q-37 0 -63.5 14t-44 38.5t-25.5 56.5
t-8 68q0 23 0.5 60t1.5 77t3 76t5 57q6 41 26 55.5t43 14.5q25 0 40 -18t15 -38q0 -10 -2 -36.5t-4.5 -59.5t-4.5 -68t-2 -61q0 -51 14.5 -77.5t31.5 -26.5q15 0 33 13t33.5 40.5t25.5 69.5t10 100v32t-1 17t-3 14t-6 24z" />
    <glyph glyph-name="uni1EF6" unicode="&#x1ef6;" horiz-adv-x="522" 
d="M295 897q29 0 50 -23.5t21 -56.5q0 -26 -7.5 -49t-21 -40.5t-32 -27.5t-40.5 -10q-11 0 -23.5 3.5t-12.5 22.5q0 9 4.5 14.5t10.5 9.5t10.5 8.5t4.5 13.5q0 10 -6 14t-13.5 8t-13.5 12.5t-6 29.5q0 25 18.5 48t56.5 23zM189 71q0 34 -0.5 55t-1.5 35.5t-2.5 25t-2.5 25.5
q-8 23 -22.5 50t-31.5 55.5t-34.5 58t-32.5 56.5q-26 49 -44.5 81t-18.5 57q0 27 17.5 42.5t37.5 15.5q14 0 24.5 -3.5t20 -11.5t19 -21.5t21.5 -32.5q11 -20 30.5 -52.5t38.5 -64.5q22 -37 46 -77q31 48 59 95q24 40 49 83t40 73q8 17 24.5 32t43.5 15q22 0 40 -14t18 -34
q0 -8 -2.5 -17t-6 -17t-6.5 -14.5t-4 -9.5q-22 -49 -44.5 -87.5t-46 -75.5t-48 -78t-48.5 -96q2 -27 4 -63.5t2 -77.5q0 -28 -6 -45.5t-16 -28t-23 -14.5t-27 -4q-29 0 -47.5 21t-18.5 63z" />
    <glyph glyph-name="uni1EF7" unicode="&#x1ef7;" horiz-adv-x="505" 
d="M258 732q29 0 50 -23.5t21 -56.5q0 -26 -7.5 -49t-21 -40.5t-32 -27.5t-40.5 -10q-11 0 -23.5 3.5t-12.5 22.5q0 9 4.5 14.5t10.5 9.5t10.5 8.5t4.5 13.5q0 10 -6 14t-13.5 8t-13.5 12.5t-6 29.5q0 25 18.5 48t56.5 23zM271 421q-4 13 -4 26q0 32 19.5 45.5t42.5 13.5
q21 0 39.5 -9.5t23.5 -26.5q33 -104 54 -180.5t33 -136t17 -107t5 -92.5q0 -121 -63.5 -192t-194.5 -71q-45 0 -79 9t-57 23.5t-34.5 31.5t-11.5 33q0 12 5 20t12.5 13t16.5 7.5t16 2.5q13 0 27 -3.5t29.5 -8t31 -8t31.5 -3.5q45 0 73 12t44.5 32.5t22.5 48.5t6 60
q0 21 -1 39t-4.5 40.5t-10 53.5t-18.5 76q-12 -47 -25.5 -82.5t-34.5 -59.5t-52 -36.5t-77 -12.5q-37 0 -63.5 14t-44 38.5t-25.5 56.5t-8 68q0 23 0.5 60t1.5 77t3 76t5 57q6 41 26 55.5t43 14.5q25 0 40 -18t15 -38q0 -10 -2 -36.5t-4.5 -59.5t-4.5 -68t-2 -61
q0 -51 14.5 -77.5t31.5 -26.5q15 0 33 13t33.5 40.5t25.5 69.5t10 100v32t-1 17t-3 14t-6 24z" />
    <glyph glyph-name="uni1EF8" unicode="&#x1ef8;" horiz-adv-x="522" 
d="M189 71q0 34 -0.5 55t-1.5 35.5t-2.5 25t-2.5 25.5q-8 23 -22.5 50t-31.5 55.5t-34.5 58t-32.5 56.5q-26 49 -44.5 81t-18.5 57q0 27 17.5 42.5t37.5 15.5q14 0 24.5 -3.5t20 -11.5t19 -21.5t21.5 -32.5q11 -20 30.5 -52.5t38.5 -64.5q22 -37 46 -77q31 48 59 95
q24 40 49 83t40 73q8 17 24.5 32t43.5 15q22 0 40 -14t18 -34q0 -8 -2.5 -17t-6 -17t-6.5 -14.5t-4 -9.5q-22 -49 -44.5 -87.5t-46 -75.5t-48 -78t-48.5 -96q2 -27 4 -63.5t2 -77.5q0 -28 -6 -45.5t-16 -28t-23 -14.5t-27 -4q-29 0 -47.5 21t-18.5 63zM147 722
q-19 -17 -38.5 -16.5t-31.5 12t-13.5 30.5t14.5 39q29 32 65 45t78 2q31 -9 52 -20t38.5 -16t35 2t41.5 34q19 12 36.5 11t28 -11.5t13 -27.5t-8.5 -37q-11 -11 -22 -23t-24 -21q-18 -13 -38 -18t-41 -4.5t-42 5.5t-40 13t-36.5 15t-37.5 9q-11 -3 -16 -8.5t-13 -14.5z" />
    <glyph glyph-name="uni1EF9" unicode="&#x1ef9;" horiz-adv-x="505" 
d="M271 421q-4 13 -4 26q0 32 19.5 45.5t42.5 13.5q21 0 39.5 -9.5t23.5 -26.5q33 -104 54 -180.5t33 -136t17 -107t5 -92.5q0 -121 -63.5 -192t-194.5 -71q-45 0 -79 9t-57 23.5t-34.5 31.5t-11.5 33q0 12 5 20t12.5 13t16.5 7.5t16 2.5q13 0 27 -3.5t29.5 -8t31 -8
t31.5 -3.5q45 0 73 12t44.5 32.5t22.5 48.5t6 60q0 21 -1 39t-4.5 40.5t-10 53.5t-18.5 76q-12 -47 -25.5 -82.5t-34.5 -59.5t-52 -36.5t-77 -12.5q-37 0 -63.5 14t-44 38.5t-25.5 56.5t-8 68q0 23 0.5 60t1.5 77t3 76t5 57q6 41 26 55.5t43 14.5q25 0 40 -18t15 -38
q0 -10 -2 -36.5t-4.5 -59.5t-4.5 -68t-2 -61q0 -51 14.5 -77.5t31.5 -26.5q15 0 33 13t33.5 40.5t25.5 69.5t10 100v32t-1 17t-3 14t-6 24zM139 554q-19 -17 -38.5 -16.5t-31.5 12t-13.5 30.5t14.5 39q29 32 65 45t78 2q31 -9 52 -20t38.5 -16t35 2t41.5 34q19 12 36.5 11
t28 -11.5t13 -27.5t-8.5 -37q-11 -11 -22 -23t-24 -21q-18 -13 -38 -18t-41 -4.5t-42 5.5t-40 13t-36.5 15t-37.5 9q-11 -3 -16 -8.5t-13 -14.5z" />
    <glyph glyph-name="endash" unicode="&#x2013;" horiz-adv-x="600" 
d="M22 244q0 25 17 43t43 19h437q26 0 44 -18t18 -44t-18 -44t-43 -18h-438q-26 0 -43 18t-17 44z" />
    <glyph glyph-name="emdash" unicode="&#x2014;" horiz-adv-x="871" 
d="M22 244q0 25 17 43t43 19h706q26 0 44 -18t18 -44t-18 -44t-43 -18h-707q-26 0 -43 18t-17 44z" />
    <glyph glyph-name="quoteleft" unicode="&#x2018;" horiz-adv-x="232" 
d="M112 455q-15 0 -28.5 6.5t-24 18t-16.5 27t-6 33.5q0 28 8 52.5t22 43t33.5 29.5t43.5 11q12 0 25.5 -4t13.5 -24q0 -10 -5 -15.5t-11 -10t-11 -9.5t-5 -14q0 -11 6.5 -15t14.5 -8.5t14.5 -14t6.5 -31.5q0 -13 -5 -26.5t-15 -24t-25 -17.5t-36 -7z" />
    <glyph glyph-name="quoteright" unicode="&#x2019;" horiz-adv-x="243" 
d="M128 676q15 0 28.5 -6.5t24 -18t16.5 -27t6 -33.5q0 -28 -8 -52.5t-22 -43t-33.5 -29.5t-43.5 -11q-12 0 -25.5 4t-13.5 24q0 10 5 15.5t11 10t11 9.5t5 14q0 11 -6.5 15t-14.5 8.5t-14.5 14t-6.5 31.5q0 13 5 26.5t15 24t25 17.5t36 7z" />
    <glyph glyph-name="quotesinglbase" unicode="&#x201a;" horiz-adv-x="284" 
d="M147 134q15 0 28.5 -6.5t24 -18t16.5 -27t6 -33.5q0 -28 -8 -52.5t-22 -43t-33.5 -29.5t-43.5 -11q-12 0 -25.5 4t-13.5 24q0 10 5 15.5t11 10t11 9.5t5 14q0 11 -6.5 15t-14.5 8.5t-14.5 14t-6.5 31.5q0 13 5 26.5t15 24t25 17.5t36 7z" />
    </font>
</defs>
</svg>
